<svg width="104" height="70" viewBox="0 0 104 70" fill="none" xmlns="http://www.w3.org/2000/svg">
<path d="M60.5608 44.1267V64.2281M72.9762 23.9453V64.229M48.1452 34.0332V64.2285M35.7933 44.1267V64.2281M23.3779 23.9453V64.229M10.9623 54.2158V64.229" stroke="url(#paint0_linear_341_109)" stroke-width="10.9166" stroke-linecap="round" stroke-linejoin="round"/>
<path d="M34.8394 54.395C35.5799 54.395 36.1801 55.2297 36.1801 56.2593C36.1801 57.2889 35.5799 58.1235 34.8394 58.1235C34.099 58.1235 33.4988 57.2889 33.4988 56.2593C33.4988 55.2297 34.099 54.395 34.8394 54.395Z" fill="url(#paint1_linear_341_109)"/>
<path d="M82.9891 61.7623H84.3868M91.3752 43.1838H82.9893H91.3752ZM91.3752 50.1014H82.9891H91.3752ZM82.9893 37.3535H88.5798H82.9893ZM82.9891 55.9319H88.5798H82.9891ZM82.9893 31.5229H84.3869H82.9893Z" stroke="white" stroke-width="3.86669" stroke-linecap="round" stroke-linejoin="round"/>
<path d="M60.2147 20.8727L46.549 13.3075C46.34 13.1916 46.1166 13.1342 45.8916 13.1385C45.6666 13.1428 45.4445 13.2087 45.2378 13.3325L31.7274 21.4205M88.7037 20.369L75.038 12.8041C74.829 12.6882 74.6057 12.6307 74.3807 12.635C74.1558 12.6392 73.9336 12.7051 73.727 12.8288L60.2164 20.9169L88.7037 20.369Z" stroke="white" stroke-width="1.1948" stroke-linecap="round" stroke-linejoin="round"/>
<path d="M46.4738 11.1171C47.3021 11.5756 47.7062 12.8809 47.3765 14.0326C47.0467 15.1843 46.108 15.7462 45.2798 15.2877C44.4516 14.8292 44.0474 13.5239 44.3772 12.3722C44.7069 11.2205 45.6456 10.6586 46.4738 11.1171Z" fill="white"/>
<path d="M32.1911 19.4853C33.0194 19.9437 33.4235 21.2491 33.0937 22.4007C32.764 23.5524 31.8253 24.1144 30.9971 23.6559C30.1688 23.1974 29.7647 21.8921 30.0945 20.7404C30.4242 19.5887 31.3629 19.0268 32.1911 19.4853Z" fill="white"/>
<path d="M60.6809 18.9818C61.5091 19.4403 61.9132 20.7456 61.5835 21.8973C61.2538 23.049 60.3151 23.6109 59.4868 23.1524C58.6586 22.694 58.2545 21.3886 58.5842 20.237C58.9139 19.0853 59.8526 18.5233 60.6809 18.9818Z" fill="white"/>
<path d="M74.9007 10.8334C75.7289 11.2919 76.1331 12.5972 75.8033 13.7489C75.4736 14.9006 74.5349 15.4625 73.7067 15.004C72.8784 14.5455 72.4743 13.2402 72.8041 12.0885C73.1338 10.9368 74.0725 10.3749 74.9007 10.8334Z" fill="white"/>
<path d="M89.2796 18.7782C90.1079 19.2367 90.512 20.542 90.1822 21.6937C89.8525 22.8454 88.9138 23.4073 88.0856 22.9488C87.2573 22.4903 86.8532 21.185 87.183 20.0333C87.5127 18.8817 88.4514 18.3197 89.2796 18.7782Z" fill="white"/>
<path fill-rule="evenodd" clip-rule="evenodd" d="M6.51825 35.8969H6.98974C7.1036 35.8969 7.19549 36.0257 7.19549 36.183V36.8384C7.19549 36.9969 7.10271 37.1245 6.98974 37.1245H6.51825C6.46375 37.1242 6.41153 37.094 6.37298 37.0404C6.33444 36.9868 6.3127 36.9142 6.3125 36.8384V36.183C6.31244 36.1454 6.31772 36.1081 6.32804 36.0734C6.33836 36.0386 6.35352 36.0071 6.37263 35.9805C6.39175 35.9539 6.41446 35.9328 6.43945 35.9185C6.46444 35.9041 6.49122 35.8968 6.51825 35.8969V35.8969ZM8.15256 35.8969H8.62404C8.73701 35.8969 8.82979 36.0257 8.82979 36.183V36.8384C8.82979 36.9969 8.73701 37.1245 8.62404 37.1245H8.15256C8.09805 37.1242 8.04583 37.094 8.00728 37.0404C7.96874 36.9868 7.947 36.9142 7.9468 36.8384V36.183C7.9468 36.0257 8.03959 35.8969 8.15256 35.8969ZM9.78805 35.8969H10.2595C10.3725 35.8969 10.4653 36.0257 10.4653 36.183V36.8384C10.4653 36.9969 10.3725 37.1245 10.2595 37.1245H9.78805C9.73354 37.1242 9.68132 37.094 9.64277 37.0404C9.60423 36.9868 9.58249 36.9142 9.58229 36.8384V36.183C9.58223 36.1454 9.58752 36.1081 9.59784 36.0734C9.60815 36.0386 9.62331 36.0071 9.64243 35.9805C9.66154 35.9539 9.68425 35.9328 9.70924 35.9185C9.73423 35.9041 9.76101 35.8968 9.78805 35.8969ZM11.4225 35.8969H11.8938C12.0068 35.8969 12.0996 36.0257 12.0996 36.183V36.8384C12.0996 36.9969 12.0068 37.1245 11.8938 37.1245H11.4225C11.3678 37.1245 11.3154 37.0944 11.2766 37.0408C11.2379 36.9872 11.216 36.9144 11.2157 36.8384V36.183C11.2163 36.1071 11.2383 36.0346 11.277 35.9811C11.3157 35.9275 11.3679 35.8973 11.4225 35.8969V35.8969ZM13.0569 35.8969H13.5283C13.6423 35.8969 13.7351 36.0257 13.7351 36.183V36.8384C13.7351 36.9969 13.6423 37.1245 13.5283 37.1245H13.0569C13.0024 37.1242 12.9502 37.094 12.9117 37.0404C12.8731 36.9868 12.8514 36.9142 12.8512 36.8384V36.183C12.8512 36.0257 12.944 35.8969 13.0569 35.8969ZM8.21253 38.375H8.68386C8.79698 38.375 8.88962 38.504 8.88962 38.6611V39.318C8.88962 39.4751 8.79698 39.6041 8.68386 39.6041H8.21253C8.15797 39.604 8.10566 39.5739 8.06708 39.5202C8.02851 39.4666 8.00682 39.3939 8.00678 39.318V38.6624C8.00664 38.6247 8.01186 38.5873 8.02214 38.5525C8.03242 38.5176 8.04756 38.4859 8.06668 38.4592C8.0858 38.4325 8.10853 38.4113 8.13356 38.3969C8.15859 38.3824 8.18543 38.375 8.21253 38.375V38.375ZM9.84698 38.375H10.3183C10.4313 38.375 10.5241 38.504 10.5241 38.6611V39.318C10.5241 39.4751 10.4313 39.6041 10.3183 39.6041H9.84698C9.79247 39.6038 9.74025 39.5736 9.70171 39.52C9.66316 39.4664 9.64142 39.3938 9.64123 39.318V38.6624C9.64107 38.6247 9.64628 38.5873 9.65655 38.5524C9.66683 38.5176 9.68196 38.4859 9.70109 38.4591C9.72021 38.4324 9.74295 38.4113 9.76799 38.3968C9.79303 38.3824 9.81988 38.375 9.84698 38.375V38.375ZM11.4814 38.375H11.9529C12.0668 38.375 12.1596 38.504 12.1596 38.6611V39.318C12.1596 39.4751 12.0668 39.6041 11.9529 39.6041H11.4814C11.4269 39.6038 11.3747 39.5735 11.3362 39.5199C11.2977 39.4664 11.2759 39.3938 11.2757 39.318V38.6624C11.2757 38.5041 11.3685 38.375 11.4814 38.375V38.375ZM9.78805 33.2344H10.2595C10.3725 33.2344 10.4653 33.3634 10.4653 33.5205V34.1761C10.4653 34.3346 10.3725 34.4622 10.2595 34.4622H9.78805C9.73355 34.4619 9.68135 34.4316 9.64282 34.378C9.60428 34.3245 9.58253 34.2519 9.58229 34.1761V33.5205C9.58223 33.4829 9.58752 33.4456 9.59784 33.4109C9.60815 33.3761 9.62331 33.3446 9.64243 33.318C9.66154 33.2914 9.68425 33.2703 9.70924 33.256C9.73423 33.2416 9.76101 33.2343 9.78805 33.2344ZM11.4225 33.2344H11.8938C12.0068 33.2344 12.0996 33.3634 12.0996 33.5205V34.1761C12.0996 34.3346 12.0068 34.4622 11.8938 34.4622H11.4225C11.3678 34.4622 11.3154 34.4321 11.2766 34.3785C11.2379 34.3249 11.216 34.2521 11.2157 34.1761V33.5205C11.2163 33.4446 11.2383 33.3721 11.277 33.3186C11.3157 33.2651 11.3679 33.2349 11.4225 33.2344V33.2344Z" fill="white"/>
<path d="M6.3931 26.8114C4.47006 27.4449 2.43628 25.1771 2.43628 25.1771C2.43628 25.1771 3.52161 21.8834 5.44524 21.2519C7.36828 20.6184 9.40147 22.8843 9.40147 22.8843C9.40147 22.8843 8.31614 26.1779 6.3931 26.8114V26.8114Z" fill="url(#paint2_linear_341_109)"/>
<path d="M95.123 57.2878C94.2497 57.2878 93.5417 58.2723 93.5417 59.4867C93.5417 60.7011 94.2497 61.6855 95.123 61.6855C95.9964 61.6855 96.7043 60.7011 96.7043 59.4867C96.7043 58.2723 95.9964 57.2878 95.123 57.2878Z" fill="url(#paint3_linear_341_109)"/>
<path d="M16.4124 18.5774C15.7567 18.5774 15.2251 17.8382 15.2251 16.9264C15.2251 16.0146 15.7567 15.2754 16.4124 15.2754C17.0682 15.2754 17.5997 16.0146 17.5997 16.9264C17.5997 17.8382 17.0682 18.5774 16.4124 18.5774Z" fill="url(#paint4_linear_341_109)"/>
<path d="M81.3202 6.30346C80.0685 6.30346 79.0537 4.89238 79.0537 3.15173C79.0537 1.41108 80.0685 0 81.3202 0C82.572 0 83.5868 1.41108 83.5868 3.15173C83.5868 4.89238 82.572 6.30346 81.3202 6.30346Z" fill="url(#paint5_linear_341_109)"/>
<path d="M102.401 68.9998C101.877 68.9998 101.452 68.4581 101.452 67.7899C101.452 67.1218 101.877 66.5801 102.401 66.5801C102.926 66.5801 103.351 67.1218 103.351 67.7899C103.351 68.4581 102.926 68.9998 102.401 68.9998Z" fill="white"/>
<path d="M1.26495 51.638C0.566337 51.638 -2.14577e-06 50.8505 -2.14577e-06 49.8791C-2.14577e-06 48.9076 0.566337 48.1201 1.26495 48.1201C1.96357 48.1201 2.52991 48.9076 2.52991 49.8791C2.52991 50.8505 1.96357 51.638 1.26495 51.638Z" fill="white"/>
<path d="M60.9558 35.1293C60.5386 35.1293 60.2004 34.659 60.2004 34.0788C60.2004 33.4986 60.5386 33.0283 60.9558 33.0283C61.3731 33.0283 61.7113 33.4986 61.7113 34.0788C61.7113 34.659 61.3731 35.1293 60.9558 35.1293Z" fill="white"/>
<path d="M59.3554 6.30411C58.7593 6.30411 58.276 5.63212 58.276 4.80318C58.276 3.97424 58.7593 3.30225 59.3554 3.30225C59.9516 3.30225 60.4348 3.97424 60.4348 4.80318C60.4348 5.63212 59.9516 6.30411 59.3554 6.30411Z" fill="white"/>
<path d="M99.4627 36.9521C99.4627 37.8018 98.9673 38.4906 98.3563 38.4906C97.7452 38.4906 97.2499 37.8018 97.2499 36.9521C97.2499 36.1024 97.7452 35.4136 98.3563 35.4136C98.9673 35.4136 99.4627 36.1024 99.4627 36.9521Z" fill="white"/>
<path d="M95.0848 2.68359H95.1131C95.2804 5.97796 97.0422 6.02854 97.0422 6.02854C97.0422 6.02854 95.0994 6.08139 95.0994 9.8877C95.0994 6.08139 93.1566 6.02854 93.1566 6.02854C93.1566 6.02854 94.9177 5.97796 95.0848 2.68359V2.68359ZM28.2052 5.36715H28.2235C28.3322 7.59594 29.4764 7.63021 29.4764 7.63021C29.4764 7.63021 28.2146 7.66592 28.2146 10.2411C28.2146 7.66592 26.9528 7.63021 26.9528 7.63021C26.9528 7.63021 28.0966 7.59594 28.2052 5.36715Z" fill="white"/>
<defs>
<linearGradient id="paint0_linear_341_109" x1="41.9693" y1="23.9453" x2="41.9693" y2="64.229" gradientUnits="userSpaceOnUse">
<stop stop-color="#2400B2"/>
<stop offset="1" stop-color="#50C2E7"/>
</linearGradient>
<linearGradient id="paint1_linear_341_109" x1="34.8394" y1="58.1235" x2="34.8394" y2="54.395" gradientUnits="userSpaceOnUse">
<stop stop-color="#2400B2"/>
<stop offset="1" stop-color="#50C2E7"/>
</linearGradient>
<linearGradient id="paint2_linear_341_109" x1="-0.848357" y1="28.3865" x2="17.612" y2="22.1145" gradientUnits="userSpaceOnUse">
<stop stop-color="white"/>
<stop offset="1" stop-color="#EEEEEE"/>
</linearGradient>
<linearGradient id="paint3_linear_341_109" x1="95.123" y1="61.6855" x2="95.123" y2="57.2878" gradientUnits="userSpaceOnUse">
<stop stop-color="#2400B2"/>
<stop offset="1" stop-color="#50C2E7"/>
</linearGradient>
<linearGradient id="paint4_linear_341_109" x1="16.4124" y1="15.2754" x2="16.4124" y2="18.5774" gradientUnits="userSpaceOnUse">
<stop stop-color="#2400B2"/>
<stop offset="1" stop-color="#50C2E7"/>
</linearGradient>
<linearGradient id="paint5_linear_341_109" x1="81.3202" y1="0" x2="81.3202" y2="6.30346" gradientUnits="userSpaceOnUse">
<stop stop-color="#2400B2"/>
<stop offset="1" stop-color="#50C2E7"/>
</linearGradient>
</defs>
</svg>
