<svg width="32" height="36" viewBox="0 0 32 36" fill="none" xmlns="http://www.w3.org/2000/svg">
<path d="M7 24.75C7 24.1533 7.23705 23.581 7.65901 23.159C8.08097 22.7371 8.65326 22.5 9.25 22.5C9.84674 22.5 10.419 22.7371 10.841 23.159C11.2629 23.581 11.5 24.1533 11.5 24.75V27C11.5 27.5967 11.2629 28.169 10.841 28.591C10.419 29.0129 9.84674 29.25 9.25 29.25C8.65326 29.25 8.08097 29.0129 7.65901 28.591C7.23705 28.169 7 27.5967 7 27V24.75ZM20.5 15.75C20.5 15.1533 20.7371 14.581 21.159 14.159C21.581 13.7371 22.1533 13.5 22.75 13.5C23.3467 13.5 23.919 13.7371 24.341 14.159C24.7629 14.581 25 15.1533 25 15.75V27C25 27.5967 24.7629 28.169 24.341 28.591C23.919 29.0129 23.3467 29.25 22.75 29.25C22.1533 29.25 21.581 29.0129 21.159 28.591C20.7371 28.169 20.5 27.5967 20.5 27V15.75ZM13.75 20.25C13.75 19.6533 13.9871 19.081 14.409 18.659C14.831 18.2371 15.4033 18 16 18C16.5967 18 17.169 18.2371 17.591 18.659C18.0129 19.081 18.25 19.6533 18.25 20.25V27C18.25 27.5967 18.0129 28.169 17.591 28.591C17.169 29.0129 16.5967 29.25 16 29.25C15.4033 29.25 14.831 29.0129 14.409 28.591C13.9871 28.169 13.75 27.5967 13.75 27V20.25Z" fill="black"/>
<path d="M7 3.375H4.75C3.55653 3.375 2.41193 3.84911 1.56802 4.69302C0.724106 5.53693 0.25 6.68153 0.25 7.875V31.5C0.25 32.6935 0.724106 33.8381 1.56802 34.682C2.41193 35.5259 3.55653 36 4.75 36H27.25C28.4435 36 29.5881 35.5259 30.432 34.682C31.2759 33.8381 31.75 32.6935 31.75 31.5V7.875C31.75 6.68153 31.2759 5.53693 30.432 4.69302C29.5881 3.84911 28.4435 3.375 27.25 3.375H25V5.625H27.25C27.8467 5.625 28.419 5.86205 28.841 6.28401C29.2629 6.70597 29.5 7.27826 29.5 7.875V31.5C29.5 32.0967 29.2629 32.669 28.841 33.091C28.419 33.5129 27.8467 33.75 27.25 33.75H4.75C4.15326 33.75 3.58097 33.5129 3.15901 33.091C2.73705 32.669 2.5 32.0967 2.5 31.5V7.875C2.5 7.27826 2.73705 6.70597 3.15901 6.28401C3.58097 5.86205 4.15326 5.625 4.75 5.625H7V3.375Z" fill="black"/>
<path d="M19.375 2.25C19.6734 2.25 19.9595 2.36853 20.1705 2.5795C20.3815 2.79048 20.5 3.07663 20.5 3.375V5.625C20.5 5.92337 20.3815 6.20952 20.1705 6.42049C19.9595 6.63147 19.6734 6.75 19.375 6.75H12.625C12.3266 6.75 12.0405 6.63147 11.8295 6.42049C11.6185 6.20952 11.5 5.92337 11.5 5.625V3.375C11.5 3.07663 11.6185 2.79048 11.8295 2.5795C12.0405 2.36853 12.3266 2.25 12.625 2.25H19.375ZM12.625 0C11.7299 0 10.8714 0.355579 10.2385 0.988515C9.60558 1.62145 9.25 2.47989 9.25 3.375V5.625C9.25 6.52011 9.60558 7.37855 10.2385 8.01149C10.8714 8.64442 11.7299 9 12.625 9H19.375C20.2701 9 21.1286 8.64442 21.7615 8.01149C22.3944 7.37855 22.75 6.52011 22.75 5.625V3.375C22.75 2.47989 22.3944 1.62145 21.7615 0.988515C21.1286 0.355579 20.2701 0 19.375 0L12.625 0Z" fill="black"/>
</svg>
