<svg width="112" height="75" viewBox="0 0 112 75" fill="none" xmlns="http://www.w3.org/2000/svg">
<path d="M91.0037 11.7738C88.4532 10.3064 85.7585 9.10536 82.9621 8.18975C77.156 6.29322 71.0005 5.55103 64.9062 5.62122C47.7164 5.82431 42.0522 14.2676 30.9239 14.069C19.7956 13.8704 5.86576 21.1653 4.98917 33.6436C4.11258 46.1219 7.3785 52.821 17.3107 58.088C27.2428 63.355 44.8343 55.8032 59.1434 58.2866C73.4525 60.77 86.4714 64.5467 96.3065 58.7839C105.646 53.3123 109.118 41.1431 106.694 31.0079C104.683 22.6228 98.318 15.979 91.0037 11.7738Z" fill="#50C2E7"/>
<path opacity="0.7" d="M91.0037 11.7738C88.4532 10.3064 85.7585 9.10536 82.9621 8.18975C77.156 6.29322 71.0005 5.55103 64.9062 5.62122C47.7164 5.82431 42.0522 14.2676 30.9239 14.069C19.7956 13.8704 5.86576 21.1653 4.98917 33.6436C4.11258 46.1219 7.3785 52.821 17.3107 58.088C27.2428 63.355 44.8343 55.8032 59.1434 58.2866C73.4525 60.77 86.4714 64.5467 96.3065 58.7839C105.646 53.3123 109.118 41.1431 106.694 31.0079C104.683 22.6228 98.318 15.979 91.0037 11.7738Z" fill="white"/>
<path d="M90.1004 56.5088V56.1608C89.9918 56.164 89.8839 56.1435 89.784 56.1007C89.6842 56.0579 89.5949 55.9938 89.5224 55.9129C89.3803 55.7105 89.3079 55.4673 89.3164 55.22L89.845 55.1304C89.8473 55.2355 89.8603 55.3401 89.8838 55.4425C89.8982 55.5127 89.9312 55.5777 89.9794 55.6307C90.0246 55.6719 90.084 55.6939 90.1452 55.6919C90.1759 55.6951 90.2068 55.6899 90.2347 55.6767C90.2627 55.6635 90.2864 55.643 90.3035 55.6173C90.3326 55.5648 90.3475 55.5056 90.3468 55.4455C90.3506 55.332 90.3199 55.2201 90.2587 55.1245C90.1905 55.027 90.109 54.9396 90.0167 54.8646L89.6987 54.5913C89.6293 54.5272 89.5645 54.4583 89.5045 54.3853C89.4458 54.3132 89.3994 54.232 89.3671 54.1448C89.3317 54.0426 89.3145 53.9349 89.3164 53.8268C89.3104 53.7264 89.3252 53.626 89.3599 53.5316C89.3946 53.4373 89.4484 53.3512 89.518 53.2787C89.6638 53.1418 89.8542 53.0622 90.0541 53.0547V52.7217H90.2348V53.0547C90.3513 53.0572 90.4653 53.0891 90.5663 53.1473C90.6476 53.1972 90.7153 53.2664 90.7634 53.3489C90.8083 53.4324 90.841 53.5219 90.8605 53.6147C90.879 53.7069 90.8915 53.8001 90.8978 53.8939L90.3617 53.9731C90.3597 53.891 90.3522 53.8092 90.3393 53.7282C90.3318 53.6675 90.3087 53.6099 90.2721 53.5609C90.2535 53.5403 90.2303 53.5244 90.2043 53.5145C90.1783 53.5046 90.1504 53.5011 90.1228 53.5042C90.0914 53.5037 90.0605 53.511 90.0326 53.5253C90.0048 53.5396 89.9808 53.5606 89.963 53.5863C89.9277 53.6383 89.9089 53.6997 89.9092 53.7625C89.9042 53.8618 89.9331 53.9598 89.9914 54.0403C90.048 54.1125 90.1104 54.1799 90.178 54.2419L90.4961 54.5062C90.5794 54.5803 90.6559 54.6618 90.7246 54.7496C90.795 54.8372 90.8519 54.9349 90.8933 55.0393C90.9381 55.156 90.9599 55.2802 90.9575 55.4052C90.9592 55.5303 90.9316 55.654 90.8769 55.7666C90.8245 55.8741 90.744 55.9654 90.6439 56.0309C90.5371 56.1006 90.4142 56.1417 90.287 56.1504V56.5028L90.1004 56.5088Z" fill="#263238"/>
<path d="M91.1935 56.1233V55.7141L91.9312 54.5792C91.9865 54.4941 92.0387 54.4134 92.0805 54.3358C92.128 54.2607 92.168 54.1812 92.2 54.0984C92.2319 54.0154 92.2481 53.9273 92.2478 53.8385C92.2527 53.7598 92.2329 53.6814 92.191 53.6145C92.1726 53.5895 92.1482 53.5694 92.12 53.5561C92.0919 53.5428 92.0609 53.5367 92.0298 53.5384C91.9985 53.5364 91.9671 53.5408 91.9376 53.5513C91.9081 53.5619 91.881 53.5783 91.858 53.5996C91.8159 53.645 91.7875 53.7015 91.7759 53.7624C91.7605 53.835 91.753 53.9091 91.7535 53.9834V54.1327H91.1875V53.9834C91.185 53.8197 91.2134 53.6571 91.2712 53.504C91.3237 53.37 91.4166 53.2557 91.537 53.177C91.6815 53.0922 91.8475 53.0512 92.0148 53.059C92.1234 53.0516 92.2323 53.0663 92.335 53.1022C92.4376 53.1382 92.5319 53.1946 92.6122 53.2681C92.7545 53.4298 92.827 53.6414 92.8138 53.8564C92.8152 53.9718 92.7965 54.0865 92.7585 54.1954C92.7196 54.3001 92.6695 54.4002 92.6092 54.4941C92.548 54.5897 92.4823 54.6897 92.4121 54.7928L91.8282 55.6738H92.7242V56.1308L91.1935 56.1233Z" fill="#263238"/>
<path d="M93.1841 56.6399L93.1393 56.4488C93.2046 56.4271 93.2646 56.392 93.3155 56.3458C93.3429 56.3159 93.3638 56.2807 93.3772 56.2425C93.3905 56.2042 93.396 56.1637 93.3931 56.1232H93.0945V55.5752H93.638V56.059C93.644 56.2039 93.6032 56.3469 93.5216 56.4667C93.4804 56.5174 93.4291 56.5589 93.371 56.5887C93.3129 56.6186 93.2493 56.636 93.1841 56.6399V56.6399Z" fill="#263238"/>
<path d="M94.8118 56.1233V55.414H93.8904V54.966L94.6774 53.0889H95.3509V54.972H95.6495V55.42H95.3509V56.1293L94.8118 56.1233ZM94.3473 54.972H94.8118V53.6847L94.3473 54.972Z" fill="#263238"/>
<path d="M96.68 56.1638C96.5259 56.1699 96.3724 56.1397 96.232 56.0757C96.1229 56.0196 96.0368 55.9272 95.9886 55.8143C95.9356 55.6789 95.9102 55.5342 95.914 55.3887V55.3439H96.4605C96.4555 55.4402 96.4692 55.5366 96.5008 55.6277C96.5262 55.6904 96.5889 55.7218 96.686 55.7218C96.7118 55.7234 96.7376 55.7193 96.7617 55.7097C96.7857 55.7002 96.8073 55.6854 96.8249 55.6665C96.8633 55.6096 96.8864 55.5438 96.8921 55.4753C96.9056 55.3544 96.9116 55.2327 96.91 55.111V54.8048C96.8742 54.8613 96.8222 54.9056 96.7607 54.9318C96.6869 54.9629 96.6078 54.9796 96.5277 54.9811C96.3877 54.9907 96.2491 54.9488 96.138 54.8631C96.038 54.7769 95.9658 54.6631 95.9304 54.536C95.8876 54.3876 95.8669 54.2336 95.8692 54.0791C95.8652 53.8959 95.8915 53.7132 95.9468 53.5385C95.9928 53.3947 96.0846 53.2698 96.2081 53.1831C96.3499 53.0923 96.5164 53.0479 96.6845 53.0561C96.8494 53.0486 97.0128 53.0908 97.1534 53.1771C97.2741 53.2597 97.3656 53.3784 97.4148 53.5161C97.4733 53.6793 97.5017 53.8519 97.4984 54.0253V55.1304C97.501 55.31 97.4779 55.489 97.4297 55.662C97.3922 55.8096 97.3065 55.9405 97.1863 56.0339C97.0365 56.132 96.8585 56.1776 96.68 56.1638ZM96.68 54.5345C96.7309 54.537 96.781 54.5205 96.8204 54.4883C96.8523 54.4613 96.8805 54.4302 96.904 54.3957V53.9088C96.9046 53.8373 96.8986 53.7658 96.8861 53.6953C96.8762 53.6381 96.8532 53.5839 96.8189 53.537C96.8005 53.516 96.7773 53.4997 96.7514 53.4893C96.7254 53.4789 96.6974 53.4748 96.6696 53.4773C96.6426 53.476 96.6156 53.4812 96.591 53.4924C96.5663 53.5035 96.5446 53.5204 96.5277 53.5415C96.491 53.5947 96.4684 53.6564 96.462 53.7207C96.4504 53.8138 96.4449 53.9076 96.4456 54.0014C96.4456 54.1045 96.4456 54.1956 96.456 54.2762C96.4592 54.3424 96.4793 54.4066 96.5143 54.4629C96.5337 54.4889 96.5597 54.5093 96.5896 54.5219C96.6196 54.5345 96.6523 54.5389 96.6845 54.5345H96.68Z" fill="#263238"/>
<path d="M98.6586 56.1754C98.4902 56.1837 98.3229 56.1438 98.1763 56.0604C98.058 55.9836 97.9678 55.8704 97.9194 55.7379C97.865 55.5851 97.8387 55.4237 97.8418 55.2615V55.1525H98.4182V55.2526C98.4192 55.3332 98.4272 55.4137 98.4421 55.493C98.4509 55.549 98.4764 55.601 98.5153 55.6423C98.557 55.6771 98.6104 55.6948 98.6646 55.6916C98.6916 55.6935 98.7188 55.69 98.7444 55.6813C98.7701 55.6726 98.7937 55.6588 98.8139 55.6408C98.8505 55.5987 98.8739 55.5468 98.8811 55.4915C98.8955 55.4122 98.902 55.3316 98.9006 55.2511C98.9069 55.1292 98.8833 55.0077 98.8319 54.8971C98.8036 54.8527 98.7634 54.817 98.7159 54.7943C98.6684 54.7716 98.6154 54.7627 98.5631 54.7687H98.4615V54.3416H98.5511C98.6026 54.3478 98.6548 54.3411 98.703 54.3221C98.7513 54.303 98.794 54.2723 98.8274 54.2326C98.8831 54.1282 98.9085 54.0102 98.9006 53.8921C98.9051 53.7958 98.8872 53.6996 98.8483 53.6114C98.8294 53.577 98.8007 53.5491 98.7659 53.531C98.731 53.5129 98.6917 53.5055 98.6527 53.5098C98.6136 53.5057 98.5743 53.5144 98.5406 53.5346C98.5069 53.5548 98.4807 53.5854 98.466 53.6218C98.433 53.7143 98.4163 53.8118 98.4167 53.91V54.0459H97.8403V53.8787C97.8363 53.7237 97.8696 53.5701 97.9374 53.4307C97.9988 53.3103 98.0958 53.2118 98.2151 53.1484C98.3502 53.079 98.5008 53.0451 98.6527 53.0499C98.8074 53.0446 98.9611 53.0768 99.1007 53.144C99.2199 53.2038 99.3176 53.2993 99.3799 53.4172C99.4484 53.5564 99.4812 53.7103 99.4755 53.8652C99.482 54.022 99.4436 54.1774 99.365 54.3132C99.3051 54.4188 99.2083 54.4986 99.0932 54.5372C99.1683 54.5621 99.2365 54.6046 99.2918 54.6612C99.354 54.7263 99.4 54.805 99.4262 54.8912C99.462 55.0072 99.4787 55.1282 99.4755 55.2496C99.4782 55.4143 99.4514 55.5781 99.3963 55.7334C99.3486 55.8691 99.2579 55.9855 99.138 56.0649C98.9929 56.1491 98.8259 56.1876 98.6586 56.1754V56.1754Z" fill="#263238"/>
<path d="M99.8413 56.6399L99.7965 56.4488C99.8621 56.4278 99.9222 56.3926 99.9727 56.3458C100 56.316 100.022 56.2809 100.035 56.2427C100.049 56.2044 100.054 56.1638 100.052 56.1232H99.7532V55.5752H100.297V56.059C100.303 56.204 100.263 56.3472 100.18 56.4667C100.139 56.5175 100.087 56.5592 100.029 56.589C99.9707 56.6189 99.9067 56.6362 99.8413 56.6399V56.6399Z" fill="#263238"/>
<path d="M101.411 56.1638C101.257 56.17 101.103 56.1398 100.963 56.0757C100.854 56.0196 100.768 55.9272 100.72 55.8143C100.667 55.6788 100.641 55.5341 100.645 55.3887V55.3439H101.191C101.186 55.4402 101.2 55.5366 101.232 55.6277C101.257 55.6904 101.318 55.7217 101.417 55.7217C101.442 55.7235 101.468 55.7194 101.492 55.7098C101.516 55.7003 101.537 55.6854 101.554 55.6665C101.594 55.6101 101.618 55.544 101.623 55.4753C101.637 55.3544 101.642 55.2327 101.641 55.111V54.8048C101.605 54.8611 101.553 54.9053 101.492 54.9318C101.418 54.9629 101.34 54.9796 101.26 54.981C101.12 54.9907 100.981 54.9488 100.87 54.8631C100.77 54.7773 100.698 54.6634 100.663 54.536C100.619 54.3876 100.598 54.2336 100.6 54.0791C100.597 53.8957 100.623 53.7131 100.679 53.5385C100.725 53.3951 100.816 53.2704 100.939 53.1831C101.081 53.0923 101.248 53.048 101.417 53.0561C101.582 53.0488 101.745 53.0909 101.886 53.1771C102.006 53.2601 102.097 53.3786 102.147 53.5161C102.205 53.6794 102.233 53.852 102.229 54.0253V55.1304C102.232 55.3098 102.209 55.4887 102.162 55.662C102.125 55.8096 102.039 55.9404 101.919 56.0338C101.768 56.1323 101.59 56.178 101.411 56.1638V56.1638ZM101.411 54.5345C101.462 54.5367 101.512 54.5202 101.551 54.4882C101.583 54.4613 101.611 54.4301 101.635 54.3957V53.9088C101.635 53.8372 101.629 53.7658 101.617 53.6953C101.607 53.6377 101.584 53.5834 101.548 53.537C101.531 53.5168 101.509 53.5009 101.484 53.4905C101.46 53.4801 101.433 53.4756 101.406 53.4772C101.378 53.4745 101.35 53.479 101.324 53.4902C101.297 53.5014 101.275 53.5191 101.257 53.5415C101.22 53.5943 101.197 53.6562 101.191 53.7207C101.179 53.8137 101.174 53.9076 101.175 54.0014C101.175 54.1044 101.175 54.1955 101.185 54.2762C101.189 54.3424 101.209 54.4066 101.244 54.4628C101.263 54.4893 101.289 54.5099 101.32 54.5225C101.35 54.5351 101.383 54.5393 101.415 54.5345H101.411Z" fill="#263238"/>
<path d="M103.457 56.1232V55.4139H102.535V54.9659L103.325 53.0933H103.999V54.9764H104.297V55.4244H103.999V56.1337L103.457 56.1232ZM102.992 54.9719H103.457V53.6846L102.992 54.9719Z" fill="#263238"/>
<path d="M105.302 56.1756C105.132 56.1863 104.963 56.1458 104.816 56.0591C104.703 55.9811 104.622 55.8658 104.586 55.7336C104.541 55.5737 104.52 55.4082 104.523 55.2423H105.081C105.08 55.3353 105.087 55.4282 105.102 55.52C105.11 55.5823 105.136 55.641 105.177 55.6888C105.199 55.7084 105.225 55.7232 105.253 55.7322C105.281 55.7412 105.311 55.7442 105.34 55.741C105.371 55.7422 105.402 55.7351 105.43 55.7204C105.458 55.7057 105.481 55.684 105.498 55.6574C105.535 55.5882 105.555 55.5116 105.558 55.4334C105.558 55.3363 105.568 55.2213 105.568 55.0884C105.569 54.9936 105.563 54.8987 105.55 54.8047C105.542 54.7345 105.517 54.6674 105.477 54.6091C105.457 54.5851 105.431 54.5663 105.402 54.5541C105.373 54.5419 105.341 54.5367 105.31 54.5389C105.279 54.5382 105.248 54.5441 105.219 54.5562C105.19 54.5683 105.164 54.5863 105.143 54.6091C105.094 54.6674 105.062 54.7374 105.049 54.8122H104.553L104.595 53.0889H105.988V53.5861H105.071L105.037 54.2567C105.078 54.2124 105.129 54.179 105.186 54.1596C105.26 54.1318 105.337 54.1157 105.416 54.1118C105.553 54.092 105.692 54.1239 105.807 54.2014C105.917 54.2848 105.997 54.4009 106.037 54.5329C106.091 54.7053 106.116 54.8854 106.112 55.066C106.113 55.2159 106.103 55.3657 106.082 55.514C106.067 55.6378 106.028 55.7575 105.967 55.8665C105.909 55.9658 105.823 56.0458 105.719 56.0964C105.588 56.1549 105.446 56.182 105.302 56.1756Z" fill="#263238"/>
<path d="M36.0192 8.22225L36.0475 6.52881H36.4134L36.6225 7.59654L36.8465 6.52881H37.2004L37.2288 8.22225H36.9779L36.951 7.07387L36.736 8.22225H36.5209L36.2954 7.06492L36.2715 8.22225H36.0192Z" fill="#263238"/>
<path d="M37.9501 8.24436C37.8463 8.2503 37.7428 8.22702 37.6515 8.17716C37.5818 8.13185 37.5292 8.06458 37.5021 7.98602C37.4682 7.89019 37.452 7.78898 37.4543 7.68735V7.05716C37.4519 6.95552 37.4681 6.85429 37.5021 6.7585C37.5293 6.68076 37.5819 6.61446 37.6515 6.57034C37.745 6.5269 37.847 6.50439 37.9501 6.50439C38.0533 6.50439 38.1552 6.5269 38.2488 6.57034C38.3214 6.61289 38.3768 6.67944 38.4056 6.7585C38.4394 6.85432 38.4551 6.9556 38.4519 7.05716V7.68884C38.4547 7.79038 38.439 7.89158 38.4056 7.98751C38.3769 8.06737 38.3215 8.13488 38.2488 8.17866C38.1571 8.22733 38.0538 8.25005 37.9501 8.24436ZM37.9501 7.99498C37.9677 7.99672 37.9855 7.99498 38.0024 7.98986C38.0193 7.98473 38.035 7.97632 38.0487 7.96511C38.0707 7.94322 38.0853 7.91504 38.0905 7.88447C38.0979 7.84811 38.1014 7.81107 38.101 7.77396V6.97354C38.1015 6.93693 38.098 6.90037 38.0905 6.86452C38.0853 6.83395 38.0707 6.80577 38.0487 6.78388C38.0204 6.76256 37.9855 6.75197 37.9501 6.75402C37.9161 6.75168 37.8825 6.76236 37.8561 6.78388C37.8347 6.8062 37.8202 6.83419 37.8142 6.86452C37.8075 6.90048 37.804 6.93696 37.8038 6.97354V7.77396C37.8041 7.81103 37.8076 7.848 37.8142 7.88447C37.819 7.91486 37.8331 7.94303 37.8546 7.96511C37.8812 7.98729 37.9156 7.99802 37.9501 7.99498V7.99498Z" fill="#263238"/>
<path d="M38.6772 8.22225V6.52881H38.9177L39.294 7.40987V6.52881H39.5792V8.22225H39.3492L38.9759 7.28443V8.22225H38.6772Z" fill="#263238"/>
<path d="M39.999 8.22225V6.78566H39.7377V6.52881H40.6038V6.78566H40.3469V8.22225H39.999Z" fill="#263238"/>
<path d="M40.7679 8.22225V6.52881H41.1129V7.2247H41.4116V6.52881H41.7565V8.22225H41.4116V7.46662H41.1129V8.21329L40.7679 8.22225Z" fill="#263238"/>
<path d="M42.0105 8.22225V6.52881H42.3555V7.9878H42.7527V8.22225H42.0105Z" fill="#263238"/>
<path d="M43.008 8.22225V7.55025L42.678 6.52881H43.008L43.1902 7.12614L43.3589 6.52881H43.6725L43.347 7.55025V8.22225H43.008Z" fill="#263238"/>
<path d="M44.3236 8.22223V6.52879H44.7626C44.8636 6.52559 44.9645 6.5387 45.0613 6.56762C45.1382 6.58901 45.205 6.63721 45.2495 6.70351C45.298 6.78553 45.3209 6.88018 45.3152 6.9753C45.316 7.03749 45.3099 7.09958 45.2973 7.16047C45.2877 7.21129 45.2668 7.25929 45.236 7.30085C45.2024 7.34284 45.1588 7.3757 45.1091 7.39642L45.3436 8.22223H44.9896L44.7955 7.45466H44.6745V8.22223H44.3236ZM44.6686 7.25007H44.7686C44.8142 7.25267 44.8596 7.24287 44.9 7.2217C44.9317 7.20347 44.9556 7.17425 44.9672 7.13957C44.9821 7.09533 44.9892 7.04884 44.9881 7.00218C44.9933 6.94039 44.9798 6.87847 44.9493 6.82447C44.93 6.80159 44.9052 6.78388 44.8773 6.77293C44.8495 6.76198 44.8193 6.75814 44.7895 6.76175H44.673L44.6686 7.25007Z" fill="#263238"/>
<path d="M45.5361 8.22225V6.52881H46.2738V6.76625H45.8811V7.21425H46.1798V7.45467H45.8811V7.9863H46.2783V8.22075L45.5361 8.22225Z" fill="#263238"/>
<path d="M46.4517 8.22213V6.52869H46.9893C47.0755 6.52531 47.161 6.5449 47.2372 6.58544C47.3035 6.62315 47.3559 6.68129 47.3865 6.7512C47.4185 6.83653 47.4327 6.92749 47.4283 7.01851C47.4337 7.11704 47.412 7.21516 47.3656 7.30224C47.3279 7.36918 47.2691 7.42171 47.1983 7.45157C47.1201 7.48082 47.037 7.49501 46.9534 7.49339H46.7966V8.22811L46.4517 8.22213ZM46.7966 7.24549H46.9176C46.9578 7.24716 46.9978 7.23895 47.0341 7.2216C47.0614 7.20412 47.0812 7.1769 47.0893 7.14544C47.0997 7.10141 47.1047 7.05628 47.1042 7.01104C47.1047 6.96744 47.1007 6.92391 47.0923 6.88112C47.0857 6.84899 47.0676 6.82035 47.0415 6.80048C47.0038 6.77793 46.96 6.7675 46.9161 6.77061H46.7966V7.24549Z" fill="#263238"/>
<path d="M48.0854 8.24483C47.9815 8.25092 47.878 8.22763 47.7867 8.17763C47.714 8.13385 47.6586 8.06634 47.6299 7.98648C47.5965 7.89055 47.5808 7.78935 47.5836 7.68781V7.05763C47.5807 6.95608 47.5964 6.85486 47.6299 6.75896C47.6587 6.6799 47.7141 6.61336 47.7867 6.5708C47.8802 6.52706 47.9821 6.50439 48.0854 6.50439C48.1886 6.50439 48.2905 6.52706 48.384 6.5708C48.4543 6.61541 48.5071 6.68293 48.5334 6.76195C48.5677 6.85766 48.5839 6.95895 48.5811 7.06061V7.69229C48.5835 7.79392 48.5673 7.89513 48.5334 7.99096C48.5046 8.07082 48.4493 8.13833 48.3766 8.18211C48.2869 8.22871 48.1863 8.25037 48.0854 8.24483ZM48.0854 7.99544C48.1029 7.99719 48.1207 7.99545 48.1376 7.99032C48.1545 7.9852 48.1703 7.97679 48.1839 7.96557C48.2059 7.94369 48.2205 7.9155 48.2257 7.88493C48.2324 7.84847 48.2359 7.81149 48.2362 7.77443V6.974C48.2359 6.93742 48.2324 6.90094 48.2257 6.86499C48.2198 6.83466 48.2053 6.80666 48.1839 6.78435C48.1556 6.76302 48.1207 6.75243 48.0854 6.75448C48.0513 6.75214 48.0177 6.76282 47.9913 6.78435C47.9642 6.80603 47.9448 6.83589 47.936 6.86947C47.9286 6.90531 47.925 6.94187 47.9256 6.97848V7.77891C47.9254 7.81593 47.9284 7.8529 47.9345 7.88941C47.9397 7.91998 47.9544 7.94817 47.9763 7.97005C47.9914 7.98224 48.0091 7.99085 48.0279 7.99525C48.0468 7.99964 48.0664 7.99971 48.0854 7.99544V7.99544Z" fill="#263238"/>
<path d="M48.8096 8.22216V6.52872H49.2486C49.3496 6.5258 49.4504 6.5389 49.5473 6.56755C49.6238 6.58975 49.6903 6.63777 49.7354 6.70344C49.7832 6.78576 49.806 6.88018 49.8011 6.97523C49.8019 7.03742 49.7959 7.09951 49.7832 7.1604C49.7725 7.21112 49.7512 7.25898 49.7205 7.30077C49.6876 7.34351 49.6437 7.37653 49.5936 7.39635L49.828 8.22216H49.4741L49.28 7.45459H49.159V8.22216H48.8096ZM49.1545 7.25H49.2546C49.3001 7.2526 49.3456 7.24279 49.386 7.22163C49.4183 7.20368 49.4427 7.17442 49.4547 7.13949C49.469 7.09515 49.4756 7.04868 49.4741 7.00211C49.4782 6.93964 49.4625 6.87748 49.4293 6.8244C49.41 6.80141 49.3853 6.78362 49.3574 6.77266C49.3295 6.76171 49.2993 6.75793 49.2695 6.76168H49.153L49.1545 7.25Z" fill="#263238"/>
<path d="M50.176 8.22225V6.78566H49.9147V6.52881H50.7733V6.78566H50.5165V8.22225H50.176Z" fill="#263238"/>
<path d="M5.77917 17.0234V15.3225H6.31677C6.4052 15.3176 6.49322 15.3378 6.57064 15.3808C6.63699 15.4185 6.68937 15.4766 6.71997 15.5465C6.75361 15.6305 6.76987 15.7204 6.76776 15.8108C6.77264 15.9091 6.75153 16.007 6.70653 16.0946C6.66797 16.1613 6.60875 16.2137 6.53779 16.2439C6.45954 16.2732 6.37643 16.2874 6.29288 16.2857H6.12264V17.0234H5.77917ZM6.12264 16.0393H6.2436C6.28381 16.0412 6.32385 16.0329 6.36008 16.0154C6.37386 16.007 6.38583 15.9959 6.39531 15.9829C6.4048 15.9698 6.4116 15.955 6.41533 15.9393C6.42648 15.8954 6.43151 15.8501 6.43027 15.8049C6.43139 15.7629 6.42839 15.7208 6.42131 15.6794C6.41535 15.647 6.39717 15.6182 6.37053 15.5988C6.33276 15.5762 6.28898 15.5658 6.24509 15.5689H6.12264V16.0393Z" fill="#263238"/>
<path d="M6.92004 17.0232V15.3223H7.265V16.7813H7.66223V17.0232H6.92004Z" fill="#263238"/>
<path d="M7.74292 17.0232L8.06399 15.3223H8.44777L8.77929 17.0232H8.45972L8.39849 16.6498H8.13119L8.06399 17.0232H7.74292ZM8.16255 16.4258H8.36265L8.25961 15.7419L8.16255 16.4258Z" fill="#263238"/>
<path d="M9.09736 17.0235V16.3515L8.76733 15.3301H9.09139L9.27208 15.9274L9.44232 15.3301H9.75592L9.42888 16.3515V17.0235H9.09736Z" fill="#263238"/>
<path d="M9.88733 17.0232V15.3223H10.625V15.5597H10.2323V16.0077H10.531V16.2481H10.2323V16.7798H10.6295V17.0232H9.88733Z" fill="#263238"/>
<path d="M10.8027 17.0236V15.3227H11.2418C11.3428 15.3197 11.4436 15.3328 11.5404 15.3615C11.6174 15.3829 11.6841 15.4311 11.7286 15.4974C11.7774 15.5794 11.8013 15.6739 11.7973 15.7692C11.7981 15.8314 11.7921 15.8935 11.7794 15.9544C11.7687 16.0051 11.7473 16.0529 11.7167 16.0947C11.6837 16.1375 11.6399 16.1705 11.5897 16.1903L11.8167 17.0236H11.4643L11.2687 16.256H11.1477V17.0236H10.8027ZM11.1477 16.0514H11.2477C11.2938 16.054 11.3397 16.0442 11.3807 16.0231C11.4124 16.0048 11.4363 15.9756 11.4479 15.9409C11.4622 15.8966 11.4687 15.8501 11.4673 15.8035C11.4715 15.7415 11.457 15.6795 11.4255 15.6258C11.4061 15.603 11.3814 15.5852 11.3535 15.5743C11.3256 15.5633 11.2954 15.5595 11.2657 15.5631H11.1477V16.0514Z" fill="#263238"/>
<path d="M12.4544 17.0384C12.3639 17.0413 12.2741 17.0218 12.193 16.9816C12.123 16.9422 12.0679 16.8808 12.0362 16.8069C11.9961 16.7124 11.9748 16.6109 11.9735 16.5083L12.2722 16.459C12.2739 16.5178 12.2814 16.5763 12.2946 16.6337C12.3028 16.6727 12.3214 16.7088 12.3483 16.7382C12.3731 16.761 12.4058 16.7734 12.4394 16.7726C12.457 16.7744 12.4747 16.7715 12.4907 16.7641C12.5067 16.7568 12.5205 16.7452 12.5305 16.7308C12.5472 16.7012 12.5554 16.6676 12.5544 16.6337C12.5567 16.5706 12.5389 16.5084 12.5036 16.456C12.4647 16.4007 12.4191 16.3506 12.3678 16.3067L12.193 16.1573C12.1339 16.106 12.0835 16.0455 12.0437 15.9781C12.0015 15.9025 11.9808 15.8168 11.984 15.7302C11.9799 15.6713 11.9887 15.6121 12.0099 15.5569C12.031 15.5017 12.064 15.4518 12.1064 15.4107C12.1999 15.3317 12.3202 15.2916 12.4424 15.2987C12.5145 15.2956 12.5862 15.3099 12.6515 15.3405C12.7032 15.365 12.7467 15.4039 12.7769 15.4525C12.8066 15.4981 12.8278 15.5487 12.8396 15.6018C12.8515 15.6559 12.859 15.7108 12.862 15.7661L12.5634 15.8094C12.5634 15.7571 12.5559 15.7123 12.5499 15.6735C12.5453 15.6398 12.5319 15.6079 12.5111 15.5809C12.5006 15.5694 12.4876 15.5604 12.4731 15.5547C12.4586 15.549 12.443 15.5467 12.4275 15.548C12.4097 15.5469 12.3919 15.5504 12.3759 15.5582C12.3599 15.5661 12.3463 15.578 12.3364 15.5928C12.3172 15.6226 12.3073 15.6575 12.308 15.6929C12.3051 15.7457 12.3192 15.7981 12.3483 15.8422C12.3806 15.8869 12.4182 15.9276 12.4603 15.9632L12.6321 16.1125C12.7021 16.1735 12.7634 16.2439 12.8143 16.3216C12.8687 16.4114 12.8952 16.5154 12.8904 16.6203C12.8915 16.6954 12.8729 16.7695 12.8367 16.8353C12.8013 16.8977 12.7497 16.9493 12.6873 16.9846C12.6156 17.0222 12.5353 17.0408 12.4544 17.0384V17.0384Z" fill="#263238"/>
<path d="M7.03512 27.0964L7.64589 24.61H6.85144V24.1919H8.18797V24.5578L7.57421 27.0964H7.03512Z" fill="#263238"/>
<path d="M9.24377 27.138C9.08286 27.1458 8.92312 27.1069 8.78383 27.026C8.66892 26.9503 8.5827 26.8383 8.53892 26.7079C8.48724 26.5576 8.46197 26.3994 8.46425 26.2405C8.46374 26.1657 8.47125 26.0911 8.48665 26.018C8.49944 25.9517 8.52103 25.8874 8.55087 25.8268C8.57894 25.7723 8.61464 25.722 8.65689 25.6775C8.69947 25.6322 8.75011 25.5952 8.80623 25.5685C8.7208 25.5031 8.65051 25.4201 8.60015 25.3251C8.53619 25.2026 8.50434 25.066 8.50756 24.9279C8.50198 24.7857 8.52905 24.6442 8.58671 24.5142C8.63921 24.4009 8.7259 24.3069 8.8346 24.2454C8.96292 24.1845 9.1032 24.1528 9.24527 24.1528C9.38733 24.1528 9.52761 24.1845 9.65593 24.2454C9.76352 24.3065 9.84841 24.4008 9.89785 24.5142C9.95374 24.6447 9.97976 24.786 9.97401 24.9279C9.9772 25.0669 9.94699 25.2046 9.88591 25.3296C9.83682 25.4247 9.76564 25.5066 9.67833 25.5685C9.73445 25.5952 9.78509 25.6322 9.82767 25.6775C9.86991 25.722 9.90561 25.7723 9.93369 25.8268C9.96387 25.8875 9.98644 25.9517 10.0009 26.018C10.0163 26.0911 10.0238 26.1657 10.0233 26.2405C10.0311 26.3993 10.0078 26.5581 9.9546 26.7079C9.90808 26.8385 9.82127 26.9509 9.70671 27.029C9.56613 27.1092 9.40537 27.147 9.24377 27.138V27.138ZM9.24377 26.7258C9.27261 26.7269 9.30128 26.7209 9.3273 26.7084C9.35332 26.696 9.37591 26.6773 9.39311 26.6541C9.42817 26.6013 9.45017 26.5409 9.45732 26.4779C9.46727 26.4112 9.47227 26.3438 9.47225 26.2763C9.47461 26.2019 9.47012 26.1274 9.45881 26.0538C9.45156 25.9906 9.42901 25.9301 9.39311 25.8776C9.37526 25.8554 9.35247 25.8376 9.32655 25.8256C9.30063 25.8137 9.27229 25.808 9.24377 25.8089C9.21522 25.8077 9.1868 25.8134 9.16084 25.8253C9.13488 25.8372 9.11213 25.8552 9.09444 25.8776C9.05754 25.9293 9.03395 25.9893 9.02575 26.0523C9.01527 26.1265 9.01028 26.2014 9.01081 26.2763C9.01102 26.3442 9.01551 26.4121 9.02425 26.4794C9.0312 26.5429 9.05434 26.6036 9.09145 26.6556C9.10888 26.6795 9.13186 26.6988 9.15839 26.7118C9.18493 26.7248 9.21423 26.7311 9.24377 26.7303V26.7258ZM9.24377 25.3564C9.26621 25.3569 9.28847 25.3523 9.3089 25.343C9.32932 25.3337 9.34739 25.3199 9.36175 25.3027C9.39484 25.2586 9.41732 25.2075 9.42745 25.1533C9.44346 25.0752 9.45097 24.9956 9.44985 24.9159C9.45348 24.83 9.43659 24.7445 9.40057 24.6665C9.38709 24.6367 9.36491 24.6116 9.33694 24.5945C9.30896 24.5775 9.27649 24.5692 9.24377 24.5709C9.21074 24.5696 9.17803 24.578 9.14966 24.595C9.12128 24.6119 9.09846 24.6368 9.08399 24.6665C9.04645 24.7425 9.02848 24.8267 9.03172 24.9114C9.03093 24.9916 9.03793 25.0716 9.05263 25.1504C9.06033 25.2078 9.08357 25.262 9.11983 25.3072C9.13578 25.3237 9.15509 25.3367 9.17647 25.3452C9.19784 25.3537 9.22079 25.3575 9.24377 25.3564V25.3564Z" fill="#263238"/>
<path d="M10.6386 25.361C10.5848 25.3662 10.5305 25.3589 10.48 25.3398C10.4295 25.3206 10.3841 25.29 10.3474 25.2504C10.2829 25.1547 10.2524 25.04 10.2607 24.9249V24.8398C10.2513 24.7252 10.2813 24.6109 10.3459 24.5157C10.3847 24.4771 10.4317 24.4478 10.4834 24.43C10.5351 24.4122 10.5902 24.4062 10.6445 24.4127C10.6987 24.4066 10.7536 24.4125 10.8052 24.4301C10.8568 24.4476 10.904 24.4764 10.9432 24.5142C11.0075 24.6072 11.0376 24.7196 11.0283 24.8323V24.9383C11.0363 25.0521 11.0058 25.1651 10.9417 25.2594C10.9028 25.2991 10.8551 25.3291 10.8024 25.3467C10.7497 25.3644 10.6935 25.3692 10.6386 25.361V25.361ZM10.6386 25.1549C10.653 25.1563 10.6676 25.1545 10.6813 25.1496C10.695 25.1446 10.7074 25.1368 10.7177 25.1265C10.736 25.1022 10.7469 25.0732 10.7491 25.0429C10.7516 25.0006 10.7516 24.9582 10.7491 24.9159V24.8428C10.7511 24.7871 10.7461 24.7314 10.7341 24.677C10.7237 24.6397 10.6893 24.6203 10.6326 24.6203C10.5758 24.6203 10.5445 24.6397 10.534 24.6755C10.52 24.7301 10.514 24.7864 10.5161 24.8428V24.9174C10.5159 24.9599 10.5184 25.0023 10.5236 25.0444C10.5265 25.0743 10.5379 25.1028 10.5564 25.1265C10.5668 25.1375 10.5797 25.1458 10.594 25.1507C10.6083 25.1557 10.6236 25.1571 10.6386 25.1549ZM10.8431 26.1016L11.3494 24.4172H11.539L11.0343 26.1016H10.8431ZM11.7391 26.1016C11.6843 26.1086 11.6285 26.1024 11.5766 26.0834C11.5246 26.0645 11.4779 26.0333 11.4405 25.9926C11.3763 25.8967 11.3458 25.7822 11.3539 25.6671V25.5805C11.3455 25.4667 11.3749 25.3533 11.4375 25.2579C11.4763 25.2194 11.5234 25.1902 11.5751 25.1723C11.6268 25.1545 11.6818 25.1485 11.7362 25.1549C11.7902 25.1486 11.845 25.1543 11.8967 25.1716C11.9483 25.1889 11.9955 25.2173 12.0348 25.2549C12.0994 25.3484 12.1295 25.4613 12.1199 25.5745V25.6701C12.1285 25.7848 12.098 25.899 12.0333 25.9941C11.996 26.0334 11.9503 26.0637 11.8996 26.0829C11.8489 26.102 11.7946 26.1094 11.7406 26.1046L11.7391 26.1016ZM11.7391 25.8971C11.7537 25.8983 11.7684 25.8962 11.7821 25.8911C11.7958 25.8859 11.8081 25.8777 11.8183 25.8672C11.8354 25.843 11.8457 25.8146 11.8482 25.7851C11.854 25.744 11.8565 25.7026 11.8556 25.6611V25.585C11.8582 25.5287 11.8527 25.4724 11.8392 25.4177C11.8287 25.3804 11.7944 25.3624 11.7391 25.3624C11.6839 25.3624 11.651 25.3804 11.6406 25.4177C11.6268 25.4723 11.6207 25.5286 11.6227 25.585V25.6611C11.6201 25.7024 11.6201 25.7438 11.6227 25.7851C11.6235 25.8152 11.6346 25.8442 11.654 25.8672C11.6647 25.8792 11.6782 25.8885 11.6933 25.8942C11.7084 25.9 11.7246 25.902 11.7406 25.9L11.7391 25.8971Z" fill="#263238"/>
<path d="M90.3153 47.9956H88.6323V51.496H90.3153V47.9956Z" fill="#263238" stroke="#263238" stroke-width="0.149333" stroke-linecap="round" stroke-linejoin="round"/>
<path d="M92.4926 41.1699H90.8096V51.4948H92.4926V41.1699Z" fill="#50C2E7" stroke="#263238" stroke-width="0.149333" stroke-linecap="round" stroke-linejoin="round"/>
<path d="M94.6699 47.5581H92.9869V51.496H94.6699V47.5581Z" fill="#263238" stroke="#263238" stroke-width="0.149333" stroke-linecap="round" stroke-linejoin="round"/>
<path d="M96.8472 45.7197H95.1642V51.4944H96.8472V45.7197Z" fill="#50C2E7" stroke="#263238" stroke-width="0.149333" stroke-linecap="round" stroke-linejoin="round"/>
<path d="M99.0244 47.1206H97.3414V51.4961H99.0244V47.1206Z" fill="#263238" stroke="#263238" stroke-width="0.149333" stroke-linecap="round" stroke-linejoin="round"/>
<path d="M101.202 45.7197H99.5188V51.4944H101.202V45.7197Z" fill="#50C2E7" stroke="#263238" stroke-width="0.149333" stroke-linecap="round" stroke-linejoin="round"/>
<path d="M103.379 43.4458H101.696V51.4964H103.379V43.4458Z" fill="#263238" stroke="#263238" stroke-width="0.149333" stroke-linecap="round" stroke-linejoin="round"/>
<path d="M105.556 45.7197H103.873V51.4944H105.556V45.7197Z" fill="#50C2E7" stroke="#263238" stroke-width="0.149333" stroke-linecap="round" stroke-linejoin="round"/>
<path d="M107.734 49.0454H106.051V51.496H107.734V49.0454Z" fill="#263238" stroke="#263238" stroke-width="0.149333" stroke-linecap="round" stroke-linejoin="round"/>
<path d="M88.6323 37.6709H94.1457" stroke="#263238" stroke-width="0.448" stroke-linecap="round" stroke-linejoin="round"/>
<path d="M88.6323 38.8071H97.7327" stroke="#263238" stroke-width="0.149333" stroke-linecap="round" stroke-linejoin="round"/>
<path d="M87.9469 14.5303H98.0971V26.6935" stroke="#263238" stroke-width="0.149333" stroke-linecap="round" stroke-linejoin="round"/>
<path d="M98.1852 23.8936H107.023V26.6488" stroke="#263238" stroke-width="0.149333" stroke-linecap="round" stroke-linejoin="round"/>
<path d="M102.735 23.9805V26.6491" stroke="#263238" stroke-width="0.149333" stroke-linecap="round" stroke-linejoin="round"/>
<path d="M84.097 16.981V25.9932H88.035" stroke="#263238" stroke-width="0.149333" stroke-linecap="round" stroke-linejoin="round"/>
<path d="M87.6169 12.3428H81.6182C81.1514 12.3428 80.7729 12.7212 80.7729 13.188V16.6286C80.7729 17.0954 81.1514 17.4739 81.6182 17.4739H87.6169C88.0837 17.4739 88.4621 17.0954 88.4621 16.6286V13.188C88.4621 12.7212 88.0837 12.3428 87.6169 12.3428Z" fill="#50C2E7" stroke="#263238" stroke-width="0.149333" stroke-linecap="round" stroke-linejoin="round"/>
<path d="M92.6031 23.105H86.6044C86.1376 23.105 85.7592 23.4834 85.7592 23.9502V27.3908C85.7592 27.8577 86.1376 28.2361 86.6044 28.2361H92.6031C93.0699 28.2361 93.4483 27.8577 93.4483 27.3908V23.9502C93.4483 23.4834 93.0699 23.105 92.6031 23.105Z" fill="#263238" stroke="#263238" stroke-width="0.149333" stroke-linecap="round" stroke-linejoin="round"/>
<path d="M101.966 17.2422H95.9675C95.5007 17.2422 95.1223 17.6206 95.1223 18.0874V21.5281C95.1223 21.9949 95.5007 22.3733 95.9675 22.3733H101.966C102.433 22.3733 102.811 21.9949 102.811 21.5281V18.0874C102.811 17.6206 102.433 17.2422 101.966 17.2422Z" fill="white" stroke="#263238" stroke-width="0.149333" stroke-linecap="round" stroke-linejoin="round"/>
<path d="M99.2231 25.3662H96.7009C96.3355 25.3662 96.0393 25.6624 96.0393 26.0278V27.2702C96.0393 27.6356 96.3355 27.9318 96.7009 27.9318H99.2231C99.5885 27.9318 99.8846 27.6356 99.8846 27.2702V26.0278C99.8846 25.6624 99.5885 25.3662 99.2231 25.3662Z" fill="#50C2E7" stroke="#263238" stroke-width="0.149333" stroke-linecap="round" stroke-linejoin="round"/>
<path d="M103.733 25.3662H101.211C100.845 25.3662 100.549 25.6624 100.549 26.0278V27.2702C100.549 27.6356 100.845 27.9318 101.211 27.9318H103.733C104.098 27.9318 104.395 27.6356 104.395 27.2702V26.0278C104.395 25.6624 104.098 25.3662 103.733 25.3662Z" fill="#50C2E7" stroke="#263238" stroke-width="0.149333" stroke-linecap="round" stroke-linejoin="round"/>
<path d="M108.244 25.3662H105.722C105.357 25.3662 105.061 25.6624 105.061 26.0278V27.2702C105.061 27.6356 105.357 27.9318 105.722 27.9318H108.244C108.61 27.9318 108.906 27.6356 108.906 27.2702V26.0278C108.906 25.6624 108.61 25.3662 108.244 25.3662Z" fill="#50C2E7" stroke="#263238" stroke-width="0.149333" stroke-linecap="round" stroke-linejoin="round"/>
<path d="M82.9547 14.8247H86.1624" stroke="#263238" stroke-width="0.149333" stroke-linecap="round" stroke-linejoin="round"/>
<path d="M87.9812 25.626H91.1889" stroke="white" stroke-width="0.149333" stroke-linecap="round" stroke-linejoin="round"/>
<path d="M87.9812 26.2681H91.1889" stroke="white" stroke-width="0.149333" stroke-linecap="round" stroke-linejoin="round"/>
<path d="M97.0712 20.0649H101.563" stroke="#263238" stroke-width="0.149333" stroke-linecap="round" stroke-linejoin="round"/>
<path d="M97.0712 19.4658H101.563" stroke="#263238" stroke-width="0.149333" stroke-linecap="round" stroke-linejoin="round"/>
<path d="M35.9491 21.2993V22.4193" stroke="#263238" stroke-width="0.149333" stroke-linecap="round" stroke-linejoin="round"/>
<path d="M38.7178 21.2993V22.4193" stroke="#263238" stroke-width="0.149333" stroke-linecap="round" stroke-linejoin="round"/>
<path d="M41.4849 21.2993V22.4193" stroke="#263238" stroke-width="0.149333" stroke-linecap="round" stroke-linejoin="round"/>
<path d="M44.2535 21.2993V22.4193" stroke="#263238" stroke-width="0.149333" stroke-linecap="round" stroke-linejoin="round"/>
<path d="M47.0222 21.2993V22.4193" stroke="#263238" stroke-width="0.149333" stroke-linecap="round" stroke-linejoin="round"/>
<path d="M49.7909 21.2993V22.4193" stroke="#263238" stroke-width="0.149333" stroke-linecap="round" stroke-linejoin="round"/>
<path d="M52.5594 21.2993V22.4193" stroke="#263238" stroke-width="0.149333" stroke-linecap="round" stroke-linejoin="round"/>
<path d="M55.3281 21.2993V22.4193" stroke="#263238" stroke-width="0.149333" stroke-linecap="round" stroke-linejoin="round"/>
<path d="M58.0968 21.2993V22.4193" stroke="#263238" stroke-width="0.149333" stroke-linecap="round" stroke-linejoin="round"/>
<path d="M60.8549 21.2993V22.4193" stroke="#263238" stroke-width="0.149333" stroke-linecap="round" stroke-linejoin="round"/>
<path d="M63.6235 21.2993V22.4193" stroke="#263238" stroke-width="0.149333" stroke-linecap="round" stroke-linejoin="round"/>
<path d="M66.3922 21.2993V22.4193" stroke="#263238" stroke-width="0.149333" stroke-linecap="round" stroke-linejoin="round"/>
<path d="M69.1519 21.2993V22.4193" stroke="#263238" stroke-width="0.149333" stroke-linecap="round" stroke-linejoin="round"/>
<path d="M71.9205 21.2993V22.4193" stroke="#263238" stroke-width="0.149333" stroke-linecap="round" stroke-linejoin="round"/>
<path d="M74.6892 21.2993V22.4193" stroke="#263238" stroke-width="0.149333" stroke-linecap="round" stroke-linejoin="round"/>
<path d="M35.0651 21.2993H75.2492" stroke="#263238" stroke-width="0.149333" stroke-linecap="round" stroke-linejoin="round"/>
<path d="M37.1855 20.4167L39.8945 18.4724L42.6049 12.7305L45.4915 18.5904L47.9062 15.5276L50.7928 17.6481L53.6794 9.73193L56.6243 15.1736L59.0987 12.3453L61.4552 15.9606L64.8212 14.0163L67.5226 15.2498L70.1778 14.0163L73.7319 9.79764" stroke="#263238" stroke-width="0.448" stroke-linecap="round" stroke-linejoin="round"/>
<path d="M69.2489 5.97461H73.7991V8.25045H72.6179L73.5363 9.6497L71.8368 8.25045H69.2489V5.97461Z" fill="#263238"/>
<path d="M69.2489 20.1971H73.7991V17.9227H72.6179L73.5363 16.522L71.8368 17.9227H69.2489V20.1971Z" fill="#50C2E7"/>
<path d="M36.9974 17.9141L40.3111 15.4277L42.8737 17.4631L45.4348 15.2768L47.9958 17.6124L51.3872 13.3191L54.0229 14.8259L56.5855 17.6886L59.1466 14.5989L62.0854 12.6411L64.872 16.1818L67.66 17.0106L69.9195 16.7836L73.5363 15.1275" stroke="#50C2E7" stroke-width="0.448" stroke-linecap="round" stroke-linejoin="round"/>
<path d="M5.06238 28.9157C5.61909 29.5773 6.33441 30.087 7.14151 30.3972C7.94862 30.7074 8.82118 30.808 9.67771 30.6896C10.5342 30.5712 11.3468 30.2376 12.0394 29.7201C12.7321 29.2025 13.2823 28.5178 13.6386 27.73" stroke="#9E9E9E" stroke-width="1.344" stroke-miterlimit="10"/>
<path d="M4.49644 23.1543C3.99793 24.0594 3.78518 25.0943 3.88621 26.1227C3.98723 27.1511 4.3973 28.1248 5.06242 28.9156" stroke="#50C2E7" stroke-width="1.344" stroke-miterlimit="10"/>
<path d="M13.6386 27.7297C14.1792 26.5259 14.2336 25.1597 13.7905 23.9166C13.3475 22.6735 12.4412 21.6497 11.2611 21.0591C10.081 20.4685 8.71833 20.3567 7.45773 20.7471C6.19714 21.1375 5.13617 21.9999 4.49646 23.1542" stroke="#263238" stroke-width="1.344" stroke-miterlimit="10"/>
<path d="M17.4316 23.1258C17.4316 22.9956 17.393 22.8683 17.3206 22.76C17.2483 22.6517 17.1454 22.5673 17.0251 22.5174C16.9047 22.4676 16.7723 22.4545 16.6446 22.4799C16.5168 22.5054 16.3995 22.5681 16.3074 22.6602C16.2153 22.7523 16.1526 22.8696 16.1272 22.9974C16.1017 23.1251 16.1148 23.2575 16.1646 23.3779C16.2145 23.4982 16.2989 23.6011 16.4072 23.6734C16.5155 23.7458 16.6428 23.7844 16.7731 23.7844C16.8596 23.7846 16.9453 23.7677 17.0253 23.7347C17.1053 23.7017 17.178 23.6531 17.2392 23.592C17.3004 23.5308 17.3489 23.4581 17.3819 23.3781C17.4149 23.2981 17.4318 23.2124 17.4316 23.1258V23.1258Z" fill="#263238"/>
<path d="M17.4316 25.9574C17.4316 25.8271 17.393 25.6998 17.3206 25.5915C17.2483 25.4832 17.1454 25.3988 17.0251 25.349C16.9047 25.2991 16.7723 25.2861 16.6446 25.3115C16.5168 25.3369 16.3995 25.3996 16.3074 25.4917C16.2153 25.5838 16.1526 25.7012 16.1272 25.8289C16.1017 25.9567 16.1148 26.0891 16.1646 26.2094C16.2145 26.3297 16.2989 26.4326 16.4072 26.505C16.5155 26.5773 16.6428 26.6159 16.7731 26.6159C16.8596 26.6161 16.9453 26.5992 17.0253 26.5662C17.1053 26.5332 17.178 26.4847 17.2392 26.4235C17.3004 26.3623 17.3489 26.2896 17.3819 26.2096C17.4149 26.1297 17.4318 26.0439 17.4316 25.9574V25.9574Z" fill="#9E9E9E"/>
<path d="M17.4316 29.1337C17.4316 29.0034 17.393 28.8761 17.3206 28.7678C17.2483 28.6595 17.1454 28.5751 17.0251 28.5252C16.9047 28.4754 16.7723 28.4623 16.6446 28.4878C16.5168 28.5132 16.3995 28.5759 16.3074 28.668C16.2153 28.7601 16.1526 28.8774 16.1272 29.0052C16.1017 29.1329 16.1148 29.2653 16.1646 29.3857C16.2145 29.506 16.2989 29.6089 16.4072 29.6812C16.5155 29.7536 16.6428 29.7922 16.7731 29.7922C16.9477 29.7922 17.1152 29.7228 17.2387 29.5993C17.3622 29.4758 17.4316 29.3083 17.4316 29.1337V29.1337Z" fill="#50C2E7"/>
<path d="M18.4203 23.208H25.3329" stroke="#263238" stroke-width="0.149333" stroke-linecap="round" stroke-linejoin="round"/>
<path d="M18.4203 25.9243H25.3329" stroke="#263238" stroke-width="0.149333" stroke-linecap="round" stroke-linejoin="round"/>
<path d="M18.4203 29.1333H25.3329" stroke="#263238" stroke-width="0.149333" stroke-linecap="round" stroke-linejoin="round"/>
<path d="M23.1885 38.5259H3.62585V40.0401H23.1885V38.5259Z" stroke="#263238" stroke-width="0.149333" stroke-linecap="round" stroke-linejoin="round"/>
<path d="M23.1885 40.9243H3.62585V42.4386H23.1885V40.9243Z" stroke="#263238" stroke-width="0.149333" stroke-linecap="round" stroke-linejoin="round"/>
<path d="M23.1885 43.3228H3.62585V44.837H23.1885V43.3228Z" stroke="#263238" stroke-width="0.149333" stroke-linecap="round" stroke-linejoin="round"/>
<path d="M23.1885 45.7212H3.62585V47.2354H23.1885V45.7212Z" stroke="#263238" stroke-width="0.149333" stroke-linecap="round" stroke-linejoin="round"/>
<path d="M23.1885 48.1177H3.62585V49.6319H23.1885V48.1177Z" stroke="#263238" stroke-width="0.149333" stroke-linecap="round" stroke-linejoin="round"/>
<path d="M3.94836 37.418H9.46026" stroke="#263238" stroke-width="0.448" stroke-linecap="round" stroke-linejoin="round"/>
<path d="M3.94836 38.5542H13.0487" stroke="#263238" stroke-width="0.149333" stroke-linecap="round" stroke-linejoin="round"/>
<path d="M23.1885 40.6704H3.62585V42.1846H23.1885V40.6704Z" stroke="#263238" stroke-width="0.149333" stroke-linecap="round" stroke-linejoin="round"/>
<path d="M23.1885 43.0674H3.62585V44.5816H23.1885V43.0674Z" stroke="#263238" stroke-width="0.149333" stroke-linecap="round" stroke-linejoin="round"/>
<path d="M23.1885 45.4653H3.62585V46.9796H23.1885V45.4653Z" stroke="#263238" stroke-width="0.149333" stroke-linecap="round" stroke-linejoin="round"/>
<path d="M23.1885 47.8638H3.62585V49.378H23.1885V47.8638Z" stroke="#263238" stroke-width="0.149333" stroke-linecap="round" stroke-linejoin="round"/>
<path d="M23.1885 50.2622H3.62585V51.7764H23.1885V50.2622Z" stroke="#263238" stroke-width="0.149333" stroke-linecap="round" stroke-linejoin="round"/>
<path d="M10.8984 40.6704H3.62585V42.1846H10.8984V40.6704Z" fill="#263238" stroke="#263238" stroke-width="0.149333" stroke-linecap="round" stroke-linejoin="round"/>
<path d="M13.4863 43.0674H3.62585V44.5816H13.4863V43.0674Z" fill="#50C2E7" stroke="#263238" stroke-width="0.149333" stroke-linecap="round" stroke-linejoin="round"/>
<path d="M7.36964 45.4653H3.62585V46.9796H7.36964V45.4653Z" fill="#263238" stroke="#263238" stroke-width="0.149333" stroke-linecap="round" stroke-linejoin="round"/>
<path d="M19.718 47.8638H3.62585V49.378H19.718V47.8638Z" fill="#50C2E7" stroke="#263238" stroke-width="0.149333" stroke-linecap="round" stroke-linejoin="round"/>
<path d="M15.6024 50.2622H3.62585V51.7764H15.6024V50.2622Z" fill="#263238" stroke="#263238" stroke-width="0.149333" stroke-linecap="round" stroke-linejoin="round"/>
<path d="M78.6255 26.6621H33.7837C32.9927 26.6621 32.3516 27.3033 32.3516 28.0942V54.7189C32.3516 55.5098 32.9927 56.151 33.7837 56.151H78.6255C79.4164 56.151 80.0576 55.5098 80.0576 54.7189V28.0942C80.0576 27.3033 79.4164 26.6621 78.6255 26.6621Z" fill="#263238" stroke="#263238" stroke-width="0.149333" stroke-linecap="round" stroke-linejoin="round"/>
<path d="M77.0053 28.2822H35.4055C34.6393 28.2822 34.0182 28.9033 34.0182 29.6695V53.1417C34.0182 53.9079 34.6393 54.5291 35.4055 54.5291H77.0053C77.7715 54.5291 78.3926 53.9079 78.3926 53.1417V29.6695C78.3926 28.9033 77.7715 28.2822 77.0053 28.2822Z" fill="white" stroke="#263238" stroke-width="0.149333" stroke-linecap="round" stroke-linejoin="round"/>
<path d="M78.2477 37.3617V50.8734H58.9434V45.5676H65.3527V40.7799H71.1723V36.7285H78.17L78.2477 37.3617Z" fill="#50C2E7"/>
<path d="M78.4001 51.0215V53.142C78.4001 53.51 78.2539 53.8628 77.9937 54.123C77.7336 54.3832 77.3807 54.5293 77.0128 54.5293H35.4055C35.0376 54.5293 34.6847 54.3832 34.4245 54.123C34.1644 53.8628 34.0182 53.51 34.0182 53.142V51.0215H78.4001Z" fill="white" stroke="#263238" stroke-width="0.149333" stroke-linecap="round" stroke-linejoin="round"/>
<path d="M74.1096 41.9341H72.2086C72.0577 41.9341 71.9353 42.0564 71.9353 42.2074V44.1084C71.9353 44.2593 72.0577 44.3817 72.2086 44.3817H74.1096C74.2605 44.3817 74.3829 44.2593 74.3829 44.1084V42.2074C74.3829 42.0564 74.2605 41.9341 74.1096 41.9341Z" fill="white" stroke="#263238" stroke-width="0.149333" stroke-linecap="round" stroke-linejoin="round"/>
<path d="M74.1096 48.0732H72.2086C72.0577 48.0732 71.9353 48.1956 71.9353 48.3465V50.2475C71.9353 50.3985 72.0577 50.5208 72.2086 50.5208H74.1096C74.2605 50.5208 74.3829 50.3985 74.3829 50.2475V48.3465C74.3829 48.1956 74.2605 48.0732 74.1096 48.0732Z" fill="white" stroke="#263238" stroke-width="0.149333" stroke-linecap="round" stroke-linejoin="round"/>
<path d="M77.4532 47.1772V45.2762C77.4532 45.1253 77.3309 45.0029 77.18 45.0029H75.2789C75.128 45.0029 75.0057 45.1253 75.0057 45.2762V47.1772C75.0057 47.3282 75.128 47.4505 75.2789 47.4505H77.18C77.3309 47.4505 77.4532 47.3282 77.4532 47.1772Z" fill="white" stroke="#263238" stroke-width="0.149333" stroke-linecap="round" stroke-linejoin="round"/>
<path d="M71.3126 47.1772V45.2762C71.3126 45.1253 71.1903 45.0029 71.0393 45.0029H69.1383C68.9874 45.0029 68.865 45.1253 68.865 45.2762V47.1772C68.865 47.3282 68.9874 47.4505 69.1383 47.4505H71.0393C71.1903 47.4505 71.3126 47.3282 71.3126 47.1772Z" fill="white" stroke="#263238" stroke-width="0.149333" stroke-linecap="round" stroke-linejoin="round"/>
<path d="M53.636 44.5892H50.5762C50.2502 44.5892 49.9376 44.4597 49.7071 44.2292C49.4767 43.9987 49.3472 43.6861 49.3472 43.3602C49.3472 43.0342 49.4767 42.7216 49.7071 42.4911C49.9376 42.2607 50.2502 42.1312 50.5762 42.1312H52.407V41.1426C52.407 40.9812 52.4388 40.8214 52.5006 40.6723C52.5623 40.5232 52.6529 40.3877 52.767 40.2735C52.8811 40.1594 53.0166 40.0689 53.1657 40.0071C53.3148 39.9454 53.4746 39.9136 53.636 39.9136C53.7974 39.9136 53.9572 39.9454 54.1063 40.0071C54.2555 40.0689 54.3909 40.1594 54.5051 40.2735C54.6192 40.3877 54.7097 40.5232 54.7715 40.6723C54.8332 40.8214 54.865 40.9812 54.865 41.1426V43.3602C54.8646 43.686 54.735 43.9984 54.5046 44.2288C54.2742 44.4592 53.9619 44.5888 53.636 44.5892V44.5892Z" fill="white" stroke="#263238" stroke-width="0.149333" stroke-linecap="round" stroke-linejoin="round"/>
<path d="M54.2781 42.4286C54.2113 42.4286 54.1451 42.4155 54.0833 42.3899C54.0215 42.3643 53.9654 42.3268 53.9181 42.2795C53.8708 42.2322 53.8333 42.1761 53.8077 42.1143C53.7821 42.0525 53.7689 41.9863 53.7689 41.9194V39.5913H54.7889V41.9194C54.7885 42.0546 54.7345 42.1841 54.6388 42.2796C54.543 42.375 54.4133 42.4286 54.2781 42.4286V42.4286Z" fill="#263238" stroke="#263238" stroke-width="0.149333" stroke-linecap="round" stroke-linejoin="round"/>
<path d="M49.9998 45.4003C51.1998 45.4003 52.1726 44.4275 52.1726 43.2275C52.1726 42.0275 51.1998 41.0547 49.9998 41.0547C48.7998 41.0547 47.827 42.0275 47.827 43.2275C47.827 44.4275 48.7998 45.4003 49.9998 45.4003Z" fill="#50C2E7" stroke="#263238" stroke-width="0.149333" stroke-linecap="round" stroke-linejoin="round"/>
<path d="M50.0581 42.0298H45.0196C44.5132 42.0298 44.1027 42.4403 44.1027 42.9467V44.7491C44.1027 45.2555 44.5132 45.666 45.0196 45.666H50.0581C50.5645 45.666 50.975 45.2555 50.975 44.7491V42.9467C50.975 42.4403 50.5645 42.0298 50.0581 42.0298Z" fill="#50C2E7" stroke="#263238" stroke-width="0.149333" stroke-linecap="round" stroke-linejoin="round"/>
<path d="M52.3936 50.2252C52.2398 50.2258 52.0873 50.196 51.945 50.1375C51.8027 50.0789 51.6734 49.9929 51.5645 49.8842C51.4555 49.7756 51.3691 49.6465 51.3103 49.5043C51.2514 49.3622 51.2212 49.2098 51.2214 49.0559V47.122H50.3956C50.2384 47.1277 50.0817 47.1016 49.9349 47.0453C49.788 46.989 49.654 46.9037 49.5408 46.7945C49.4276 46.6853 49.3376 46.5545 49.2761 46.4097C49.2147 46.2649 49.183 46.1093 49.183 45.952C49.183 45.7948 49.2147 45.6391 49.2761 45.4943C49.3376 45.3496 49.4276 45.2187 49.5408 45.1095C49.654 45.0003 49.788 44.915 49.9349 44.8588C50.0817 44.8025 50.2384 44.7764 50.3956 44.782H52.3907C52.5443 44.7818 52.6965 44.8119 52.8386 44.8706C52.9806 44.9292 53.1097 45.0153 53.2184 45.1239C53.3272 45.2325 53.4134 45.3615 53.4723 45.5035C53.5311 45.6454 53.5614 45.7976 53.5614 45.9513V49.0559C53.5614 49.3658 53.4384 49.663 53.2195 49.8822C53.0005 50.1014 52.7035 50.2248 52.3936 50.2252V50.2252Z" fill="white" stroke="#263238" stroke-width="0.149333" stroke-linecap="round" stroke-linejoin="round"/>
<path d="M51.2213 47.1221V49.0559C51.2321 49.359 51.3602 49.6461 51.5784 49.8566C51.7966 50.0672 52.0881 50.1849 52.3913 50.1849C52.6946 50.1849 52.986 50.0672 53.2043 49.8566C53.4225 49.6461 53.5505 49.359 53.5614 49.0559V47.1221H51.2213Z" fill="white" stroke="#263238" stroke-width="0.149333" stroke-linecap="round" stroke-linejoin="round"/>
<path d="M45.2106 49.6343H42.3733C42.0628 49.6343 41.765 49.5109 41.5454 49.2914C41.3259 49.0718 41.2025 48.774 41.2025 48.4635C41.2025 48.153 41.3259 47.8552 41.5454 47.6357C41.765 47.4161 42.0628 47.2927 42.3733 47.2927H44.0398V46.0697C44.0398 45.7592 44.1632 45.4614 44.3828 45.2418C44.6023 45.0223 44.9001 44.8989 45.2106 44.8989C45.5211 44.8989 45.8189 45.0223 46.0385 45.2418C46.258 45.4614 46.3814 45.7592 46.3814 46.0697V48.459C46.382 48.6132 46.3521 48.7659 46.2936 48.9084C46.235 49.051 46.1488 49.1806 46.0401 49.2898C45.9313 49.399 45.802 49.4856 45.6597 49.5447C45.5174 49.6039 45.3647 49.6343 45.2106 49.6343V49.6343Z" fill="white" stroke="#263238" stroke-width="0.149333" stroke-linecap="round" stroke-linejoin="round"/>
<path d="M44.1026 47.04H44.0398V47.2924H42.3733C42.0628 47.2924 41.765 47.4158 41.5454 47.6353C41.3259 47.8549 41.2025 48.1527 41.2025 48.4632C41.2025 48.7737 41.3259 49.0715 41.5454 49.291C41.765 49.5106 42.0628 49.634 42.3733 49.634H44.1026V47.04Z" fill="white" stroke="#263238" stroke-width="0.149333" stroke-linecap="round" stroke-linejoin="round"/>
<path d="M42.6615 47.1504V49.5158C42.6615 49.8996 42.509 50.2677 42.2377 50.539C41.9663 50.8104 41.5982 50.9629 41.2145 50.9629H40.2229V47.1504H42.6615Z" fill="#263238" stroke="#263238" stroke-width="0.149333" stroke-linecap="round" stroke-linejoin="round"/>
<path d="M39.9332 51.032V47.2628C39.9332 47.225 39.9407 47.1875 39.9552 47.1525C39.9697 47.1176 39.9909 47.0858 40.0176 47.059C40.0444 47.0323 40.0762 47.011 40.1111 46.9966C40.1461 46.9821 40.1836 46.9746 40.2214 46.9746C40.2593 46.9744 40.2969 46.9817 40.332 46.9962C40.367 47.0106 40.3989 47.0318 40.4257 47.0586C40.4525 47.0854 40.4737 47.1172 40.4881 47.1523C40.5025 47.1874 40.5098 47.2249 40.5097 47.2628V51.032C40.5097 51.1084 40.4793 51.1817 40.4252 51.2358C40.3712 51.2898 40.2979 51.3202 40.2214 51.3202V51.3202C40.1451 51.3198 40.072 51.2893 40.0181 51.2354C39.9641 51.1814 39.9336 51.1083 39.9332 51.032Z" fill="white" stroke="#263238" stroke-width="0.149333" stroke-linecap="round" stroke-linejoin="round"/>
<path d="M50.9749 44.6909H44.1907V47.2624H50.9749V44.6909Z" fill="#263238" stroke="#263238" stroke-width="0.149333" stroke-linecap="round" stroke-linejoin="round"/>
<path d="M50.9749 44.6909H44.1907V45.3405H50.9749V44.6909Z" fill="#50C2E7" stroke="#263238" stroke-width="0.149333" stroke-linecap="round" stroke-linejoin="round"/>
<path d="M48.617 44.6909H46.5487V48.935H48.617V44.6909Z" fill="#50C2E7" stroke="#263238" stroke-width="0.149333" stroke-linecap="round" stroke-linejoin="round"/>
<path d="M48.7215 39.5029H45.7348C45.2738 39.5029 44.9 39.8767 44.9 40.3377V41.6384C44.9 42.0994 45.2738 42.4732 45.7348 42.4732H48.7215C49.1825 42.4732 49.5562 42.0994 49.5562 41.6384V40.3377C49.5562 39.8767 49.1825 39.5029 48.7215 39.5029Z" fill="white" stroke="#263238" stroke-width="0.149333" stroke-linecap="round" stroke-linejoin="round"/>
<path d="M47.2505 40.2126V41.4535H49.7772V43.9818L47.4476 43.362C47.302 43.3235 47.1733 43.2378 47.0814 43.1184C46.9896 42.999 46.9398 42.8526 46.9399 42.702V42.4735H45.3137C45.1806 42.4735 45.053 42.4206 44.9589 42.3265C44.8648 42.2324 44.8119 42.1048 44.8119 41.9717V40.1573C44.8119 40.1573 47.2505 40.0349 47.2505 40.2126Z" fill="#263238" stroke="#263238" stroke-width="0.149333" stroke-linecap="round" stroke-linejoin="round"/>
<path d="M49.4234 41.7281C49.7714 41.7281 50.0536 41.446 50.0536 41.098C50.0536 40.7499 49.7714 40.4678 49.4234 40.4678C49.0754 40.4678 48.7932 40.7499 48.7932 41.098C48.7932 41.446 49.0754 41.7281 49.4234 41.7281Z" fill="white" stroke="#263238" stroke-width="0.149333" stroke-linecap="round" stroke-linejoin="round"/>
<path d="M48.7155 38.4416L47.028 37.6396L45.6108 38.4192C45.3555 38.5593 45.1425 38.7655 44.9941 39.0161C44.8457 39.2667 44.7673 39.5525 44.7671 39.8438V40.4785H49.6443V39.9095C49.6443 39.602 49.557 39.3008 49.3925 39.041C49.2281 38.7811 48.9933 38.5733 48.7155 38.4416V38.4416Z" fill="#50C2E7" stroke="#263238" stroke-width="0.149333" stroke-linecap="round" stroke-linejoin="round"/>
<path d="M45.2988 40.2123C45.3969 40.2123 45.4765 40.1328 45.4765 40.0346C45.4765 39.9365 45.3969 39.8569 45.2988 39.8569C45.2007 39.8569 45.1211 39.9365 45.1211 40.0346C45.1211 40.1328 45.2007 40.2123 45.2988 40.2123Z" fill="#263238" stroke="#263238" stroke-width="0.149333" stroke-linecap="round" stroke-linejoin="round"/>
<path d="M46.4516 40.0346C46.4516 39.9994 46.4411 39.965 46.4215 39.9358C46.402 39.9065 46.3741 39.8837 46.3416 39.8703C46.309 39.8569 46.2732 39.8535 46.2387 39.8605C46.2042 39.8674 46.1725 39.8845 46.1477 39.9095C46.1229 39.9345 46.1061 39.9663 46.0994 40.0009C46.0927 40.0355 46.0965 40.0712 46.1101 40.1037C46.1238 40.1361 46.1468 40.1638 46.1763 40.1831C46.2057 40.2025 46.2402 40.2126 46.2754 40.2123C46.2987 40.2123 46.3217 40.2077 46.3432 40.1988C46.3647 40.1898 46.3841 40.1767 46.4005 40.1602C46.4169 40.1437 46.4299 40.1241 46.4386 40.1025C46.4474 40.081 46.4518 40.0579 46.4516 40.0346V40.0346Z" fill="#263238" stroke="#263238" stroke-width="0.149333" stroke-linecap="round" stroke-linejoin="round"/>
<path d="M47.4283 40.0346C47.4283 39.9995 47.4179 39.9651 47.3983 39.9359C47.3788 39.9067 47.3511 39.8839 47.3186 39.8705C47.2861 39.857 47.2504 39.8535 47.2159 39.8603C47.1814 39.8672 47.1498 39.8841 47.1249 39.909C47.1001 39.9338 47.0831 39.9655 47.0763 40C47.0694 40.0344 47.073 40.0702 47.0864 40.1026C47.0999 40.1351 47.1226 40.1629 47.1519 40.1824C47.1811 40.2019 47.2154 40.2123 47.2506 40.2123C47.2977 40.2123 47.3429 40.1936 47.3762 40.1603C47.4096 40.127 47.4283 40.0818 47.4283 40.0346Z" fill="#263238" stroke="#263238" stroke-width="0.149333" stroke-linecap="round" stroke-linejoin="round"/>
<path d="M48.4034 40.0346C48.4034 39.9875 48.3847 39.9423 48.3513 39.909C48.318 39.8757 48.2728 39.8569 48.2257 39.8569C48.1785 39.8569 48.1333 39.8757 48.1 39.909C48.0667 39.9423 48.048 39.9875 48.048 40.0346C48.048 40.0818 48.0667 40.127 48.1 40.1603C48.1333 40.1936 48.1785 40.2123 48.2257 40.2123C48.2728 40.2123 48.318 40.1936 48.3513 40.1603C48.3847 40.127 48.4034 40.0818 48.4034 40.0346V40.0346Z" fill="#263238" stroke="#263238" stroke-width="0.149333" stroke-linecap="round" stroke-linejoin="round"/>
<path d="M49.3786 40.0346C49.3786 39.9995 49.3682 39.9651 49.3487 39.9359C49.3291 39.9067 49.3014 39.8839 49.2689 39.8705C49.2364 39.857 49.2007 39.8535 49.1662 39.8603C49.1318 39.8672 49.1001 39.8841 49.0752 39.909C49.0504 39.9338 49.0335 39.9655 49.0266 40C49.0198 40.0344 49.0233 40.0702 49.0367 40.1026C49.0502 40.1351 49.0729 40.1629 49.1022 40.1824C49.1314 40.2019 49.1658 40.2123 49.2009 40.2123C49.248 40.2123 49.2932 40.1936 49.3266 40.1603C49.3599 40.127 49.3786 40.0818 49.3786 40.0346V40.0346Z" fill="#263238" stroke="#263238" stroke-width="0.149333" stroke-linecap="round" stroke-linejoin="round"/>
<path d="M54.9218 39.9902H54.9039C54.5047 39.9902 54.1812 40.3138 54.1812 40.713V41.1296C54.1812 41.5288 54.5047 41.8524 54.9039 41.8524H54.9218C55.321 41.8524 55.6446 41.5288 55.6446 41.1296V40.713C55.6446 40.3138 55.321 39.9902 54.9218 39.9902Z" fill="white" stroke="#263238" stroke-width="0.149333" stroke-linecap="round" stroke-linejoin="round"/>
<path d="M52.407 41.1431V40.7384C52.407 40.5403 52.4857 40.3504 52.6257 40.2104C52.7657 40.0704 52.9556 39.9917 53.1536 39.9917H53.8122C53.931 39.9917 54.045 40.0389 54.129 40.1229C54.213 40.2069 54.2602 40.3209 54.2602 40.4397C54.2602 40.5585 54.213 40.6725 54.129 40.7565C54.045 40.8405 53.931 40.8877 53.8122 40.8877H53.6345V41.7747" fill="white"/>
<path d="M52.407 41.1431V40.7384C52.407 40.5403 52.4857 40.3504 52.6257 40.2104C52.7657 40.0704 52.9556 39.9917 53.1536 39.9917H53.8122C53.931 39.9917 54.045 40.0389 54.129 40.1229C54.213 40.2069 54.2602 40.3209 54.2602 40.4397C54.2602 40.5585 54.213 40.6725 54.129 40.7565C54.045 40.8405 53.931 40.8877 53.8122 40.8877H53.6345V41.7747" stroke="#263238" stroke-width="0.149333" stroke-linecap="round" stroke-linejoin="round"/>
<path d="M55.2757 34.757L54.3454 34.0044L53.3254 34.757V39.458H55.2757V34.757Z" fill="white" stroke="#263238" stroke-width="0.149333" stroke-linecap="round" stroke-linejoin="round"/>
<path d="M55.7416 39.9019H52.5936C52.5615 39.9019 52.5298 39.8956 52.5001 39.8832C52.4705 39.8709 52.4436 39.8528 52.421 39.8301C52.3984 39.8073 52.3805 39.7803 52.3683 39.7506C52.3562 39.7209 52.35 39.6891 52.3502 39.657V39.657C52.3502 39.5924 52.3759 39.5305 52.4215 39.4849C52.4672 39.4392 52.5291 39.4136 52.5936 39.4136H55.7416C55.8061 39.4136 55.8681 39.4392 55.9137 39.4849C55.9594 39.5305 55.985 39.5924 55.985 39.657C55.9852 39.6891 55.979 39.7209 55.9669 39.7506C55.9548 39.7803 55.9369 39.8073 55.9142 39.8301C55.8916 39.8528 55.8647 39.8709 55.8351 39.8832C55.8055 39.8956 55.7737 39.9019 55.7416 39.9019V39.9019Z" fill="white" stroke="#263238" stroke-width="0.149333" stroke-linecap="round" stroke-linejoin="round"/>
<path d="M54.3455 34.0044V39.3251" stroke="#263238" stroke-width="0.149333" stroke-linecap="round" stroke-linejoin="round"/>
<path d="M51.1974 48.46H53.5628C53.9466 48.46 54.3147 48.6124 54.586 48.8838C54.8574 49.1552 55.0099 49.5232 55.0099 49.907V50.8986H51.1974V48.46Z" fill="#263238" stroke="#263238" stroke-width="0.149333" stroke-linecap="round" stroke-linejoin="round"/>
<path d="M55.077 50.9871H51.3079C51.27 50.9873 51.2324 50.9799 51.1973 50.9655C51.1623 50.9511 51.1304 50.9299 51.1036 50.9031C51.0768 50.8763 51.0556 50.8444 51.0412 50.8094C51.0268 50.7743 51.0195 50.7368 51.0197 50.6989V50.6989C51.0197 50.661 51.0271 50.6235 51.0416 50.5886C51.0561 50.5536 51.0773 50.5218 51.1041 50.4951C51.1308 50.4683 51.1626 50.4471 51.1976 50.4326C51.2325 50.4181 51.27 50.4106 51.3079 50.4106H55.077C55.1534 50.411 55.2264 50.4415 55.2804 50.4955C55.3344 50.5495 55.3649 50.6225 55.3653 50.6989V50.6989C55.3653 50.7753 55.3349 50.8486 55.2808 50.9027C55.2268 50.9567 55.1535 50.9871 55.077 50.9871V50.9871Z" fill="white" stroke="#263238" stroke-width="0.149333" stroke-linecap="round" stroke-linejoin="round"/>
<path d="M43.3037 45.4003C44.5037 45.4003 45.4765 44.4275 45.4765 43.2275C45.4765 42.0275 44.5037 41.0547 43.3037 41.0547C42.1037 41.0547 41.1309 42.0275 41.1309 43.2275C41.1309 44.4275 42.1037 45.4003 43.3037 45.4003Z" fill="#50C2E7" stroke="#263238" stroke-width="0.149333" stroke-linecap="round" stroke-linejoin="round"/>
<path d="M42.2838 48.956C44.2475 48.956 45.8394 47.3641 45.8394 45.4004C45.8394 43.4366 44.2475 41.8447 42.2838 41.8447C40.3201 41.8447 38.7281 43.4366 38.7281 45.4004C38.7281 47.3641 40.3201 48.956 42.2838 48.956Z" fill="white" stroke="#263238" stroke-width="0.149333" stroke-linecap="round" stroke-linejoin="round"/>
<path d="M42.2837 47.9199C43.675 47.9199 44.8029 46.7919 44.8029 45.4006C44.8029 44.0093 43.675 42.8813 42.2837 42.8813C40.8923 42.8813 39.7644 44.0093 39.7644 45.4006C39.7644 46.7919 40.8923 47.9199 42.2837 47.9199Z" fill="white" stroke="#263238" stroke-width="0.149333" stroke-linecap="round" stroke-linejoin="round"/>
<path d="M42.2777 45.4448L40.0377 46.5469C40.1577 46.7811 40.3134 46.9952 40.4992 47.1816C40.7056 47.3867 40.9461 47.5545 41.21 47.6774L42.2986 45.4687L42.2508 45.4926L42.2777 45.4448Z" fill="#263238" stroke="#263238" stroke-width="0.149333" stroke-linecap="round" stroke-linejoin="round"/>
<path d="M43.4097 43.147L42.2777 45.4452L42.3255 45.4213L42.3016 45.4691L44.5715 44.3506C44.4481 44.0782 44.2766 43.8304 44.0652 43.6189C43.8735 43.4273 43.6522 43.268 43.4097 43.147V43.147Z" fill="#263238" stroke="#263238" stroke-width="0.149333" stroke-linecap="round" stroke-linejoin="round"/>
<path d="M42.6049 45.7197C42.6665 45.6567 42.7082 45.5768 42.7247 45.4902C42.7411 45.4036 42.7317 45.314 42.6975 45.2327C42.6633 45.1515 42.6058 45.0821 42.5324 45.0333C42.4589 44.9845 42.3727 44.9585 42.2845 44.9585C42.1964 44.9585 42.1102 44.9845 42.0367 45.0333C41.9632 45.0821 41.9058 45.1515 41.8716 45.2327C41.8374 45.314 41.828 45.4036 41.8444 45.4902C41.8609 45.5768 41.9026 45.6567 41.9642 45.7197C42.006 45.7624 42.0558 45.7963 42.1108 45.8194C42.1658 45.8426 42.2249 45.8545 42.2845 45.8545C42.3442 45.8545 42.4033 45.8426 42.4583 45.8194C42.5133 45.7963 42.5631 45.7624 42.6049 45.7197V45.7197Z" fill="white" stroke="#263238" stroke-width="0.149333" stroke-linecap="round" stroke-linejoin="round"/>
<path d="M40.3395 43.3932C40.3894 43.3433 40.4174 43.2756 40.4174 43.2051C40.4174 43.1345 40.3894 43.0668 40.3395 43.0169C40.2896 42.967 40.2219 42.939 40.1513 42.939C40.0808 42.939 40.0131 42.967 39.9632 43.0169C39.9136 43.067 39.8857 43.1346 39.8857 43.2051C39.8857 43.2755 39.9136 43.3432 39.9632 43.3932C39.9878 43.4181 40.0171 43.4379 40.0494 43.4514C40.0817 43.465 40.1163 43.4719 40.1513 43.4719C40.1864 43.4719 40.221 43.465 40.2533 43.4514C40.2856 43.4379 40.3149 43.4181 40.3395 43.3932V43.3932Z" fill="white" stroke="#263238" stroke-width="0.149333" stroke-linecap="round" stroke-linejoin="round"/>
<path d="M44.6357 47.6879C44.6729 47.6507 44.6981 47.6034 44.7083 47.5518C44.7185 47.5003 44.7132 47.4469 44.6931 47.3983C44.673 47.3498 44.6389 47.3083 44.5952 47.2791C44.5515 47.2499 44.5001 47.2344 44.4476 47.2344C44.395 47.2344 44.3437 47.2499 44.3 47.2791C44.2563 47.3083 44.2222 47.3498 44.2021 47.3983C44.1819 47.4469 44.1766 47.5003 44.1868 47.5518C44.197 47.6034 44.2223 47.6507 44.2594 47.6879C44.2839 47.7131 44.3132 47.733 44.3455 47.7466C44.3778 47.7603 44.4125 47.7673 44.4476 47.7673C44.4826 47.7673 44.5174 47.7603 44.5497 47.7466C44.582 47.733 44.6113 47.7131 44.6357 47.6879Z" fill="white" stroke="#263238" stroke-width="0.149333" stroke-linecap="round" stroke-linejoin="round"/>
<path d="M44.2594 43.3934C44.2965 43.4305 44.3439 43.4558 44.3955 43.466C44.447 43.4762 44.5004 43.4709 44.549 43.4508C44.5975 43.4307 44.639 43.3966 44.6682 43.3529C44.6973 43.3092 44.7129 43.2578 44.7129 43.2053C44.7129 43.1527 44.6973 43.1013 44.6682 43.0576C44.639 43.0139 44.5975 42.9799 44.549 42.9597C44.5004 42.9396 44.447 42.9343 44.3955 42.9445C44.3439 42.9547 44.2965 42.98 44.2594 43.0171C44.2344 43.0417 44.2146 43.071 44.2011 43.1033C44.1876 43.1356 44.1807 43.1703 44.1807 43.2053C44.1807 43.2403 44.1876 43.2749 44.2011 43.3072C44.2146 43.3395 44.2344 43.3688 44.2594 43.3934Z" fill="white" stroke="#263238" stroke-width="0.149333" stroke-linecap="round" stroke-linejoin="round"/>
<path d="M39.9631 47.6881C40.0002 47.7254 40.0475 47.7509 40.0991 47.7613C40.1507 47.7717 40.2043 47.7665 40.2529 47.7464C40.3016 47.7263 40.3432 47.6923 40.3725 47.6485C40.4018 47.6048 40.4174 47.5533 40.4174 47.5007C40.4174 47.448 40.4018 47.3966 40.3725 47.3528C40.3432 47.3091 40.3016 47.275 40.2529 47.255C40.2043 47.2349 40.1507 47.2297 40.0991 47.2401C40.0475 47.2505 40.0002 47.2759 39.9631 47.3133C39.9384 47.3378 39.9188 47.367 39.9054 47.3992C39.892 47.4314 39.8851 47.4658 39.8851 47.5007C39.8851 47.5355 39.892 47.57 39.9054 47.6022C39.9188 47.6343 39.9384 47.6635 39.9631 47.6881V47.6881Z" fill="white" stroke="#263238" stroke-width="0.149333" stroke-linecap="round" stroke-linejoin="round"/>
<path d="M45.3376 45.6185C45.4844 45.6185 45.6034 45.4995 45.6034 45.3527C45.6034 45.2059 45.4844 45.0869 45.3376 45.0869C45.1908 45.0869 45.0718 45.2059 45.0718 45.3527C45.0718 45.4995 45.1908 45.6185 45.3376 45.6185Z" fill="white" stroke="#263238" stroke-width="0.149333" stroke-linecap="round" stroke-linejoin="round"/>
<path d="M39.2628 45.6185C39.4096 45.6185 39.5286 45.4995 39.5286 45.3527C39.5286 45.2059 39.4096 45.0869 39.2628 45.0869C39.116 45.0869 38.9969 45.2059 38.9969 45.3527C38.9969 45.4995 39.116 45.6185 39.2628 45.6185Z" fill="white" stroke="#263238" stroke-width="0.149333" stroke-linecap="round" stroke-linejoin="round"/>
<path d="M42.3002 42.5809C42.3528 42.5809 42.4042 42.5654 42.4479 42.5361C42.4916 42.5069 42.5257 42.4654 42.5458 42.4169C42.5659 42.3683 42.5712 42.3148 42.5609 42.2633C42.5507 42.2117 42.5254 42.1643 42.4882 42.1272C42.451 42.09 42.4037 42.0647 42.3521 42.0544C42.3005 42.0442 42.2471 42.0494 42.1985 42.0695C42.1499 42.0897 42.1084 42.1237 42.0792 42.1675C42.05 42.2112 42.0344 42.2626 42.0344 42.3151C42.0344 42.3856 42.0624 42.4532 42.1123 42.5031C42.1621 42.5529 42.2297 42.5809 42.3002 42.5809V42.5809Z" fill="white" stroke="#263238" stroke-width="0.149333" stroke-linecap="round" stroke-linejoin="round"/>
<path d="M42.3002 48.6557C42.3528 48.6557 42.4042 48.6401 42.4479 48.6109C42.4916 48.5816 42.5257 48.5401 42.5458 48.4916C42.5659 48.443 42.5712 48.3895 42.5609 48.338C42.5507 48.2864 42.5254 48.2391 42.4882 48.2019C42.451 48.1647 42.4037 48.1394 42.3521 48.1291C42.3005 48.1189 42.2471 48.1241 42.1985 48.1443C42.1499 48.1644 42.1084 48.1984 42.0792 48.2422C42.05 48.2859 42.0344 48.3373 42.0344 48.3898C42.0344 48.4603 42.0624 48.5279 42.1123 48.5778C42.1621 48.6276 42.2297 48.6557 42.3002 48.6557Z" fill="white" stroke="#263238" stroke-width="0.149333" stroke-linecap="round" stroke-linejoin="round"/>
<path d="M62.835 29.9131H57.9369C57.3332 29.9131 56.8438 30.4025 56.8438 31.0062V35.9043C56.8438 36.5081 57.3332 36.9975 57.9369 36.9975H62.835C63.4387 36.9975 63.9281 36.5081 63.9281 35.9043V31.0062C63.9281 30.4025 63.4387 29.9131 62.835 29.9131Z" fill="#263238"/>
<path d="M42.0851 29.9131H37.187C36.5833 29.9131 36.0939 30.4025 36.0939 31.0062V35.9043C36.0939 36.5081 36.5833 36.9975 37.187 36.9975H42.0851C42.6888 36.9975 43.1782 36.5081 43.1782 35.9043V31.0062C43.1782 30.4025 42.6888 29.9131 42.0851 29.9131Z" fill="white" stroke="#263238" stroke-width="0.149333" stroke-linecap="round" stroke-linejoin="round"/>
<path d="M60.9175 34.5092H59.5959V34.3763C59.5901 34.1906 59.6159 34.0053 59.6721 33.8283C59.7236 33.6875 59.8005 33.5574 59.8991 33.4445C60.1127 33.226 60.3402 33.0215 60.58 32.8322C60.7682 32.6779 60.8623 32.5375 60.8623 32.4111C60.8655 32.3561 60.8571 32.3011 60.8375 32.2496C60.818 32.1981 60.7877 32.1514 60.7488 32.1124C60.6522 32.0341 60.5292 31.9962 60.4053 32.0064C60.3298 32.004 60.2546 32.0172 60.1844 32.0452C60.1143 32.0732 60.0507 32.1154 59.9976 32.1692C59.868 32.3315 59.7951 32.5319 59.79 32.7396L58.446 32.5739C58.4735 32.1228 58.6659 31.6976 58.9866 31.3792C59.3022 31.0805 59.7841 30.9312 60.4322 30.9312C60.863 30.9104 61.29 31.0208 61.6567 31.2478C61.8525 31.3664 62.0141 31.534 62.1254 31.7341C62.2366 31.9341 62.2939 32.1598 62.2914 32.3887C62.2898 32.5903 62.233 32.7876 62.1271 32.9591C61.9443 33.2194 61.7186 33.4466 61.4596 33.6311C61.2848 33.7527 61.1331 33.9044 61.0116 34.0791C60.946 34.2128 60.9137 34.3604 60.9175 34.5092V34.5092ZM59.5496 34.8602H60.9653V36.1101H59.5496V34.8602Z" fill="#50C2E7"/>
<path d="M71.226 35.6161C72.4054 35.6161 73.3615 34.6601 73.3615 33.4807C73.3615 32.3013 72.4054 31.3452 71.226 31.3452C70.0467 31.3452 69.0906 32.3013 69.0906 33.4807C69.0906 34.6601 70.0467 35.6161 71.226 35.6161Z" fill="#50C2E7" stroke="#263238" stroke-width="0.149333" stroke-linecap="round" stroke-linejoin="round"/>
<path d="M71.5864 35.0109C72.429 34.8111 72.9501 33.966 72.7503 33.1234C72.5505 32.2808 71.7055 31.7597 70.8629 31.9595C70.0202 32.1593 69.4991 33.0044 69.6989 33.847C69.8987 34.6896 70.7438 35.2107 71.5864 35.0109Z" fill="#50C2E7" stroke="#263238" stroke-width="0.149333" stroke-linecap="round" stroke-linejoin="round"/>
<path d="M49.6594 35.6161C50.8388 35.6161 51.7949 34.6601 51.7949 33.4807C51.7949 32.3013 50.8388 31.3452 49.6594 31.3452C48.48 31.3452 47.5239 32.3013 47.5239 33.4807C47.5239 34.6601 48.48 35.6161 49.6594 35.6161Z" fill="#50C2E7" stroke="#263238" stroke-width="0.149333" stroke-linecap="round" stroke-linejoin="round"/>
<path d="M50.0192 35.0099C50.8618 34.8101 51.3829 33.9651 51.1831 33.1224C50.9833 32.2798 50.1382 31.7587 49.2956 31.9585C48.453 32.1583 47.9319 33.0034 48.1317 33.846C48.3315 34.6886 49.1765 35.2097 50.0192 35.0099Z" fill="#50C2E7" stroke="#263238" stroke-width="0.149333" stroke-linecap="round" stroke-linejoin="round"/>
<path d="M66.7103 52.2488C66.7097 52.314 66.6963 52.3785 66.6706 52.4384C66.645 52.4984 66.6077 52.5527 66.5609 52.5982L66.31 52.8506L65.6112 53.5494L64.9108 52.8506L64.6614 52.5982C64.6139 52.5527 64.576 52.4981 64.5498 52.4377C64.5237 52.3774 64.5099 52.3124 64.5092 52.2466C64.5085 52.1808 64.5209 52.1155 64.5458 52.0546C64.5706 51.9937 64.6074 51.9384 64.6539 51.8918C64.7005 51.8453 64.7558 51.8086 64.8167 51.7837C64.8776 51.7588 64.9429 51.7464 65.0087 51.7471C65.0745 51.7478 65.1395 51.7616 65.1998 51.7878C65.2602 51.8139 65.3148 51.8518 65.3603 51.8993L65.6127 52.1502L65.8635 51.8993C65.9562 51.8067 66.0819 51.7546 66.213 51.7546C66.344 51.7546 66.4697 51.8067 66.5624 51.8993C66.6091 51.9448 66.6463 51.9991 66.6717 52.0591C66.6971 52.1191 66.7102 52.1836 66.7103 52.2488V52.2488Z" fill="#50C2E7" stroke="#263238" stroke-width="0.149333" stroke-linecap="round" stroke-linejoin="round"/>
<path d="M69.5386 52.2488C69.5381 52.314 69.5246 52.3785 69.4989 52.4384C69.4733 52.4984 69.436 52.5527 69.3892 52.5982L69.1413 52.8506L68.4425 53.5494L67.7421 52.8506L67.4987 52.5982C67.4512 52.5527 67.4133 52.4981 67.3871 52.4377C67.361 52.3774 67.3472 52.3124 67.3465 52.2466C67.3458 52.1808 67.3582 52.1155 67.3831 52.0546C67.4079 51.9937 67.4447 51.9384 67.4912 51.8918C67.5377 51.8453 67.5931 51.8086 67.654 51.7837C67.7149 51.7588 67.7802 51.7464 67.846 51.7471C67.9117 51.7478 67.9767 51.7616 68.0371 51.7878C68.0975 51.8139 68.152 51.8518 68.1976 51.8993L68.4499 52.1502L68.7008 51.8993C68.7935 51.8067 68.9192 51.7546 69.0503 51.7546C69.1813 51.7546 69.307 51.8067 69.3997 51.8993C69.4448 51.9455 69.4803 52.0001 69.5041 52.0601C69.528 52.1201 69.5397 52.1842 69.5386 52.2488V52.2488Z" fill="#50C2E7" stroke="#263238" stroke-width="0.149333" stroke-linecap="round" stroke-linejoin="round"/>
<path d="M41.9238 32.5803C41.9248 32.7189 41.8982 32.8562 41.8457 32.9844C41.7931 33.1126 41.7156 33.229 41.6177 33.327L41.086 33.8601L39.6046 35.3415L38.1232 33.8601L37.5901 33.327C37.3937 33.1305 37.2833 32.8641 37.2833 32.5863C37.2833 32.3085 37.3937 32.042 37.5901 31.8456C37.7866 31.6492 38.053 31.5388 38.3308 31.5388C38.6086 31.5388 38.8751 31.6492 39.0715 31.8456L39.6046 32.3787L40.1363 31.8456C40.2825 31.6963 40.4701 31.5943 40.6749 31.5527C40.8796 31.5111 41.0922 31.5318 41.2851 31.6122C41.478 31.6925 41.6424 31.8289 41.757 32.0036C41.8716 32.1783 41.9313 32.3833 41.9283 32.5923L41.9238 32.5803Z" fill="#50C2E7" stroke="#263238" stroke-width="0.149333" stroke-linecap="round" stroke-linejoin="round"/>
<path d="M72.3669 52.2485C72.3664 52.3138 72.3529 52.3782 72.3273 52.4382C72.3017 52.4982 72.2644 52.5525 72.2176 52.598L71.9787 52.8503L71.2798 53.5492L70.5809 52.8503L70.3285 52.598C70.2359 52.5053 70.1838 52.3796 70.1838 52.2485C70.1838 52.1175 70.2359 51.9918 70.3285 51.8991C70.4212 51.8064 70.5469 51.7544 70.678 51.7544C70.809 51.7544 70.9347 51.8064 71.0274 51.8991L71.2798 52.15L71.5307 51.8991C71.6234 51.8064 71.7491 51.7544 71.8801 51.7544C72.0112 51.7544 72.1369 51.8064 72.2295 51.8991C72.2744 51.9454 72.3096 52.0001 72.3332 52.0601C72.3568 52.1201 72.3682 52.1841 72.3669 52.2485V52.2485Z" fill="#50C2E7" stroke="#263238" stroke-width="0.149333" stroke-linecap="round" stroke-linejoin="round"/>
<path d="M53.5628 52.3428H39.5658V53.1537H53.5628V52.3428Z" fill="#50C2E7" stroke="#263238" stroke-width="0.149333" stroke-linecap="round" stroke-linejoin="round"/>
<path d="M56.1404 52.3428H54.2991V53.1537H56.1404V52.3428Z" fill="#50C2E7" stroke="#263238" stroke-width="0.149333" stroke-linecap="round" stroke-linejoin="round"/>
<path d="M37.3751 56.1495H33.7388C33.3709 56.1495 33.018 56.0034 32.7579 55.7432C32.4977 55.483 32.3515 55.1302 32.3515 54.7622V38.5596C31.3719 39.2853 29.3395 40.8294 28.6466 41.6373C27.7207 42.7185 27.0263 44.4164 26.7172 46.192C26.4081 47.9676 25.2507 49.5117 25.5584 50.3614C25.866 51.2111 27.0263 56.3825 27.4116 58.4657C27.6782 59.8669 27.833 61.287 27.8745 62.7127C27.8745 63.1757 26.7172 69.0415 26.7172 69.0415L35.1306 69.3506C35.1306 69.3506 34.9813 66.4177 35.28 65.4903C35.5786 64.563 36.9002 62.4036 36.7464 61.091C36.6001 59.8022 37.4826 57.5473 37.3751 56.1495Z" fill="white" stroke="#263238" stroke-width="0.149333" stroke-linecap="round" stroke-linejoin="round"/>
<path d="M32.3516 41.4683L31.5034 42.4539C31.5034 42.4539 31.1943 44.107 31.0405 44.879C30.9411 45.3592 30.7852 45.8259 30.576 46.2693C30.576 46.2693 31.1166 47.5043 31.4258 47.9672C31.6165 48.2563 31.7719 48.5671 31.8887 48.8931L32.3516 49.1918V41.4683Z" fill="#263238" stroke="#263238" stroke-width="0.149333" stroke-linecap="round" stroke-linejoin="round"/>
<path d="M28.4749 46.4636C28.8883 46.4088 29.3047 46.3793 29.7218 46.3755" stroke="#263238" stroke-width="0.149333" stroke-linecap="round" stroke-linejoin="round"/>
<path d="M30.6134 41.8311C30.6134 41.8311 31.5094 42.0984 31.5094 42.4538" stroke="#263238" stroke-width="0.149333" stroke-linecap="round" stroke-linejoin="round"/>
<path d="M25.2552 70.0372C25.2552 70.0372 25.642 66.3726 25.642 65.9873V64.83C25.642 64.4447 26.0273 64.155 26.0273 64.155C26.0273 64.155 29.7875 63.3829 33.5492 64.6373C37.3109 65.8917 36.4373 67.9197 36.4373 67.9197L36.2447 70.8137" fill="white"/>
<path d="M25.2552 70.0372C25.2552 70.0372 25.642 66.3726 25.642 65.9873V64.83C25.642 64.4447 26.0273 64.155 26.0273 64.155C26.0273 64.155 29.7875 63.3829 33.5492 64.6373C37.3109 65.8917 36.4373 67.9197 36.4373 67.9197L36.2447 70.8137" stroke="#263238" stroke-width="0.149333" stroke-linecap="round" stroke-linejoin="round"/>
<path d="M30.2699 51.9128C30.2699 51.9128 31.6572 48.8933 31.8125 47.7315C31.9678 46.5697 31.6632 43.8712 32.044 42.7915C32.4248 41.7119 32.1933 40.3201 33.1237 39.781C34.054 39.2419 35.286 39.3942 35.513 41.5566C35.74 43.7189 35.513 47.1133 35.5892 48.2766C35.6653 49.4399 37.6798 51.1333 37.7515 53.6033C37.8232 56.0733 36.9794 58.6209 36.748 59.7006C36.5165 60.7802 35.5892 63.3294 35.5892 63.3294" fill="white"/>
<path d="M30.2699 51.9128C30.2699 51.9128 31.6572 48.8933 31.8125 47.7315C31.9678 46.5697 31.6632 43.8712 32.044 42.7915C32.4248 41.7119 32.1933 40.3201 33.1237 39.781C34.054 39.2419 35.286 39.3942 35.513 41.5566C35.74 43.7189 35.513 47.1133 35.5892 48.2766C35.6653 49.4399 37.6798 51.1333 37.7515 53.6033C37.8232 56.0733 36.9794 58.6209 36.748 59.7006C36.5165 60.7802 35.5892 63.3294 35.5892 63.3294" stroke="#263238" stroke-width="0.149333" stroke-linecap="round" stroke-linejoin="round"/>
<path d="M32.4248 42.2821C32.8821 42.1709 33.3583 42.1617 33.8196 42.2553C34.2367 42.3348 34.6491 42.438 35.0545 42.5644C35.0988 42.0506 35.0988 41.534 35.0545 41.0203C35.0545 41.0203 35.1561 40.1377 34.6215 39.7823C34.0869 39.4269 33.0176 39.515 32.6622 40.3169C32.3068 41.1188 32.4248 42.2821 32.4248 42.2821Z" stroke="#263238" stroke-width="0.149333" stroke-linecap="round" stroke-linejoin="round"/>
<path d="M34.3541 43.7023C34.3541 43.7023 32.5726 43.1677 32.1276 43.88" stroke="#263238" stroke-width="0.149333" stroke-linecap="round" stroke-linejoin="round"/>
<path d="M32.5725 44.1475C32.5725 44.1475 33.1071 44.3252 34.266 44.2371" stroke="#263238" stroke-width="0.149333" stroke-linecap="round" stroke-linejoin="round"/>
<path d="M87.1465 50.3611C87.4556 49.5114 86.2983 47.9718 85.9891 46.1917C85.68 44.4117 84.9856 42.7182 84.0598 41.6371C83.2847 40.7411 80.8416 38.9162 80.0591 38.3428V54.7694C80.0591 55.1374 79.913 55.4902 79.6528 55.7504C79.3926 56.0106 79.0397 56.1567 78.6718 56.1567H75.3312C75.2162 57.553 76.1048 59.8079 75.9539 61.0967C75.8046 62.4093 77.1113 64.5702 77.4204 65.4961C77.7295 66.4219 77.5697 69.3563 77.5697 69.3563L85.9847 69.0472C85.9847 69.0472 84.8273 63.1814 84.8273 62.7184C84.868 61.2927 85.0228 59.8725 85.2903 58.4714C85.68 56.3822 86.8389 51.2093 87.1465 50.3611Z" fill="white" stroke="#263238" stroke-width="0.149333" stroke-linecap="round" stroke-linejoin="round"/>
<path d="M81.6659 44.8792C81.5166 44.1072 81.203 42.454 81.203 42.454L80.0591 41.1265V49.3756L80.8162 48.8933C80.9339 48.5674 81.0898 48.2566 81.2806 47.9674C81.5883 47.5045 82.1288 46.2695 82.1288 46.2695C81.9198 45.8261 81.7644 45.3594 81.6659 44.8792V44.8792Z" fill="#263238" stroke="#263238" stroke-width="0.149333" stroke-linecap="round" stroke-linejoin="round"/>
<path d="M84.2314 46.4636C83.818 46.4088 83.4015 46.3794 82.9845 46.3755" stroke="#263238" stroke-width="0.149333" stroke-linecap="round" stroke-linejoin="round"/>
<path d="M82.093 41.8311C82.093 41.8311 81.197 42.0984 81.197 42.4538" stroke="#263238" stroke-width="0.149333" stroke-linecap="round" stroke-linejoin="round"/>
<path d="M87.4496 70.0371C87.4496 70.0371 87.0614 66.377 87.0614 65.9917V64.8343C87.0614 64.4491 86.6761 64.1594 86.6761 64.1594C86.6761 64.1594 82.9144 63.3873 79.1542 64.6417C75.394 65.8961 76.2601 67.9196 76.2601 67.9196L76.4587 70.8137" fill="white"/>
<path d="M87.4496 70.0371C87.4496 70.0371 87.0614 66.377 87.0614 65.9917V64.8343C87.0614 64.4491 86.6761 64.1594 86.6761 64.1594C86.6761 64.1594 82.9144 63.3873 79.1542 64.6417C75.394 65.8961 76.2601 67.9196 76.2601 67.9196L76.4587 70.8137" stroke="#263238" stroke-width="0.149333" stroke-linecap="round" stroke-linejoin="round"/>
<path d="M81.7212 52.6105C81.7212 52.6105 79.5663 48.4277 79.1467 47.339C78.727 46.2504 78.4 43.549 77.7728 42.5888C77.1456 41.6285 77.047 40.2218 76.0211 39.9112C74.9952 39.6006 73.8289 40.0381 74.1067 42.1945C74.3844 44.3509 75.3984 47.6004 75.6 48.7443C75.8016 49.8882 74.2366 52.0072 74.7354 54.4279C75.2341 56.8486 76.6528 59.1289 77.1247 60.125" fill="white"/>
<path d="M81.7212 52.6105C81.7212 52.6105 79.5663 48.4277 79.1467 47.339C78.727 46.2504 78.4 43.549 77.7728 42.5888C77.1456 41.6285 77.047 40.2218 76.0211 39.9112C74.9952 39.6006 73.8289 40.0381 74.1067 42.1945C74.3844 44.3509 75.3984 47.6004 75.6 48.7443C75.8016 49.8882 74.2366 52.0072 74.7354 54.4279C75.2341 56.8486 76.6528 59.1289 77.1247 60.125" stroke="#263238" stroke-width="0.149333" stroke-linecap="round" stroke-linejoin="round"/>
<path d="M77.2815 42.1763C76.8112 42.1756 76.3464 42.2775 75.9196 42.475C75.5324 42.6495 75.1555 42.846 74.7906 43.0634C74.6271 42.5741 74.5066 42.0714 74.4307 41.5611C74.4307 41.5611 74.1321 40.7278 74.5636 40.2574C74.9952 39.787 76.057 39.6242 76.5946 40.3201C77.1322 41.016 77.2815 42.1763 77.2815 42.1763Z" stroke="#263238" stroke-width="0.149333" stroke-linecap="round" stroke-linejoin="round"/>
<path d="M75.7358 44.0055C75.7358 44.0055 77.3442 43.0707 77.943 43.6606" stroke="#263238" stroke-width="0.149333" stroke-linecap="round" stroke-linejoin="round"/>
<path d="M77.5727 44.0249C77.5727 44.0249 77.0933 44.3236 75.9464 44.5043" stroke="#263238" stroke-width="0.149333" stroke-linecap="round" stroke-linejoin="round"/>
</svg>
