<svg width="47" height="47" viewBox="0 0 47 47" fill="none" xmlns="http://www.w3.org/2000/svg">
<path d="M23.5 41.125C33.234 41.125 41.125 33.234 41.125 23.5C41.125 13.766 33.234 5.875 23.5 5.875C13.766 5.875 5.875 13.766 5.875 23.5C5.875 33.234 13.766 41.125 23.5 41.125Z" stroke="black" stroke-width="3.91667" stroke-linecap="round" stroke-linejoin="round"/>
<path d="M27.1562 19.0935C26.6745 18.1535 25.7697 17.5876 24.8062 17.6248H22.1938C20.7525 17.6248 19.5834 18.9369 19.5834 20.5623C19.5834 22.1818 20.7525 23.4978 22.1938 23.4978H24.8062C26.2476 23.4978 27.4167 24.8119 27.4167 26.4353C27.4167 28.0568 26.2476 29.3709 24.8062 29.3709H22.1938C21.2303 29.4081 20.3256 28.8421 19.8438 27.9021" stroke="black" stroke-width="3.91667" stroke-linecap="round" stroke-linejoin="round"/>
<path d="M23.5 13.7085V17.6252" stroke="black" stroke-width="3.91667" stroke-linecap="round" stroke-linejoin="round"/>
<path d="M23.5 29.375V33.2917" stroke="black" stroke-width="3.91667" stroke-linecap="round" stroke-linejoin="round"/>
<path d="M11.75 11.75L14.6875 14.6875" stroke="black" stroke-width="3.91667" stroke-linecap="round" stroke-linejoin="round"/>
<path d="M32.3125 32.3125L35.25 35.25" stroke="black" stroke-width="3.91667" stroke-linecap="round" stroke-linejoin="round"/>
<path d="M29.375 29.375L32.3125 32.3125" stroke="black" stroke-width="3.91667" stroke-linecap="round" stroke-linejoin="round"/>
<path d="M23.5 23.5L26.4375 26.4375" stroke="black" stroke-width="3.91667" stroke-linecap="round" stroke-linejoin="round"/>
<path d="M19.5834 19.5835L22.5209 22.521" stroke="black" stroke-width="3.91667" stroke-linecap="round" stroke-linejoin="round"/>
<path d="M15.6666 15.6665L18.6041 18.604" stroke="black" stroke-width="3.91667" stroke-linecap="round" stroke-linejoin="round"/>
</svg>
