<svg width="30" height="24" viewBox="0 0 30 24" fill="none" xmlns="http://www.w3.org/2000/svg">
<path d="M27 0H3C1.3455 0 0 1.3455 0 3V21C0 22.6545 1.3455 24 3 24H27C28.6545 24 30 22.6545 30 21V3C30 1.3455 28.6545 0 27 0ZM10.0725 6C11.799 6 13.0725 7.2735 13.0725 9C13.0725 10.7265 11.799 12 10.0725 12C8.346 12 7.0725 10.7265 7.0725 9C7.0725 7.2735 8.3445 6 10.0725 6ZM15.645 18H4.5V17.3025C4.5 15.243 7.014 13.125 10.0725 13.125C13.131 13.125 15.645 15.243 15.645 17.3025V18ZM25.5 16.5H19.5V13.5H25.5V16.5ZM25.5 10.5H18V7.5H25.5V10.5Z" fill="black"/>
</svg>
