<svg width="500" height="500" viewBox="0 0 500 500" fill="none" xmlns="http://www.w3.org/2000/svg">
<path d="M357.5 169.39C374.37 206.73 407.83 230.88 431.31 263.39C452.94 293.27 460 334.94 441 368.1C419.27 405.93 373.3 401.24 337.76 389C319.21 382.61 298.59 369.94 278.51 369.94C250.93 369.94 216.63 406.47 161.51 404.94C121.28 403.87 73.64 394.63 58 352C38.42 298.55 90.4 257.24 119.68 220.05C139.46 194.92 152.07 165.13 172.17 140.22C185.41 123.81 203.09 106.73 224.27 102.65C249.19 97.8401 274.11 97.9601 298.17 106.97C328.82 118.46 344.51 140.63 357.5 169.39Z" fill="url(#paint0_linear_406_4)"/>
<path opacity="0.7" d="M357.5 169.39C374.37 206.73 407.83 230.88 431.31 263.39C452.94 293.27 460 334.94 441 368.1C419.27 405.93 373.3 401.24 337.76 389C319.21 382.61 298.59 369.94 278.51 369.94C250.93 369.94 216.63 406.47 161.51 404.94C121.28 403.87 73.64 394.63 58 352C38.42 298.55 90.4 257.24 119.68 220.05C139.46 194.92 152.07 165.13 172.17 140.22C185.41 123.81 203.09 106.73 224.27 102.65C249.19 97.8401 274.11 97.9601 298.17 106.97C328.82 118.46 344.51 140.63 357.5 169.39Z" fill="white"/>
<path d="M268.68 149.28L274.68 146.52L273.4 139.27L266.73 138.75C265.882 136.516 264.763 134.393 263.4 132.43L266.84 126.63L261.63 121.42L255.77 124.89C252.406 122.608 248.601 121.054 244.6 120.33L243 113.65H235.63L233.94 120.37C231.654 120.806 229.428 121.515 227.31 122.48L222 117.92L216 122.15L218.49 128.66C216.87 130.321 215.447 132.163 214.25 134.15L207.32 133.44L204.8 140.36L210.54 144.26C210.266 145.876 210.129 147.512 210.13 149.15C210.13 149.85 210.13 150.54 210.21 151.22L204.21 154.59L206.12 161.71L212.96 161.62C213.967 163.765 215.229 165.779 216.72 167.62L213.72 173.75L219.37 178.49L224.84 174.57C226.914 175.764 229.127 176.698 231.43 177.35L232.52 183.95L239.86 184.59L242.08 178.34C244.488 178.127 246.86 177.613 249.14 176.81L253.77 181.52L260.15 177.84L258.4 171.49C260.246 169.918 261.892 168.125 263.3 166.15L269.79 167.34L272.9 160.66L267.81 156.47C268.396 154.119 268.689 151.704 268.68 149.28V149.28ZM257.78 149.15C257.78 152.79 256.701 156.347 254.679 159.373C252.657 162.399 249.784 164.757 246.421 166.15C243.059 167.542 239.36 167.907 235.79 167.197C232.221 166.487 228.943 164.734 226.369 162.161C223.796 159.588 222.044 156.309 221.334 152.74C220.624 149.171 220.988 145.471 222.381 142.109C223.773 138.747 226.132 135.873 229.158 133.851C232.183 131.83 235.741 130.75 239.38 130.75C244.26 130.75 248.94 132.689 252.391 136.14C255.842 139.59 257.78 144.27 257.78 149.15V149.15Z" fill="#263238"/>
<path d="M268.68 145.56L274.68 142.81L273.4 135.55L266.73 135.03C265.884 132.798 264.766 130.678 263.4 128.72L266.84 122.91L261.63 117.7L255.77 121.18C252.408 118.894 248.602 117.34 244.6 116.62L243 109.93H235.63L233.94 116.66C231.654 117.093 229.428 117.798 227.31 118.76L222 114.21L216 118.43L218.49 124.95C216.865 126.607 215.442 128.45 214.25 130.44L207.32 129.72L204.8 136.65L210.54 140.54C210.267 142.156 210.13 143.792 210.13 145.43C210.13 146.13 210.13 146.82 210.21 147.51L204.21 150.88L206 158L212.84 157.91C213.846 160.055 215.109 162.069 216.6 163.91L213.6 170.05L219.25 174.78L224.72 170.86C226.792 172.062 229.006 172.999 231.31 173.65L232.4 180.24L239.74 180.89L241.96 174.64C244.368 174.426 246.74 173.912 249.02 173.11L253.65 177.81L260.03 174.13L258.28 167.78C260.129 166.21 261.775 164.417 263.18 162.44L269.67 163.64L272.78 156.96L267.69 152.76C268.319 150.411 268.652 147.992 268.68 145.56V145.56ZM257.78 145.43C257.774 149.068 256.69 152.623 254.665 155.644C252.639 158.666 249.763 161.02 246.401 162.408C243.038 163.796 239.339 164.156 235.772 163.443C232.205 162.73 228.929 160.975 226.359 158.4C223.788 155.826 222.039 152.547 221.331 148.979C220.624 145.41 220.99 141.712 222.384 138.352C223.777 134.991 226.135 132.12 229.161 130.099C232.186 128.079 235.742 127 239.38 127C241.799 127 244.194 127.477 246.428 128.404C248.663 129.33 250.692 130.688 252.401 132.4C254.11 134.112 255.465 136.144 256.388 138.38C257.311 140.615 257.784 143.011 257.78 145.43V145.43Z" fill="url(#paint1_linear_406_4)" stroke="#263238" stroke-width="1.08337" stroke-linecap="round" stroke-linejoin="round"/>
<path d="M257.87 251.39L268.62 246.5L266.35 233.6L254.49 232.67C252.98 228.698 250.989 224.926 248.56 221.44L254.67 211.12L245.41 201.86L235 208C229.018 203.943 222.253 201.184 215.14 199.9L212.14 188.01H199L196 200.01C191.938 200.781 187.983 202.037 184.22 203.75L174.86 195.65L164.13 203.16L168.55 214.75C165.657 217.69 163.122 220.963 161 224.5L148.67 223.23L144.19 235.54L154.4 242.47C153.91 245.344 153.662 248.254 153.66 251.17C153.66 252.41 153.72 253.63 153.81 254.85L143.06 260.85L146.45 273.5L158.62 273.34C160.413 277.152 162.663 280.731 165.32 284L160.07 294.9L170.07 303.32L179.79 296.32C183.481 298.44 187.417 300.102 191.51 301.27L193.5 313L206.55 314.14L210.49 303C214.773 302.617 218.992 301.704 223.05 300.28L231.28 308.65L242.63 302.1L239.51 290.81C242.799 288.016 245.728 284.825 248.23 281.31L259.76 283.44L265.29 271.57L256.29 264.1C257.343 259.945 257.874 255.676 257.87 251.39ZM238.5 251.17C238.5 257.639 236.582 263.963 232.987 269.342C229.393 274.722 224.285 278.914 218.308 281.39C212.331 283.866 205.754 284.513 199.409 283.251C193.064 281.989 187.235 278.874 182.661 274.299C178.086 269.725 174.971 263.896 173.709 257.551C172.446 251.206 173.094 244.629 175.57 238.652C178.046 232.675 182.238 227.567 187.617 223.972C192.996 220.378 199.321 218.46 205.79 218.46C214.464 218.462 222.783 221.909 228.917 228.043C235.05 234.177 238.497 242.495 238.5 251.17Z" fill="#263238"/>
<path d="M257.87 246.36L268.62 241.46L266.35 228.56L254.49 227.64C252.98 223.668 250.989 219.896 248.56 216.41L254.67 206.09L245.41 196.82L235 203C229.019 198.94 222.253 196.178 215.14 194.89L212.14 183.01H199L196 195.01C191.938 195.781 187.983 197.037 184.22 198.75L174.86 190.65L164.13 198.16L168.55 209.75C165.663 212.694 163.136 215.97 161.02 219.51L148.7 218.2L144.22 230.51L154.43 237.44C153.94 240.311 153.693 243.217 153.69 246.13C153.69 247.37 153.75 248.6 153.84 249.82L143.09 255.82L146.48 268.48L158.65 268.32C160.433 272.118 162.673 275.684 165.32 278.94L160.07 289.85L170.07 298.27L179.79 291.27C183.479 293.391 187.416 295.05 191.51 296.21L193.5 308L206.55 309.15L210.49 298C214.773 297.617 218.992 296.704 223.05 295.28L231.28 303.65L242.63 297.1L239.51 285.81C242.799 283.016 245.728 279.825 248.23 276.31L259.76 278.44L265.29 266.56L256.29 259.1C257.345 254.936 257.876 250.656 257.87 246.36V246.36ZM238.5 246.13C238.5 252.599 236.582 258.923 232.987 264.302C229.393 269.682 224.285 273.874 218.308 276.35C212.331 278.826 205.754 279.473 199.409 278.211C193.064 276.949 187.235 273.834 182.661 269.259C178.086 264.685 174.971 258.856 173.709 252.511C172.446 246.166 173.094 239.589 175.57 233.612C178.046 227.635 182.238 222.527 187.617 218.932C192.997 215.338 199.321 213.42 205.79 213.42C214.465 213.42 222.785 216.866 228.92 223C235.054 229.135 238.5 237.455 238.5 246.13V246.13Z" fill="url(#paint2_linear_406_4)" stroke="#263238" stroke-width="1.08337" stroke-linecap="round" stroke-linejoin="round"/>
<path d="M376.41 279.911L387.16 275.011L384.88 262.111L373 261.191C371.489 257.236 369.505 253.478 367.09 250.001L373.2 239.671L363.94 230.411L353.54 236.591C347.555 232.531 340.787 229.768 333.67 228.481L330.67 216.601H317.57L314.57 228.601C310.508 229.37 306.552 230.626 302.79 232.341L293.42 224.231L282.69 231.751L287.11 243.341C284.229 246.288 281.705 249.564 279.59 253.101L267.25 251.831L262.77 264.141L273 271.001C272.518 273.872 272.274 276.779 272.27 279.691C272.27 280.931 272.33 282.161 272.41 283.371L261.67 289.371L265 302.001L277.16 301.841C278.951 305.637 281.193 309.203 283.84 312.461L278.59 323.371L288.59 331.791L298.32 324.791C302.004 326.938 305.941 328.618 310.04 329.791L312.04 341.521L325.04 342.661L328.97 331.561C333.253 331.175 337.472 330.262 341.53 328.841L349.77 337.201L361.11 330.651L358 319.371C361.286 316.575 364.215 313.384 366.72 309.871L378.29 312.001L383.83 300.131L374.83 292.661C375.878 288.492 376.409 284.209 376.41 279.911V279.911ZM357 279.681C357.006 286.153 355.092 292.481 351.5 297.865C347.908 303.248 342.8 307.445 336.821 309.925C330.843 312.404 324.264 313.055 317.916 311.794C311.568 310.532 305.737 307.416 301.161 302.84C296.584 298.264 293.468 292.433 292.207 286.085C290.946 279.737 291.596 273.157 294.076 267.179C296.555 261.201 300.752 256.093 306.136 252.501C311.52 248.909 317.848 246.995 324.32 247.001C332.986 247.006 341.295 250.451 347.422 256.578C353.55 262.706 356.995 271.015 357 279.681V279.681Z" fill="#263238"/>
<path d="M376.41 274.88L387.16 269.98L384.88 257.08L373 256.16C371.483 252.187 369.488 248.412 367.06 244.92L373.17 234.6L363.91 225.34L353.51 231.52C347.525 227.461 340.757 224.698 333.64 223.41L330.64 211.53H317.54L314.54 223.53C310.478 224.3 306.522 225.556 302.76 227.27L293.39 219.16L282.66 226.68L287.08 238.27C284.197 241.215 281.673 244.492 279.56 248.03L267.22 246.76L262.75 259L273 266C272.518 268.875 272.274 271.785 272.27 274.7C272.27 275.94 272.33 277.16 272.41 278.38L261.67 284.38L265 297L277.16 296.85C278.953 300.645 281.196 304.211 283.84 307.47L278.59 318.38L288.59 326.8L298.32 319.8C302.01 321.922 305.946 323.585 310.04 324.75L312.04 336.48L325.04 337.62L329 326.52C333.284 326.14 337.503 325.226 341.56 323.8L349.8 332.17L361.14 325.62L358.03 314.34C361.314 311.542 364.243 308.351 366.75 304.84L378.29 307L383.83 295.13L374.83 287.66C375.88 283.481 376.41 279.189 376.41 274.88V274.88ZM357 274.65C357 281.12 355.082 287.444 351.487 292.823C347.893 298.202 342.785 302.395 336.808 304.87C330.831 307.346 324.254 307.994 317.909 306.732C311.564 305.47 305.735 302.354 301.161 297.78C296.586 293.205 293.471 287.377 292.209 281.032C290.946 274.687 291.594 268.11 294.07 262.133C296.546 256.156 300.738 251.047 306.117 247.453C311.496 243.859 317.821 241.94 324.29 241.94C328.586 241.939 332.84 242.784 336.809 244.428C340.778 246.071 344.385 248.48 347.422 251.518C350.46 254.556 352.869 258.162 354.513 262.131C356.156 266.1 357.001 270.354 357 274.65V274.65Z" fill="url(#paint3_linear_406_4)" stroke="#263238" stroke-width="1.08337" stroke-linecap="round" stroke-linejoin="round"/>
<path d="M362.26 305.87C362.381 306.719 362.189 307.583 361.72 308.3C360.91 309.92 359.56 310.46 360.37 311.3C361.189 311.965 362.098 312.511 363.07 312.92C363.07 312.92 363.61 318.32 366.07 320.75C368.53 323.18 374.17 320.21 374.17 320.21L376.87 325.07L383.35 321.29C383.35 321.29 381.73 319.67 379.84 314C377.95 308.33 374.98 304.28 369.31 303.74C363.64 303.2 362.26 305.87 362.26 305.87Z" fill="white" stroke="#263238" stroke-miterlimit="10"/>
<path d="M346.86 331.79L345.24 327.47C344.43 325.31 342.54 324.47 340.38 324.47C338.22 324.47 337.14 322.31 336.06 322.58C334.98 322.85 336.6 324.47 337.41 325.28C337.974 325.816 338.61 326.271 339.3 326.63C337.024 326.455 334.767 326.093 332.55 325.55C329.55 324.74 330.12 325.82 332.28 327.71C334.44 329.6 337.68 331.49 338.76 331.49C340.042 331.644 341.307 331.915 342.54 332.3L344 335L346.86 331.79Z" fill="white" stroke="#263238" stroke-miterlimit="10"/>
<path d="M376.27 296.54L371.77 295.54C369.51 295.05 368.44 293.29 368.14 291.15C367.84 289.01 365.54 288.25 365.65 287.15C365.76 286.05 367.65 287.41 368.52 288.15C369.127 288.635 369.666 289.2 370.12 289.83C369.633 287.602 368.964 285.418 368.12 283.3C366.89 280.47 368.04 280.86 370.22 282.73C372.4 284.6 374.72 287.54 374.88 288.6C375.088 289.441 375.477 290.226 376.02 290.9L377.82 293.15L376.27 296.54Z" fill="white" stroke="#263238" stroke-miterlimit="10"/>
<path d="M344.16 355.28L342.54 332.33C343.175 331.926 343.892 331.668 344.639 331.574C345.386 331.481 346.145 331.555 346.86 331.79L353.86 351.5C353.86 351.5 348.48 359.06 344.16 355.28Z" fill="url(#paint4_linear_406_4)" stroke="#263238" stroke-miterlimit="10"/>
<path d="M364.42 373.911C364.42 373.911 354.42 370.401 353.61 374.451C352.8 378.501 365.5 383.371 369.82 383.101C374.14 382.831 370.09 376.081 364.42 373.911Z" fill="white" stroke="#263238" stroke-miterlimit="10"/>
<path d="M382 365.81C382 365.81 366.07 355.81 361.75 353.66C357.43 351.51 352.56 352.04 350.67 356.36C348.78 360.68 367.67 378.24 372.01 384.18C376.35 390.12 386.86 391.74 392.26 391.74C397.66 391.74 407.11 385.8 408.19 380.67C409.27 375.54 408.73 358.25 407.38 353.67C406.03 349.09 402.79 346.11 399.01 350.43C395.23 354.75 385.75 366.08 382 365.81Z" fill="#263238"/>
<path d="M380.94 366.271C380.94 366.271 375.82 378.681 376.41 382.821" stroke="white" stroke-width="0.5" stroke-miterlimit="10"/>
<path d="M403.4 364.5C403.4 364.5 407.73 369.62 407.92 374.74" stroke="white" stroke-width="0.5" stroke-miterlimit="10"/>
<path d="M383.59 319.91C383.59 319.91 377.65 323.15 375.22 325.85C372.79 328.55 348.22 350.42 345.78 351.77C343.34 353.12 343.08 358.52 347.4 359.06C351.72 359.6 372.79 348.26 372.79 348.26C372.79 348.26 370.9 353.12 372.79 354.74C374.68 356.36 379.54 357.74 380.08 359.87C380.62 362 379.81 366.35 382.51 368.51C385.21 370.67 393.58 371.51 398.71 367.43C403.84 363.35 403.57 353.66 402.49 347.18C401.41 340.7 403.3 316.94 401.95 311.54C400.6 306.14 376.3 293.18 376.3 293.18L375.22 297.23C375.22 297.23 391.42 309.11 391.69 310.23C391.96 311.35 383.59 319.91 383.59 319.91Z" fill="url(#paint5_linear_406_4)" stroke="#263238" stroke-miterlimit="10"/>
<path d="M372.79 348.26L382.61 345.03" stroke="#263238" stroke-miterlimit="10" stroke-linecap="round"/>
<path d="M373.86 347.6L382.61 350.43" stroke="#263238" stroke-miterlimit="10" stroke-linecap="round"/>
<path d="M370.9 292.911C369.518 291.9 367.84 291.378 366.129 291.427C364.418 291.476 362.772 292.093 361.45 293.181C356.32 296.961 359.56 302.631 360.91 304.251L362.26 305.871C362.26 305.871 366.31 313.161 370.36 316.131C374.41 319.101 383.59 319.911 383.59 319.911C383.59 319.911 387.1 323.421 386.59 333.411C386.08 343.401 382.54 348.801 388.75 356.901C394.96 365.001 406 368.001 411.4 359.601C416.8 351.201 418.15 342.601 411.67 333.951C405.19 325.301 394.39 321.531 391.42 320.181C388.45 318.831 387.37 316.671 387.37 315.591C387.37 314.511 392.23 302.091 387.37 295.071C382.51 288.051 375.22 290.471 370.9 292.911Z" fill="#263238"/>
<path d="M369.72 294.19C369.72 294.19 365.78 292.81 364.99 298.32C364.2 303.83 367.66 313.37 375.63 316.64" stroke="white" stroke-width="0.5" stroke-miterlimit="10" stroke-linecap="round"/>
<path d="M367.94 302.46C369.549 306.448 371.95 310.068 375 313.1C378.129 315.988 382.031 317.902 386.23 318.61" stroke="white" stroke-width="0.5" stroke-miterlimit="10" stroke-linecap="round"/>
<path d="M388.43 322.75C388.43 322.75 395.71 330.82 392.96 341.46C390.21 352.1 396.5 362.92 404.58 362.14C412.66 361.36 412.65 350.14 412.65 350.14" stroke="white" stroke-width="0.5" stroke-miterlimit="10" stroke-linecap="round"/>
<path d="M387.05 321.17C387.05 321.17 391.38 321.37 397.88 330.23C404.38 339.09 400.44 346.97 401.23 353.67C402.02 360.37 407.73 359.18 409.11 356.42" stroke="white" stroke-width="0.5" stroke-miterlimit="10" stroke-linecap="round"/>
<path d="M363.85 152.79C358.56 146.3 349.42 145.03 342.63 140.41C338.086 137.306 333.744 133.916 329.63 130.26H329.32C327.21 128.001 324.383 126.542 321.32 126.13C314.32 125.54 307.43 127.81 308.04 135.73C307.64 135.99 307.25 136.26 306.85 136.57C306.196 136.66 305.556 136.838 304.95 137.1C300.06 139.16 299.68 149.3 303.33 153.94C305.27 156.4 309.07 158.48 312.56 159.64V159.75C312.56 159.75 312.86 160.75 323.01 161.75C333.16 162.75 336.13 166.75 335.67 171.62C335.495 173.436 335.712 175.268 336.305 176.993C336.899 178.718 337.855 180.296 339.11 181.62C340.34 183.35 342.34 184.71 345.55 185.5C364.12 190 375 166.44 363.85 152.79Z" fill="#263238"/>
<path d="M312.38 138.9C317.177 144.111 323.282 147.944 330.06 150C340.8 153 352.57 149.38 359.58 154.37C366.59 159.36 366.69 164.5 366.03 167.37" stroke="white" stroke-width="0.5" stroke-miterlimit="10" stroke-linecap="round"/>
<path d="M310.55 135.54C313.595 134.119 317.03 133.767 320.3 134.54C325.69 135.84 329.37 142.69 338.86 146.54C348.35 150.39 353.53 147.54 358.21 150.15" stroke="white" stroke-width="0.5" stroke-miterlimit="10" stroke-linecap="round"/>
<path d="M310.49 140.26C309.077 141.259 307.923 142.582 307.126 144.118C306.329 145.654 305.912 147.359 305.91 149.09C305.91 155 310.4 155.82 310.4 155.82" stroke="white" stroke-width="0.5" stroke-miterlimit="10" stroke-linecap="round"/>
<path d="M309 139.34C309 139.34 301.51 143.55 302.06 148.13C302.163 149.397 302.603 150.613 303.334 151.652C304.066 152.691 305.062 153.516 306.22 154.04" stroke="white" stroke-width="0.5" stroke-miterlimit="10" stroke-linecap="round"/>
<path d="M315 176.55C315 176.55 308.7 182.07 307.14 188.82C305.58 195.57 304.14 220.17 306.49 222.41C308.84 224.65 311.55 223.58 313.21 221.7C314.87 219.82 323.15 193.49 323.15 193.49L325.52 194.1C325.52 194.1 335 215.4 336 217.84C337 220.28 340.89 224.23 344.77 222.01C348.65 219.79 345.77 203.01 343.77 196.79C341.77 190.57 336.52 175.16 332.36 173.52C328.2 171.88 317.05 173.29 315 176.55Z" fill="#263238"/>
<path d="M314 179C314 179 319.09 186.66 325.39 185.36C331.69 184.06 333.47 176.63 333.22 175.04C332.97 173.45 314 179 314 179Z" fill="url(#paint6_linear_406_4)" stroke="#263238" stroke-miterlimit="10"/>
<path d="M319 152.5C319 152.5 304.78 157.3 302.1 160.97C299.42 164.64 295.63 190.59 295.1 191.64C294.57 192.69 287.1 217.91 287.1 217.91L291.28 217.59C291.28 217.59 303.66 192.59 304.15 191.53C304.64 190.47 308.36 174.62 308.36 174.62C308.36 174.62 310.05 179.24 312.74 179.8C315.43 180.36 322.74 179.22 327.81 178.44C332.88 177.66 334.48 177.44 336.36 174.84C338.24 172.24 337.97 168.41 337.97 168.41L346.27 186.31L340.65 215.15L344.81 216.78C344.81 216.78 353.45 190.73 353.74 188.4C354.03 186.07 347.84 169.16 343.74 161.66C339.64 154.16 338.74 154.31 334.86 152.66C330.98 151.01 319 152.5 319 152.5Z" fill="url(#paint7_linear_406_4)" stroke="#263238" stroke-miterlimit="10"/>
<path d="M317.9 159.83C317.9 159.83 318.71 167.18 321.76 168.01C324.81 168.84 323.71 159.58 323.71 159.58L317.9 159.83Z" fill="white" stroke="#263238" stroke-miterlimit="10"/>
<path d="M315.73 145.29C314.653 147.347 313.039 149.075 311.06 150.29C311.786 152.985 312.999 155.523 314.64 157.78C319.12 163.59 321.44 163.88 323.74 161.9C325.68 160.22 327.32 155.08 327.32 150.65C317.39 147.89 315.73 145.29 315.73 145.29Z" fill="white" stroke="#263238" stroke-miterlimit="10"/>
<path d="M313.26 151.87C313.591 151.483 314.021 151.193 314.503 151.03C314.985 150.866 315.502 150.835 316 150.94C317.82 151.26 318.11 153.65 318.56 155.13C319.01 156.61 319.19 159.44 321.19 157.05" stroke="#263238" stroke-width="0.5" stroke-linecap="round" stroke-linejoin="round"/>
<path d="M320.17 150.74C320.17 150.74 321.85 148.32 324.61 150.74" stroke="#263238" stroke-width="0.5" stroke-linecap="round" stroke-linejoin="round"/>
<path d="M319.34 159.53C319.34 159.53 321.34 160.53 322.6 158.88" stroke="#263238" stroke-width="0.5" stroke-linecap="round" stroke-linejoin="round"/>
<path d="M314.89 153.33C314.89 153.33 315.89 154.43 317.05 153" stroke="#263238" stroke-width="0.5" stroke-linecap="round" stroke-linejoin="round"/>
<path d="M321.58 152.61C321.78 152.786 322.013 152.92 322.265 153.005C322.517 153.09 322.784 153.123 323.049 153.104C323.315 153.084 323.574 153.012 323.811 152.891C324.048 152.77 324.258 152.603 324.43 152.4" stroke="#263238" stroke-width="0.5" stroke-linecap="round" stroke-linejoin="round"/>
<path d="M287.22 217.91C285.948 219.42 284.898 221.104 284.1 222.91C283.44 224.96 281.17 229.22 282.76 228.97C284.35 228.72 286.47 223.52 286.47 223.52C288.028 223.096 289.466 222.315 290.67 221.24C291.076 220.727 291.354 220.125 291.481 219.483C291.608 218.841 291.58 218.179 291.4 217.55L287.22 217.91Z" fill="white" stroke="#263238" stroke-miterlimit="10"/>
<path d="M340.77 215.15C340.77 215.15 337.77 218.55 337.55 219.55C337.33 220.55 337.17 225.46 337.17 225.46C337.17 225.46 337.63 226.36 338.75 225.21C339.063 224.957 339.316 224.638 339.489 224.274C339.662 223.911 339.751 223.513 339.75 223.11C339.75 223.11 339.34 226.75 339.85 227.97C340.36 229.19 342.98 227.16 343.73 225.75C344.48 224.34 344.95 216.75 344.95 216.75L340.77 215.15Z" fill="white" stroke="#263238" stroke-miterlimit="10"/>
<path d="M120.85 309.88C120.85 309.88 130.57 312.31 127.06 313.93C123.55 315.55 116.8 315.82 113.06 314.74C109.32 313.66 108.74 309.61 111.71 309.07C114.68 308.53 120.85 309.88 120.85 309.88Z" fill="white" stroke="#263238" stroke-linecap="round" stroke-linejoin="round"/>
<path d="M90.88 341.2L80.62 343.63L81.7 349.57L84.13 350.11C84.13 350.11 83.32 357.11 84.4 360.11C85.48 363.11 86.29 368.48 88.4 367.67C90.51 366.86 89.21 355.52 90.02 354.17C91.257 352.544 92.6106 351.01 94.07 349.58L91.37 342.29L90.88 341.2Z" fill="white" stroke="#263238" stroke-linecap="round" stroke-linejoin="round"/>
<path d="M84.3301 343C84.3301 343 85.5601 363.66 88.4501 367.66" stroke="#263238" stroke-linecap="round" stroke-linejoin="round"/>
<path d="M110.05 311.77C110.05 311.77 129.22 316.63 138.13 320.95C147.04 325.27 151.91 331.75 146.51 336.61C141.11 341.47 117.88 346.33 111.13 348.22C104.38 350.11 93.0401 352.22 93.0401 352.22L90.3301 340.28L114.64 335.21L97.3601 328.46C97.3601 328.46 91.1501 326.3 94.1201 319.82C97.0901 313.34 110.05 311.77 110.05 311.77Z" fill="#263238"/>
<path d="M114.64 335.26C114.64 335.26 129.49 337.96 135.16 337.96" stroke="white" stroke-width="0.5" stroke-miterlimit="10" stroke-linecap="round"/>
<path d="M114.1 309.34L120.58 312.04C123.863 308.772 127.704 306.117 131.92 304.2C138.67 301.2 146.51 298.8 145.16 290.97C143.81 283.14 137.59 282.06 131.38 282.06H120.58L114.1 309.34Z" fill="#263238"/>
<path d="M142.16 241.59C142.16 241.59 147.7 242.83 148.16 242.2C148.62 241.57 154.16 239.34 155.25 238.82C156.34 238.3 156.96 237.07 155.77 236.82C154.58 236.57 149.21 238.21 149.21 238.21L152.65 233.36C152.65 233.36 157.89 230.6 156.99 229.56C156.09 228.52 153.54 229.56 152.19 229.56C150.84 229.56 146.08 229.93 144.37 231.68C142.66 233.43 138.79 237.94 138.79 237.94L142.16 241.59Z" fill="white" stroke="#263238" stroke-linecap="round" stroke-linejoin="round"/>
<path d="M131.52 253.35L143.81 242.73L139.46 239.54L120.9 247.37C115.28 248.9 108.82 250.89 107.08 252.37C103.84 255.07 103.84 263.71 103.84 264.52C103.84 265.33 99 273.15 92.23 279.63C85.46 286.11 74.68 291.24 71.98 293.63C69.28 296.02 71.98 313.89 79.81 321.99C85.0137 327.169 91.0341 331.456 97.63 334.68C97.63 334.68 115.45 312 117.63 307.95C119.81 303.9 120.33 303.08 120.33 303.08C120.33 303.08 127.08 291.47 126.54 287.96C126 284.45 125.73 269.6 125.73 266.36C125.73 263.12 130.59 256.1 131.4 253.67C131.42 253.59 131.47 253.47 131.52 253.35Z" fill="url(#paint8_linear_406_4)" stroke="#263238" stroke-linecap="round" stroke-linejoin="round"/>
<path d="M103.84 264.51C103.84 264.51 110.01 256.24 115.23 253.51" stroke="#263238" stroke-miterlimit="10" stroke-linecap="round"/>
<path d="M149.21 248.849C149.651 250.889 149.742 252.989 149.48 255.059C148.94 257.489 151.64 258.569 150.29 259.649C148.94 260.729 147.59 262.079 147.59 262.079L144.59 268.019C143.78 269.639 141.59 271.799 139.72 271.529C137.85 271.259 133.51 268.019 131.89 268.019C130.27 268.019 126.22 270.179 126.22 270.179C126.22 270.179 125.68 262.079 125.68 259.109C125.68 256.139 129.19 255.329 129.19 255.329C129.19 255.329 131.62 250.199 134.86 247.769C138.1 245.339 146.51 245.069 149.21 248.849Z" fill="white" stroke="#263238" stroke-linecap="round" stroke-linejoin="round"/>
<path d="M134.08 264.24C134.08 264.24 135.7 266.13 136.78 266.13H137.86C138.206 267.338 138.658 268.512 139.21 269.64" stroke="#263238" stroke-linecap="round" stroke-linejoin="round"/>
<path d="M149.21 254C148.686 254.378 148.247 254.861 147.921 255.42C147.596 255.978 147.391 256.598 147.32 257.24" stroke="#263238" stroke-linecap="round" stroke-linejoin="round"/>
<path d="M134.08 264.24C134.08 264.24 130.03 262.62 127.08 256.68C124.13 250.74 122.49 243.18 129.78 237.51C137.07 231.84 143.56 234.81 146.78 235.89C150 236.97 155.15 239.67 153.26 245.34C151.37 251.01 142.73 251.55 143 252.9C143.27 254.25 146 256.9 144.35 257.49C142.7 258.08 141.1 259.11 141.1 259.92C141.1 260.73 140.84 262.92 140.02 262.92C139.2 262.92 136.78 257.52 134.89 259.14C133 260.76 134.08 264.24 134.08 264.24Z" fill="#263238"/>
<path d="M127.06 256.68L129 269.37L133.05 278.28H124.68C123.26 273.921 122.092 269.483 121.18 264.99C120.866 263.303 121.038 261.562 121.675 259.968C122.313 258.375 123.389 256.995 124.78 255.99L127.06 256.68Z" fill="white" stroke="#263238" stroke-linecap="round" stroke-linejoin="round"/>
<path d="M167.57 300.69C167.57 300.69 170 295.56 170.81 295.56C171.62 295.56 176.75 292.56 177.81 292.05C178.87 291.54 180.24 291.78 179.7 292.86C179.16 293.94 174.57 297.18 174.57 297.18L180.51 297.45C180.51 297.45 185.91 295.02 186.18 296.37C186.45 297.72 184.02 299.07 183.18 300.15C182.34 301.23 179.18 304.75 176.7 305.01C174.22 305.27 168.33 305.56 168.33 305.56L167.57 300.69Z" fill="white" stroke="#263238" stroke-linecap="round" stroke-linejoin="round"/>
<path d="M111.13 293.94C111.13 293.94 137.59 319.06 140.56 319.33C143.53 319.6 169.73 307.45 169.73 307.45L167.57 299.34L141.38 305.34C141.38 305.34 120.58 278.6 118.69 278.6C116.8 278.6 113.56 281.3 113.56 281.3" fill="url(#paint9_linear_406_4)"/>
<path d="M111.13 293.94C111.13 293.94 137.59 319.06 140.56 319.33C143.53 319.6 169.73 307.45 169.73 307.45L167.57 299.34L141.38 305.34C141.38 305.34 120.58 278.6 118.69 278.6C116.8 278.6 113.56 281.3 113.56 281.3" stroke="#263238" stroke-linecap="round" stroke-linejoin="round"/>
<path d="M111.4 316.899C111.4 316.899 95.47 326.899 91.69 328.239C87.91 329.579 86 330.399 86 330.399C86 330.399 88.57 333.629 90 334.329C93.33 335.999 97.63 334.719 97.63 334.719L111.4 316.899Z" fill="url(#paint10_linear_406_4)" stroke="#263238" stroke-linecap="round" stroke-linejoin="round"/>
<defs>
<linearGradient id="paint0_linear_406_4" x1="252.863" y1="99.4917" x2="252.863" y2="404.987" gradientUnits="userSpaceOnUse">
<stop stop-color="#3D44E9"/>
<stop offset="1" stop-color="#C5C7F4"/>
</linearGradient>
<linearGradient id="paint1_linear_406_4" x1="239.445" y1="109.93" x2="239.445" y2="180.89" gradientUnits="userSpaceOnUse">
<stop stop-color="#3D44E9"/>
<stop offset="1" stop-color="#C5C7F4"/>
</linearGradient>
<linearGradient id="paint2_linear_406_4" x1="205.855" y1="183.01" x2="205.855" y2="309.15" gradientUnits="userSpaceOnUse">
<stop stop-color="#3D44E9"/>
<stop offset="1" stop-color="#C5C7F4"/>
</linearGradient>
<linearGradient id="paint3_linear_406_4" x1="324.415" y1="211.53" x2="324.415" y2="337.62" gradientUnits="userSpaceOnUse">
<stop stop-color="#3D44E9"/>
<stop offset="1" stop-color="#C5C7F4"/>
</linearGradient>
<linearGradient id="paint4_linear_406_4" x1="348.2" y1="331.535" x2="348.2" y2="356.338" gradientUnits="userSpaceOnUse">
<stop stop-color="#3D44E9"/>
<stop offset="1" stop-color="#C5C7F4"/>
</linearGradient>
<linearGradient id="paint5_linear_406_4" x1="373.58" y1="293.18" x2="373.58" y2="370.311" gradientUnits="userSpaceOnUse">
<stop stop-color="#3D44E9"/>
<stop offset="1" stop-color="#C5C7F4"/>
</linearGradient>
<linearGradient id="paint6_linear_406_4" x1="323.621" y1="174.754" x2="323.621" y2="185.509" gradientUnits="userSpaceOnUse">
<stop stop-color="#3D44E9"/>
<stop offset="1" stop-color="#C5C7F4"/>
</linearGradient>
<linearGradient id="paint7_linear_406_4" x1="320.425" y1="151.883" x2="320.425" y2="217.91" gradientUnits="userSpaceOnUse">
<stop stop-color="#3D44E9"/>
<stop offset="1" stop-color="#C5C7F4"/>
</linearGradient>
<linearGradient id="paint8_linear_406_4" x1="107.387" y1="239.54" x2="107.387" y2="334.68" gradientUnits="userSpaceOnUse">
<stop stop-color="#3D44E9"/>
<stop offset="1" stop-color="#C5C7F4"/>
</linearGradient>
<linearGradient id="paint9_linear_406_4" x1="140.43" y1="278.6" x2="140.43" y2="319.334" gradientUnits="userSpaceOnUse">
<stop stop-color="#3D44E9"/>
<stop offset="1" stop-color="#C5C7F4"/>
</linearGradient>
<linearGradient id="paint10_linear_406_4" x1="98.7" y1="316.899" x2="98.7" y2="335.188" gradientUnits="userSpaceOnUse">
<stop stop-color="#3D44E9"/>
<stop offset="1" stop-color="#C5C7F4"/>
</linearGradient>
</defs>
</svg>
