<svg width="55" height="67" viewBox="0 0 55 67" fill="none" xmlns="http://www.w3.org/2000/svg">
<path d="M0 45.3871L5.13309 45.0448C5.13309 45.0448 6.15971 38.8851 10.2662 36.8319V29.9878C10.2662 29.9878 15.0571 32.7254 16.0837 33.0676C17.1103 33.4099 26.3499 28.9612 36.9582 35.4631C45.8932 40.9384 43.905 50.5441 43.0529 53.4357C42.8995 53.9594 42.6589 54.4534 42.3411 54.8969C41.602 55.9236 40.1065 57.9768 39.3537 58.7331C38.3271 59.7597 40.0073 65.4745 38.6693 65.9194C37.6426 66.2616 35.5894 61.8129 34.5628 62.1551C29.0372 64.0187 23.0835 64.2044 17.4525 62.689C17.2666 62.6372 17.0685 62.6519 16.8923 62.7306C16.7161 62.8093 16.5729 62.9471 16.4875 63.1202C16.0289 64.0578 15.1187 65.7757 14.3829 66.265C13.3563 66.9494 13.3563 62.5008 12.3297 61.8164C11.3031 61.1319 0.0102762 51.208 0.0102762 51.208L0 45.3871Z" fill="url(#paint0_linear_340_107)"/>
<path d="M42.9536 46.4417C42.9536 46.4417 47.1559 43.4611 49.4042 45.6752C51.6525 47.8892 51.3 50.1991 49.4932 50.7501C48.1449 51.1607 46.0437 48.9022 46.9506 47.4512C47.8574 46.0003 49.4418 45.2235 51.2624 46.4417C53.0829 47.66 53.9008 50.1033 54 51.4687" stroke="#50C2E7" stroke-width="1.36882" stroke-miterlimit="10" stroke-linecap="round"/>
<path d="M10.9472 47.7555C11.9999 47.7555 12.8533 46.9021 12.8533 45.8494C12.8533 44.7967 11.9999 43.9434 10.9472 43.9434C9.89452 43.9434 9.04114 44.7967 9.04114 45.8494C9.04114 46.9021 9.89452 47.7555 10.9472 47.7555Z" fill="#50C2E7"/>
<path d="M18.7357 34.2413C18.7357 34.2413 26.3874 32.1881 31.3528 34.4467" stroke="#50C2E7" stroke-width="0.342206" stroke-linecap="round" stroke-linejoin="round"/>
<path d="M25.2069 26.6365C29.4328 26.6365 32.8586 23.2107 32.8586 18.9847C32.8586 14.7588 29.4328 11.333 25.2069 11.333C20.981 11.333 17.5552 14.7588 17.5552 18.9847C17.5552 23.2107 20.981 26.6365 25.2069 26.6365Z" fill="url(#paint1_linear_340_107)"/>
<path d="M25.1553 25.2777C28.6139 25.2777 31.4177 22.4739 31.4177 19.0153C31.4177 15.5567 28.6139 12.7529 25.1553 12.7529C21.6967 12.7529 18.8929 15.5567 18.8929 19.0153C18.8929 22.4739 21.6967 25.2777 25.1553 25.2777Z" stroke="url(#paint2_linear_340_107)" stroke-width="0.342206"/>
<path d="M25.6827 14.2151V15.5764H25.0132V14.2151H25.6827ZM25.6023 21.5033V22.6949H24.9373V21.5033H25.6023ZM26.4949 20.093C26.4949 19.9144 26.4548 19.7538 26.3744 19.611C26.2941 19.4681 26.1617 19.3372 25.9772 19.2182C25.7927 19.0992 25.5458 18.9891 25.2363 18.8879C24.8615 18.7719 24.5371 18.6306 24.2634 18.4639C23.9926 18.2973 23.7829 18.0905 23.6341 17.8436C23.4883 17.5966 23.4154 17.2976 23.4154 16.9465C23.4154 16.5805 23.4943 16.2652 23.652 16.0003C23.8097 15.7355 24.0328 15.5317 24.3214 15.3889C24.61 15.2461 24.9492 15.1747 25.339 15.1747C25.6425 15.1747 25.9132 15.2208 26.1513 15.313C26.3893 15.4023 26.5901 15.5362 26.7538 15.7147C26.9204 15.8932 27.0469 16.1119 27.1331 16.3708C27.2224 16.6296 27.267 16.9287 27.267 17.2679H26.4458C26.4458 17.0685 26.422 16.8855 26.3744 16.7189C26.3268 16.5523 26.2554 16.408 26.1602 16.286C26.065 16.161 25.9489 16.0658 25.8121 16.0003C25.6752 15.9319 25.5175 15.8977 25.339 15.8977C25.0891 15.8977 24.8823 15.9408 24.7186 16.0271C24.558 16.1134 24.439 16.2354 24.3616 16.3931C24.2842 16.5478 24.2456 16.7278 24.2456 16.9331C24.2456 17.1235 24.2842 17.2902 24.3616 17.433C24.439 17.5758 24.5699 17.7052 24.7543 17.8213C24.9418 17.9343 25.1992 18.0459 25.5264 18.156C25.9103 18.278 26.2361 18.4223 26.5039 18.5889C26.7716 18.7526 26.9754 18.9549 27.1153 19.1959C27.2551 19.4339 27.3251 19.73 27.3251 20.084C27.3251 20.4679 27.2388 20.7922 27.0662 21.057C26.8936 21.3188 26.6511 21.5182 26.3387 21.655C26.0263 21.7919 25.6603 21.8603 25.2408 21.8603C24.9879 21.8603 24.738 21.8261 24.491 21.7577C24.2441 21.6892 24.0209 21.5777 23.8216 21.4229C23.6222 21.2653 23.463 21.0585 23.344 20.8026C23.225 20.5437 23.1655 20.2269 23.1655 19.852H23.9956C23.9956 20.1049 24.0313 20.3146 24.1027 20.4812C24.1771 20.6449 24.2753 20.7758 24.3973 20.874C24.5193 20.9692 24.6532 21.0376 24.799 21.0793C24.9477 21.118 25.095 21.1373 25.2408 21.1373C25.5086 21.1373 25.7347 21.0957 25.9192 21.0123C26.1066 20.9261 26.2495 20.8041 26.3476 20.6464C26.4458 20.4887 26.4949 20.3042 26.4949 20.093Z" fill="#50C2E7"/>
<path d="M34.1215 10.0745C36.9035 10.0745 39.1588 7.81928 39.1588 5.03727C39.1588 2.25526 36.9035 0 34.1215 0C31.3395 0 29.0842 2.25526 29.0842 5.03727C29.0842 7.81928 31.3395 10.0745 34.1215 10.0745Z" fill="url(#paint3_linear_340_107)"/>
<path d="M34.0872 9.18124C36.3646 9.18124 38.2108 7.33505 38.2108 5.05766C38.2108 2.78027 36.3646 0.934082 34.0872 0.934082C31.8098 0.934082 29.9636 2.78027 29.9636 5.05766C29.9636 7.33505 31.8098 9.18124 34.0872 9.18124Z" stroke="url(#paint4_linear_340_107)" stroke-width="0.342206"/>
<path d="M34.4313 1.9741V2.87004H33.9907V1.9741H34.4313ZM34.3784 6.77102V7.55533H33.9407V6.77102H34.3784ZM34.9659 5.84278C34.9659 5.72528 34.9395 5.61953 34.8866 5.52553C34.8337 5.43153 34.7466 5.34536 34.6252 5.26703C34.5037 5.1887 34.3412 5.11624 34.1375 5.04965C33.8908 4.97328 33.6773 4.88026 33.4972 4.77059C33.319 4.66093 33.1809 4.52482 33.083 4.36228C32.987 4.19974 32.939 4.00293 32.939 3.77185C32.939 3.53097 32.9909 3.32339 33.0947 3.1491C33.1985 2.97481 33.3454 2.84066 33.5353 2.74666C33.7253 2.65266 33.9486 2.60566 34.2051 2.60566C34.4048 2.60566 34.5831 2.63602 34.7397 2.69673C34.8964 2.75548 35.0286 2.8436 35.1363 2.9611C35.2459 3.0786 35.3292 3.22254 35.386 3.39291C35.4447 3.56329 35.4741 3.7601 35.4741 3.98335H34.9336C34.9336 3.85214 34.9179 3.7317 34.8866 3.62203C34.8553 3.51237 34.8083 3.41739 34.7456 3.3371C34.6829 3.25485 34.6066 3.19218 34.5165 3.1491C34.4264 3.10406 34.3226 3.08154 34.2051 3.08154C34.0406 3.08154 33.9045 3.10993 33.7968 3.16672C33.691 3.22352 33.6127 3.30381 33.5618 3.4076C33.5109 3.50943 33.4854 3.62791 33.4854 3.76303C33.4854 3.88837 33.5109 3.99803 33.5618 4.09203C33.6127 4.18603 33.6989 4.27122 33.8203 4.34759C33.9437 4.42201 34.1131 4.49545 34.3285 4.56791C34.5811 4.6482 34.7955 4.74318 34.9718 4.85284C35.148 4.96055 35.2822 5.09372 35.3742 5.25234C35.4663 5.40901 35.5123 5.60386 35.5123 5.8369C35.5123 6.08953 35.4555 6.30298 35.3419 6.47728C35.2283 6.64961 35.0687 6.78082 34.8631 6.8709C34.6575 6.96098 34.4166 7.00602 34.1405 7.00602C33.974 7.00602 33.8095 6.9835 33.647 6.93846C33.4844 6.89342 33.3376 6.81998 33.2064 6.71815C33.0751 6.61436 32.9704 6.47825 32.892 6.30984C32.8137 6.13946 32.7745 5.9309 32.7745 5.68415H33.3209C33.3209 5.85061 33.3444 5.98867 33.3914 6.09834C33.4404 6.20605 33.505 6.29221 33.5853 6.35684C33.6656 6.4195 33.7537 6.46455 33.8497 6.49196C33.9476 6.51742 34.0445 6.53015 34.1405 6.53015C34.3167 6.53015 34.4656 6.50273 34.587 6.4479C34.7103 6.39111 34.8043 6.31082 34.869 6.20703C34.9336 6.10323 34.9659 5.98182 34.9659 5.84278Z" fill="#50C2E7"/>
<path d="M16.1009 11.9832C18.091 11.9832 19.7043 10.3699 19.7043 8.37979C19.7043 6.38968 18.091 4.77637 16.1009 4.77637C14.1107 4.77637 12.4974 6.38968 12.4974 8.37979C12.4974 10.3699 14.1107 11.9832 16.1009 11.9832Z" fill="url(#paint5_linear_340_107)"/>
<path d="M16.0735 11.3425C17.7026 11.3425 19.0233 10.0218 19.0233 8.39269C19.0233 6.76355 17.7026 5.44287 16.0735 5.44287C14.4443 5.44287 13.1237 6.76355 13.1237 8.39269C13.1237 10.0218 14.4443 11.3425 16.0735 11.3425Z" stroke="url(#paint6_linear_340_107)" stroke-width="0.342206"/>
<path d="M16.3231 5.89357V6.53469H16.0078V5.89357H16.3231ZM16.2853 9.32618V9.88742H15.9721V9.32618H16.2853ZM16.7057 8.66194C16.7057 8.57785 16.6868 8.50218 16.649 8.43492C16.6111 8.36765 16.5488 8.30599 16.4619 8.24994C16.375 8.19388 16.2587 8.14203 16.1129 8.09439C15.9364 8.03974 15.7836 7.97317 15.6547 7.8947C15.5272 7.81622 15.4284 7.71883 15.3583 7.60251C15.2896 7.4862 15.2553 7.34537 15.2553 7.18001C15.2553 7.00764 15.2924 6.8591 15.3667 6.73438C15.441 6.60966 15.5461 6.51367 15.682 6.4464C15.818 6.37914 15.9777 6.3455 16.1613 6.3455C16.3042 6.3455 16.4317 6.36722 16.5439 6.41067C16.656 6.45271 16.7505 6.51577 16.8276 6.59985C16.9061 6.68393 16.9657 6.78693 17.0063 6.90885C17.0483 7.03076 17.0694 7.1716 17.0694 7.33135H16.6826C16.6826 7.23746 16.6714 7.15128 16.649 7.0728C16.6265 6.99433 16.5929 6.92636 16.5481 6.86891C16.5032 6.81005 16.4486 6.76521 16.3841 6.73438C16.3196 6.70215 16.2454 6.68603 16.1613 6.68603C16.0436 6.68603 15.9462 6.70635 15.8691 6.74699C15.7934 6.78763 15.7374 6.84508 15.7009 6.91936C15.6645 6.99223 15.6463 7.07701 15.6463 7.1737C15.6463 7.26339 15.6645 7.34186 15.7009 7.40913C15.7374 7.47639 15.799 7.53735 15.8859 7.592C15.9742 7.64526 16.0954 7.69781 16.2496 7.74966C16.4303 7.80711 16.5838 7.87508 16.7099 7.95355C16.836 8.03063 16.932 8.12592 16.9979 8.23943C17.0638 8.35154 17.0967 8.49097 17.0967 8.65773C17.0967 8.83851 17.056 8.99125 16.9748 9.11597C16.8935 9.23929 16.7793 9.33318 16.6321 9.39764C16.485 9.46211 16.3126 9.49434 16.115 9.49434C15.9959 9.49434 15.8782 9.47822 15.7619 9.44599C15.6456 9.41376 15.5405 9.36121 15.4466 9.28834C15.3527 9.21407 15.2777 9.11667 15.2217 8.99616C15.1656 8.87424 15.1376 8.725 15.1376 8.54843H15.5286C15.5286 8.66754 15.5454 8.76634 15.579 8.84481C15.6141 8.92189 15.6603 8.98355 15.7178 9.02979C15.7752 9.07463 15.8383 9.10686 15.9069 9.12648C15.977 9.1447 16.0464 9.15381 16.115 9.15381C16.2412 9.15381 16.3477 9.13419 16.4345 9.09495C16.5228 9.05431 16.5901 8.99686 16.6363 8.92259C16.6826 8.84832 16.7057 8.76143 16.7057 8.66194Z" fill="#50C2E7"/>
<defs>
<linearGradient id="paint0_linear_340_107" x1="38.4126" y1="60.2354" x2="2.93613" y2="34.457" gradientUnits="userSpaceOnUse">
<stop stop-color="#50C2E7"/>
<stop offset="1" stop-color="#2400B2"/>
</linearGradient>
<linearGradient id="paint1_linear_340_107" x1="699.018" y1="1524.38" x2="1350.18" y2="554.452" gradientUnits="userSpaceOnUse">
<stop stop-color="#2400B2"/>
<stop offset="1" stop-color="#7A5BF5"/>
</linearGradient>
<linearGradient id="paint2_linear_340_107" x1="704.121" y1="708.752" x2="1175.05" y2="708.752" gradientUnits="userSpaceOnUse">
<stop stop-color="#2400B2"/>
<stop offset="1" stop-color="#50C2E7"/>
</linearGradient>
<linearGradient id="paint3_linear_340_107" x1="840.387" y1="436.127" x2="1122.57" y2="15.7163" gradientUnits="userSpaceOnUse">
<stop stop-color="#2400B2"/>
<stop offset="1" stop-color="#50C2E7"/>
</linearGradient>
<linearGradient id="paint4_linear_340_107" x1="747.962" y1="122.827" x2="954.965" y2="122.827" gradientUnits="userSpaceOnUse">
<stop stop-color="#2400B2"/>
<stop offset="1" stop-color="#50C2E7"/>
</linearGradient>
<linearGradient id="paint5_linear_340_107" x1="252.63" y1="328.58" x2="397.127" y2="113.384" gradientUnits="userSpaceOnUse">
<stop stop-color="#2400B2"/>
<stop offset="1" stop-color="#50C2E7"/>
</linearGradient>
<linearGradient id="paint6_linear_340_107" x1="236.425" y1="150.161" x2="344.093" y2="150.161" gradientUnits="userSpaceOnUse">
<stop stop-color="#50C2E7"/>
<stop offset="1" stop-color="#2400B2"/>
</linearGradient>
</defs>
</svg>
