<svg width="51" height="49" viewBox="0 0 51 49" fill="none" xmlns="http://www.w3.org/2000/svg">
<path fill-rule="evenodd" clip-rule="evenodd" d="M24.0075 6.67009V10.7382H24.0087C23.4193 10.6193 22.8089 10.659 22.2399 10.8532C21.7194 11.0311 21.2517 11.3365 20.8794 11.7414C20.5071 12.1463 20.2421 12.6379 20.1084 13.1715C19.9824 13.6645 19.9706 14.1798 20.0741 14.6781C20.1776 15.1763 20.3935 15.6444 20.7054 16.0464C21.0173 16.4485 21.417 16.7741 21.8738 16.9981C22.3307 17.2222 22.8328 17.339 23.3417 17.3395C23.5657 17.3391 23.7891 17.3167 24.0087 17.2726V21.3406C24.0087 22.048 23.7278 22.7264 23.2276 23.2266C22.7274 23.7268 22.0489 24.0077 21.3415 24.0077H17.2732V24.0089C17.3922 23.4195 17.3525 22.8091 17.1583 22.2401C16.9803 21.7197 16.6749 21.252 16.2699 20.8798C15.865 20.5075 15.3733 20.2425 14.8398 20.1088C14.3467 19.9828 13.8315 19.9711 13.3332 20.0746C12.835 20.178 12.3669 20.3939 11.9649 20.7058C11.5628 21.0177 11.2372 21.4173 11.0131 21.8742C10.789 22.331 10.6722 22.8331 10.6716 23.3419C10.672 23.5659 10.6944 23.7893 10.7385 24.0089L6.67149 24.0077C5.19884 24.008 4.00465 22.8144 4.00427 21.3419V17.2737C3.78464 17.3179 3.5612 17.3404 3.33717 17.3408C2.82832 17.3402 2.32633 17.2234 1.86949 16.9992C1.41266 16.7751 1.01305 16.4496 0.701165 16.0475C0.389276 15.6455 0.173345 15.1775 0.0698443 14.6793C-0.0336563 14.181 -0.0219927 13.6658 0.103949 13.1727C0.237602 12.6392 0.502646 12.1476 0.874927 11.7426C1.24721 11.3377 1.71489 11.0324 2.23537 10.8545C2.80443 10.6603 3.41485 10.6206 4.00427 10.7395H4.00299V6.67137C4.00302 5.964 4.28404 5.28562 4.78424 4.78545C5.28444 4.28527 5.96284 4.00428 6.67021 4.00428H10.7385C10.6944 3.78465 10.672 3.56121 10.6716 3.33719C10.6722 2.82832 10.789 2.32632 11.0131 1.86948C11.2373 1.41264 11.5628 1.01304 11.9649 0.701167C12.367 0.389294 12.835 0.173393 13.3332 0.0699379C13.8315 -0.0335169 14.3468 -0.0217908 14.8398 0.104221C15.3732 0.238252 15.8646 0.503409 16.2695 0.87561C16.6744 1.24781 16.9799 1.71526 17.1583 2.23552C17.3525 2.80452 17.3922 3.41492 17.2732 4.00428H21.3415C22.0489 4.00428 22.7273 4.28527 23.2275 4.78545C23.7277 5.28562 24.0087 5.964 24.0087 6.67137L24.0075 6.67009ZM24.0075 31.6611V35.7292H24.0087C23.4193 35.6103 22.8089 35.65 22.2399 35.8442C21.7194 36.0221 21.2517 36.3275 20.8794 36.7324C20.5071 37.1374 20.2421 37.629 20.1084 38.1626C19.9683 38.7106 19.9697 39.2852 20.1124 39.8326C20.2551 40.3799 20.5344 40.882 20.9242 41.2919C21.3141 41.7018 21.8016 42.0059 22.3411 42.1759C22.8806 42.3458 23.4544 42.376 24.0087 42.2635V46.3316C24.0087 47.039 23.7277 47.7174 23.2275 48.2176C22.7273 48.7177 22.0489 48.9987 21.3415 48.9987H17.2732V49C17.3922 48.4106 17.3525 47.8002 17.1583 47.2312C16.9803 46.7108 16.6749 46.2431 16.27 45.8708C15.865 45.4985 15.3734 45.2335 14.8398 45.0998C14.3467 44.9737 13.8314 44.962 13.3332 45.0654C12.8349 45.1689 12.3669 45.3848 11.9648 45.6967C11.5627 46.0086 11.2371 46.4082 11.013 46.8651C10.7889 47.322 10.6721 47.824 10.6716 48.3329C10.672 48.5569 10.6944 48.7803 10.7385 49L6.67149 48.9987C5.19884 48.999 4.00465 47.8056 4.00427 46.3329V42.2648C3.78467 42.309 3.56124 42.3314 3.33717 42.3318C2.82832 42.3312 2.32633 42.2143 1.86949 41.9902C1.41266 41.7661 1.01305 41.4406 0.701165 41.0385C0.389276 40.6364 0.173345 40.1685 0.0698443 39.6702C-0.0336563 39.172 -0.0219927 38.6568 0.103949 38.1637C0.237613 37.6302 0.502659 37.1385 0.874939 36.7336C1.24722 36.3287 1.7149 36.0234 2.23537 35.8455C2.80443 35.6512 3.41485 35.6115 4.00427 35.7304H4.00299V31.6624C4.00302 30.955 4.28404 30.2766 4.78424 29.7764C5.28444 29.2763 5.96284 28.9953 6.67021 28.9953H10.7385C10.6944 28.7756 10.672 28.5522 10.6716 28.3282C10.6721 27.8193 10.7888 27.3172 11.0129 26.8603C11.2371 26.4034 11.5626 26.0038 11.9647 25.6919C12.3668 25.38 12.8349 25.1641 13.3332 25.0607C13.8314 24.9573 14.3467 24.9691 14.8398 25.0952C15.3732 25.2292 15.8646 25.4944 16.2695 25.8666C16.6744 26.2388 16.9799 26.7063 17.1583 27.2265C17.3525 27.7955 17.3922 28.4059 17.2732 28.9953H21.3415C22.0489 28.9953 22.7273 29.2763 23.2275 29.7764C23.7277 30.2766 24.0087 30.955 24.0087 31.6624L24.0075 31.6611ZM50.6354 6.66997V10.7382H50.6367C50.0473 10.6192 49.4369 10.6588 48.8679 10.8531C48.3474 11.031 47.8797 11.3364 47.5074 11.7413C47.1351 12.1462 46.87 12.6379 46.7364 13.1715C46.6104 13.6645 46.5986 14.1798 46.7021 14.678C46.8056 15.1763 47.0215 15.6443 47.3334 16.0464C47.6453 16.4485 48.0449 16.774 48.5018 16.9981C48.9587 17.2222 49.4607 17.339 49.9696 17.3395C50.1936 17.3391 50.4171 17.3166 50.6367 17.2724V21.3406C50.6367 21.6909 50.5678 22.0377 50.4337 22.3613C50.2997 22.6849 50.1033 22.9789 49.8556 23.2266C49.6079 23.4743 49.3139 23.6707 48.9903 23.8047C48.6667 23.9387 48.3198 24.0077 47.9696 24.0076H43.9011V24.0089C44.0201 23.4195 43.9805 22.8091 43.7862 22.2401C43.6083 21.7196 43.3029 21.252 42.8979 20.8797C42.493 20.5074 42.0013 20.2424 41.4677 20.1088C40.9747 19.9828 40.4594 19.971 39.9611 20.0744C39.4629 20.1779 38.9948 20.3938 38.5927 20.7057C38.1906 21.0175 37.8651 21.4172 37.641 21.874C37.4169 22.3309 37.3001 22.8329 37.2996 23.3418C37.2999 23.5659 37.3223 23.7893 37.3665 24.0089L33.2994 24.0076C31.8268 24.0079 30.6327 22.8144 30.6323 21.3419V17.2737C30.4126 17.3179 30.1892 17.3403 29.9651 17.3406C29.4562 17.3401 28.9542 17.2234 28.4973 16.9993C28.0405 16.7752 27.6408 16.4497 27.3289 16.0476C27.017 15.6456 26.8011 15.1775 26.6976 14.6793C26.5941 14.1811 26.6059 13.6658 26.7319 13.1727C26.8656 12.6392 27.1307 12.1475 27.503 11.7426C27.8753 11.3377 28.343 11.0323 28.8634 10.8544C29.4325 10.6601 30.0429 10.6205 30.6323 10.7395H30.6311V6.67124C30.631 6.32098 30.6999 5.97414 30.8339 5.65053C30.9679 5.32692 31.1644 5.03289 31.4121 4.78522C31.6598 4.53755 31.9538 4.34111 32.2774 4.20712C32.601 4.07312 32.9479 4.0042 33.2981 4.00428H37.3665C37.3223 3.78465 37.2999 3.56121 37.2996 3.33719C37.3001 2.82831 37.4169 2.32628 37.641 1.86941C37.8651 1.41254 38.1906 1.01291 38.5927 0.701015C38.9948 0.389122 39.4629 0.173211 39.9611 0.0697602C40.4594 -0.033691 40.9747 -0.0219477 41.4677 0.104093C42.0011 0.238126 42.4926 0.503298 42.8975 0.875524C43.3024 1.24775 43.6079 1.71523 43.7862 2.23552C43.9805 2.80452 44.0201 3.41492 43.9011 4.00428H47.9696C48.3199 4.0042 48.6667 4.07312 48.9903 4.20712C49.3139 4.34111 49.608 4.53755 49.8557 4.78522C50.1033 5.03289 50.2998 5.32692 50.4338 5.65053C50.5678 5.97414 50.6368 6.32098 50.6367 6.67124L50.6354 6.66997ZM50.6354 31.6611V35.7292H50.6367C50.0473 35.6103 49.4369 35.65 48.8679 35.8442C48.3474 36.0221 47.8797 36.3274 47.5074 36.7324C47.1351 37.1373 46.87 37.629 46.7364 38.1626C46.5963 38.7106 46.5976 39.2852 46.7403 39.8326C46.883 40.3799 47.1624 40.882 47.5522 41.2919C47.942 41.7018 48.4295 42.0059 48.969 42.1759C49.5085 42.3458 50.0823 42.376 50.6367 42.2635V46.3316C50.6367 46.6819 50.5677 47.0287 50.4337 47.3523C50.2997 47.6759 50.1032 47.9699 49.8556 48.2176C49.6079 48.4653 49.3139 48.6617 48.9903 48.7957C48.6667 48.9298 48.3198 48.9987 47.9696 48.9987H43.9011V49C44.0201 48.4106 43.9805 47.8002 43.7862 47.2312C43.6083 46.7107 43.3029 46.243 42.898 45.8707C42.493 45.4985 42.0013 45.2334 41.4677 45.0998C40.9747 44.9738 40.4594 44.9621 39.9612 45.0656C39.4629 45.1691 38.9949 45.385 38.5928 45.6969C38.1908 46.0087 37.8652 46.4084 37.6411 46.8652C37.417 47.322 37.3001 47.824 37.2996 48.3329C37.2999 48.5569 37.3223 48.7803 37.3665 49L33.2994 48.9987C31.8268 48.999 30.6327 47.8056 30.6323 46.3329V42.2648C30.4126 42.309 30.1892 42.3314 29.9651 42.3318C29.4563 42.3312 28.9542 42.2144 28.4974 41.9903C28.0406 41.7661 27.6409 41.4406 27.329 41.0386C27.0171 40.6365 26.8012 40.1685 26.6977 39.6703C26.5942 39.172 26.6059 38.6568 26.7319 38.1637C26.8656 37.6302 27.1307 37.1386 27.503 36.7337C27.8753 36.3288 28.343 36.0234 28.8634 35.8455C29.4325 35.6512 30.0429 35.6115 30.6323 35.7304H30.6311V31.6624C30.631 31.3121 30.6999 30.9652 30.8339 30.6416C30.9679 30.318 31.1644 30.0239 31.412 29.7763C31.6597 29.5286 31.9538 29.3321 32.2774 29.1981C32.601 29.0641 32.9479 28.9952 33.2981 28.9953H37.3665C37.3223 28.7756 37.2999 28.5522 37.2996 28.3282C37.3001 27.8193 37.4168 27.3172 37.6409 26.8604C37.8651 26.4035 38.1906 26.0038 38.5927 25.692C38.9948 25.3801 39.4628 25.1642 39.9611 25.0608C40.4594 24.9573 40.9747 24.9691 41.4677 25.0952C42.0011 25.2292 42.4926 25.4944 42.8975 25.8666C43.3024 26.2388 43.6079 26.7062 43.7862 27.2265C43.9805 27.7955 44.0201 28.4059 43.9011 28.9953H47.9696C48.3198 28.9952 48.6667 29.0642 48.9903 29.1982C49.3139 29.3323 49.6079 29.5287 49.8556 29.7764C50.1032 30.0241 50.2997 30.3181 50.4337 30.6417C50.5677 30.9653 50.6367 31.3121 50.6367 31.6624" fill="url(#paint0_linear_341_108)"/>
<defs>
<linearGradient id="paint0_linear_341_108" x1="25.3183" y1="0" x2="25.3183" y2="49" gradientUnits="userSpaceOnUse">
<stop stop-color="#2400B2"/>
<stop offset="1" stop-color="#50C2E7"/>
</linearGradient>
</defs>
</svg>
