<svg width="37" height="39" viewBox="0 0 37 39" fill="none" xmlns="http://www.w3.org/2000/svg">
<path d="M18.668 -0.000577163C19.3067 -0.000577163 19.9355 0.0408603 20.5205 0.13836C21.0967 0.213856 21.6651 0.339457 22.2195 0.513735C22.7752 0.681923 23.3188 0.891548 23.8623 1.1548C24.3913 1.40586 24.9348 1.71299 25.4784 2.04692C26.3973 2.63192 27.3017 3.1048 28.223 3.48261C30.0369 4.20858 31.9549 4.64057 33.9048 4.7623C34.8945 4.83299 35.9109 4.87442 36.9688 4.87442V14.6244C36.9688 16.4769 36.7323 18.2319 36.2595 19.904C35.8052 21.5523 35.1598 23.1418 34.3363 24.6401C33.5162 26.1363 32.546 27.5451 31.4405 28.8448C30.3181 30.174 29.1028 31.4219 27.8038 32.579C26.4876 33.7396 25.1013 34.8182 23.6527 35.8087C22.2048 36.813 20.7423 37.7465 19.2798 38.5948L18.6948 38.9434L18.1098 38.5948C16.6064 37.7244 15.1379 36.795 13.7077 35.8087C12.2511 34.8294 10.864 33.7502 9.55665 32.579C8.25841 31.4218 7.04392 30.1739 5.92234 28.8448C4.81984 27.5396 3.84524 26.1316 3.01197 24.6401C2.20255 23.1351 1.55776 21.5473 1.08878 19.904C0.612905 18.185 0.378285 16.4081 0.391654 14.6244V4.87442C1.45197 4.87442 2.4684 4.83299 3.45803 4.7623C4.4322 4.69463 5.40007 4.55532 6.35378 4.34549C7.28734 4.13586 8.2209 3.85799 9.13984 3.48261C10.0934 3.09776 11.0076 2.62188 11.8698 2.06155C12.9423 1.36442 14.0295 0.85011 15.102 0.511298C16.257 0.157206 17.46 -0.015474 18.668 -0.000577163V-0.000577163ZM34.5167 7.27049C32.6715 7.18096 30.8436 6.87248 29.0713 6.35155C27.3083 5.82567 25.6292 5.05173 24.0842 4.05299C23.2828 3.52696 22.4125 3.11436 21.498 2.82692C20.5845 2.55084 19.6345 2.41442 18.6802 2.4223C17.7189 2.41608 16.7619 2.55244 15.8405 2.82692C14.9247 3.10502 14.0555 3.51826 13.2617 4.05299C11.714 5.05718 10.0304 5.83451 8.26234 6.3613C6.53415 6.86342 4.72553 7.17055 2.82915 7.28267V14.6366C2.82915 16.2527 3.03878 17.798 3.45803 19.2874C3.88514 20.7637 4.4737 22.1885 5.21303 23.5359C5.96122 24.8974 6.84306 26.1809 7.84553 27.3677C8.86197 28.5645 9.94665 29.6784 11.1167 30.7363C12.2867 31.7966 13.5127 32.7716 14.7948 33.6759C16.0892 34.5827 17.3859 35.4041 18.6802 36.1549C20.0055 35.3833 21.2977 34.5563 22.5534 33.6759C23.844 32.7745 25.0766 31.7926 26.2438 30.7363C27.4138 29.6784 28.5009 28.5645 29.5173 27.3677C30.5199 26.181 31.4018 24.8974 32.1498 23.5359C32.8859 22.1902 33.4657 20.7648 33.878 19.2874C34.31 17.7752 34.525 16.2093 34.5167 14.6366V7.27049V7.27049Z" fill="white"/>
<path fill-rule="evenodd" clip-rule="evenodd" d="M27.7551 11.478L26.6826 10.5566L25.693 10.642L15.0655 23.1902L11.4458 18.0227L10.4708 17.857L9.34226 18.6638L9.17407 19.6388L13.8273 26.2834L14.3562 26.5759L15.4701 26.6441L16.0405 26.3955L27.8258 12.4652L27.7551 11.478V11.478Z" fill="white"/>
</svg>
