<svg width="500" height="500" viewBox="0 0 500 500" fill="none" xmlns="http://www.w3.org/2000/svg">
<path d="M500 382.4H0V382.65H500V382.4Z" fill="#E0E0E0"/>
<path d="M424.11 396.43H413.5V396.68H424.11V396.43Z" fill="#E0E0E0"/>
<path d="M406.16 396.55H363.01V396.8H406.16V396.55Z" fill="#E0E0E0"/>
<path d="M309.67 394.17H236.85V394.42H309.67V394.17Z" fill="#E0E0E0"/>
<path d="M194.96 398.51H171.85V398.76H194.96V398.51Z" fill="#E0E0E0"/>
<path d="M117.95 394.29H86.13V394.54H117.95V394.29Z" fill="#E0E0E0"/>
<path d="M153.24 394.29H123.5V394.54H153.24V394.29Z" fill="#E0E0E0"/>
<path d="M95.66 389.92H65.29V390.17H95.66V389.92Z" fill="#E0E0E0"/>
<path d="M178.33 284.61C178.88 284.61 179.43 284.61 179.99 284.66C183.474 284.906 186.861 285.92 189.908 287.629C192.954 289.338 195.585 291.7 197.611 294.545C199.637 297.391 201.009 300.649 201.628 304.087C202.247 307.525 202.097 311.057 201.19 314.43C198.607 324.503 197.359 334.872 197.48 345.27V375.55C197.48 376.611 197.059 377.628 196.308 378.379C195.558 379.129 194.541 379.55 193.48 379.55H97.39V284.61H178.33Z" fill="#E6E6E6"/>
<path d="M73.72 308.28C73.723 304.911 74.4451 301.581 75.8381 298.514C77.2311 295.446 79.2628 292.712 81.7975 290.492C84.3323 288.273 87.3115 286.62 90.5362 285.645C93.7609 284.669 97.1566 284.393 100.496 284.836C103.836 285.278 107.043 286.428 109.903 288.209C112.763 289.99 115.209 292.361 117.079 295.163C118.949 297.966 120.199 301.135 120.746 304.459C121.293 307.784 121.124 311.186 120.25 314.44C117.667 324.513 116.419 334.882 116.54 345.28V375.56C116.54 376.621 116.119 377.638 115.368 378.388C114.618 379.139 113.601 379.56 112.54 379.56H82.22C81.1591 379.56 80.1417 379.139 79.3916 378.388C78.6414 377.638 78.22 376.621 78.22 375.56V343.5C78.3075 333.749 77.0764 324.031 74.56 314.61C73.9951 312.548 73.7125 310.418 73.72 308.28V308.28Z" fill="#F0F0F0"/>
<path d="M130.01 379.53H251.54V321.9H130.01V379.53Z" fill="#E6E6E6"/>
<path d="M322.84 334.93H172.11V270.79C172.11 266.037 173.998 261.479 177.359 258.119C180.719 254.758 185.277 252.87 190.03 252.87H304.95C309.697 252.878 314.248 254.769 317.602 258.129C320.956 261.489 322.84 266.042 322.84 270.79V334.93Z" fill="#E0E0E0"/>
<path d="M300.28 334.93H149.56V269.93C149.56 265.408 151.356 261.071 154.554 257.874C157.751 254.676 162.088 252.88 166.61 252.88H283.23C287.752 252.88 292.089 254.676 295.286 257.874C298.484 261.071 300.28 265.408 300.28 269.93V334.93Z" fill="#F0F0F0"/>
<path d="M245.89 340.1H131.12C129.741 340.1 128.418 339.552 127.443 338.577C126.468 337.602 125.92 336.279 125.92 334.9V321.83C125.92 320.451 126.468 319.128 127.443 318.153C128.418 317.178 129.741 316.63 131.12 316.63H245.89C246.301 316.63 246.695 316.793 246.986 317.084C247.277 317.375 247.44 317.769 247.44 318.18V338.55C247.44 338.961 247.277 339.355 246.986 339.646C246.695 339.937 246.301 340.1 245.89 340.1V340.1Z" fill="#E0E0E0"/>
<path d="M331.34 284.61C331.89 284.61 332.45 284.61 333.01 284.66C336.494 284.906 339.881 285.92 342.928 287.629C345.974 289.338 348.605 291.7 350.631 294.545C352.657 297.391 354.029 300.649 354.648 304.087C355.267 307.525 355.117 311.057 354.21 314.43C351.618 324.502 350.368 334.871 350.49 345.27V375.55C350.49 376.611 350.069 377.628 349.318 378.379C348.568 379.129 347.551 379.55 346.49 379.55H250.41V284.61H331.34Z" fill="#E6E6E6"/>
<path d="M226.73 308.28C226.766 302.157 229.172 296.286 233.443 291.9C237.715 287.513 243.519 284.951 249.639 284.752C255.759 284.552 261.718 286.731 266.265 290.831C270.813 294.931 273.596 300.633 274.03 306.74C274.196 309.331 273.94 311.932 273.27 314.44C270.687 324.513 269.439 334.882 269.56 345.28V375.56C269.56 376.621 269.139 377.638 268.388 378.389C267.638 379.139 266.621 379.56 265.56 379.56H235.23C234.169 379.56 233.152 379.139 232.402 378.389C231.651 377.638 231.23 376.621 231.23 375.56V343.5C231.319 333.748 230.084 324.03 227.56 314.61C226.999 312.547 226.719 310.418 226.73 308.28Z" fill="#F0F0F0"/>
<path d="M99.08 382.41H329.65C330.029 382.411 330.405 382.338 330.755 382.194C331.106 382.05 331.424 381.838 331.693 381.57C331.961 381.302 332.174 380.985 332.32 380.634C332.465 380.284 332.54 379.909 332.54 379.53H96.2C96.2 380.294 96.5034 381.026 97.0435 381.566C97.5837 382.107 98.3162 382.41 99.08 382.41V382.41Z" fill="#E0E0E0"/>
<path d="M412.59 378.32H433.33V269.91H412.59V378.32Z" fill="#E6E6E6"/>
<path d="M338.95 382.4H429.35V378.33H338.95V382.4Z" fill="#E6E6E6"/>
<path d="M412.59 269.91H334.97V378.32H412.59V269.91Z" fill="#F0F0F0"/>
<path d="M409.65 273.48H337.91V342.46H409.65V273.48Z" fill="#E6E6E6"/>
<path d="M409.65 345.39H337.91V370.25H409.65V345.39Z" fill="#E6E6E6"/>
<path d="M353.04 273.48H337.91V342.46H353.04V273.48Z" fill="#E0E0E0"/>
<path d="M353.04 345.39H337.91V370.25H353.04V345.39Z" fill="#E0E0E0"/>
<path d="M171.35 219.23L351.19 219.23V88.77L171.35 88.77L171.35 219.23Z" fill="#E0E0E0"/>
<path d="M158.47 219.23L347.9 219.23V88.77L158.47 88.77L158.47 219.23Z" fill="#F0F0F0"/>
<path d="M343.89 215.21V92.79L162.5 92.79V215.21H343.89Z" fill="#FAFAFA"/>
<path d="M261.055 154.926C263.879 137.357 251.925 120.825 234.356 118.002C216.787 115.178 200.255 127.132 197.432 144.701C194.608 162.27 206.562 178.802 224.131 181.625C241.7 184.449 258.232 172.495 261.055 154.926Z" fill="#E0E0E0"/>
<path d="M176.21 187C179.14 183.3 185.02 180.45 189.37 180.63C190.012 180.607 190.652 180.712 191.253 180.938C191.854 181.165 192.403 181.509 192.87 181.95C200.81 177.35 209.95 174.53 217.5 174.84C221.34 174.99 224.32 175.94 226.38 177.49C234.91 170.55 245.78 165.62 253.67 165.62C258.15 165.62 260.93 167.22 261.92 169.87C270.67 165.21 279.66 162.35 286.92 162.35C298.48 162.35 302.23 169.62 297.5 179.84C299.4 181.77 308.5 184.46 308.14 187.68H175.71C175.87 187.43 176 187.2 176.21 187Z" fill="#F0F0F0"/>
<path d="M221.8 140.06C222.338 140.038 222.873 140.149 223.357 140.383C223.842 140.616 224.262 140.966 224.58 141.4C231.32 136.73 238.92 133.86 245.04 134.18C247.655 134.17 250.18 135.128 252.13 136.87C259.45 129.87 268.59 124.87 275.01 124.87C278.67 124.87 280.85 126.49 281.5 129.18C288.89 124.45 296.37 121.54 302.29 121.54C309.61 121.54 312.85 126.01 311.84 132.87C315.37 130.87 318.84 129.7 321.66 129.7C325.57 129.7 327.41 131.95 327.09 135.49C327.43 135.49 327.77 135.49 328.09 135.54C334.09 136.13 336.35 140.7 333.48 145.93H211.16C213.84 142.46 218.45 139.89 221.8 140.06Z" fill="#F0F0F0"/>
<path d="M122.88 141.225C125.571 123.636 113.494 107.194 95.9041 104.502C78.3142 101.811 61.8728 113.888 59.1811 131.478C56.4895 149.068 68.5669 165.509 86.1568 168.201C103.747 170.893 120.188 158.815 122.88 141.225Z" fill="#E0E0E0"/>
<path d="M120.993 141.478C123.817 123.909 111.863 107.377 94.2941 104.553C76.725 101.73 60.1934 113.683 57.3698 131.253C54.5462 148.822 66.4999 165.353 84.0691 168.177C101.638 171.001 118.17 159.047 120.993 141.478Z" fill="#F0F0F0"/>
<path d="M117.35 136.34C117.36 143.007 115.008 149.463 110.712 154.561C106.415 159.66 100.452 163.072 93.8793 164.192C87.3067 165.312 80.5498 164.068 74.8071 160.68C69.0644 157.293 64.7072 151.981 62.5083 145.686C60.3094 139.392 60.411 132.522 62.7951 126.296C65.1792 120.069 69.6916 114.888 75.5319 111.672C81.3723 108.456 88.163 107.412 94.6996 108.726C101.236 110.04 107.096 113.627 111.24 118.85L111.32 118.94C115.234 123.894 117.359 130.026 117.35 136.34Z" fill="#E0E0E0"/>
<path d="M117.35 136.34C117.342 142.02 115.617 147.565 112.402 152.248C109.188 156.931 104.632 160.534 99.3346 162.582C94.0367 164.631 88.2432 165.031 82.714 163.73C77.1848 162.429 72.1779 159.487 68.35 155.29C63.8346 149.562 61.7169 142.306 62.4426 135.048C63.1683 127.79 66.6807 121.097 72.2408 116.377C77.8009 111.656 84.9753 109.276 92.2545 109.737C99.5338 110.198 106.35 113.465 111.27 118.85L111.35 118.94C115.254 123.898 117.368 130.03 117.35 136.34V136.34Z" fill="#FAFAFA"/>
<path d="M89.79 139.07C89.4136 139.066 89.046 138.956 88.7294 138.753C88.4127 138.549 88.1599 138.261 88 137.92L80.82 122.6C80.7025 122.362 80.6338 122.102 80.6177 121.837C80.6017 121.571 80.6387 121.306 80.7266 121.055C80.8145 120.804 80.9515 120.573 81.1296 120.376C81.3077 120.179 81.5233 120.019 81.7639 119.906C82.0045 119.793 82.2652 119.729 82.5308 119.718C82.7963 119.707 83.0614 119.749 83.3106 119.841C83.5597 119.934 83.7879 120.075 83.9819 120.257C84.1758 120.439 84.3315 120.657 84.44 120.9L90.8 134.5L99.99 130.78C100.482 130.581 101.033 130.586 101.521 130.793C102.01 131 102.396 131.393 102.595 131.885C102.794 132.377 102.789 132.928 102.582 133.416C102.375 133.905 101.982 134.291 101.49 134.49L90.54 138.92C90.302 139.018 90.0473 139.069 89.79 139.07Z" fill="#E0E0E0"/>
<path d="M372.46 316.45C379.92 317.45 384.54 301.25 368.06 287.51C369 303.42 359.44 314.65 372.46 316.45Z" fill="#F0F0F0"/>
<path d="M377.16 326.7C387.99 319.11 380.58 292.6 347.08 294.52C361.57 314 358.29 339.93 377.16 326.7Z" fill="#F0F0F0"/>
<path d="M373.34 326.52C366.15 318.77 376.39 299.27 402.27 306.39C387.66 319.23 385.89 340 373.34 326.52Z" fill="#F0F0F0"/>
<path d="M362.2 342.46H384.45L386.13 327.67H360.52L362.2 342.46Z" fill="#E0E0E0"/>
<path d="M358.87 330.31H387.79V327.05H358.87V330.31Z" fill="#E0E0E0"/>
<path d="M250 427.56C357.082 427.56 443.89 422.492 443.89 416.24C443.89 409.988 357.082 404.92 250 404.92C142.917 404.92 56.11 409.988 56.11 416.24C56.11 422.492 142.917 427.56 250 427.56Z" fill="#F5F5F5"/>
<path d="M387.622 387.856L380.479 390.621L386.632 406.514L393.774 403.75L387.622 387.856Z" fill="#E4897B"/>
<path d="M419.55 408.55H412.02L409.25 391.12H416.78L419.55 408.55Z" fill="#E4897B"/>
<path d="M411.53 407.68H420C420.146 407.678 420.288 407.729 420.4 407.822C420.511 407.916 420.586 408.046 420.61 408.19L421.71 414.89C421.733 415.058 421.72 415.228 421.671 415.39C421.622 415.551 421.538 415.701 421.426 415.827C421.314 415.953 421.176 416.054 421.021 416.122C420.867 416.19 420.699 416.223 420.53 416.22C417.58 416.17 416.15 416 412.43 416C410.14 416 403.23 416.24 400.07 416.24C396.91 416.24 396.68 413.11 397.99 412.83C403.86 411.56 408.34 409.83 410.29 408.14C410.639 407.851 411.076 407.689 411.53 407.68Z" fill="#263238"/>
<path d="M386.47 405L394.47 402.67C394.61 402.624 394.762 402.629 394.898 402.686C395.034 402.743 395.145 402.848 395.21 402.98L398.21 408.98C398.281 409.132 398.319 409.298 398.318 409.466C398.318 409.634 398.281 409.8 398.209 409.952C398.138 410.104 398.033 410.238 397.904 410.345C397.774 410.452 397.623 410.529 397.46 410.57C394.56 411.36 392.6 411.86 388.97 412.92C386.45 413.65 383.9 414.84 381.41 415.63C379.7 416.18 375.66 416.2 373.57 416.2C370.48 416.2 369.79 412.94 371.11 412.79C374.46 412.41 374.92 412.59 376.77 411.66C379.792 410.333 382.531 408.439 384.84 406.08C385.281 405.585 385.842 405.213 386.47 405V405Z" fill="#263238"/>
<path d="M375.3 164.77C374.68 166.34 374.09 167.71 373.42 169.15C372.75 170.59 372.08 171.97 371.37 173.36C369.934 176.18 368.341 178.918 366.6 181.56C364.784 184.374 362.679 186.992 360.32 189.37C358.98 190.726 357.482 191.918 355.86 192.92C353.824 194.186 351.495 194.903 349.1 195C348.43 195.018 347.761 194.971 347.1 194.86C346.522 194.766 345.951 194.636 345.39 194.47C344.436 194.18 343.507 193.815 342.61 193.38C341.073 192.609 339.593 191.73 338.18 190.75C335.587 188.947 333.115 186.976 330.78 184.85C326.245 180.745 322.014 176.317 318.12 171.6L322 167.7C326.59 171.32 331.3 174.94 336 178.24C338.29 179.865 340.659 181.373 343.1 182.76C344.201 183.388 345.348 183.932 346.53 184.39C347.178 184.715 347.895 184.876 348.62 184.86C349.192 184.69 349.728 184.416 350.2 184.05C351.065 183.41 351.863 182.683 352.58 181.88C354.301 179.909 355.841 177.787 357.18 175.54C358.62 173.2 359.97 170.73 361.25 168.21C361.89 166.95 362.51 165.67 363.11 164.39C363.71 163.11 364.32 161.76 364.83 160.58L375.3 164.77Z" fill="#E4897B"/>
<path d="M323.07 170.11L322 164.18L314.37 168.86C314.37 168.86 316.78 172.6 319.32 172.66L323.07 170.11Z" fill="#E4897B"/>
<path d="M318.44 160.61L312.48 164.66L314.36 168.86L321.99 164.18L318.44 160.61Z" fill="#E4897B"/>
<path d="M378.8 157.11C380.64 163.95 370.62 177.69 370.62 177.69L357.46 170.31C357.46 170.31 359.91 164.66 362.92 158.91C367.77 149.62 376.69 149.31 378.8 157.11Z" fill="#6D90DF"/>
<path opacity="0.6" d="M378.8 157.11C380.64 163.95 370.62 177.69 370.62 177.69L357.46 170.31C357.46 170.31 359.91 164.66 362.92 158.91C367.77 149.62 376.69 149.31 378.8 157.11Z" fill="#FAFAFA"/>
<path d="M362.71 173.24L367.88 176.14L368.78 160.28C365.78 162.59 363.65 169.55 362.71 173.24Z" fill="#6D90DF"/>
<path opacity="0.3" d="M362.71 173.24L367.88 176.14L368.78 160.28C365.78 162.59 363.65 169.55 362.71 173.24Z" fill="#FAFAFA"/>
<path d="M388.688 389.209L381.523 391.975L384.696 400.194L391.861 397.428L388.688 389.209Z" fill="#CE6F64"/>
<path d="M416.79 391.12H409.25L410.68 400.11H418.21L416.79 391.12Z" fill="#CE6F64"/>
<path d="M412.36 151.57C404.69 180.7 406.81 210.86 406.17 217.04H365.9C359.9 174.7 370.16 151.96 370.16 151.96C370.16 151.96 373.36 151.1 377.48 150.43L378.63 150.26C379.68 150.11 380.76 149.97 381.86 149.87C387.562 149.54 393.278 149.54 398.98 149.87C399.87 149.87 400.77 149.98 401.65 150.05L402.7 150.15C407.89 150.66 412.36 151.57 412.36 151.57Z" fill="#6D90DF"/>
<path opacity="0.6" d="M412.36 151.57C404.69 180.7 406.81 210.86 406.17 217.04H365.9C359.9 174.7 370.16 151.96 370.16 151.96C370.16 151.96 373.36 151.1 377.48 150.43L378.63 150.26C379.68 150.11 380.76 149.97 381.86 149.87C387.562 149.54 393.278 149.54 398.98 149.87C399.87 149.87 400.77 149.98 401.65 150.05L402.7 150.15C407.89 150.66 412.36 151.57 412.36 151.57Z" fill="#FAFAFA"/>
<path d="M364.62 205.58C364.76 207.387 364.937 209.24 365.15 211.14L395.15 201.42C399.827 200.026 403.89 197.081 406.67 193.07C406.78 190.4 406.93 187.59 407.16 184.66C407.26 183.23 407.39 181.77 407.52 180.29C407.65 178.81 407.83 177.18 408.01 175.6L364.62 205.58Z" fill="#6D90DF"/>
<path opacity="0.3" d="M364.62 205.58C364.76 207.387 364.937 209.24 365.15 211.14L395.15 201.42C399.827 200.026 403.89 197.081 406.67 193.07C406.78 190.4 406.93 187.59 407.16 184.66C407.26 183.23 407.39 181.77 407.52 180.29C407.65 178.81 407.83 177.18 408.01 175.6L364.62 205.58Z" fill="#FAFAFA"/>
<path d="M401.65 150.05L401.25 150.91C401.12 151.2 397.93 157.96 386.2 157.96C384.64 157.96 379.89 157.96 378.4 154.64C378.115 153.938 377.988 153.181 378.027 152.424C378.067 151.668 378.273 150.929 378.63 150.26L377.48 150.43C377.17 151.161 377.01 151.946 377.01 152.74C377.01 153.534 377.17 154.319 377.48 155.05C379.23 158.96 384.48 158.96 386.19 158.96C398.55 158.96 402.01 151.63 402.19 151.32L402.72 150.15L401.65 150.05Z" fill="#FAFAFA"/>
<path d="M398.41 130.59C397.01 136.1 395.34 146.19 398.98 149.87C398.98 149.87 396.44 155.46 386.2 155.46C376.85 155.46 381.86 149.87 381.86 149.87C388.09 148.4 388.2 143.87 387.38 139.57L398.41 130.59Z" fill="#E4897B"/>
<path d="M393.91 134.25L387.38 139.56C387.587 140.547 387.704 141.551 387.73 142.56C389.64 144.46 393.47 139.65 393.87 137.19C394.059 136.22 394.072 135.225 393.91 134.25Z" fill="#CE6F64"/>
<path d="M375.61 127.92C375.769 128.813 376.112 129.663 376.616 130.417C377.12 131.171 377.775 131.812 378.54 132.3C380.62 133.62 382.54 131.95 382.63 129.63C382.75 127.55 381.81 124.35 379.38 123.97C378.851 123.891 378.31 123.941 377.804 124.114C377.297 124.288 376.84 124.58 376.471 124.968C376.101 125.355 375.83 125.825 375.68 126.339C375.53 126.853 375.506 127.395 375.61 127.92Z" fill="#CE6F64"/>
<path d="M381.14 113.38C377.29 114.83 374.95 129.57 379.49 132.08C384.03 134.59 388.43 110.64 381.14 113.38Z" fill="#263238"/>
<path d="M374.64 118.49C377.48 121.49 391.96 117.89 392.51 112.73C393.06 107.57 369.27 112.85 374.64 118.49Z" fill="#263238"/>
<path d="M398.2 121.65C397.93 129.16 398.15 133.55 394.49 137.65C393.367 139.018 391.887 140.049 390.215 140.63C388.543 141.211 386.743 141.318 385.013 140.941C383.284 140.563 381.692 139.715 380.414 138.49C379.136 137.266 378.221 135.712 377.77 134C376.01 127.42 376.77 116.25 383.95 112.67C385.456 111.843 387.157 111.434 388.875 111.486C390.593 111.537 392.265 112.048 393.719 112.964C395.173 113.88 396.356 115.169 397.143 116.696C397.931 118.224 398.296 119.934 398.2 121.65V121.65Z" fill="#E4897B"/>
<path d="M393.67 106.06C398.98 104.75 400.14 106.25 400.38 109.88C400.62 113.51 405.46 112.5 403.83 117.98C403.07 120.57 401.12 120.35 402.31 123.4C403.67 126.91 395.6 131.16 393.7 131.15C390.57 131.15 391.26 124.63 393.81 118.7C395.72 114.26 390.96 115.49 385.5 117.15C373.2 120.88 365.05 110.15 372.68 105.01C376.72 102.28 387.83 107.94 393.67 106.06Z" fill="#263238"/>
<path d="M401.76 129.61C400.805 131.277 399.26 132.526 397.43 133.11C395.02 133.85 393.89 131.73 394.62 129.44C395.28 127.37 397.34 124.5 399.72 124.77C402.1 125.04 402.92 127.54 401.76 129.61Z" fill="#E4897B"/>
<path d="M365.9 217C365.9 217 359.14 277.49 358.61 300.45C358.06 324.34 381.52 398.85 381.52 398.85L393.52 393.8C393.52 393.8 379.52 325.73 381.52 302.28C383.6 276.75 392.37 217 392.37 217H365.9Z" fill="#263238"/>
<path d="M382.69 233.65C377.31 244.83 380.94 266.93 383.86 280.03C384.97 270.79 386.28 260.75 387.53 251.46C387.41 237.17 386.3 226.15 382.69 233.65Z" fill="#182137"/>
<path d="M393 389.92C393.05 389.92 394.42 393.75 394.42 393.75L380.58 399.56L378.39 395.51L393 389.92Z" fill="#6D90DF"/>
<path opacity="0.6" d="M393 389.92C393.05 389.92 394.42 393.75 394.42 393.75L380.58 399.56L378.39 395.51L393 389.92Z" fill="#FAFAFA"/>
<path d="M380.18 217C380.18 217 385.35 274.53 388.78 296.09C392.53 319.7 407.27 398.33 407.27 398.33H421.07C421.07 398.33 412.8 321.6 411.24 298.23C409.55 272.86 406.17 217 406.17 217H380.18Z" fill="#263238"/>
<path d="M421.28 394.2C421.33 394.2 421.74 398.63 421.74 398.63H406.58L405.5 393.63L421.28 394.2Z" fill="#6D90DF"/>
<path opacity="0.6" d="M421.28 394.2C421.33 394.2 421.74 398.63 421.74 398.63H406.58L405.5 393.63L421.28 394.2Z" fill="#FAFAFA"/>
<path d="M416 390.22C415.968 390.22 415.938 390.207 415.915 390.185C415.893 390.162 415.88 390.132 415.88 390.1C415.8 389.41 408.35 320.1 406.95 299.1C405.43 276.31 402.37 225.79 402.34 225.28C402.339 225.263 402.341 225.246 402.346 225.23C402.351 225.213 402.36 225.198 402.371 225.185C402.382 225.172 402.396 225.161 402.411 225.154C402.426 225.146 402.443 225.141 402.46 225.14V225.14C402.493 225.14 402.524 225.152 402.549 225.175C402.573 225.197 402.587 225.227 402.59 225.26C402.59 225.77 405.68 276.26 407.2 299.08C408.6 320.08 416.05 389.34 416.13 390.08C416.133 390.097 416.132 390.114 416.128 390.13C416.124 390.146 416.116 390.161 416.106 390.175C416.096 390.188 416.083 390.199 416.068 390.206C416.053 390.214 416.037 390.219 416.02 390.22H416Z" fill="#6D90DF"/>
<path opacity="0.5" d="M416 390.22C415.968 390.22 415.938 390.207 415.915 390.185C415.893 390.162 415.88 390.132 415.88 390.1C415.8 389.41 408.35 320.1 406.95 299.1C405.43 276.31 402.37 225.79 402.34 225.28C402.339 225.263 402.341 225.246 402.346 225.23C402.351 225.213 402.36 225.198 402.371 225.185C402.382 225.172 402.396 225.161 402.411 225.154C402.426 225.146 402.443 225.141 402.46 225.14V225.14C402.493 225.14 402.524 225.152 402.549 225.175C402.573 225.197 402.587 225.227 402.59 225.26C402.59 225.77 405.68 276.26 407.2 299.08C408.6 320.08 416.05 389.34 416.13 390.08C416.133 390.097 416.132 390.114 416.128 390.13C416.124 390.146 416.116 390.161 416.106 390.175C416.096 390.188 416.083 390.199 416.068 390.206C416.053 390.214 416.037 390.219 416.02 390.22H416Z" fill="black"/>
<path d="M387 124.68C387 125.29 386.71 125.81 386.31 125.84C385.91 125.87 385.58 125.41 385.57 124.84C385.56 124.27 385.86 123.71 386.26 123.68C386.66 123.65 387 124.07 387 124.68Z" fill="#263238"/>
<path d="M380.14 125.25C380.14 125.86 379.85 126.38 379.45 126.41C379.05 126.44 378.72 125.98 378.71 125.41C378.7 124.84 379 124.28 379.4 124.25C379.8 124.22 380.12 124.64 380.14 125.25Z" fill="#263238"/>
<path d="M382.32 125.37C381.641 127.299 380.713 129.131 379.56 130.82C380.65 131.73 382.46 131.12 382.46 131.12L382.32 125.37Z" fill="#DE5753"/>
<path d="M383.18 133.62C383.134 133.62 383.09 133.603 383.056 133.571C383.023 133.539 383.003 133.496 383 133.45C383 133.401 383.019 133.354 383.052 133.319C383.086 133.284 383.131 133.263 383.18 133.26C383.948 133.204 384.693 132.977 385.361 132.594C386.03 132.212 386.603 131.684 387.04 131.05C387.063 131.01 387.1 130.981 387.144 130.969C387.188 130.957 387.235 130.963 387.275 130.985C387.315 131.008 387.344 131.045 387.356 131.089C387.368 131.133 387.363 131.18 387.34 131.22C386.876 131.911 386.26 132.487 385.539 132.903C384.817 133.319 384.011 133.564 383.18 133.62Z" fill="#263238"/>
<path d="M389.14 120.8C389.085 120.802 389.03 120.791 388.98 120.769C388.93 120.746 388.885 120.713 388.85 120.67C388.576 120.319 388.224 120.037 387.821 119.847C387.417 119.658 386.975 119.566 386.53 119.58C386.485 119.586 386.438 119.582 386.394 119.569C386.35 119.557 386.309 119.535 386.274 119.506C386.238 119.477 386.209 119.441 386.188 119.401C386.167 119.36 386.154 119.316 386.15 119.27C386.147 119.174 386.18 119.081 386.243 119.008C386.306 118.936 386.395 118.89 386.49 118.88C387.052 118.855 387.612 118.964 388.124 119.199C388.635 119.433 389.083 119.787 389.43 120.23C389.459 120.266 389.48 120.308 389.492 120.353C389.504 120.398 389.507 120.444 389.501 120.49C389.494 120.536 389.478 120.58 389.454 120.62C389.43 120.659 389.398 120.693 389.36 120.72C389.297 120.77 389.22 120.798 389.14 120.8V120.8Z" fill="#263238"/>
<path d="M377.17 121.83C377.119 121.817 377.071 121.793 377.03 121.76C376.997 121.727 376.97 121.689 376.952 121.646C376.934 121.603 376.925 121.557 376.925 121.51C376.925 121.463 376.934 121.417 376.952 121.374C376.97 121.332 376.997 121.293 377.03 121.26C377.376 120.792 377.829 120.413 378.351 120.154C378.872 119.895 379.448 119.763 380.03 119.77C380.076 119.772 380.121 119.784 380.163 119.805C380.204 119.826 380.24 119.855 380.27 119.891C380.299 119.927 380.32 119.968 380.332 120.013C380.344 120.058 380.347 120.104 380.34 120.15C380.325 120.244 380.277 120.33 380.203 120.391C380.129 120.452 380.036 120.484 379.94 120.48V120.48C379.484 120.49 379.036 120.605 378.63 120.814C378.225 121.024 377.872 121.324 377.6 121.69C377.552 121.755 377.484 121.804 377.407 121.829C377.33 121.854 377.247 121.854 377.17 121.83V121.83Z" fill="#263238"/>
<path d="M416.23 161.41L405.82 158.64C405.82 158.64 395.62 183.75 392.02 185.39C387.12 187.62 374.7 195.39 369.43 199.06C369.13 200.3 369.36 203.62 370.03 204.52C379.03 202.89 396.26 196.26 399.86 192.88C408.06 185.2 416.23 161.41 416.23 161.41Z" fill="#E4897B"/>
<path d="M418.94 158.54C421.69 167.4 410.94 179.54 410.94 179.54L396.09 173.48C397.842 168.349 399.869 163.315 402.16 158.4C406.73 148.57 416.16 149.59 418.94 158.54Z" fill="#6D90DF"/>
<path opacity="0.6" d="M418.94 158.54C421.69 167.4 410.94 179.54 410.94 179.54L396.09 173.48C397.842 168.349 399.869 163.315 402.16 158.4C406.73 148.57 416.16 149.59 418.94 158.54Z" fill="#FAFAFA"/>
<path d="M409 409C408.493 409.047 407.987 408.912 407.57 408.62C407.441 408.504 407.345 408.356 407.291 408.191C407.236 408.026 407.226 407.85 407.26 407.68C407.266 407.574 407.299 407.47 407.357 407.381C407.415 407.292 407.495 407.219 407.59 407.17C408.44 406.75 410.79 408.24 411.05 408.41C411.079 408.429 411.103 408.456 411.117 408.488C411.131 408.52 411.136 408.555 411.13 408.59C411.121 408.625 411.102 408.657 411.076 408.682C411.049 408.707 411.016 408.723 410.98 408.73C410.332 408.894 409.668 408.985 409 409V409ZM408 407.45C407.924 407.433 407.846 407.433 407.77 407.45C407.732 407.471 407.7 407.501 407.677 407.538C407.654 407.575 407.642 407.617 407.64 407.66C407.616 407.776 407.622 407.897 407.657 408.01C407.692 408.124 407.755 408.227 407.84 408.31C408.681 408.691 409.636 408.738 410.51 408.44C409.731 407.934 408.856 407.593 407.94 407.44L408 407.45Z" fill="#6D90DF"/>
<path d="M410.91 408.73H410.83C410.07 408.3 408.66 406.65 408.83 405.81C408.867 405.679 408.945 405.563 409.053 405.48C409.161 405.397 409.294 405.352 409.43 405.35C409.563 405.329 409.698 405.339 409.827 405.379C409.955 405.419 410.072 405.488 410.17 405.58C411.01 406.29 411.06 408.46 411.06 408.58C411.06 408.63 411.04 408.679 411.004 408.714C410.969 408.75 410.92 408.77 410.87 408.77L410.91 408.73ZM409.57 405.68H409.49C409.26 405.68 409.23 405.82 409.22 405.86C409.09 406.36 409.98 407.6 410.72 408.19C410.719 407.345 410.457 406.521 409.97 405.83C409.86 405.733 409.717 405.679 409.57 405.68V405.68Z" fill="#6D90DF"/>
<path d="M382.41 407.75C381.802 407.964 381.138 407.964 380.53 407.75C380.384 407.682 380.259 407.577 380.166 407.445C380.073 407.314 380.016 407.16 380 407C379.989 406.902 380.001 406.803 380.036 406.711C380.071 406.619 380.127 406.536 380.2 406.47C381.01 405.76 384.27 406.53 384.64 406.62C384.674 406.63 384.704 406.649 384.728 406.676C384.751 406.702 384.765 406.735 384.77 406.77C384.771 406.808 384.762 406.845 384.742 406.877C384.723 406.909 384.694 406.934 384.66 406.95C383.935 407.283 383.182 407.551 382.41 407.75V407.75ZM380.79 406.56C380.674 406.58 380.564 406.628 380.47 406.7C380.441 406.728 380.419 406.763 380.407 406.801C380.395 406.84 380.392 406.88 380.4 406.92C380.402 407.024 380.432 407.124 380.487 407.212C380.541 407.3 380.618 407.372 380.71 407.42C381.24 407.71 382.48 407.48 384.06 406.82C382.993 406.545 381.887 406.457 380.79 406.56V406.56Z" fill="#6D90DF"/>
<path d="M384.66 406.93H384.59C383.59 406.75 381.59 405.6 381.53 404.74C381.53 404.54 381.62 404.26 382.09 404.09C382.418 403.978 382.777 404 383.09 404.15C384.18 404.69 384.75 406.61 384.77 406.69C384.784 406.718 384.791 406.749 384.791 406.78C384.791 406.811 384.784 406.842 384.77 406.87C384.758 406.888 384.741 406.903 384.722 406.913C384.703 406.924 384.682 406.929 384.66 406.93ZM382.3 404.41H382.19C381.88 404.52 381.89 404.65 381.89 404.69C381.89 405.2 383.34 406.15 384.35 406.47C384.113 405.669 383.621 404.967 382.95 404.47C382.749 404.368 382.516 404.346 382.3 404.41Z" fill="#6D90DF"/>
<path d="M290 211.44C290.858 208.997 292.438 206.873 294.531 205.349C296.624 203.826 299.132 202.975 301.72 202.91H403C404.397 202.877 405.784 203.15 407.065 203.71C408.345 204.27 409.487 205.103 410.412 206.151C411.336 207.199 412.02 208.437 412.415 209.777C412.81 211.118 412.908 212.528 412.7 213.91L390.19 405.24C389.782 408.235 388.322 410.986 386.07 413.002C383.818 415.018 380.921 416.166 377.9 416.24H123.9C122.503 416.275 121.114 416.003 119.833 415.444C118.552 414.884 117.409 414.051 116.484 413.003C115.56 411.954 114.876 410.716 114.481 409.375C114.087 408.034 113.991 406.622 114.2 405.24L133.38 242.37C133.788 239.375 135.249 236.624 137.501 234.608C139.753 232.593 142.649 231.445 145.67 231.37H262.67C274.59 231.37 285.94 223.11 290 211.44Z" fill="#6D90DF"/>
<path opacity="0.1" d="M290 211.44C290.858 208.997 292.438 206.873 294.531 205.349C296.624 203.826 299.132 202.975 301.72 202.91H403C404.397 202.877 405.784 203.15 407.065 203.71C408.345 204.27 409.487 205.103 410.412 206.151C411.336 207.199 412.02 208.437 412.415 209.777C412.81 211.118 412.908 212.528 412.7 213.91L390.19 405.24C389.782 408.235 388.322 410.986 386.07 413.002C383.818 415.018 380.921 416.166 377.9 416.24H123.9C122.503 416.275 121.114 416.003 119.833 415.444C118.552 414.884 117.409 414.051 116.484 413.003C115.56 411.954 114.876 410.716 114.481 409.375C114.087 408.034 113.991 406.622 114.2 405.24L133.38 242.37C133.788 239.375 135.249 236.624 137.501 234.608C139.753 232.593 142.649 231.445 145.67 231.37H262.67C274.59 231.37 285.94 223.11 290 211.44Z" fill="#FAFAFA"/>
<path d="M199.461 126.733L62.676 222.12L152.961 351.589L289.746 256.201L199.461 126.733Z" fill="#6D90DF"/>
<path opacity="0.8" d="M199.461 126.733L62.676 222.12L152.961 351.589L289.746 256.201L199.461 126.733Z" fill="#FAFAFA"/>
<path d="M199.101 128.746L62.3161 224.133L152.601 353.601L289.386 258.214L199.101 128.746Z" fill="#FAFAFA"/>
<path d="M196.315 145.797L79.2646 227.422L141.453 316.6L258.503 234.975L196.315 145.797Z" fill="#6D90DF"/>
<path opacity="0.8" d="M196.315 145.797L79.2646 227.422L141.453 316.6L258.503 234.975L196.315 145.797Z" fill="#FAFAFA"/>
<path d="M151.5 222.56C153.763 225.807 155.013 229.652 155.09 233.61C155.166 237.567 154.067 241.458 151.932 244.79C149.796 248.122 146.719 250.746 143.092 252.329C139.464 253.911 135.448 254.382 131.553 253.682C127.658 252.981 124.058 251.141 121.209 248.393C118.36 245.645 116.391 242.114 115.55 238.246C114.709 234.379 115.035 230.349 116.485 226.666C117.936 222.984 120.447 219.815 123.7 217.56C128.052 214.544 133.422 213.376 138.634 214.313C143.845 215.251 148.472 218.216 151.5 222.56V222.56Z" fill="#6D90DF"/>
<path opacity="0.1" d="M151.5 222.56C153.763 225.807 155.013 229.652 155.09 233.61C155.166 237.567 154.067 241.458 151.932 244.79C149.796 248.122 146.719 250.746 143.092 252.329C139.464 253.911 135.448 254.382 131.553 253.682C127.658 252.981 124.058 251.141 121.209 248.393C118.36 245.645 116.391 242.114 115.55 238.246C114.709 234.379 115.035 230.349 116.485 226.666C117.936 222.984 120.447 219.815 123.7 217.56C128.052 214.544 133.422 213.376 138.634 214.313C143.845 215.251 148.472 218.216 151.5 222.56V222.56Z" fill="#FAFAFA"/>
<path d="M226.16 213.75C223.147 210.748 219.51 208.446 215.508 207.006C211.505 205.567 207.235 205.025 203 205.42V205.42C202.87 205.24 202.77 205.04 202.64 204.85C198.766 199.227 193.033 195.15 186.449 193.339C179.865 191.528 172.853 192.099 166.648 194.95C160.443 197.802 155.444 202.751 152.53 208.927C149.616 215.102 148.975 222.108 150.72 228.71C149.846 229.122 149.007 229.603 148.21 230.15C145.359 232.133 143.167 234.925 141.92 238.166C140.672 241.407 140.425 244.947 141.21 248.33C137.393 249.826 134.141 252.481 131.91 255.92C129.618 259.339 128.375 263.354 128.334 267.471C128.293 271.587 129.456 275.626 131.68 279.09C133.212 281.391 135.188 283.363 137.492 284.89C139.797 286.417 142.383 287.469 145.099 287.983C147.815 288.497 150.607 288.463 153.31 287.884C156.013 287.305 158.573 286.192 160.84 284.61V284.61L194.49 261.14L225.32 239.64C228.748 237.299 231.116 233.701 231.911 229.627C232.707 225.553 231.866 221.329 229.57 217.87L229.48 217.73C228.496 216.306 227.385 214.974 226.16 213.75V213.75Z" fill="#6D90DF"/>
<path opacity="0.3" d="M226.16 213.75C223.147 210.748 219.51 208.446 215.508 207.006C211.505 205.567 207.235 205.025 203 205.42V205.42C202.87 205.24 202.77 205.04 202.64 204.85C198.766 199.227 193.033 195.15 186.449 193.339C179.865 191.528 172.853 192.099 166.648 194.95C160.443 197.802 155.444 202.751 152.53 208.927C149.616 215.102 148.975 222.108 150.72 228.71C149.846 229.122 149.007 229.603 148.21 230.15C145.359 232.133 143.167 234.925 141.92 238.166C140.672 241.407 140.425 244.947 141.21 248.33C137.393 249.826 134.141 252.481 131.91 255.92C129.618 259.339 128.375 263.354 128.334 267.471C128.293 271.587 129.456 275.626 131.68 279.09C133.212 281.391 135.188 283.363 137.492 284.89C139.797 286.417 142.383 287.469 145.099 287.983C147.815 288.497 150.607 288.463 153.31 287.884C156.013 287.305 158.573 286.192 160.84 284.61V284.61L194.49 261.14L225.32 239.64C228.748 237.299 231.116 233.701 231.911 229.627C232.707 225.553 231.866 221.329 229.57 217.87L229.48 217.73C228.496 216.306 227.385 214.974 226.16 213.75V213.75Z" fill="black"/>
<g style="mix-blend-mode:multiply">
<path d="M203.783 149.545L63.6254 239.905L149.152 372.565L289.309 282.205L203.783 149.545Z" fill="#6D90DF"/>
</g>
<path opacity="0.8" d="M203.783 149.545L63.6254 239.905L149.152 372.565L289.309 282.205L203.783 149.545Z" fill="#FAFAFA"/>
<path d="M203.36 151.557L63.2032 241.917L148.73 374.577L288.887 284.217L203.36 151.557Z" fill="#FAFAFA"/>
<path d="M199.961 168.499L80.0255 245.822L138.936 337.198L258.871 259.875L199.961 168.499Z" fill="#6D90DF"/>
<path opacity="0.8" d="M199.961 168.499L80.0255 245.822L138.936 337.198L258.871 259.875L199.961 168.499Z" fill="#FAFAFA"/>
<path d="M155.104 258.581C157.407 247.8 150.535 237.194 139.755 234.891C128.974 232.587 118.368 239.46 116.065 250.24C113.762 261.02 120.634 271.626 131.414 273.93C142.194 276.233 152.801 269.361 155.104 258.581Z" fill="#6D90DF"/>
<path opacity="0.1" d="M155.104 258.581C157.407 247.8 150.535 237.194 139.755 234.891C128.974 232.587 118.368 239.46 116.065 250.24C113.762 261.02 120.634 271.626 131.414 273.93C142.194 276.233 152.801 269.361 155.104 258.581Z" fill="#FAFAFA"/>
<path d="M227.3 237.52C224.396 234.408 220.843 231.972 216.892 230.388C212.941 228.803 208.69 228.107 204.44 228.35V228.35C204.32 228.15 204.23 227.95 204.1 227.76C200.43 221.999 194.845 217.718 188.327 215.672C181.81 213.625 174.78 213.945 168.476 216.575C162.171 219.205 156.998 223.976 153.867 230.047C150.735 236.118 149.848 243.099 151.36 249.76C150.467 250.133 149.607 250.581 148.79 251.1C145.875 252.98 143.589 255.689 142.228 258.88C140.866 262.07 140.491 265.595 141.15 269C137.279 270.349 133.931 272.882 131.58 276.24C129.164 279.572 127.776 283.539 127.586 287.65C127.395 291.762 128.412 295.839 130.51 299.38C131.954 301.739 133.854 303.785 136.1 305.4C138.346 307.014 140.891 308.163 143.587 308.779C146.283 309.396 149.075 309.468 151.799 308.991C154.523 308.513 157.124 307.497 159.45 306L194 283.72L225.6 263.35C229.102 261.127 231.589 257.616 232.525 253.574C233.46 249.533 232.769 245.286 230.6 241.75L230.5 241.61C229.562 240.151 228.491 238.781 227.3 237.52Z" fill="#6D90DF"/>
<path opacity="0.3" d="M227.3 237.52C224.396 234.408 220.843 231.972 216.892 230.388C212.941 228.803 208.69 228.107 204.44 228.35V228.35C204.32 228.15 204.23 227.95 204.1 227.76C200.43 221.999 194.845 217.718 188.327 215.672C181.81 213.625 174.78 213.945 168.476 216.575C162.171 219.205 156.998 223.976 153.867 230.047C150.735 236.118 149.848 243.099 151.36 249.76C150.467 250.133 149.607 250.581 148.79 251.1C145.875 252.98 143.589 255.689 142.228 258.88C140.866 262.07 140.491 265.595 141.15 269C137.279 270.349 133.931 272.882 131.58 276.24C129.164 279.572 127.776 283.539 127.586 287.65C127.395 291.762 128.412 295.839 130.51 299.38C131.954 301.739 133.854 303.785 136.1 305.4C138.346 307.014 140.891 308.163 143.587 308.779C146.283 309.396 149.075 309.468 151.799 308.991C154.523 308.513 157.124 307.497 159.45 306L194 283.72L225.6 263.35C229.102 261.127 231.589 257.616 232.525 253.574C233.46 249.533 232.769 245.286 230.6 241.75L230.5 241.61C229.562 240.151 228.491 238.781 227.3 237.52Z" fill="black"/>
<g style="mix-blend-mode:multiply">
<path d="M329.103 166.09L163.337 184.273L180.548 341.172L346.314 322.989L329.103 166.09Z" fill="#6D90DF"/>
</g>
<path opacity="0.8" d="M329.103 166.09L163.337 184.273L180.548 341.172L346.314 322.989L329.103 166.09Z" fill="#FAFAFA"/>
<path d="M327.815 167.69L162.049 185.874L179.26 342.772L345.026 324.589L327.815 167.69Z" fill="#FAFAFA"/>
<path d="M317.204 181.322L175.355 196.882L187.21 304.954L329.059 289.394L317.204 181.322Z" fill="#6D90DF"/>
<path opacity="0.8" d="M317.204 181.322L175.355 196.882L187.21 304.954L329.059 289.394L317.204 181.322Z" fill="#FAFAFA"/>
<path d="M328.64 285.44L329.07 289.39L255.39 297.48L272.98 276.62L290.99 255.24L328.64 285.44Z" fill="#6D90DF"/>
<path opacity="0.3" d="M328.64 285.44L329.07 289.39L255.39 297.48L272.98 276.62L290.99 255.24L328.64 285.44Z" fill="black"/>
<path d="M297.17 292.89L187.23 304.95L186.27 296.26L229.42 247.33L272.98 276.62L297.17 292.89Z" fill="#6D90DF"/>
<path opacity="0.3" d="M297.17 292.89L187.23 304.95L186.27 296.26L229.42 247.33L272.98 276.62L297.17 292.89Z" fill="black"/>
<path d="M283.658 221.472C284.047 212.152 276.807 204.281 267.487 203.892C258.167 203.503 250.296 210.743 249.907 220.063C249.518 229.383 256.758 237.254 266.078 237.643C275.398 238.032 283.269 230.792 283.658 221.472Z" fill="#6D90DF"/>
<path opacity="0.1" d="M283.658 221.472C284.047 212.152 276.807 204.281 267.487 203.892C258.167 203.503 250.296 210.743 249.907 220.063C249.518 229.383 256.758 237.254 266.078 237.643C275.398 238.032 283.269 230.792 283.658 221.472Z" fill="#FAFAFA"/>
<g style="mix-blend-mode:multiply" opacity="0.7">
<path d="M246.85 251.38C247.53 247.08 251.64 244.02 256.77 244.02H358.08C364.15 244.02 369.53 248.27 370.08 253.51L383.66 406.75C384.23 411.99 379.76 416.24 373.66 416.24H119.66C113.58 416.24 108.2 411.99 107.66 406.75L96.75 278.06C96.18 272.82 100.64 268.58 106.75 268.58H223.75C235.65 268.58 245.26 261.45 246.85 251.38Z" fill="#6D90DF"/>
</g>
<path d="M370.27 198.47L362.27 201.21L357.19 204.79L366.31 208.33C366.31 208.33 374.83 207.43 376.88 202.81L370.27 198.47Z" fill="#E4897B"/>
</svg>
