<svg width="147" height="147" viewBox="0 0 147 147" fill="none" xmlns="http://www.w3.org/2000/svg">
<path d="M132.271 117.156H125.897V117.23H132.271V117.156Z" fill="#EBEBEB"/>
<path d="M101.333 115.633H91.3047V115.707H101.333V115.633Z" fill="#EBEBEB"/>
<path d="M129.689 114.428H116.597V114.501H129.689V114.428Z" fill="#EBEBEB"/>
<path d="M50.8679 115.91H47.5928V115.983H50.8679V115.91Z" fill="#EBEBEB"/>
<path d="M44.9732 115.91H33.6865V115.983H44.9732V115.91Z" fill="#EBEBEB"/>
<path d="M27.6389 114.669H19.4951V114.742H27.6389V114.669Z" fill="#EBEBEB"/>
<path d="M114.772 89.335C114.663 89.335 114.551 89.335 114.44 89.335C112.088 89.5261 110.165 91.7752 110.015 94.5476C109.98 95.1574 110.031 95.7691 110.168 96.3645C110.689 98.7562 110.94 101.199 110.914 103.647V110.794C110.899 111.024 110.974 111.251 111.124 111.427C111.274 111.602 111.487 111.712 111.717 111.732H127.493V89.335H114.772Z" fill="#F0F0F0"/>
<path d="M132.262 94.9238C132.262 91.7075 129.945 89.1262 127.161 89.3378C124.809 89.5289 122.886 91.778 122.751 94.5505C122.716 95.1603 122.767 95.772 122.904 96.3674C123.425 98.7591 123.676 101.202 123.651 103.65V110.797C123.635 111.027 123.71 111.254 123.86 111.43C124.011 111.605 124.223 111.715 124.453 111.735H130.565C130.795 111.714 131.007 111.604 131.156 111.429C131.306 111.253 131.381 111.027 131.365 110.797V103.238C131.347 100.944 131.595 98.6545 132.106 96.4174C132.215 95.9272 132.267 95.426 132.262 94.9238V94.9238Z" fill="#FAFAFA"/>
<path d="M120.925 99.0723H104.273V111.744H120.925V99.0723Z" fill="#F5F5F5"/>
<path d="M106.325 70.084H88.0265C87.5263 70.0757 87.03 70.1738 86.5707 70.3719C86.1113 70.5701 85.6993 70.8636 85.362 71.2331C85.0248 71.6027 84.7699 72.0397 84.6145 72.5152C84.459 72.9907 84.4065 73.4939 84.4603 73.9912L86.8358 101.216H112.949L110.573 73.9912C110.466 72.9331 109.974 71.9511 109.191 71.2311C108.408 70.5111 107.389 70.103 106.325 70.084V70.084Z" fill="#E6E6E6"/>
<path d="M108.662 70.0838H92.1984C91.7042 70.0733 91.2134 70.1685 90.7588 70.3628C90.3043 70.5572 89.8964 70.8462 89.5625 71.2108C89.2286 71.5753 88.9763 72.0069 88.8224 72.4767C88.6686 72.9465 88.6168 73.4437 88.6704 73.9352L91.0518 101.215H115.248L112.867 73.9352C112.759 72.8896 112.272 71.9198 111.497 71.2099C110.722 70.4999 109.713 70.0992 108.662 70.0838V70.0838Z" fill="#F5F5F5"/>
<path d="M105.349 98.6167H120.913C121.136 98.6167 121.349 98.705 121.506 98.8621C121.663 99.0193 121.751 99.2324 121.751 99.4546V100.804C121.751 101.026 121.663 101.239 121.506 101.397C121.349 101.554 121.136 101.642 120.913 101.642H105.349C105.316 101.642 105.284 101.635 105.253 101.623C105.223 101.61 105.196 101.592 105.172 101.569C105.149 101.546 105.131 101.518 105.118 101.488C105.106 101.457 105.099 101.425 105.099 101.392V98.8695C105.099 98.8365 105.105 98.8037 105.117 98.773C105.13 98.7423 105.148 98.7145 105.171 98.6909C105.195 98.6674 105.222 98.6487 105.253 98.636C105.283 98.6233 105.316 98.6167 105.349 98.6167V98.6167Z" fill="#EBEBEB"/>
<path d="M87.959 111.744H127.734V111.797C127.734 111.963 127.668 112.123 127.55 112.241C127.432 112.359 127.272 112.426 127.105 112.426H88.5911C88.4242 112.426 88.2642 112.359 88.1462 112.241C88.0282 112.123 87.9619 111.963 87.9619 111.797V111.744H87.959Z" fill="#E6E6E6"/>
<path d="M88.2 89.335C88.0912 89.335 87.9795 89.335 87.8678 89.335C85.5158 89.5261 83.593 91.7752 83.4431 94.5476C83.408 95.1574 83.4594 95.7691 83.5959 96.3645C84.1175 98.7562 84.368 101.199 84.3427 103.647V110.794C84.3272 111.024 84.4025 111.251 84.5526 111.427C84.7026 111.602 84.9154 111.712 85.1453 111.732H104.502V89.335H88.2Z" fill="#F0F0F0"/>
<path d="M109.268 94.9238C109.268 91.7075 106.951 89.1262 104.167 89.3378C101.815 89.5289 99.8924 91.778 99.7425 94.5505C99.7074 95.1603 99.7589 95.772 99.8954 96.3674C100.417 98.7591 100.667 101.202 100.642 103.65V110.797C100.627 111.027 100.702 111.254 100.852 111.43C101.002 111.605 101.215 111.715 101.445 111.735H107.557C107.786 111.714 107.998 111.604 108.148 111.429C108.297 111.253 108.372 111.027 108.357 110.797V103.238C108.339 100.944 108.586 98.6549 109.095 96.4174C109.211 95.9281 109.269 95.4268 109.268 94.9238V94.9238Z" fill="#FAFAFA"/>
<path d="M129.619 103.538H114.407V112.426H129.619V103.538Z" fill="#F0F0F0"/>
<path d="M129.719 103.08H114.313C113.969 103.08 113.69 103.359 113.69 103.703V105.479C113.69 105.823 113.969 106.102 114.313 106.102H129.719C130.063 106.102 130.342 105.823 130.342 105.479V103.703C130.342 103.359 130.063 103.08 129.719 103.08Z" fill="#E6E6E6"/>
<path d="M34.3128 72.6475H30.432V87.6914H34.3128V72.6475Z" fill="#E6E6E6"/>
<path d="M60.0847 87.6916H31.9548L30.0085 70.084H58.1385L60.0847 87.6916Z" fill="#F0F0F0"/>
<path d="M61.4813 87.6916H32.925L30.9788 70.084H59.535L61.4813 87.6916Z" fill="#F5F5F5"/>
<path d="M33.8865 86.304L32.2489 71.4717H58.5737L60.2142 86.304H33.8865Z" fill="white"/>
<path d="M38.3112 82.7084L38.2435 82.1057C37.8319 78.3837 40.1545 75.0674 43.1739 75.0674L43.2415 75.6554C43.6531 79.3774 41.3276 82.6937 38.3112 82.6937V82.7084Z" fill="#F5F5F5"/>
<path d="M44.0676 82.7084L44 82.1057C43.5884 78.3837 45.911 75.0674 48.9304 75.0674L48.998 75.6554C49.4096 79.3774 47.0841 82.6937 44.0676 82.6937V82.7084Z" fill="#F5F5F5"/>
<path d="M49.8242 82.7084L49.7566 82.1057C49.345 78.3837 51.6705 75.0674 54.6869 75.0674L54.7546 75.6554C55.1662 79.3774 52.8406 82.6937 49.8242 82.6937V82.7084Z" fill="#F5F5F5"/>
<path d="M80.3913 87.6914H63.7245V112.426H80.3913V87.6914Z" fill="#E6E6E6"/>
<path d="M78.7126 112.426H80.3884V107.657H76.9545L78.7126 112.426Z" fill="#F0F0F0"/>
<path d="M33.6807 87.6914H17.0138V112.426H33.6807V87.6914Z" fill="#E6E6E6"/>
<path d="M80.3885 87.6914H32.2166V109.5H80.3885V87.6914Z" fill="#F0F0F0"/>
<path d="M33.8924 112.426H32.2166V107.657H35.6505L33.8924 112.426Z" fill="#F0F0F0"/>
<path d="M79.0889 89.0557H33.5189V97.8551H79.0889V89.0557Z" fill="#E6E6E6"/>
<path d="M59.3439 91.7898H53.264C51.9577 91.7899 50.6651 91.5238 49.4651 91.0077C48.2651 90.4916 47.1828 89.7364 46.2844 88.7881H66.3235C65.425 89.7364 64.3428 90.4916 63.1428 91.0077C61.9428 91.5238 60.6502 91.7899 59.3439 91.7898V91.7898Z" fill="#F0F0F0"/>
<path d="M79.0889 99.2783H33.5189V108.078H79.0889V99.2783Z" fill="#E6E6E6"/>
<path d="M59.3439 102.018H53.264C51.9577 102.018 50.6651 101.752 49.4651 101.236C48.2651 100.72 47.1828 99.9649 46.2844 99.0166H66.3235C65.425 99.9649 64.3428 100.72 63.1428 101.236C61.9428 101.752 60.6502 102.018 59.3439 102.018V102.018Z" fill="#F0F0F0"/>
<path d="M125.7 23.8877H18.4574V60.3437H125.7V23.8877Z" fill="#E6E6E6"/>
<path d="M126.767 23.8877H18.9542V60.3437H126.767V23.8877Z" fill="#F0F0F0"/>
<path d="M125.7 60.3438H18.4574V62.3283H125.7V60.3438Z" fill="#E6E6E6"/>
<path d="M128.546 60.3438H20.7329V62.3283H128.546V60.3438Z" fill="#F0F0F0"/>
<path d="M125.273 58.8532V25.3843L20.4507 25.3843V58.8532L125.273 58.8532Z" fill="#FAFAFA"/>
<path d="M110.262 58.8503L112.655 25.3813H116.795L114.401 58.8503H110.262Z" fill="white"/>
<path d="M28.1417 58.8503L30.5349 25.3813H34.6744L32.2842 58.8503H28.1417Z" fill="white"/>
<path d="M21.1416 41.8041C21.1264 41.8045 21.1113 41.8018 21.0972 41.7962C21.0831 41.7906 21.0703 41.7822 21.0596 41.7714C21.0488 41.7607 21.0404 41.7479 21.0348 41.7338C21.0292 41.7197 21.0265 41.7046 21.0269 41.6894V26.3544C21.0269 26.324 21.039 26.2948 21.0605 26.2733C21.082 26.2518 21.1111 26.2397 21.1416 26.2397C21.1717 26.2405 21.2005 26.2528 21.2218 26.2742C21.2432 26.2955 21.2555 26.3242 21.2562 26.3544V41.6894C21.2562 41.7199 21.2441 41.749 21.2226 41.7705C21.2011 41.792 21.172 41.8041 21.1416 41.8041Z" fill="#F0F0F0"/>
<path d="M115.292 58.8503L117.685 25.3813H119.296L116.906 58.8503H115.292Z" fill="white"/>
<path d="M125.273 58.8503V25.3813H125.082V58.8503H125.273Z" fill="#E6E6E6"/>
<path opacity="0.5" d="M127.12 28.0919H19.8773L19.7391 25.9634H126.982L127.12 28.0919Z" fill="#E0E0E0"/>
<path opacity="0.5" d="M127.12 31.5905H19.8773L19.7391 29.4619H126.982L127.12 31.5905Z" fill="#E0E0E0"/>
<path opacity="0.5" d="M127.12 35.089H19.8773L19.7391 32.9604H126.982L127.12 35.089Z" fill="#E0E0E0"/>
<path opacity="0.5" d="M127.12 38.5875H19.8773L19.7391 36.459H126.982L127.12 38.5875Z" fill="#E0E0E0"/>
<path opacity="0.5" d="M127.12 42.0866H19.8773L19.7391 39.958H126.982L127.12 42.0866Z" fill="#E0E0E0"/>
<path opacity="0.5" d="M127.12 45.5822H19.8773L19.7391 43.4565H126.982L127.12 45.5822Z" fill="#E0E0E0"/>
<path d="M73.5 125.703C104.982 125.703 130.504 124.213 130.504 122.374C130.504 120.536 104.982 119.046 73.5 119.046C42.0177 119.046 16.4963 120.536 16.4963 122.374C16.4963 124.213 42.0177 125.703 73.5 125.703Z" fill="#F5F5F5"/>
<path d="M47.5281 32.1221H45.1115V32.4161H47.5281V32.1221Z" fill="url(#paint0_linear_367_1250)"/>
<path d="M43.0212 32.1221H34.7245V32.4161H43.0212V32.1221Z" fill="url(#paint1_linear_367_1250)"/>
<path d="M33.0986 78.4007H92.2808C92.5921 78.4055 92.9009 78.344 93.1866 78.2203C93.4724 78.0967 93.7285 77.9137 93.9382 77.6835C94.1478 77.4533 94.3061 77.1811 94.4025 76.8851C94.499 76.5891 94.5314 76.2759 94.4976 75.9664L90.899 35.5737C90.8285 34.916 90.5212 34.3063 90.0344 33.8584C89.5475 33.4105 88.9144 33.1549 88.253 33.1394H29.0679C28.7566 33.1347 28.4478 33.1961 28.1621 33.3198C27.8763 33.4435 27.6201 33.6265 27.4105 33.8567C27.2009 34.0869 27.0426 34.359 26.9462 34.655C26.8497 34.9511 26.8173 35.2642 26.8511 35.5737L30.4497 75.9546C30.5163 76.6155 30.8225 77.2291 31.3105 77.6798C31.7985 78.1304 32.4345 78.3868 33.0986 78.4007V78.4007Z" fill="url(#paint2_linear_367_1250)"/>
<path d="M33.2898 78.4006H92.469C92.7805 78.4058 93.0895 78.3446 93.3754 78.2211C93.6614 78.0976 93.9178 77.9146 94.1275 77.6843C94.3372 77.454 94.4955 77.1817 94.5917 76.8854C94.688 76.5892 94.7201 76.2758 94.6858 75.9662L91.0902 35.5736C91.0191 34.916 90.7116 34.3067 90.2249 33.8589C89.7381 33.4111 89.1053 33.1554 88.4442 33.1393H29.2561C28.9457 33.1362 28.6381 33.199 28.3536 33.3233C28.0692 33.4477 27.8143 33.6309 27.6057 33.8609C27.3972 34.0908 27.2397 34.3623 27.1435 34.6575C27.0474 34.9527 27.0149 35.2649 27.0481 35.5736L30.6467 75.9545C30.7144 76.6139 31.0202 77.226 31.5067 77.6763C31.9932 78.1265 32.6271 78.384 33.2898 78.4006Z" fill="url(#paint3_linear_367_1250)"/>
<path opacity="0.2" d="M33.2898 78.4006H92.469C92.7805 78.4058 93.0895 78.3446 93.3754 78.2211C93.6614 78.0976 93.9178 77.9146 94.1275 77.6843C94.3372 77.454 94.4955 77.1817 94.5917 76.8854C94.688 76.5892 94.7201 76.2758 94.6858 75.9662L91.0902 35.5736C91.0191 34.916 90.7116 34.3067 90.2249 33.8589C89.7381 33.4111 89.1053 33.1554 88.4442 33.1393H29.2561C28.9457 33.1362 28.6381 33.199 28.3536 33.3233C28.0692 33.4477 27.8143 33.6309 27.6057 33.8609C27.3972 34.0908 27.2397 34.3623 27.1435 34.6575C27.0474 34.9527 27.0149 35.2649 27.0481 35.5736L30.6467 75.9545C30.7144 76.6139 31.0202 77.226 31.5067 77.6763C31.9932 78.1265 32.6271 78.384 33.2898 78.4006Z" fill="black"/>
<path d="M88.547 34.3682H29.3648C29.3001 34.3682 29.2325 34.3682 29.1678 34.3682C27.6566 34.4916 28.0065 36.7937 29.5323 36.7937H88.8145C90.3404 36.7937 90.2845 34.4916 88.7469 34.3682C88.6793 34.3711 88.6146 34.3682 88.547 34.3682Z" fill="url(#paint4_linear_367_1250)"/>
<path d="M30.4203 36.2911C30.232 36.2873 30.0515 36.215 29.9125 36.0879C29.7734 35.9608 29.6854 35.7875 29.6647 35.6002C29.6562 35.5085 29.6667 35.416 29.6955 35.3284C29.7244 35.2409 29.7709 35.1603 29.8323 35.0916C29.8942 35.024 29.9697 34.9703 30.0538 34.9338C30.1379 34.8973 30.2287 34.879 30.3204 34.8799C30.509 34.8833 30.6899 34.9558 30.8286 35.0837C30.9673 35.2116 31.0543 35.386 31.073 35.5738C31.083 35.6649 31.0735 35.7572 31.0452 35.8444C31.0168 35.9316 30.9702 36.0118 30.9085 36.0797C30.8468 36.1475 30.7713 36.2015 30.6871 36.2379C30.603 36.2744 30.512 36.2925 30.4203 36.2911ZM30.3204 35.1739C30.2698 35.1732 30.2196 35.1831 30.1731 35.2028C30.1265 35.2225 30.0845 35.2517 30.0499 35.2886C30.0148 35.3284 29.9886 35.3752 29.9729 35.4258C29.9572 35.4765 29.9524 35.5299 29.9587 35.5826C29.9709 35.6973 30.0245 35.8036 30.1095 35.8815C30.1945 35.9595 30.305 36.0037 30.4203 36.0059C30.4709 36.0066 30.5211 35.9968 30.5676 35.9771C30.6142 35.9573 30.6561 35.9281 30.6908 35.8913C30.726 35.8516 30.7524 35.8048 30.7681 35.7541C30.7838 35.7034 30.7885 35.6499 30.7819 35.5973V35.5973C30.7692 35.4828 30.7154 35.3769 30.6305 35.2991C30.5457 35.2212 30.4355 35.1768 30.3204 35.1739V35.1739Z" fill="#FAFAFA"/>
<path d="M32.3166 36.2911C32.1286 36.2872 31.9484 36.2148 31.8099 36.0877C31.6714 35.9605 31.5839 35.7872 31.5639 35.6002C31.5544 35.5087 31.5643 35.4163 31.593 35.3289C31.6217 35.2416 31.6685 35.1612 31.7304 35.0932C31.7923 35.0252 31.8679 34.9711 31.9522 34.9343C32.0365 34.8975 32.1276 34.879 32.2196 34.8799C32.4078 34.8846 32.588 34.9575 32.7265 35.0852C32.8649 35.2128 32.9523 35.3865 32.9722 35.5738V35.5738C32.9822 35.6651 32.9724 35.7576 32.9434 35.8448C32.9145 35.9321 32.8672 36.0121 32.8046 36.0794C32.7427 36.147 32.6672 36.2008 32.5831 36.2373C32.4991 36.2737 32.4082 36.2921 32.3166 36.2911V36.2911ZM32.2196 35.1739C32.1689 35.1729 32.1187 35.1825 32.072 35.2023C32.0254 35.222 31.9835 35.2515 31.9491 35.2886C31.913 35.3278 31.8859 35.3745 31.8697 35.4252C31.8534 35.476 31.8484 35.5297 31.855 35.5826C31.8678 35.697 31.9215 35.803 32.0064 35.8808C32.0913 35.9586 32.2015 36.0031 32.3166 36.0059C32.3672 36.007 32.4175 35.9973 32.4641 35.9776C32.5107 35.9578 32.5526 35.9284 32.5871 35.8913C32.6235 35.8523 32.6506 35.8057 32.6664 35.7547C32.6822 35.7038 32.6862 35.65 32.6782 35.5973V35.5973C32.6661 35.4831 32.6129 35.3772 32.5285 35.2993C32.4442 35.2214 32.3344 35.1768 32.2196 35.1739V35.1739Z" fill="#FAFAFA"/>
<path d="M34.2159 36.2911C34.0275 36.2873 33.847 36.215 33.708 36.0879C33.569 35.9608 33.4809 35.7875 33.4603 35.6002C33.4517 35.5085 33.4622 35.416 33.4911 35.3284C33.5199 35.2409 33.5665 35.1603 33.6279 35.0916C33.6898 35.024 33.7652 34.9703 33.8493 34.9338C33.9334 34.8973 34.0242 34.879 34.1159 34.8799C34.3047 34.8839 34.4856 34.9565 34.6246 35.0842C34.7637 35.2119 34.8515 35.386 34.8715 35.5738C34.8799 35.665 34.8694 35.7571 34.8406 35.8441C34.8117 35.9312 34.7652 36.0113 34.7039 36.0794C34.642 36.147 34.5665 36.2008 34.4824 36.2373C34.3983 36.2737 34.3075 36.2921 34.2159 36.2911ZM34.1159 35.1739C34.0653 35.1732 34.0152 35.1831 33.9686 35.2028C33.922 35.2225 33.8801 35.2517 33.8454 35.2886C33.8104 35.3284 33.7841 35.3752 33.7684 35.4258C33.7527 35.4765 33.7479 35.5299 33.7543 35.5826C33.7664 35.6973 33.82 35.8036 33.905 35.8815C33.99 35.9595 34.1005 36.0037 34.2159 36.0059C34.2664 36.0066 34.3166 35.9968 34.3632 35.9771C34.4097 35.9573 34.4517 35.9281 34.4863 35.8913C34.5215 35.8516 34.5479 35.8048 34.5636 35.7541C34.5793 35.7034 34.5841 35.6499 34.5775 35.5973V35.5973C34.5645 35.4808 34.509 35.3733 34.4217 35.2952C34.3343 35.2171 34.2213 35.1739 34.1041 35.1739H34.1159Z" fill="#FAFAFA"/>
<path d="M34.2099 74.3816H90.846C90.959 74.3835 91.071 74.3614 91.1748 74.3167C91.2785 74.272 91.3716 74.2057 91.4477 74.1223C91.5239 74.0389 91.5815 73.9402 91.6166 73.8329C91.6518 73.7255 91.6637 73.6119 91.6516 73.4996L88.6763 40.2776C88.6512 40.0386 88.5397 39.8171 88.3626 39.6546C88.1855 39.4922 87.9552 39.4 87.7149 39.3956H31.0935C30.9805 39.3937 30.8685 39.4159 30.7647 39.4606C30.661 39.5053 30.568 39.5715 30.4918 39.6549C30.4156 39.7383 30.358 39.837 30.3229 39.9444C30.2877 40.0517 30.2758 40.1653 30.2879 40.2776L33.2485 73.4996C33.2736 73.7386 33.3851 73.9602 33.5622 74.1226C33.7393 74.2851 33.9696 74.3772 34.2099 74.3816V74.3816Z" fill="white"/>
<path d="M53.8755 100.783C54.6635 103.191 53.5815 105.143 51.1825 105.143H91.2488C93.6596 105.143 94.7298 103.191 93.9419 100.783H53.8755Z" fill="#1E2C33"/>
<path d="M36.7178 41.8506C45.3055 61.4957 38.6641 81.1437 45.1526 100.783C45.9435 103.191 48.7777 105.143 51.1826 105.143C53.5875 105.143 54.6635 103.191 53.8756 100.783H89.5819C83.0904 81.1378 89.7319 61.4957 81.1441 41.8506H36.7178Z" fill="url(#paint5_linear_367_1250)"/>
<path opacity="0.8" d="M36.7178 41.8506C45.3055 61.4957 38.6641 81.1437 45.1526 100.783C45.9435 103.191 48.7777 105.143 51.1826 105.143C53.5875 105.143 54.6635 103.191 53.8756 100.783H89.5819C83.0904 81.1378 89.7319 61.4957 81.1441 41.8506H36.7178Z" fill="white"/>
<path d="M55.6631 56.7415H44.8586C44.3772 53.0701 43.5493 49.4524 42.3861 45.937H53.1906C54.3538 49.4524 55.1817 53.0701 55.6631 56.7415V56.7415Z" fill="url(#paint6_linear_367_1250)"/>
<path opacity="0.6" d="M84.7661 97.7782H60.6581C59.6612 93.9113 59.005 89.9644 58.6971 85.9829H82.8051C83.113 89.9644 83.7692 93.9113 84.7661 97.7782V97.7782Z" fill="url(#paint7_linear_367_1250)"/>
<g opacity="0.8">
<path opacity="0.8" d="M79.189 47.1424H55.081C54.9575 46.7504 54.8281 46.3506 54.6929 45.9429H78.8009C78.9361 46.3427 79.0655 46.7426 79.189 47.1424Z" fill="url(#paint8_linear_367_1250)"/>
<path opacity="0.8" d="M80.0534 50.2733H55.9454C55.8454 49.8813 55.7474 49.4814 55.6514 49.0737H79.7594C79.8554 49.4677 79.9534 49.8675 80.0534 50.2733Z" fill="url(#paint9_linear_367_1250)"/>
<path opacity="0.8" d="M75.3052 53.3841H56.6214C56.545 52.9843 56.4656 52.5844 56.3804 52.1846H75.067C75.1493 52.5844 75.2287 52.9843 75.3052 53.3841Z" fill="url(#paint10_linear_367_1250)"/>
</g>
<g opacity="0.2">
<path opacity="0.2" d="M81.7115 60.64H57.6035C57.58 60.3783 57.5565 60.1137 57.53 59.8491H81.638C81.6645 60.1137 81.688 60.3783 81.7115 60.64Z" fill="url(#paint11_linear_367_1250)"/>
<path opacity="0.2" d="M81.8761 62.6981H57.7682C57.7505 62.4335 57.7299 62.1689 57.7094 61.9072H81.8174C81.8379 62.1689 81.8585 62.4335 81.8761 62.6981Z" fill="url(#paint12_linear_367_1250)"/>
<path opacity="0.2" d="M75.3053 64.7528H57.8916C57.8916 64.4882 57.8652 64.2265 57.8475 63.9619H75.2641L75.3053 64.7528Z" fill="url(#paint13_linear_367_1250)"/>
<path opacity="0.2" d="M82.0937 66.808H57.9857C57.9857 66.5463 57.9651 66.2817 57.9534 66.0171H82.0614C82.0731 66.2817 82.0849 66.5463 82.0937 66.808Z" fill="url(#paint14_linear_367_1250)"/>
<path opacity="0.2" d="M82.1644 68.8661H58.0564C58.0564 68.6015 58.0417 68.3369 58.0328 68.0752H82.1408C82.1497 68.3369 82.1585 68.6015 82.1644 68.8661Z" fill="url(#paint15_linear_367_1250)"/>
<path opacity="0.2" d="M63.6158 70.9212H58.1121C58.1121 70.6566 58.1121 70.395 58.0916 70.1304H63.5952C63.6041 70.395 63.6099 70.6596 63.6158 70.9212Z" fill="url(#paint16_linear_367_1250)"/>
<path opacity="0.2" d="M82.2643 72.9793H58.1563C58.1563 72.7147 58.1563 72.4501 58.1416 72.1885H82.2496C82.2555 72.4501 82.2584 72.7147 82.2643 72.9793Z" fill="url(#paint17_linear_367_1250)"/>
<path opacity="0.2" d="M82.3201 75.034H58.2121L58.1945 74.2432H82.3025L82.3201 75.034Z" fill="url(#paint18_linear_367_1250)"/>
<path opacity="0.2" d="M82.3583 77.0892H58.2503C58.2503 76.8275 58.2503 76.5629 58.2297 76.2983H82.3377C82.3436 76.5629 82.3495 76.8275 82.3583 77.0892Z" fill="url(#paint19_linear_367_1250)"/>
<path opacity="0.2" d="M82.4201 79.1473H58.3121L58.2856 78.3564H82.3936L82.4201 79.1473Z" fill="url(#paint20_linear_367_1250)"/>
<path opacity="0.2" d="M82.4995 81.2025H58.3915C58.3915 80.9408 58.368 80.6762 58.3591 80.4116H82.4671C82.476 80.6762 82.4877 80.9408 82.4995 81.2025Z" fill="url(#paint21_linear_367_1250)"/>
<path opacity="0.2" d="M68.6756 83.2601H58.5061L58.462 82.4692H68.6374L68.6756 83.2601Z" fill="url(#paint22_linear_367_1250)"/>
</g>
<path d="M108.283 47.8989C108.548 48.2194 108.771 48.5075 108.998 48.8191C109.224 49.1308 109.444 49.4336 109.659 49.7482C110.091 50.3744 110.5 51.0124 110.885 51.6739C111.27 52.3354 111.641 53.0086 111.967 53.7142C112.309 54.4261 112.604 55.1597 112.849 55.9104L112.943 56.2044L112.967 56.275L113.002 56.3985C113.029 56.4871 113.049 56.5774 113.064 56.6689C113.117 56.9848 113.124 57.3066 113.084 57.6244C113.017 58.1159 112.879 58.5951 112.676 59.0474C112.338 59.7932 111.919 60.4992 111.426 61.1524C110.507 62.3757 109.462 63.4982 108.307 64.5011L107.113 63.4045C107.911 62.2484 108.648 61.0512 109.321 59.8177C109.631 59.2553 109.887 58.6647 110.085 58.0537C110.16 57.8296 110.2 57.5958 110.206 57.3598C110.206 57.2805 110.206 57.2246 110.182 57.2246C110.159 57.2246 110.182 57.2246 110.182 57.2246C110.182 57.2246 110.182 57.2422 110.182 57.2246L110.159 57.1687L110.062 56.9424C109.51 55.6985 108.859 54.501 108.116 53.3614C107.745 52.7734 107.351 52.1854 106.94 51.6239C106.528 51.0624 106.113 50.4685 105.722 49.9452L108.283 47.8989Z" fill="#FF8B7B"/>
<path d="M107.854 63.0366L105.884 63.607L107.454 65.4445C107.454 65.4445 108.78 64.8153 108.645 63.7775L107.854 63.0366Z" fill="#FF8B7B"/>
<path d="M104.473 65.1857L106.257 66.6087L107.454 65.4444L105.884 63.6069L104.473 65.1857Z" fill="#FF8B7B"/>
<path d="M97.411 38.423C97.411 38.5994 97.3199 38.7405 97.2052 38.7405C97.0905 38.7405 96.9994 38.5994 96.9994 38.423C96.9994 38.2466 97.0905 38.1084 97.2052 38.1084C97.3199 38.1084 97.411 38.2495 97.411 38.423Z" fill="#1E2C33"/>
<path d="M97.3346 38.7407C97.1262 39.2721 96.8463 39.7726 96.5026 40.2284C96.6214 40.3136 96.7574 40.3719 96.9011 40.3993C97.0448 40.4267 97.1927 40.4226 97.3346 40.3871V38.7407Z" fill="#A02724"/>
<path d="M98.0284 37.4589C98.007 37.4592 97.9862 37.4519 97.9696 37.4384C97.8667 37.3613 97.7472 37.3092 97.6206 37.2862C97.4941 37.2633 97.3639 37.2701 97.2405 37.3061C97.2151 37.3157 97.187 37.3149 97.1622 37.3039C97.1375 37.2929 97.118 37.2725 97.1082 37.2473C97.0993 37.2219 97.1005 37.1941 97.1114 37.1695C97.1223 37.1449 97.1422 37.1254 97.167 37.115C97.3219 37.0658 97.4863 37.0545 97.6464 37.0821C97.8066 37.1098 97.9577 37.1755 98.0872 37.2737C98.0986 37.2813 98.1082 37.2912 98.1156 37.3027C98.123 37.3142 98.128 37.3272 98.1302 37.3407C98.1324 37.3542 98.1318 37.368 98.1285 37.3812C98.1251 37.3945 98.1191 37.4069 98.1107 37.4178C98.1011 37.4306 98.0887 37.4409 98.0744 37.4481C98.0601 37.4552 98.0444 37.4589 98.0284 37.4589V37.4589Z" fill="#1E2C33"/>
<path d="M103.032 40.4312C102.724 42.0129 102.415 44.9088 103.52 45.9613C103.52 45.9613 103.088 47.5636 100.151 47.5636C96.9171 47.5636 98.6105 45.9613 98.6105 45.9613C100.374 45.5409 100.325 44.2355 100.019 43.0066L103.032 40.4312Z" fill="#FF8B7B"/>
<path d="M103.944 46.5109C104.176 46.0052 104.429 45.4231 103.903 45.2408C103.315 45.0409 100.148 44.838 99.0545 45.2143C98.9103 45.2543 98.7754 45.3225 98.6576 45.415C98.5399 45.5075 98.4417 45.6224 98.3687 45.7531C98.2957 45.8838 98.2493 46.0277 98.2323 46.1765C98.2153 46.3252 98.228 46.4758 98.2696 46.6197L103.944 46.5109Z" fill="url(#paint23_linear_367_1250)"/>
<path d="M114.148 116.13C114.087 116.199 114.011 116.255 113.928 116.294C113.844 116.332 113.753 116.354 113.66 116.357C113.605 116.357 113.534 116.304 113.508 116.172C113.5 116.138 113.5 116.103 113.508 116.07C113.515 116.036 113.53 116.005 113.552 115.978C113.743 115.716 114.463 115.642 114.492 115.639C114.502 115.638 114.512 115.639 114.521 115.643C114.53 115.647 114.538 115.654 114.542 115.663C114.548 115.671 114.551 115.681 114.551 115.691C114.551 115.701 114.548 115.711 114.542 115.719C114.426 115.87 114.294 116.008 114.148 116.13V116.13ZM113.678 115.992L113.634 116.036C113.621 116.052 113.612 116.071 113.608 116.091C113.603 116.111 113.603 116.131 113.607 116.151C113.625 116.245 113.669 116.254 113.684 116.257C113.831 116.289 114.169 116.007 114.381 115.757C114.131 115.784 113.891 115.867 113.678 115.998V115.992Z" fill="url(#paint24_linear_367_1250)"/>
<path d="M114.531 115.733H114.51C114.26 115.786 113.628 115.704 113.505 115.492C113.486 115.459 113.479 115.42 113.485 115.382C113.492 115.344 113.511 115.309 113.54 115.284C113.567 115.255 113.599 115.233 113.635 115.217C113.671 115.201 113.71 115.193 113.749 115.192C114.075 115.192 114.516 115.627 114.534 115.648C114.541 115.654 114.546 115.662 114.549 115.671C114.551 115.68 114.551 115.689 114.548 115.698C114.548 115.705 114.546 115.712 114.543 115.718C114.54 115.724 114.536 115.729 114.531 115.733ZM113.634 115.348L113.616 115.366C113.569 115.413 113.587 115.442 113.593 115.454C113.663 115.578 114.104 115.675 114.384 115.657C114.212 115.481 113.992 115.359 113.752 115.307C113.709 115.306 113.667 115.321 113.634 115.348Z" fill="url(#paint25_linear_367_1250)"/>
<path d="M97.955 120.279C97.6786 120.279 97.4111 120.24 97.3199 120.117C97.2969 120.084 97.2845 120.045 97.2845 120.005C97.2845 119.965 97.2969 119.926 97.3199 119.894C97.357 119.833 97.4161 119.79 97.4846 119.773C97.8433 119.676 98.5988 120.105 98.6282 120.126C98.638 120.13 98.646 120.138 98.6508 120.148C98.6556 120.157 98.657 120.168 98.6547 120.179C98.6526 120.189 98.6476 120.198 98.6403 120.206C98.633 120.213 98.6237 120.218 98.6135 120.22C98.3961 120.258 98.1758 120.278 97.955 120.279V120.279ZM97.6081 119.861C97.5759 119.857 97.5432 119.857 97.511 119.861C97.4904 119.865 97.4708 119.874 97.4535 119.886C97.4363 119.898 97.4218 119.914 97.4111 119.932C97.3729 119.996 97.3876 120.029 97.4111 120.046C97.511 120.185 98.0579 120.188 98.4607 120.132C98.1968 119.987 97.9071 119.895 97.6081 119.861V119.861Z" fill="url(#paint26_linear_367_1250)"/>
<path d="M98.6076 120.22H98.5871C98.3254 120.103 97.808 119.632 97.8491 119.391C97.8491 119.332 97.8991 119.262 98.0402 119.247C98.0927 119.241 98.1459 119.245 98.1965 119.26C98.2471 119.275 98.294 119.301 98.3342 119.335C98.6106 119.562 98.6664 120.144 98.6694 120.167C98.6705 120.176 98.6692 120.185 98.6656 120.194C98.662 120.202 98.6562 120.209 98.6488 120.214C98.6363 120.221 98.6216 120.224 98.6076 120.22V120.22ZM98.0814 119.338H98.049C97.9579 119.338 97.952 119.382 97.9491 119.394C97.9256 119.541 98.2754 119.908 98.5371 120.067C98.5101 119.821 98.4074 119.589 98.2431 119.403C98.1968 119.366 98.1402 119.346 98.0814 119.344V119.338Z" fill="url(#paint27_linear_367_1250)"/>
<path d="M100.983 120.17H98.8223L98.6077 115.169H100.766L100.983 120.17Z" fill="#FF8B7B"/>
<path d="M116.712 115.104L114.622 115.648L112.308 111.085L114.398 110.539L116.712 115.104Z" fill="#FF8B7B"/>
<path d="M114.46 115.401L116.309 113.831C116.342 113.803 116.384 113.788 116.427 113.788C116.47 113.788 116.512 113.803 116.545 113.831L118.112 115.007C118.149 115.036 118.18 115.074 118.201 115.117C118.222 115.16 118.233 115.208 118.233 115.256C118.233 115.303 118.222 115.351 118.201 115.394C118.18 115.437 118.149 115.475 118.112 115.504C117.456 116.039 117.109 116.268 116.298 116.959C115.795 117.383 114.287 118.841 113.596 119.429C112.905 120.017 112.235 119.408 112.464 119.105C113.499 117.753 114.172 116.433 114.269 115.722C114.291 115.595 114.359 115.48 114.46 115.401Z" fill="#1E2C33"/>
<path d="M98.837 119.92H101.189C101.232 119.92 101.273 119.935 101.307 119.961C101.341 119.988 101.364 120.025 101.374 120.067L101.8 121.987C101.811 122.033 101.81 122.081 101.799 122.127C101.788 122.173 101.767 122.216 101.737 122.253C101.707 122.29 101.669 122.319 101.626 122.339C101.583 122.36 101.536 122.37 101.489 122.369C100.639 122.369 99.4073 122.307 98.3401 122.307C97.0877 122.307 96.5438 122.375 95.0767 122.375C94.1947 122.375 93.9448 121.478 94.3153 121.396C96.0028 121.028 96.8495 120.987 98.3107 120.087C98.467 119.983 98.6493 119.925 98.837 119.92V119.92Z" fill="#1E2C33"/>
<path d="M95.8234 50.7592C95.106 52.0293 94.3534 53.2317 93.5478 54.4313C92.7423 55.6308 91.8897 56.7833 90.9548 57.9269C90.8401 58.071 90.7166 58.2209 90.5961 58.3503L90.4168 58.562L90.3256 58.6678L90.1727 58.8266C89.8187 59.1886 89.405 59.487 88.9497 59.7086C88.2194 60.0613 87.4481 60.322 86.6535 60.4847C85.1962 60.7805 83.7093 60.9058 82.223 60.8581L82.0642 59.244C83.3736 58.9073 84.6642 58.5011 85.9303 58.0269C86.4968 57.8157 87.0405 57.5477 87.5532 57.2272C87.7256 57.1169 87.8794 56.98 88.0089 56.8215L88.2588 56.4804C88.3558 56.3452 88.4558 56.2129 88.5528 56.0718C89.3319 54.9663 90.0816 53.808 90.8137 52.6379C91.5457 51.4677 92.2836 50.2859 92.9863 49.1099L95.8234 50.7592Z" fill="#FF8B7B"/>
<path d="M107.566 46.4523C109.591 46.9168 111.911 52.4352 111.911 52.4352L107.845 55.2223C106.835 53.7715 105.937 52.245 105.161 50.6565C103.961 48.1281 105.496 45.976 107.566 46.4523Z" fill="#1E2C33"/>
<path opacity="0.3" d="M106.116 49.9805L108.039 55.099L107.848 55.2313C107.848 55.2313 107.016 54.0553 106.116 52.4883V49.9805Z" fill="black"/>
<path d="M95.4677 46.561C95.4677 46.561 93.1687 49.157 95.3384 65.23H106.89C106.969 63.466 105.855 54.8048 107.566 46.4493C106.289 46.2034 104.998 46.0404 103.7 45.9612C102.064 45.8671 100.425 45.8671 98.7899 45.9612C97.6686 46.0742 96.5578 46.2747 95.4677 46.561V46.561Z" fill="#1E2C33"/>
<path opacity="0.3" d="M96.7495 51.209C96.4489 53.0329 95.6606 54.7416 94.4681 56.1541C94.421 55.1192 94.4034 54.1901 94.4063 53.3581L96.7495 51.209Z" fill="black"/>
<path d="M97.7462 48.3132C98.0402 50.3565 94.0006 55.5809 94.0006 55.5809L89.964 52.7937C89.964 52.7937 91.0841 49.9155 92.9775 48.028C95.1237 45.8642 97.4345 46.0876 97.7462 48.3132Z" fill="#1E2C33"/>
<path d="M82.1936 59.2383L79.9298 58.9648L79.9915 61.7226C79.9915 61.7226 81.7732 61.8754 82.7434 60.6348L82.1936 59.2383Z" fill="#FF8B7B"/>
<path d="M77.6719 59.6381L78.5539 61.8696L79.9915 61.7226L79.9298 58.9648L77.6719 59.6381Z" fill="#FF8B7B"/>
<path opacity="0.2" d="M98.6077 115.169L98.7282 117.98H100.889L100.769 115.169H98.6077Z" fill="black"/>
<path opacity="0.2" d="M114.398 110.542L112.308 111.085L113.59 113.614L115.592 112.894L114.398 110.542Z" fill="black"/>
<path d="M103.22 38.0557C103.091 40.1931 103.123 41.4544 102.044 42.551C100.419 44.2033 97.7785 43.2243 97.267 41.081C96.8083 39.1582 97.0994 35.983 99.1956 35.1334C99.6567 34.9439 100.159 34.8755 100.653 34.9348C101.148 34.994 101.62 35.1788 102.023 35.4717C102.427 35.7645 102.748 36.1557 102.958 36.608C103.168 37.0603 103.258 37.5587 103.22 38.0557V38.0557Z" fill="#FF8B7B"/>
<path d="M99.372 39.0523C98.2401 38.826 98.6517 37.4677 98.931 37.0678C98.8431 37.0414 98.7637 36.9925 98.7006 36.9259C98.6375 36.8593 98.5929 36.7774 98.5712 36.6883C98.5495 36.5991 98.5515 36.5059 98.5769 36.4177C98.6024 36.3296 98.6505 36.2497 98.7164 36.1858C98.243 36.1858 97.0465 36.1035 97.1141 34.7158C97.1817 33.3282 98.0637 33.4722 98.39 34.2748C98.5341 33.8011 98.8565 33.4018 99.2892 33.161C99.7219 32.9203 100.231 32.8569 100.71 32.9842C101.936 33.2782 100.857 33.9132 100.857 33.9132C100.857 33.9132 103.532 33.3752 103.159 34.7482C104.317 34.8129 106.002 35.883 105.152 36.8062C105.658 37.7999 105.578 38.479 104.94 38.7436C104.72 39.9373 103.453 42.2246 102.488 42.2246C101.692 42.2217 99.4249 41.1427 99.372 39.0523Z" fill="#1E2C33"/>
<path d="M100.322 38.6375C100.225 39.1608 99.9598 39.6379 99.5661 39.9958C99.0428 40.4603 98.5871 40.087 98.5724 39.4519C98.5724 38.8786 98.8135 37.9437 99.4162 37.7203C100.019 37.4968 100.428 38.0025 100.322 38.6375Z" fill="#FF8B7B"/>
<path d="M99.4366 65.23C99.4366 65.23 101.889 81.7322 103.232 87.9062C104.702 94.6682 112.205 112.796 112.205 112.796L115.968 111.585C115.968 111.585 110.544 95.2386 109.712 88.5324C108.801 81.2559 106.89 65.23 106.89 65.23H99.4366Z" fill="url(#paint28_linear_367_1250)"/>
<path d="M111.405 112.014C111.391 112.014 112.27 113.332 112.27 113.332L116.498 111.938L115.995 110.677L111.405 112.014Z" fill="#1E2C33"/>
<path opacity="0.3" d="M100.986 71.1101C103.82 71.6657 103.52 82.2351 103.179 87.6711C102.362 83.8285 101.165 76.4344 100.348 71.1865C100.546 71.0891 100.771 71.0621 100.986 71.1101V71.1101Z" fill="black"/>
<path d="M95.3383 65.23C95.3383 65.23 94.3152 81.3794 94.5504 87.965C94.7944 94.8152 97.9137 117.247 97.9137 117.247H101.571C101.571 117.247 100.983 95.215 101.142 88.4883C101.321 81.1383 102.932 65.23 102.932 65.23H95.3383Z" fill="url(#paint29_linear_367_1250)"/>
<path d="M97.2082 115.789C97.1935 115.789 97.417 117.309 97.417 117.309H101.865L101.986 115.954L97.2082 115.789Z" fill="#1E2C33"/>
<defs>
<linearGradient id="paint0_linear_367_1250" x1="46.3198" y1="32.1221" x2="46.3198" y2="32.4161" gradientUnits="userSpaceOnUse">
<stop stop-color="#02236B"/>
<stop offset="1" stop-color="#758FEB"/>
</linearGradient>
<linearGradient id="paint1_linear_367_1250" x1="38.8728" y1="32.1221" x2="38.8728" y2="32.4161" gradientUnits="userSpaceOnUse">
<stop stop-color="#02236B"/>
<stop offset="1" stop-color="#758FEB"/>
</linearGradient>
<linearGradient id="paint2_linear_367_1250" x1="60.6743" y1="33.1392" x2="60.6743" y2="78.401" gradientUnits="userSpaceOnUse">
<stop stop-color="#02236B"/>
<stop offset="1" stop-color="#758FEB"/>
</linearGradient>
<linearGradient id="paint3_linear_367_1250" x1="60.8673" y1="33.1392" x2="60.8673" y2="78.4009" gradientUnits="userSpaceOnUse">
<stop stop-color="#02236B"/>
<stop offset="1" stop-color="#758FEB"/>
</linearGradient>
<linearGradient id="paint4_linear_367_1250" x1="59.0628" y1="34.3682" x2="59.0628" y2="36.7937" gradientUnits="userSpaceOnUse">
<stop stop-color="#02236B"/>
<stop offset="1" stop-color="#758FEB"/>
</linearGradient>
<linearGradient id="paint5_linear_367_1250" x1="63.1498" y1="41.8506" x2="63.1498" y2="105.143" gradientUnits="userSpaceOnUse">
<stop stop-color="#02236B"/>
<stop offset="1" stop-color="#758FEB"/>
</linearGradient>
<linearGradient id="paint6_linear_367_1250" x1="49.0246" y1="45.937" x2="49.0246" y2="56.7415" gradientUnits="userSpaceOnUse">
<stop stop-color="#02236B"/>
<stop offset="1" stop-color="#758FEB"/>
</linearGradient>
<linearGradient id="paint7_linear_367_1250" x1="71.7316" y1="85.9829" x2="71.7316" y2="97.7782" gradientUnits="userSpaceOnUse">
<stop stop-color="#02236B"/>
<stop offset="1" stop-color="#758FEB"/>
</linearGradient>
<linearGradient id="paint8_linear_367_1250" x1="66.9409" y1="45.9429" x2="66.9409" y2="47.1424" gradientUnits="userSpaceOnUse">
<stop stop-color="#02236B"/>
<stop offset="1" stop-color="#758FEB"/>
</linearGradient>
<linearGradient id="paint9_linear_367_1250" x1="67.8524" y1="49.0737" x2="67.8524" y2="50.2733" gradientUnits="userSpaceOnUse">
<stop stop-color="#02236B"/>
<stop offset="1" stop-color="#758FEB"/>
</linearGradient>
<linearGradient id="paint10_linear_367_1250" x1="65.8428" y1="52.1846" x2="65.8428" y2="53.3841" gradientUnits="userSpaceOnUse">
<stop stop-color="#02236B"/>
<stop offset="1" stop-color="#758FEB"/>
</linearGradient>
<linearGradient id="paint11_linear_367_1250" x1="69.6208" y1="59.8491" x2="69.6208" y2="60.64" gradientUnits="userSpaceOnUse">
<stop stop-color="#02236B"/>
<stop offset="1" stop-color="#758FEB"/>
</linearGradient>
<linearGradient id="paint12_linear_367_1250" x1="69.7928" y1="61.9072" x2="69.7928" y2="62.6981" gradientUnits="userSpaceOnUse">
<stop stop-color="#02236B"/>
<stop offset="1" stop-color="#758FEB"/>
</linearGradient>
<linearGradient id="paint13_linear_367_1250" x1="66.5764" y1="63.9619" x2="66.5764" y2="64.7528" gradientUnits="userSpaceOnUse">
<stop stop-color="#02236B"/>
<stop offset="1" stop-color="#758FEB"/>
</linearGradient>
<linearGradient id="paint14_linear_367_1250" x1="70.0235" y1="66.0171" x2="70.0235" y2="66.808" gradientUnits="userSpaceOnUse">
<stop stop-color="#02236B"/>
<stop offset="1" stop-color="#758FEB"/>
</linearGradient>
<linearGradient id="paint15_linear_367_1250" x1="70.0986" y1="68.0752" x2="70.0986" y2="68.8661" gradientUnits="userSpaceOnUse">
<stop stop-color="#02236B"/>
<stop offset="1" stop-color="#758FEB"/>
</linearGradient>
<linearGradient id="paint16_linear_367_1250" x1="60.8537" y1="70.1304" x2="60.8537" y2="70.9212" gradientUnits="userSpaceOnUse">
<stop stop-color="#02236B"/>
<stop offset="1" stop-color="#758FEB"/>
</linearGradient>
<linearGradient id="paint17_linear_367_1250" x1="70.203" y1="72.1885" x2="70.203" y2="72.9793" gradientUnits="userSpaceOnUse">
<stop stop-color="#02236B"/>
<stop offset="1" stop-color="#758FEB"/>
</linearGradient>
<linearGradient id="paint18_linear_367_1250" x1="70.2573" y1="74.2432" x2="70.2573" y2="75.034" gradientUnits="userSpaceOnUse">
<stop stop-color="#02236B"/>
<stop offset="1" stop-color="#758FEB"/>
</linearGradient>
<linearGradient id="paint19_linear_367_1250" x1="70.294" y1="76.2983" x2="70.294" y2="77.0892" gradientUnits="userSpaceOnUse">
<stop stop-color="#02236B"/>
<stop offset="1" stop-color="#758FEB"/>
</linearGradient>
<linearGradient id="paint20_linear_367_1250" x1="70.3529" y1="78.3564" x2="70.3529" y2="79.1473" gradientUnits="userSpaceOnUse">
<stop stop-color="#02236B"/>
<stop offset="1" stop-color="#758FEB"/>
</linearGradient>
<linearGradient id="paint21_linear_367_1250" x1="70.4293" y1="80.4116" x2="70.4293" y2="81.2025" gradientUnits="userSpaceOnUse">
<stop stop-color="#02236B"/>
<stop offset="1" stop-color="#758FEB"/>
</linearGradient>
<linearGradient id="paint22_linear_367_1250" x1="63.5688" y1="82.4692" x2="63.5688" y2="83.2601" gradientUnits="userSpaceOnUse">
<stop stop-color="#02236B"/>
<stop offset="1" stop-color="#758FEB"/>
</linearGradient>
<linearGradient id="paint23_linear_367_1250" x1="101.219" y1="45.0034" x2="101.219" y2="46.6197" gradientUnits="userSpaceOnUse">
<stop stop-color="#02236B"/>
<stop offset="1" stop-color="#758FEB"/>
</linearGradient>
<linearGradient id="paint24_linear_367_1250" x1="114.026" y1="115.639" x2="114.026" y2="116.357" gradientUnits="userSpaceOnUse">
<stop stop-color="#02236B"/>
<stop offset="1" stop-color="#758FEB"/>
</linearGradient>
<linearGradient id="paint25_linear_367_1250" x1="114.017" y1="115.192" x2="114.017" y2="115.749" gradientUnits="userSpaceOnUse">
<stop stop-color="#02236B"/>
<stop offset="1" stop-color="#758FEB"/>
</linearGradient>
<linearGradient id="paint26_linear_367_1250" x1="97.9702" y1="119.759" x2="97.9702" y2="120.279" gradientUnits="userSpaceOnUse">
<stop stop-color="#02236B"/>
<stop offset="1" stop-color="#758FEB"/>
</linearGradient>
<linearGradient id="paint27_linear_367_1250" x1="98.2583" y1="119.244" x2="98.2583" y2="120.222" gradientUnits="userSpaceOnUse">
<stop stop-color="#02236B"/>
<stop offset="1" stop-color="#758FEB"/>
</linearGradient>
<linearGradient id="paint28_linear_367_1250" x1="107.702" y1="65.23" x2="107.702" y2="112.796" gradientUnits="userSpaceOnUse">
<stop stop-color="#02236B"/>
<stop offset="1" stop-color="#758FEB"/>
</linearGradient>
<linearGradient id="paint29_linear_367_1250" x1="98.7238" y1="65.23" x2="98.7238" y2="117.247" gradientUnits="userSpaceOnUse">
<stop stop-color="#02236B"/>
<stop offset="1" stop-color="#758FEB"/>
</linearGradient>
</defs>
</svg>
