<svg width="69" height="69" viewBox="0 0 69 69" fill="none" xmlns="http://www.w3.org/2000/svg">
<path d="M57.5 17.25C57.5 11.017 46.9689 5.75 34.5 5.75C22.0311 5.75 11.5 11.017 11.5 17.25V23C11.5 29.233 22.0311 34.5 34.5 34.5C46.9689 34.5 57.5 29.233 57.5 23V17.25ZM34.5 54.625C22.0311 54.625 11.5 49.358 11.5 43.125V51.75C11.5 57.983 22.0311 63.25 34.5 63.25C46.9689 63.25 57.5 57.983 57.5 51.75V43.125C57.5 49.358 46.9689 54.625 34.5 54.625Z" fill="white"/>
<path d="M57.5 28.75C57.5 34.983 46.9689 40.25 34.5 40.25C22.0311 40.25 11.5 34.983 11.5 28.75V37.375C11.5 43.608 22.0311 48.875 34.5 48.875C46.9689 48.875 57.5 43.608 57.5 37.375V28.75Z" fill="white"/>
</svg>
