<svg width="35" height="36" viewBox="0 0 35 36" fill="none" xmlns="http://www.w3.org/2000/svg">
<path d="M29.8253 8.00014H25.61C25.3542 8.00014 25.1088 8.10549 24.9279 8.29303C24.7471 8.48057 24.6454 8.73492 24.6454 9.00014C24.6454 9.26535 24.7471 9.51971 24.9279 9.70724C25.1088 9.89478 25.3542 10.0001 25.61 10.0001H29.9025V30.0001H4.82299V10.0001H9.04792C9.30374 10.0001 9.54909 9.89478 9.72999 9.70724C9.91089 9.51971 10.0125 9.26535 10.0125 9.00014C10.0125 8.73492 9.91089 8.48057 9.72999 8.29303C9.54909 8.10549 9.30374 8.00014 9.04792 8.00014H4.90016C4.64039 7.98936 4.38121 8.03312 4.13817 8.12879C3.89513 8.22446 3.67325 8.37007 3.48585 8.55687C3.29845 8.74367 3.14941 8.96781 3.04767 9.21583C2.94593 9.46385 2.89359 9.73062 2.8938 10.0001V30.0001C2.89359 30.2696 2.94593 30.5364 3.04767 30.7844C3.14941 31.0325 3.29845 31.2566 3.48585 31.4434C3.67325 31.6302 3.89513 31.7758 4.13817 31.8715C4.38121 31.9672 4.64039 32.0109 4.90016 32.0001H29.8253C30.0851 32.0109 30.3443 31.9672 30.5873 31.8715C30.8303 31.7758 31.0522 31.6302 31.2396 31.4434C31.427 31.2566 31.576 31.0325 31.6778 30.7844C31.7795 30.5364 31.8319 30.2696 31.8317 30.0001V10.0001C31.8319 9.73062 31.7795 9.46385 31.6778 9.21583C31.576 8.96781 31.427 8.74367 31.2396 8.55687C31.0522 8.37007 30.8303 8.22446 30.5873 8.12879C30.3443 8.03312 30.0851 7.98936 29.8253 8.00014V8.00014Z" fill="black"/>
<path d="M9.93536 18.87L16.6875 25.76C16.8678 25.9432 17.1103 26.0459 17.3627 26.0459C17.6152 26.0459 17.8576 25.9432 18.038 25.76L24.7901 18.87C24.973 18.6843 25.0773 18.431 25.08 18.1656C25.0828 17.9002 24.9837 17.6446 24.8046 17.455C24.6255 17.2654 24.3811 17.1573 24.1251 17.1544C23.8692 17.1516 23.6226 17.2543 23.4397 17.44L18.3273 22.65V4C18.3273 3.73478 18.2257 3.48043 18.0448 3.29289C17.8639 3.10536 17.6186 3 17.3627 3C17.1069 3 16.8616 3.10536 16.6807 3.29289C16.4998 3.48043 16.3981 3.73478 16.3981 4V22.65L11.2858 17.44C11.1029 17.2543 10.8563 17.1516 10.6003 17.1544C10.3444 17.1573 10.1 17.2654 9.92089 17.455C9.74181 17.6446 9.64273 17.9002 9.64544 18.1656C9.64815 18.431 9.75244 18.6843 9.93536 18.87V18.87Z" fill="black"/>
</svg>
