<svg width="32" height="35" viewBox="0 0 32 35" fill="none" xmlns="http://www.w3.org/2000/svg">
<path d="M15.7 16.5828C14.3543 16.5828 13.4572 17.4556 13.4572 18.7647C13.4572 19.6375 14.13 20.2921 14.8029 20.5103L14.13 23.565H17.0457L16.3729 20.5103C17.27 20.2921 17.7186 19.6375 17.7186 18.7647C17.9429 17.4556 17.0457 16.5828 15.7 16.5828V16.5828ZM15.9243 7.20042C14.3543 7.20042 12.7843 8.29139 12.7843 9.81875V13.0917H18.84V9.81875C18.6157 8.29139 17.4943 7.20042 15.9243 7.20042V7.20042ZM15.7 0L0 6.54584V13.0917C0.224286 22.6922 6.50429 31.2018 15.7 34.6929C24.8957 31.2018 31.1757 22.6922 31.4 13.0917V6.54584L15.7 0ZM24.6714 24.0014C24.6714 25.3106 23.7743 26.1833 22.4286 26.1833H8.97144C7.62572 26.1833 6.72858 25.3106 6.72858 24.0014V15.2736C6.72858 13.9645 7.62572 13.0917 8.97144 13.0917H9.64429V9.81875C9.86858 6.76403 12.56 4.36389 15.7 4.36389C18.84 4.36389 21.5314 6.76403 21.7557 9.81875V13.0917H22.4286C23.7743 13.0917 24.6714 13.9645 24.6714 15.2736V24.0014Z" fill="white"/>
</svg>
