<svg width="385" height="281" viewBox="0 0 385 281" fill="none" xmlns="http://www.w3.org/2000/svg">
<path d="M219.167 136.833H214.333V122.333C214.333 111.7 205.633 103 195 103C184.367 103 175.667 111.7 175.667 122.333V136.833H170.833C168.417 136.833 166 139.25 166 141.667V175.5C166 177.917 168.417 180.333 170.833 180.333H219.167C221.583 180.333 224 177.917 224 175.5V141.667C224 139.25 221.583 136.833 219.167 136.833ZM199.833 170.667H190.167L192.1 160.033C189.683 159.067 187.75 156.167 187.75 153.75C187.75 149.883 191.133 146.5 195 146.5C198.867 146.5 202.25 149.883 202.25 153.75C202.25 156.65 200.8 159.067 197.9 160.033L199.833 170.667ZM204.667 136.833H185.333V122.333C185.333 117.017 189.683 112.667 195 112.667C200.317 112.667 204.667 117.017 204.667 122.333V136.833Z" fill="#5D6AD9"/>
<path d="M126 40.5L147 76L140 78.5L132 80L120.5 81L115.5 84.5V139.5H65V154H115.5L116.5 156L117.709 167.388L119.5 175H135L133.5 169.25L132 163.5L131.178 152.5V122V95.5L139 94.5L147 91.5L154 89L174 81L188.5 69L195.5 62L205.5 72L216 80L242 89.5L261 96V158.5L253 175H270L274 165.5V152.5H325V137H274V96V84.5L270 81.75L265.5 80H261L253.5 79L244.5 76L254.5 57.75L264.5 39.5H299.5V25H279.5H261L255 26.5L242 49.5L235.5 60L230 70L226.5 71L216 62L208 55L201.5 48L195.5 45L190.5 48L183 56.5L173.5 64L160.5 71L156 63L133 25H93V40.5H126Z" fill="#5D6AD9"/>
<circle cx="67.5" cy="33.5" r="27" stroke="#5D6AD9" stroke-width="13"/>
<path d="M361.982 246.5C361.982 261.412 349.894 273.5 334.982 273.5C320.07 273.5 307.982 261.412 307.982 246.5C307.982 231.588 320.07 219.5 334.982 219.5C349.894 219.5 361.982 231.588 361.982 246.5Z" stroke="#5D6AD9" stroke-width="13"/>
<path d="M36.5 213L9 250H384.5L359.5 213L384.5 171H9L36.5 213Z" fill="#5D6AD9"/>
<path d="M131.232 228H120.144C119.76 228 119.568 227.808 119.568 227.424V224.976C119.568 224.592 119.76 224.4 120.144 224.4H123.36V200.496H123.312L114.192 223.152C113.808 224.112 113.104 224.592 112.08 224.592C111.056 224.592 110.352 224.112 109.968 223.152L100.848 200.496H100.752V224.4H103.968C104.384 224.4 104.592 224.592 104.592 224.976V227.424C104.592 227.808 104.384 228 103.968 228H92.928C92.512 228 92.304 227.808 92.304 227.424V224.976C92.304 224.592 92.512 224.4 92.928 224.4H96.576V197.136H92.928C92.512 197.136 92.304 196.944 92.304 196.56V194.112C92.304 193.728 92.512 193.536 92.928 193.536H100.32C101.408 193.536 102.16 194.08 102.576 195.168L109.728 212.448L111.984 218.496H112.176C113.072 216 113.808 214.016 114.384 212.544L121.584 195.168C122 194.08 122.768 193.536 123.888 193.536H131.232C131.616 193.536 131.808 193.728 131.808 194.112V196.56C131.808 196.944 131.616 197.136 131.232 197.136H127.536V224.4H131.232C131.616 224.4 131.808 224.592 131.808 224.976V227.424C131.808 227.808 131.616 228 131.232 228ZM155.793 216.672H138.513C138.641 219.328 139.473 221.376 141.009 222.816C142.577 224.256 144.337 224.976 146.289 224.976C148.241 224.976 149.905 224.56 151.281 223.728C152.689 222.896 153.633 222.08 154.113 221.28C154.369 220.96 154.657 220.912 154.977 221.136L156.273 222.432C156.465 222.624 156.561 222.8 156.561 222.96C156.561 223.088 156.481 223.264 156.321 223.488C156.193 223.712 155.905 224.064 155.457 224.544C155.009 225.024 154.369 225.568 153.537 226.176C152.737 226.784 151.681 227.296 150.369 227.712C149.089 228.128 147.713 228.336 146.241 228.336C142.881 228.336 140.065 227.232 137.793 225.024C135.553 222.816 134.433 219.856 134.433 216.144C134.433 212.4 135.553 209.456 137.793 207.312C140.033 205.136 142.769 204.048 146.001 204.048C149.265 204.048 151.825 205.104 153.681 207.216C155.537 209.296 156.465 212.112 156.465 215.664C156.465 215.792 156.465 215.92 156.465 216.048C156.465 216.464 156.241 216.672 155.793 216.672ZM152.481 213.744C152.385 211.76 151.761 210.176 150.609 208.992C149.457 207.808 147.921 207.216 146.001 207.216C144.081 207.216 142.433 207.76 141.057 208.848C139.681 209.936 138.865 211.568 138.609 213.744H152.481ZM176.059 225.552C176.187 225.68 176.251 225.824 176.251 225.984C176.251 226.112 176.155 226.272 175.963 226.464C174.555 227.712 172.779 228.336 170.635 228.336C168.523 228.336 166.779 227.648 165.403 226.272C164.059 224.864 163.387 222.832 163.387 220.176V207.6H160.699C160.251 207.6 160.027 207.392 160.027 206.976V205.008C160.027 204.592 160.251 204.384 160.699 204.384H163.387V199.536C163.387 199.088 163.611 198.864 164.059 198.864H166.747C167.163 198.864 167.371 199.088 167.371 199.536V204.384H173.467C173.915 204.384 174.139 204.592 174.139 205.008V206.976C174.139 207.392 173.915 207.6 173.467 207.6H167.371V220.08C167.371 221.68 167.723 222.896 168.427 223.728C169.163 224.528 170.123 224.928 171.307 224.928C172.523 224.928 173.435 224.624 174.043 224.016C174.363 223.728 174.651 223.744 174.907 224.064L176.059 225.552ZM202.72 228H198.544C197.168 228 196.48 227.328 196.48 225.984V223.536H196.384C194.048 226.768 190.928 228.384 187.024 228.384C184.72 228.384 182.832 227.792 181.36 226.608C179.888 225.392 179.152 223.76 179.152 221.712C179.152 219.088 180.288 217.168 182.56 215.952C184.864 214.704 188.016 214.08 192.016 214.08H196.048V213.504C196.048 209.504 193.968 207.504 189.808 207.504C187.856 207.504 186.448 207.696 185.584 208.08C184.72 208.432 184.096 208.72 183.712 208.944C183.36 209.168 183.088 209.344 182.896 209.472C182.416 209.856 182.064 209.888 181.84 209.568L180.496 207.888C180.272 207.632 180.304 207.376 180.592 207.12C181.136 206.416 182.256 205.728 183.952 205.056C185.648 204.384 187.648 204.048 189.952 204.048C196.672 204.048 200.032 207.248 200.032 213.648V224.784H202.72C203.104 224.784 203.296 224.976 203.296 225.36V227.424C203.296 227.808 203.104 228 202.72 228ZM196.048 216.96H192.256C190.4 216.96 188.864 217.056 187.648 217.248C186.432 217.44 185.392 217.856 184.528 218.496C183.696 219.136 183.28 220.016 183.28 221.136C183.28 222.256 183.728 223.184 184.624 223.92C185.552 224.624 186.752 224.976 188.224 224.976C191.328 224.976 193.936 223.6 196.048 220.848V216.96ZM217.08 238.8H207.432C207.016 238.8 206.808 238.608 206.808 238.224V236.16C206.808 235.776 207.016 235.584 207.432 235.584H210.12V207.6H207.528C207.112 207.6 206.904 207.408 206.904 207.024V204.96C206.904 204.576 207.112 204.384 207.528 204.384H213.144C213.56 204.384 213.768 204.576 213.768 204.96L213.72 208.752H213.768C214.376 207.44 215.352 206.336 216.696 205.44C218.072 204.512 219.752 204.048 221.736 204.048C224.968 204.048 227.576 205.152 229.56 207.36C231.544 209.536 232.536 212.448 232.536 216.096C232.536 219.712 231.56 222.656 229.608 224.928C227.656 227.2 225.048 228.336 221.784 228.336C219.8 228.336 218.136 227.888 216.792 226.992C215.48 226.064 214.536 224.944 213.96 223.632H213.816C213.912 224.656 213.96 225.392 213.96 225.84V235.584H217.08C217.496 235.584 217.704 235.776 217.704 236.16V238.224C217.704 238.608 217.496 238.8 217.08 238.8ZM213.864 216.288C213.864 219.072 214.584 221.216 216.024 222.72C217.496 224.224 219.256 224.976 221.304 224.976C223.384 224.976 225.112 224.176 226.488 222.576C227.896 220.944 228.6 218.816 228.6 216.192C228.6 213.536 227.896 211.408 226.488 209.808C225.112 208.208 223.384 207.408 221.304 207.408C219.224 207.408 217.464 208.192 216.024 209.76C214.584 211.328 213.864 213.504 213.864 216.288ZM259.486 228H255.31C253.934 228 253.246 227.328 253.246 225.984V223.536H253.15C250.814 226.768 247.694 228.384 243.79 228.384C241.486 228.384 239.598 227.792 238.126 226.608C236.654 225.392 235.918 223.76 235.918 221.712C235.918 219.088 237.054 217.168 239.326 215.952C241.63 214.704 244.782 214.08 248.782 214.08H252.814V213.504C252.814 209.504 250.734 207.504 246.574 207.504C244.622 207.504 243.214 207.696 242.35 208.08C241.486 208.432 240.862 208.72 240.478 208.944C240.126 209.168 239.854 209.344 239.662 209.472C239.182 209.856 238.83 209.888 238.606 209.568L237.262 207.888C237.038 207.632 237.07 207.376 237.358 207.12C237.902 206.416 239.022 205.728 240.718 205.056C242.414 204.384 244.414 204.048 246.718 204.048C253.438 204.048 256.798 207.248 256.798 213.648V224.784H259.486C259.87 224.784 260.062 224.976 260.062 225.36V227.424C260.062 227.808 259.87 228 259.486 228ZM252.814 216.96H249.022C247.166 216.96 245.63 217.056 244.414 217.248C243.198 217.44 242.158 217.856 241.294 218.496C240.462 219.136 240.046 220.016 240.046 221.136C240.046 222.256 240.494 223.184 241.39 223.92C242.318 224.624 243.518 224.976 244.99 224.976C248.094 224.976 250.702 223.6 252.814 220.848V216.96ZM274.277 228.336C272.133 228.336 270.421 227.936 269.141 227.136C267.861 226.336 267.061 225.584 266.741 224.88H266.645C266.709 226.448 266.741 227.28 266.741 227.376C266.741 227.792 266.517 228 266.069 228H264.437C264.021 228 263.813 227.792 263.813 227.376V220.176C263.813 219.76 264.021 219.552 264.437 219.552H266.309C266.757 219.552 266.981 219.76 266.981 220.176V221.136C267.301 222.096 267.973 222.976 268.997 223.776C270.213 224.736 271.733 225.216 273.557 225.216C277.141 225.216 278.933 223.968 278.933 221.472C278.933 220.608 278.437 219.92 277.445 219.408C276.453 218.864 275.237 218.416 273.797 218.064C272.389 217.712 270.981 217.312 269.573 216.864C268.165 216.416 266.965 215.696 265.973 214.704C264.981 213.68 264.485 212.4 264.485 210.864C264.485 208.784 265.237 207.136 266.741 205.92C268.245 204.672 270.165 204.048 272.501 204.048C275.669 204.048 277.941 204.976 279.317 206.832H279.413C279.349 205.68 279.317 205.088 279.317 205.056C279.317 204.64 279.525 204.432 279.941 204.432H281.477C281.893 204.432 282.101 204.64 282.101 205.056V211.728C282.101 212.144 281.893 212.352 281.477 212.352H279.605C279.157 212.352 278.933 212.144 278.933 211.728V211.056C278.933 210.192 278.421 209.344 277.397 208.512C276.405 207.648 275.109 207.216 273.509 207.216C271.909 207.216 270.661 207.552 269.765 208.224C268.869 208.896 268.421 209.776 268.421 210.864C268.421 211.92 268.917 212.752 269.909 213.36C270.933 213.936 272.165 214.4 273.605 214.752C275.045 215.072 276.485 215.44 277.925 215.856C279.365 216.272 280.581 216.96 281.573 217.92C282.597 218.88 283.109 220.208 283.109 221.904C283.109 223.6 282.373 225.104 280.901 226.416C279.461 227.696 277.253 228.336 274.277 228.336ZM297.621 228.336C295.477 228.336 293.765 227.936 292.485 227.136C291.205 226.336 290.405 225.584 290.085 224.88H289.989C290.053 226.448 290.085 227.28 290.085 227.376C290.085 227.792 289.861 228 289.413 228H287.781C287.365 228 287.157 227.792 287.157 227.376V220.176C287.157 219.76 287.365 219.552 287.781 219.552H289.653C290.101 219.552 290.325 219.76 290.325 220.176V221.136C290.645 222.096 291.317 222.976 292.341 223.776C293.557 224.736 295.077 225.216 296.901 225.216C300.485 225.216 302.277 223.968 302.277 221.472C302.277 220.608 301.781 219.92 300.789 219.408C299.797 218.864 298.581 218.416 297.141 218.064C295.733 217.712 294.325 217.312 292.917 216.864C291.509 216.416 290.309 215.696 289.317 214.704C288.325 213.68 287.829 212.4 287.829 210.864C287.829 208.784 288.581 207.136 290.085 205.92C291.589 204.672 293.509 204.048 295.845 204.048C299.013 204.048 301.285 204.976 302.661 206.832H302.757C302.693 205.68 302.661 205.088 302.661 205.056C302.661 204.64 302.869 204.432 303.285 204.432H304.821C305.237 204.432 305.445 204.64 305.445 205.056V211.728C305.445 212.144 305.237 212.352 304.821 212.352H302.949C302.501 212.352 302.277 212.144 302.277 211.728V211.056C302.277 210.192 301.765 209.344 300.741 208.512C299.749 207.648 298.453 207.216 296.853 207.216C295.253 207.216 294.005 207.552 293.109 208.224C292.213 208.896 291.765 209.776 291.765 210.864C291.765 211.92 292.261 212.752 293.253 213.36C294.277 213.936 295.509 214.4 296.949 214.752C298.389 215.072 299.829 215.44 301.269 215.856C302.709 216.272 303.925 216.96 304.917 217.92C305.941 218.88 306.453 220.208 306.453 221.904C306.453 223.6 305.717 225.104 304.245 226.416C302.805 227.696 300.597 228.336 297.621 228.336Z" fill="white"/>
<path d="M376 144.332C376 159.243 363.912 171.332 349 171.332C334.088 171.332 322 159.243 322 144.332C322 129.42 334.088 117.332 349 117.332C363.912 117.332 376 129.42 376 144.332Z" stroke="#5D6AD9" stroke-width="13"/>
<path d="M354 34C354 48.9117 341.912 61 327 61C312.088 61 300 48.9117 300 34C300 19.0883 312.088 7 327 7C341.912 7 354 19.0883 354 34Z" stroke="#5D6AD9" stroke-width="13"/>
<path d="M84.8661 247C84.8661 261.912 72.7778 274 57.8661 274C42.9544 274 30.8661 261.912 30.8661 247C30.8661 232.088 42.9544 220 57.8661 220C72.7778 220 84.8661 232.088 84.8661 247Z" stroke="#5D6AD9" stroke-width="13"/>
<circle cx="33.5" cy="141.5" r="27" stroke="#5D6AD9" stroke-width="13"/>
</svg>
