<svg width="150" height="153" viewBox="0 0 150 153" fill="none" xmlns="http://www.w3.org/2000/svg">
<g filter="url(#filter0_d_368_1702)">
<path d="M75.933 144.87C113.689 144.87 144.297 128.044 144.297 107.289C144.297 86.5336 113.689 69.708 75.933 69.708C38.1766 69.708 7.56897 86.5336 7.56897 107.289C7.56897 128.044 38.1766 144.87 75.933 144.87Z" fill="#F5F5F5"/>
<path d="M103.821 124.452C113.545 124.452 121.428 119.901 121.428 114.288C121.428 108.675 113.545 104.124 103.821 104.124C94.0969 104.124 86.214 108.675 86.214 114.288C86.214 119.901 94.0969 124.452 103.821 124.452Z" fill="#E6E6E6"/>
<path d="M61.674 124.614C70.9971 124.614 78.555 120.25 78.555 114.867C78.555 109.484 70.9971 105.12 61.674 105.12C52.3509 105.12 44.793 109.484 44.793 114.867C44.793 120.25 52.3509 124.614 61.674 124.614Z" fill="#E6E6E6"/>
<path d="M25.758 108.987L40.947 117.756C44.847 120.003 51.198 120.003 55.089 117.756L67.8 110.427C70.671 108.771 70.674 106.059 67.8 104.4L52.611 95.6161C48.726 93.3691 42.366 93.3661 38.478 95.6161L25.758 102.963C22.887 104.619 22.887 107.331 25.758 108.987Z" fill="#E6E6E6"/>
<path d="M84.93 28.9506C85.3347 26.7815 85.1658 24.5443 84.4402 22.4605C83.7145 20.3768 82.4572 18.5186 80.7927 17.0701C79.1282 15.6216 77.1142 14.6329 74.9502 14.202C72.7862 13.771 70.5471 13.9128 68.4547 14.6131C66.3622 15.3135 64.489 16.5482 63.0204 18.195C61.5519 19.8419 60.5389 21.8437 60.0817 24.0024C59.6246 26.161 59.7392 28.4016 60.4142 30.5024C61.0891 32.6031 62.3011 34.4912 63.93 35.9796C63.297 37.3686 62.13 39.3936 60.591 40.0086C60.591 40.0086 64.191 41.8086 67.359 38.2086C70.234 39.4741 73.4766 39.6266 76.4578 38.6366C79.4389 37.6465 81.9461 35.5846 83.493 32.8506C87.774 34.3326 90.039 31.2036 90.039 31.2036C88.248 31.3986 86.1 29.8926 84.93 28.9506Z" fill="#1D3A58"/>
<path d="M74.718 26.7005L75.195 25.3115C75.2079 25.2688 75.2049 25.2229 75.1868 25.1821C75.1686 25.1414 75.1364 25.1085 75.096 25.0895L73.896 24.5315C73.8523 24.5042 73.8164 24.4662 73.7917 24.421C73.767 24.3758 73.7544 24.325 73.755 24.2735C73.7612 24.0187 73.7462 23.7638 73.71 23.5115C73.6981 23.4632 73.6985 23.4126 73.7111 23.3644C73.7237 23.3162 73.748 23.2719 73.782 23.2355L74.97 22.5005C75.03 22.4615 75.036 22.3415 74.97 22.2275L74.385 21.0275C74.331 20.9165 74.232 20.8475 74.163 20.8715L72.855 21.3395C72.8052 21.3445 72.755 21.3369 72.7089 21.3176C72.6628 21.2982 72.6223 21.2676 72.591 21.2285C72.4165 21.0427 72.2246 20.8739 72.018 20.7245C71.9775 20.693 71.9457 20.6517 71.9258 20.6044C71.9058 20.5571 71.8983 20.5055 71.904 20.4545L72.204 19.1735C72.2142 19.1298 72.2084 19.0839 72.1874 19.0442C72.1665 19.0045 72.1319 18.9737 72.09 18.9575L70.704 18.4805C70.6639 18.4662 70.62 18.4668 70.5803 18.4823C70.5407 18.4977 70.5079 18.5269 70.488 18.5645L69.915 19.7855C69.895 19.8232 69.8652 19.8548 69.8288 19.877C69.7924 19.8992 69.7506 19.9111 69.708 19.9115C69.4128 19.8989 69.1171 19.918 68.826 19.9685C68.7737 19.9652 68.7232 19.9482 68.6795 19.9192C68.6358 19.8903 68.6005 19.8504 68.577 19.8035L67.935 18.7835C67.869 18.6785 67.764 18.6215 67.698 18.6515L66.327 19.3205C66.264 19.3535 66.246 19.4705 66.288 19.5875L66.696 20.7245C66.7183 20.7725 66.7276 20.8255 66.7229 20.8782C66.7181 20.9308 66.6995 20.9813 66.669 21.0245C66.4463 21.2239 66.2452 21.4461 66.069 21.6875C66.0418 21.7203 66.0062 21.7451 65.9661 21.7593C65.926 21.7736 65.8828 21.7767 65.841 21.7685L64.527 21.4685C64.4854 21.4606 64.4424 21.4681 64.4059 21.4896C64.3695 21.5112 64.3421 21.5453 64.329 21.5855L63.849 22.9715C63.837 23.0146 63.8406 23.0606 63.8593 23.1012C63.878 23.1419 63.9105 23.1746 63.951 23.1935L65.151 23.7545C65.1947 23.7818 65.2306 23.8199 65.2553 23.8651C65.28 23.9102 65.2926 23.961 65.292 24.0125C65.2844 24.2673 65.2995 24.5223 65.337 24.7745C65.3483 24.8224 65.3477 24.8724 65.3351 24.92C65.3226 24.9676 65.2985 25.0114 65.265 25.0475L64.089 25.7915C64.026 25.8305 64.023 25.9505 64.089 26.0615L64.674 27.2615C64.728 27.3755 64.827 27.4445 64.896 27.4205L66.204 26.9495C66.2533 26.9451 66.3029 26.9529 66.3484 26.9722C66.394 26.9916 66.434 27.0219 66.465 27.0605C66.6402 27.2466 66.832 27.4163 67.038 27.5675C67.079 27.5987 67.1114 27.6399 67.1319 27.6872C67.1524 27.7345 67.1603 27.7863 67.155 27.8375L66.855 29.1185C66.8447 29.1622 66.8506 29.2082 66.8716 29.2479C66.8925 29.2876 66.9271 29.3183 66.969 29.3345L68.355 29.8115C68.3947 29.8257 68.4381 29.8249 68.4773 29.8095C68.5164 29.794 68.5487 29.7649 68.568 29.7275L69.147 28.5005C69.1664 28.4624 69.1961 28.4304 69.2326 28.4082C69.2692 28.3859 69.3112 28.3743 69.354 28.3745C69.6482 28.3857 69.9427 28.3666 70.233 28.3175C70.285 28.3206 70.3353 28.3371 70.3789 28.3655C70.4226 28.3939 70.4581 28.4332 70.482 28.4795L71.127 29.5025C71.193 29.6045 71.298 29.6645 71.361 29.6315L72.732 28.9625C72.798 28.9325 72.816 28.8125 72.774 28.6985L72.366 27.5615C72.3432 27.5138 72.3334 27.461 72.3377 27.4083C72.3419 27.3556 72.3599 27.305 72.39 27.2615C72.6125 27.0631 72.8136 26.8419 72.99 26.6015C73.0171 26.5685 73.0525 26.5433 73.0926 26.5285C73.1327 26.5138 73.176 26.51 73.218 26.5175L74.532 26.8175C74.5716 26.8218 74.6116 26.8126 74.6453 26.7914C74.6791 26.7701 74.7047 26.7381 74.718 26.7005V26.7005ZM68.604 26.8325C68.0712 26.6488 67.6048 26.3112 67.2638 25.8625C66.9229 25.4137 66.7226 24.8739 66.6883 24.3114C66.6541 23.7488 66.7874 23.1887 67.0714 22.702C67.3555 22.2152 67.7774 21.8235 68.284 21.5765C68.7906 21.3295 69.3591 21.2382 69.9175 21.3143C70.476 21.3903 70.9993 21.6302 71.4214 22.0036C71.8436 22.377 72.1455 22.8672 72.2891 23.4122C72.4326 23.9573 72.4114 24.5326 72.228 25.0655C72.1062 25.4196 71.9158 25.7461 71.6677 26.0266C71.4196 26.307 71.1187 26.5358 70.7821 26.6999C70.4456 26.864 70.08 26.9602 69.7062 26.9829C69.3325 27.0057 68.958 26.9546 68.604 26.8325V26.8325ZM68.904 25.9955C68.5363 25.8692 68.2144 25.6368 67.9789 25.3275C67.7434 25.0182 67.6049 24.646 67.581 24.258C67.5571 23.87 67.6488 23.4836 67.8445 23.1477C68.0402 22.8119 68.3312 22.5416 68.6805 22.3711C69.0299 22.2006 69.422 22.1376 69.8072 22.19C70.1924 22.2424 70.5533 22.4079 70.8445 22.6655C71.1356 22.9231 71.3438 23.2613 71.4427 23.6372C71.5415 24.0132 71.5267 24.41 71.4 24.7775C71.316 25.0227 71.1844 25.2488 71.0127 25.4429C70.8409 25.637 70.6325 25.7952 70.3994 25.9084C70.1663 26.0216 69.9131 26.0876 69.6544 26.1025C69.3957 26.1175 69.1366 26.0811 68.892 25.9955H68.904Z" fill="#FAFAFA"/>
<path d="M79.596 33.8138L80.325 33.0308C80.3469 33.0065 80.3591 32.975 80.3591 32.9423C80.3591 32.9096 80.3469 32.878 80.325 32.8538L79.698 32.1278C79.6759 32.0973 79.6626 32.0613 79.6594 32.0238C79.6562 31.9862 79.6634 31.9485 79.68 31.9148C79.7604 31.7469 79.8256 31.5722 79.875 31.3928C79.896 31.3118 79.953 31.2368 80.004 31.2308L81.009 31.0838C81.063 31.0838 81.102 30.9968 81.099 30.9068L81.063 29.9318C81.063 29.8418 81.015 29.7638 80.964 29.7608L79.95 29.7008C79.899 29.7008 79.836 29.6288 79.809 29.5508C79.7458 29.3753 79.6675 29.2057 79.575 29.0438C79.5566 29.0113 79.5469 28.9746 79.5469 28.9373C79.5469 28.8999 79.5566 28.8632 79.575 28.8308L80.148 28.0598C80.1699 28.0355 80.1821 28.004 80.1821 27.9713C80.1821 27.9386 80.1699 27.907 80.148 27.8828L79.365 27.1538C79.3416 27.1337 79.3118 27.1227 79.281 27.1227C79.2502 27.1227 79.2204 27.1337 79.197 27.1538L78.453 27.7988C78.4282 27.8178 78.3987 27.8301 78.3677 27.8343C78.3367 27.8385 78.3051 27.8345 78.276 27.8228C78.0841 27.7278 77.8831 27.6524 77.676 27.5978C77.622 27.5978 77.571 27.5048 77.559 27.4178L77.43 26.5448C77.43 26.4548 77.364 26.3858 77.313 26.3888L76.2 26.4008C76.146 26.4008 76.101 26.4758 76.092 26.5658L76.029 27.4448C76.0297 27.4827 76.0203 27.5202 76.0019 27.5533C75.9834 27.5865 75.9566 27.6143 75.924 27.6338C75.7208 27.7035 75.5249 27.7929 75.339 27.9008C75.3123 27.9169 75.2817 27.9254 75.2505 27.9254C75.2193 27.9254 75.1887 27.9169 75.162 27.9008L74.373 27.3008C74.3472 27.2834 74.316 27.276 74.2851 27.2798C74.2542 27.2837 74.2258 27.2986 74.205 27.3218L73.476 28.1048C73.4547 28.1293 73.443 28.1607 73.443 28.1933C73.443 28.2258 73.4547 28.2572 73.476 28.2818L74.1 29.0108C74.1221 29.0413 74.1355 29.0772 74.1386 29.1148C74.1418 29.1523 74.1347 29.19 74.118 29.2238C74.039 29.3922 73.9738 29.5668 73.923 29.7458C73.902 29.8268 73.845 29.9018 73.794 29.9078L72.789 30.0548C72.735 30.0548 72.696 30.1418 72.699 30.2318L72.735 31.2068C72.735 31.2968 72.783 31.3748 72.837 31.3778L73.848 31.4528C73.902 31.4528 73.962 31.5248 73.989 31.6028C74.0522 31.7782 74.1305 31.9478 74.223 32.1098C74.2423 32.1425 74.2524 32.1798 74.2524 32.2178C74.2524 32.2557 74.2423 32.293 74.223 32.3258L73.65 33.0938C73.6281 33.118 73.616 33.1496 73.616 33.1823C73.616 33.215 73.6281 33.2465 73.65 33.2708L74.433 33.9998C74.4564 34.0198 74.4862 34.0309 74.517 34.0309C74.5478 34.0309 74.5776 34.0198 74.601 33.9998L75.345 33.3548C75.3699 33.3357 75.3993 33.3235 75.4303 33.3193C75.4614 33.3151 75.493 33.319 75.522 33.3308C75.7139 33.4258 75.9149 33.5012 76.122 33.5558C76.176 33.5558 76.227 33.6488 76.239 33.7358L76.368 34.6088C76.368 34.6988 76.434 34.7678 76.485 34.7648L77.598 34.7258C77.652 34.7258 77.697 34.6508 77.706 34.5608L77.769 33.6818C77.7684 33.6438 77.7777 33.6064 77.7962 33.5732C77.8146 33.54 77.8414 33.5123 77.874 33.4928C78.0829 33.4252 78.284 33.3357 78.474 33.2258C78.5007 33.2096 78.5313 33.2011 78.5625 33.2011C78.5937 33.2011 78.6243 33.2096 78.651 33.2258L79.44 33.8258C79.4637 33.8411 79.4919 33.8483 79.52 33.8461C79.5482 33.8439 79.5749 33.8326 79.596 33.8138V33.8138ZM75.477 32.1008C75.1763 31.8205 74.9655 31.4573 74.8711 31.0572C74.7767 30.6571 74.8031 30.238 74.9469 29.8529C75.0906 29.4678 75.3454 29.1339 75.6788 28.8935C76.0123 28.6531 76.4096 28.517 76.8204 28.5023C77.2312 28.4876 77.6371 28.5951 77.9869 28.8111C78.3367 29.0271 78.6146 29.3419 78.7854 29.7158C78.9563 30.0897 79.0125 30.5058 78.947 30.9116C78.8814 31.3175 78.697 31.6947 78.417 31.9958C78.0408 32.3991 77.5199 32.6367 76.9687 32.6564C76.4175 32.6761 75.881 32.4763 75.477 32.1008V32.1008ZM76.008 31.5308C75.8194 31.3554 75.687 31.128 75.6276 30.8774C75.5682 30.6267 75.5844 30.3641 75.6743 30.1227C75.7642 29.8813 75.9237 29.6721 76.1326 29.5213C76.3415 29.3706 76.5904 29.2852 76.8478 29.276C77.1052 29.2667 77.3596 29.3341 77.5787 29.4694C77.7978 29.6048 77.9719 29.8021 78.0789 30.0364C78.1859 30.2707 78.2209 30.5315 78.1796 30.7858C78.1384 31.04 78.0226 31.2763 77.847 31.4648C77.6106 31.7159 77.2841 31.863 76.9393 31.8737C76.5945 31.8844 76.2596 31.7578 76.008 31.5218V31.5308Z" fill="#FAFAFA"/>
<path d="M83.4781 53.6523C84.3211 53.6523 94.6921 54.7653 96.1771 53.9283C97.5841 53.1333 102.06 42.1773 102.06 42.1773C102.525 38.1243 101.178 37.0023 101.178 37.0023C101.178 37.0023 99.0151 36.5013 97.4521 40.1493C96.5821 42.1773 93.6241 49.7073 93.6241 49.7073C93.6241 49.7073 84.8971 50.5023 83.9191 49.8573C83.4211 49.6143 83.1751 48.9573 82.9951 48.5013C82.6951 47.7453 82.8451 46.8903 82.8181 46.5783C82.7701 46.0323 81.9751 46.4073 81.7591 47.3103C81.6001 47.9673 81.7261 48.5643 81.4801 48.6963C81.0857 48.6521 80.6973 48.5646 80.3221 48.4353C79.7851 48.2223 78.8221 47.8983 78.2701 48.2973C78.1746 48.3649 78.0972 48.455 78.0449 48.5597C77.9925 48.6643 77.9669 48.7803 77.9701 48.8973C78.0285 49.2176 78.0285 49.5459 77.9701 49.8663C77.9009 50.0142 77.8515 50.1705 77.8231 50.3313C77.8231 50.5443 77.9401 50.6823 77.9701 50.8833C78.0121 51.1623 77.7601 51.4173 77.7841 51.6993C77.8021 51.9003 77.9611 52.0653 78.0091 52.2633C78.0391 52.3893 78.0091 52.5273 78.0571 52.6533C78.1029 52.7737 78.174 52.8829 78.2656 52.9734C78.3572 53.064 78.4672 53.1339 78.5881 53.1783C79.3611 53.5112 80.1915 53.6906 81.0331 53.7063C81.7621 53.7513 82.6771 53.6613 83.4781 53.6523Z" fill="#FFA8A7"/>
<path d="M114.921 108.6C115.094 109.566 115.187 110.544 115.2 111.525C115.233 113.301 115.56 113.925 115.602 115.389C115.653 117.054 115.365 117.678 114.702 118.614C114.039 119.55 112.251 120.399 111.501 118.818C110.751 117.237 110.85 116.199 111.087 114.564C111.336 112.875 111.369 111.942 111.51 110.664C111.639 109.527 111.789 108.666 111.789 108.666L114.921 108.6Z" fill="#444F54"/>
<path d="M109.881 94.6201L115.731 94.5151C115.644 98.4151 115.023 104.922 114.921 108.585C114.903 109.275 114.939 113.943 114.678 115.365C114.288 117.495 111.756 117.207 111.621 115.932C111.486 114.657 111.786 109.203 111.777 108.642C111.801 106.293 110.697 100.158 110.121 95.9401C110.1 95.7331 109.908 94.8241 109.881 94.6201Z" fill="#FFA8A7"/>
<path d="M101.283 105.546C101.283 105.546 101.583 105.564 101.631 105.81C101.688 106.11 101.703 106.566 101.823 107.046C102.023 107.802 102.094 108.586 102.033 109.365C101.931 109.908 100.686 110.721 99.8341 110.865C98.9821 111.009 97.7821 111.849 97.1161 112.476C96.0465 113.366 94.7214 113.891 93.3331 113.976C91.9111 113.976 90.9331 113.502 90.4531 112.74C89.9731 111.978 90.8791 111.888 92.5051 110.835L93.7651 110.016C96.3391 108.336 97.2811 107.433 98.0071 105.753L101.283 105.546Z" fill="#444F54"/>
<path d="M97.9861 104.631C98.0311 103.431 97.4101 94.5151 97.4101 94.5151L102.444 95.0821C101.244 102.183 101.157 104.601 101.292 105.636C101.318 105.734 101.329 105.835 101.325 105.936C101.325 107.316 99.7621 108.06 98.5471 108.978C98.0671 109.341 96.8341 110.46 95.3911 110.952C94.4551 111.273 92.7271 111.393 92.5051 110.826C93.9841 109.695 95.9941 108.222 97.1701 106.926C97.7311 106.314 97.9441 105.84 97.9861 104.631Z" fill="#FFA8A7"/>
<path d="M111.54 52.4673C113.261 54.7233 114.514 57.3009 115.224 60.0483C116.883 66.7563 114.273 81.1083 114.273 81.1083C114.357 82.0803 115.473 83.9973 115.884 88.2783C116.373 93.3393 114.984 106.878 114.984 106.878C114.984 106.878 113.646 107.877 111.708 106.947C111.708 106.947 108.165 87.0453 107.532 82.0143C106.977 77.6223 105.849 68.5143 105.849 68.5143L103.314 82.0143C103.314 82.0143 103.668 84.4743 103.851 86.3463C104.136 89.3073 101.256 104.157 101.256 104.157C101.256 104.157 99.9061 104.868 97.9921 104.094C97.9921 104.094 96.7141 84.8943 96.4471 81.3423C96.1711 77.6733 97.1251 69.1233 97.8271 62.3163C98.0401 60.2643 99.0781 53.9343 99.4411 52.1763L111.54 52.4673Z" fill="#455A64"/>
<path d="M105.846 68.508L105.246 64.353C103.509 64.2466 101.827 63.7028 100.356 62.772C100.356 62.772 101.856 64.818 104.451 65.061L104.832 68.778L103.632 80.364L105.846 68.508Z" fill="#1D3A58"/>
<path d="M99.1351 48.0335C99.1981 49.2545 99.4351 52.1585 99.4351 52.1585C104.418 55.5305 111.537 52.4585 111.537 52.4585L112.575 45.3755C112.575 45.3755 109.974 41.7365 112.416 37.8995L108.516 37.1315L103.872 36.7505L101.172 36.9935C99.651 38.1095 98.637 40.3805 98.148 41.6315C97.659 42.8825 96.921 45.4295 99.1351 48.0335Z" fill="#1D3A58"/>
<path opacity="0.6" d="M99.1351 48.0335C99.1981 49.2545 99.4351 52.1585 99.4351 52.1585C104.418 55.5305 111.537 52.4585 111.537 52.4585L112.575 45.3755C112.575 45.3755 109.974 41.7365 112.416 37.8995L108.516 37.1315L103.872 36.7505L101.172 36.9935C99.651 38.1095 98.637 40.3805 98.148 41.6315C97.659 42.8825 96.921 45.4295 99.1351 48.0335Z" fill="white"/>
<path d="M88.728 51.459L101.346 52.308L107.76 66.528L95.706 65.409L88.728 51.459Z" fill="#1D3A58"/>
<path opacity="0.1" d="M88.728 51.459L101.346 52.308L107.76 66.528L95.706 65.409L88.728 51.459Z" fill="black"/>
<path opacity="0.15" d="M100.404 61.2959C100.586 61.7688 100.891 62.1848 101.287 62.5011C101.683 62.8175 102.156 63.0227 102.657 63.0959C104.328 63.3149 105.936 62.4959 105.936 62.4959L105.399 61.2959H100.404Z" fill="black"/>
<path opacity="0.15" d="M92.661 52.9383L92.472 52.5003C92.37 52.2573 93.072 52.1103 94.041 52.1733L95.898 52.2903C96.87 52.3533 97.74 52.5903 97.842 52.8423L98.031 53.2803L92.661 52.9383Z" fill="black"/>
<path d="M91.5 51.3719C91.434 51.2189 91.713 51.1229 92.121 51.1559L92.859 51.2159C92.859 51.2159 92.46 50.2649 94.08 50.3159C95.7 50.3669 96.258 51.4229 96.258 51.4229L97.047 51.4919C97.482 51.5279 97.899 51.6809 97.977 51.8279L98.121 52.0949L91.623 51.6569L91.5 51.3719Z" fill="#444F54"/>
<path d="M92.442 51.7019C93.042 51.7289 93.285 51.7589 93.444 52.1339C93.627 52.5599 93.729 52.8779 93.729 52.8779L96.606 53.0759C96.606 53.0759 96.366 52.5359 96.282 52.3259C96.198 52.1159 96.264 51.9629 96.723 51.9929V51.8129L92.223 51.5459L92.442 51.7019Z" fill="#444F54"/>
<path d="M92.5921 52.9954C92.5921 52.9954 92.5111 52.8004 92.4061 52.5574C92.3011 52.3144 93.0061 52.1674 93.9751 52.2304L95.8321 52.3474C96.8041 52.4104 97.6741 52.6474 97.7761 52.8994L97.9651 53.3374L92.5921 52.9954Z" fill="#1D3A58"/>
<path d="M101.832 59.3343C102.679 59.2306 103.503 58.9916 104.274 58.6263C103.804 58.5576 103.344 58.4327 102.903 58.2543C102.701 58.18 102.535 58.032 102.437 57.84C102.34 57.648 102.319 57.4262 102.378 57.2193C102.447 57.0483 102.861 57.2553 103.611 57.2193C104.571 57.1743 105.216 57.0093 106.233 57.2193C106.611 57.2973 107.133 57.5613 107.469 57.3693C109.359 56.2743 114.345 52.7463 114.747 52.3173L112.533 45.6813C112.533 45.6813 109.479 42.0633 111.9 37.8003C114.237 37.9893 115.8 38.3223 116.928 42.3213C118.11 46.5213 119.757 52.0023 119.682 53.7213C119.607 55.4403 115.056 57.2493 111.651 58.9443C110.214 59.6583 107.838 61.0233 106.908 61.5063C103.683 63.1863 102.108 63.0213 100.998 61.9353C99.2131 60.2103 99.9001 59.5773 101.832 59.3343Z" fill="#FFA8A7"/>
<path d="M116.373 35.1453C115.218 35.1445 114.111 34.6852 113.295 33.8684C112.479 33.0516 112.02 31.9441 112.02 30.7893V22.8003C113.175 22.8011 114.282 23.2604 115.098 24.0772C115.915 24.894 116.373 26.0015 116.373 27.1563V35.1453Z" fill="#1D3A58"/>
<path opacity="0.6" d="M116.373 35.1453C115.218 35.1445 114.111 34.6852 113.295 33.8684C112.479 33.0516 112.02 31.9441 112.02 30.7893V22.8003C113.175 22.8011 114.282 23.2604 115.098 24.0772C115.915 24.894 116.373 26.0015 116.373 27.1563V35.1453Z" fill="black"/>
<path d="M98.5231 28.7162C98.1495 28.0842 97.9066 27.3836 97.8087 26.656C97.7107 25.9284 97.7599 25.1885 97.9531 24.4802V24.4562C98.8531 21.3002 101.46 18.9572 105.015 18.9302C106.126 18.9177 107.228 19.1338 108.252 19.5653C109.276 19.9968 110.2 20.6343 110.967 21.4382C110.959 21.3198 110.972 21.201 111.006 21.0872C111.049 20.9563 111.118 20.8354 111.209 20.7316C111.299 20.6278 111.41 20.5432 111.534 20.4828C111.658 20.4224 111.792 20.3874 111.93 20.38C112.068 20.3725 112.205 20.3926 112.335 20.4392L111.87 21.9392C111.998 21.7696 112.173 21.6421 112.374 21.5732C112.504 21.5278 112.642 21.5088 112.78 21.5175C112.918 21.5262 113.053 21.5624 113.176 21.6239C113.3 21.6854 113.41 21.771 113.5 21.8756C113.59 21.9803 113.658 22.1018 113.7 22.2332L112.02 22.8002C112.732 23.9839 113.113 25.3369 113.124 26.7182V27.0002C113.123 28.7682 112.421 30.4635 111.171 31.714C109.921 32.9644 108.226 33.6676 106.458 33.6692H104.292C101.829 33.6662 99.6811 30.6902 98.5231 28.7162Z" fill="#1D3A58"/>
<g opacity="0.55">
<path opacity="0.55" d="M98.5231 28.7162C98.1495 28.0842 97.9066 27.3836 97.8087 26.656C97.7107 25.9284 97.7599 25.1885 97.9531 24.4802V24.4562C98.8531 21.3002 101.46 18.9572 105.015 18.9302C106.126 18.9177 107.228 19.1338 108.252 19.5653C109.276 19.9968 110.2 20.6343 110.967 21.4382C110.959 21.3198 110.972 21.201 111.006 21.0872C111.049 20.9563 111.118 20.8354 111.209 20.7316C111.299 20.6278 111.41 20.5432 111.534 20.4828C111.658 20.4224 111.792 20.3874 111.93 20.38C112.068 20.3725 112.205 20.3926 112.335 20.4392L111.87 21.9392C111.998 21.7696 112.173 21.6421 112.374 21.5732C112.504 21.5278 112.642 21.5088 112.78 21.5175C112.918 21.5262 113.053 21.5624 113.176 21.6239C113.3 21.6854 113.41 21.771 113.5 21.8756C113.59 21.9803 113.658 22.1018 113.7 22.2332L112.02 22.8002C112.732 23.9839 113.113 25.3369 113.124 26.7182V27.0002C113.123 28.7682 112.421 30.4635 111.171 31.714C109.921 32.9644 108.226 33.6676 106.458 33.6692H104.292C101.829 33.6662 99.6811 30.6902 98.5231 28.7162Z" fill="black"/>
</g>
<path d="M100.359 23.7004C99.483 24.1864 98.733 24.8224 98.715 29.3764C98.7 33.2344 99.915 34.2214 100.545 34.5124C101.175 34.8034 102.381 34.6714 103.563 34.5124L103.533 36.4114C102.54 38.1658 102.209 40.2179 102.6 42.1954C105.021 40.3204 108.651 37.1464 108.651 37.1464L108.768 31.7974C108.768 31.7974 109.44 32.4904 110.643 31.4974C111.636 30.6754 112.002 29.2564 111.267 28.4674C111.076 28.2807 110.843 28.1418 110.588 28.0623C110.333 27.9828 110.063 27.9648 109.799 28.0099C109.536 28.055 109.287 28.1618 109.073 28.3216C108.858 28.4815 108.685 28.6897 108.567 28.9294C106.044 28.9294 105.087 25.7194 104.925 23.9674C103.53 22.5214 101.826 26.3074 100.359 23.7004Z" fill="#FFA8A7"/>
<path d="M102.558 42.1952L107.7 37.9142C108.132 37.5542 108.657 37.1702 108.669 36.6092L108.687 35.8232C108.903 36.0894 109.065 36.3951 109.164 36.7232C109.404 37.3952 109.764 38.6342 108.12 40.1102C106.344 41.7002 102.558 42.1952 102.558 42.1952Z" fill="#1D3A58"/>
<path d="M103.551 35.8232C103.127 35.9965 102.739 36.2502 102.411 36.5702C101.883 37.0802 100.797 38.3282 101.043 39.9212C101.115 40.3875 101.289 40.8324 101.55 41.2251C101.812 41.6178 102.156 41.9488 102.558 42.1952C102.404 41.175 102.404 40.1375 102.558 39.1172C102.768 38.1732 103.096 37.2591 103.533 36.3962L103.551 35.8232Z" fill="#1D3A58"/>
<path d="M108.201 30.396L108.801 28.419C108.249 28.23 107.496 28.368 107.457 28.935C107.418 29.565 107.652 30.207 108.201 30.396Z" fill="#1D3A58"/>
<path opacity="0.55" d="M108.201 30.396L108.801 28.419C108.249 28.23 107.496 28.368 107.457 28.935C107.418 29.565 107.652 30.207 108.201 30.396Z" fill="black"/>
<path d="M99.3241 23.4C99.3241 23.4 99.9511 27 105 27.12V23.019L99.3241 23.4Z" fill="#1D3A58"/>
<path opacity="0.55" d="M99.3241 23.4C99.3241 23.4 99.9511 27 105 27.12V23.019L99.3241 23.4Z" fill="black"/>
<path d="M102.813 28.4492C102.81 28.5425 102.834 28.6347 102.883 28.7144C102.932 28.7941 103.003 28.8577 103.087 28.8974C103.172 28.9371 103.266 28.9511 103.358 28.9377C103.451 28.9243 103.537 28.8841 103.607 28.822C103.677 28.76 103.727 28.6788 103.751 28.5886C103.775 28.4984 103.772 28.4031 103.742 28.3145C103.713 28.226 103.658 28.148 103.584 28.0904C103.511 28.0327 103.422 27.9979 103.329 27.9902C103.265 27.9862 103.201 27.9949 103.14 28.0158C103.079 28.0367 103.023 28.0695 102.975 28.1121C102.927 28.1548 102.888 28.2066 102.861 28.2644C102.833 28.3223 102.817 28.3851 102.813 28.4492V28.4492Z" fill="#444F54"/>
<path d="M103.053 31.8242L101.742 32.2022C101.763 32.2899 101.802 32.3724 101.856 32.4448C101.91 32.5172 101.977 32.5781 102.055 32.6237C102.133 32.6694 102.219 32.6989 102.309 32.7104C102.398 32.722 102.489 32.7155 102.576 32.6912C102.752 32.6363 102.9 32.5154 102.989 32.3538C103.078 32.1921 103.101 32.0024 103.053 31.8242V31.8242Z" fill="#F28F8F"/>
<path d="M99.204 26.9464L100.2 26.3044C100.161 26.2382 100.11 26.1805 100.048 26.135C99.9861 26.0895 99.9157 26.057 99.841 26.0396C99.7663 26.0222 99.6889 26.0202 99.6134 26.0338C99.5379 26.0473 99.466 26.0761 99.402 26.1184C99.2691 26.2047 99.1745 26.3388 99.1377 26.4929C99.1008 26.647 99.1246 26.8093 99.204 26.9464V26.9464Z" fill="#444F54"/>
<path d="M99.147 28.1043C99.1438 28.1978 99.168 28.2901 99.2168 28.3699C99.2656 28.4496 99.3368 28.5133 99.4215 28.5529C99.5062 28.5926 99.6006 28.6065 99.6931 28.5929C99.7856 28.5793 99.8721 28.5388 99.9418 28.4764C100.011 28.4141 100.061 28.3326 100.085 28.2422C100.109 28.1518 100.105 28.0563 100.075 27.9678C100.045 27.8792 99.9901 27.8015 99.9162 27.7441C99.8423 27.6868 99.7533 27.6524 99.66 27.6453C99.5962 27.6417 99.5322 27.6507 99.4719 27.6718C99.4115 27.6929 99.3559 27.7257 99.3083 27.7683C99.2606 27.811 99.2218 27.8626 99.1941 27.9203C99.1665 27.9779 99.1505 28.0405 99.147 28.1043Z" fill="#444F54"/>
<path d="M101.463 27.9902L101.406 31.0982L99.9091 30.5882L101.463 27.9902Z" fill="#F28F8F"/>
<path d="M103.581 34.6292C104.805 34.5002 107.334 33.8492 107.751 32.8682C107.584 33.3638 107.27 33.797 106.851 34.1102C106.083 34.7312 103.584 35.3882 103.584 35.3882L103.581 34.6292Z" fill="#F28F8F"/>
<path d="M73.119 51.7467C73.032 51.5637 73.059 51.3807 72.933 51.2067C72.8199 51.0915 72.6929 50.9907 72.555 50.9067C72.3218 50.6742 72.1336 50.4006 72 50.0997C71.9371 50.0043 71.8523 49.9253 71.7526 49.8694C71.6529 49.8136 71.5412 49.7825 71.427 49.7787C70.74 49.7577 70.128 50.5617 69.804 51.0357C69.5666 51.3508 69.2972 51.6403 69 51.8997C68.721 51.9267 68.493 51.3627 67.995 50.9037C67.311 50.2767 66.441 50.4087 66.708 50.8887C66.858 51.1617 67.458 51.7887 67.632 52.5837C67.737 53.0577 67.956 53.9217 67.677 54.3987L70.107 57.1287C70.776 56.6877 71.586 56.2497 72.156 55.7997C72.8458 55.3185 73.4348 54.707 73.89 53.9997C73.966 53.8956 74.0187 53.7763 74.0445 53.65C74.0704 53.5237 74.0689 53.3934 74.04 53.2677C73.995 53.1447 73.905 53.0397 73.86 52.9167C73.791 52.7247 73.83 52.4997 73.731 52.3167C73.593 52.0737 73.242 52.0017 73.119 51.7467Z" fill="#B16668"/>
<path d="M44.322 57.15C44.322 57.15 44.445 56.925 44.544 56.769C45.924 54.579 47.103 53.571 49.251 54.237C51.399 54.903 59.19 60.054 59.19 60.054C63.69 57.3 65.829 55.854 67.674 54.399C69.129 53.256 72.453 55.455 70.374 56.946C67.893 58.716 62.34 65.073 60.732 65.646C59.124 66.219 44.322 57.15 44.322 57.15Z" fill="#B16668"/>
<path d="M44.322 57.1499C44.5702 56.6064 44.8716 56.0888 45.222 55.6049C45.87 54.6749 46.8 53.8049 48.429 54.0539C50.058 54.3029 51.906 55.1519 54.369 56.6519C56.832 58.1519 59.193 59.5559 59.193 59.5559L65.223 56.2019L67.674 59.3189C67.674 59.3189 63.6 63.7049 61.8 65.1389C60 66.5729 60.561 66.2609 57.93 65.0909C55.299 63.9209 44.322 57.1499 44.322 57.1499Z" fill="#EBEBEB"/>
<path d="M66.2491 60.8218C65.0491 60.2728 63.5011 58.8238 63.4651 57.1798L66.8821 55.0078C66.8581 56.1808 68.4991 57.7558 69.4231 57.7078L66.2491 60.8218Z" fill="#E0E0E0"/>
<path d="M46.965 115.644C46.9116 115.644 46.8586 115.634 46.8091 115.614C46.7596 115.594 46.7146 115.564 46.6767 115.526C46.6388 115.489 46.6087 115.444 46.5881 115.395C46.5676 115.345 46.557 115.292 46.557 115.239V89.0608C46.557 88.9526 46.6 88.8488 46.6765 88.7723C46.753 88.6958 46.8568 88.6528 46.965 88.6528C47.0732 88.6528 47.177 88.6958 47.2535 88.7723C47.33 88.8488 47.373 88.9526 47.373 89.0608V115.239C47.373 115.292 47.3624 115.345 47.3419 115.395C47.3214 115.444 47.2913 115.489 47.2533 115.526C47.2154 115.564 47.1704 115.594 47.1209 115.614C47.0714 115.634 47.0184 115.644 46.965 115.644V115.644Z" fill="#455A64"/>
<path d="M63.162 106.116C63.0803 106.116 63.0005 106.091 62.9331 106.045C62.8656 105.999 62.8136 105.934 62.784 105.858L54.756 85.5417C54.7311 85.4911 54.7169 85.436 54.7143 85.3797C54.7117 85.3234 54.7208 85.2672 54.7411 85.2146C54.7613 85.162 54.7922 85.1142 54.8319 85.0741C54.8715 85.0341 54.919 85.0027 54.9714 84.9819C55.0238 84.9611 55.0799 84.9514 55.1362 84.9534C55.1925 84.9554 55.2478 84.969 55.2986 84.9934C55.3494 85.0178 55.3946 85.0524 55.4313 85.0952C55.468 85.1379 55.4955 85.1878 55.512 85.2417L63.54 105.561C63.5599 105.61 63.5698 105.663 63.5691 105.717C63.5684 105.77 63.5572 105.823 63.536 105.872C63.5148 105.921 63.4841 105.966 63.4456 106.003C63.4072 106.04 63.3618 106.069 63.312 106.089C63.264 106.107 63.2132 106.116 63.162 106.116V106.116Z" fill="#455A64"/>
<path d="M62.1991 103.677C62.1428 103.677 62.0871 103.666 62.0354 103.644C61.9837 103.622 61.9373 103.589 61.8991 103.548L46.9621 87.7437L32.0521 103.482C32.0154 103.521 31.9713 103.552 31.9224 103.574C31.8735 103.596 31.8208 103.608 31.7672 103.61C31.7136 103.611 31.6603 103.602 31.6103 103.582C31.5603 103.563 31.5147 103.534 31.4761 103.497C31.3985 103.422 31.3535 103.32 31.3507 103.212C31.3479 103.104 31.3875 103 31.4611 102.921L46.6681 86.8707C46.7064 86.8296 46.7528 86.7968 46.8045 86.7746C46.8561 86.7524 46.9118 86.7412 46.9681 86.7417C47.0242 86.7416 47.0798 86.753 47.1314 86.7751C47.183 86.7973 47.2295 86.8299 47.2681 86.8707L62.4991 102.99C62.5733 103.068 62.6134 103.173 62.6106 103.281C62.6078 103.389 62.5623 103.491 62.4841 103.566C62.4074 103.639 62.305 103.679 62.1991 103.677Z" fill="#455A64"/>
<path d="M30.768 106.116C30.7178 106.115 30.6681 106.106 30.621 106.089C30.521 106.048 30.4407 105.971 30.3975 105.872C30.3543 105.773 30.3516 105.661 30.39 105.561L38.418 85.2416C38.4634 85.1497 38.5417 85.0782 38.6374 85.0414C38.7331 85.0046 38.8391 85.0051 38.9344 85.0429C39.0297 85.0807 39.1073 85.153 39.1517 85.2454C39.1961 85.3378 39.2041 85.4436 39.174 85.5416L31.149 105.858C31.1189 105.934 31.0664 105.999 30.9984 106.045C30.9304 106.091 30.8501 106.116 30.768 106.116V106.116Z" fill="#455A64"/>
<path d="M62.61 103.05L63.669 105.849C63.6718 105.873 63.6718 105.897 63.669 105.921V105.972C63.6379 106.048 63.5804 106.111 63.507 106.149C63.4069 106.199 63.2965 106.225 63.1845 106.225C63.0724 106.225 62.962 106.199 62.862 106.149C62.8062 106.12 62.7618 106.074 62.736 106.017V106.017V105.981L61.752 103.353L62.61 103.05Z" fill="#1D3A58"/>
<path d="M31.3231 103.05L30.2611 105.849C30.2582 105.873 30.2582 105.897 30.2611 105.921C30.258 105.938 30.258 105.955 30.2611 105.972C30.2897 106.049 30.3465 106.112 30.4201 106.149C30.5201 106.199 30.6306 106.225 30.7426 106.225C30.8546 106.225 30.965 106.199 31.0651 106.149C31.1208 106.12 31.1652 106.074 31.1911 106.017V106.017V105.981L32.1751 103.353L31.3231 103.05Z" fill="#1D3A58"/>
<path d="M47.4361 113.211V115.527C47.4319 115.568 47.4169 115.608 47.3927 115.641C47.3685 115.675 47.3359 115.702 47.2981 115.719C47.1956 115.772 47.0819 115.8 46.9666 115.8C46.8512 115.8 46.7375 115.772 46.6351 115.719C46.5969 115.702 46.5639 115.676 46.5396 115.642C46.5154 115.608 46.5006 115.569 46.4971 115.527V113.211C46.6417 113.134 46.8029 113.094 46.9666 113.094C47.1303 113.094 47.2915 113.134 47.4361 113.211Z" fill="#1D3A58"/>
<path d="M65.1721 85.2662C65.1721 84.5372 64.5301 83.7662 63.1801 82.8842C60.6841 81.2642 53.421 77.2082 49.929 75.2732C49.9267 75.2665 49.9228 75.2606 49.9175 75.2558C49.9123 75.2511 49.9059 75.2478 49.8991 75.2462C47.1991 73.6142 46.395 66.6542 44.535 60.7532C43.902 58.7402 43.125 57.6032 42.204 57.0692C41.985 56.9402 41.181 56.4992 41.004 56.3912C39.18 55.2962 36.783 56.6102 33.804 58.2422C31.056 59.7422 28.908 61.6742 28.476 66.7832C28.212 69.8942 28.476 75.8372 29.094 80.3432C30.009 87.8702 31.131 87.8822 32.76 89.1422C35.568 91.3112 41.886 94.3562 44.55 95.4032C49.38 97.3052 53.328 94.3742 56.268 92.9222C58.9677 91.557 61.5735 90.0136 64.068 88.3022C64.806 87.7682 65.187 87.2282 65.178 86.6582C65.166 86.4272 65.1721 85.5002 65.1721 85.2662Z" fill="#444F54"/>
<path d="M56.262 91.5179C58.9616 90.1527 61.5674 88.6093 64.062 86.8979C65.736 85.6829 65.583 84.4409 63.183 82.8839C59.85 80.7209 48.012 74.2139 48.012 74.2139C48.012 74.2139 30.837 84.3509 31.575 86.2139C32.313 88.0769 41.196 92.6729 44.547 93.9929C49.374 95.9009 53.322 92.9699 56.262 91.5179Z" fill="#455A64"/>
<path d="M42.096 56.9999C40.296 56.0519 37.938 57.3419 35.034 58.9349C33.171 59.9549 31.584 61.1639 30.621 63.4349L29.4 62.7239C30.363 60.4709 31.947 59.2619 33.801 58.2419C36.786 56.6099 39.18 55.2989 41.001 56.3909C41.16 56.4839 41.793 56.8349 42.096 56.9999Z" fill="#455A64"/>
<path d="M35.031 58.9407C39.498 56.4957 42.645 54.7617 44.535 60.7407C46.395 66.6417 47.211 73.6017 49.899 75.2337C49.899 75.2337 50.718 75.3027 44.034 80.3517C41.907 81.9597 39.327 83.2767 37.632 84.2847C34.311 86.2647 32.298 87.0597 31.98 86.7957C30.222 85.3377 29.28 72.5787 29.703 67.4697C30.126 62.3607 32.283 60.4467 35.031 58.9407Z" fill="#1D3A58"/>
<path d="M55.158 114.207H58.488V108.414H55.158V114.207Z" fill="#B16668"/>
<path d="M58.479 113.289V113.004C58.908 113.004 60.432 116.229 61.89 117.558C63.051 118.617 65.091 120.066 65.04 121.068C64.977 122.364 63.129 122.937 61.536 122.568C60.291 122.268 58.515 121.524 57.663 120.603C56.811 119.682 56.532 118.473 56.085 117.87C55.638 117.267 54.615 116.595 54.375 115.896C54.243 115.515 54.399 114.675 54.585 113.967C54.756 113.316 54.939 112.602 55.161 112.662V113.064C55.428 113.364 56.166 113.664 57 113.685C57.54 113.7 58.482 113.7 58.479 113.289Z" fill="#444F54"/>
<path d="M63.9691 109.971H67.2991V104.178H63.9691V109.971Z" fill="#B16668"/>
<path d="M67.293 109.056V108.756C67.719 108.756 69.246 111.981 70.704 113.313C71.865 114.372 73.905 115.818 73.854 116.823C73.791 118.116 71.943 118.692 70.35 118.323C69.105 118.023 67.329 117.276 66.477 116.355C65.625 115.434 65.346 114.225 64.899 113.622C64.452 113.019 63.429 112.347 63.189 111.651C63.054 111.267 63.213 110.43 63.399 109.722C63.57 109.071 63.753 108.354 63.975 108.417V108.816C64.242 109.116 64.98 109.416 65.814 109.44C66.351 109.464 67.296 109.467 67.293 109.056Z" fill="#444F54"/>
<path d="M35.967 77.4628C36.198 82.7458 35.715 84.1108 41.397 88.2958C44.079 90.2728 52.797 95.2168 52.797 95.2168C52.7682 97.1525 52.8443 99.0883 53.025 101.016C53.304 104.301 55.032 111.108 55.032 111.108C55.032 111.108 57.189 112.035 58.731 111.057C58.731 111.057 59.967 93.1858 59.679 91.9708C59.475 91.1098 53.289 85.4938 53.289 85.4938L61.689 90.7528C61.5371 92.1733 61.5271 93.6053 61.659 95.0278C62.148 99.2278 62.637 101.61 63.798 106.917C63.798 106.917 66.24 107.793 67.461 106.845C67.461 106.845 68.904 88.8448 68.484 87.3028C67.338 83.0728 54.264 76.8238 52.257 75.1288C51.126 74.1628 35.967 77.4628 35.967 77.4628Z" fill="#1D3A58"/>
<path opacity="0.4" d="M35.967 77.4628C36.198 82.7458 35.715 84.1108 41.397 88.2958C44.079 90.2728 52.797 95.2168 52.797 95.2168C52.7682 97.1525 52.8443 99.0883 53.025 101.016C53.304 104.301 55.032 111.108 55.032 111.108C55.032 111.108 57.189 112.035 58.731 111.057C58.731 111.057 59.967 93.1858 59.679 91.9708C59.475 91.1098 53.289 85.4938 53.289 85.4938L61.689 90.7528C61.5371 92.1733 61.5271 93.6053 61.659 95.0278C62.148 99.2278 62.637 101.61 63.798 106.917C63.798 106.917 66.24 107.793 67.461 106.845C67.461 106.845 68.904 88.8448 68.484 87.3028C67.338 83.0728 54.264 76.8238 52.257 75.1288C51.126 74.1628 35.967 77.4628 35.967 77.4628Z" fill="black"/>
<path d="M41.004 54.3628C40.851 54.4018 37.3441 55.0108 37.3441 55.0108C35.8441 55.3498 34.8931 57.2848 34.8931 57.2848C34.7211 61.4136 35.125 65.5463 36.0931 69.5638L35.8261 77.9998C38.1361 80.5138 51.0541 80.6038 52.4761 75.2608C52.4761 75.2608 52.0321 63.5128 51.8221 60.9538C51.5071 57.0538 50.0971 54.7738 48.0811 54.1978C48.0811 54.1978 46.6201 54.1978 46.0891 54.2188L41.004 54.3628Z" fill="#FAFAFA"/>
<path d="M47.376 57.4919C47.025 58.3229 46.92 59.2199 46.08 59.7479C44.91 59.8769 43.785 58.4759 43.14 57.7979L44.997 56.7329L45.915 58.4759L46.479 56.6489L47.376 57.4919Z" fill="#1D3A58"/>
<path d="M50.874 42.3268C51.036 44.9398 49.203 47.1808 46.782 47.3278C44.361 47.4748 42.264 45.4828 42.105 42.8698C41.946 40.2568 43.773 38.0188 46.197 37.8688C48.621 37.7188 50.7 39.7138 50.874 42.3268Z" fill="#444F54"/>
<path d="M37.9411 46.0644C37.3621 43.6644 37.2091 42.5844 37.7611 41.9454C37.9362 41.7439 38.1551 41.5851 38.4011 41.4811C38.647 41.3771 38.9134 41.3307 39.1801 41.3454L39.8431 45.6804L40.6291 48.7644L40.8571 51.4974C40.6043 51.5037 40.355 51.4379 40.1383 51.3078C39.9215 51.1776 39.7463 50.9885 39.6331 50.7624C39.2551 50.1114 38.3971 47.4894 38.0701 46.4724H38.0401C38.0071 46.3344 37.9741 46.1994 37.9411 46.0704V46.0644Z" fill="#444F54"/>
<path d="M40.4071 46.5479C40.1311 46.7339 39.6901 46.2119 39.3151 45.8639C38.9401 45.5159 37.7581 45.0839 37.2601 46.3289C36.7621 47.5739 37.9411 49.1579 38.8651 49.3859C40.4551 49.7789 40.6291 48.7649 40.6291 48.7649L41.1001 54.3869C42.0454 55.5031 43.1467 56.4771 44.3701 57.2789C44.6701 57.4769 44.8801 57.0569 45.2161 57.2189C45.5161 57.3599 45.7291 58.1189 45.9181 58.4759C46.4701 57.5129 46.8181 54.9389 46.1671 53.9219L46.0561 52.2089C46.7548 52.2772 47.4588 52.2701 48.1561 52.1879C49.2931 51.9389 49.9561 50.9879 50.2291 49.7249C50.6641 47.6969 50.9041 46.0139 50.1571 42.3719C49.3021 38.1899 44.2681 38.1719 41.6731 40.0409C39.0781 41.9099 40.4071 46.5479 40.4071 46.5479Z" fill="#B16668"/>
<path d="M40.4371 47.0277C40.2931 47.0277 39.6901 46.1667 39.3151 45.8637C38.7931 45.4467 39.1801 41.3457 39.1801 41.3457C39.1801 41.3457 38.5801 39.8457 39.4951 38.7567C40.4791 37.5897 42.3871 37.7067 43.7551 37.6107C45.5281 37.4877 47.2501 37.4037 48.7771 36.3777C48.866 36.2966 48.971 36.2352 49.0852 36.1974C49.1995 36.1597 49.3204 36.1465 49.4401 36.1587C50.2411 36.3927 49.5811 37.9227 49.4791 38.3847C49.8056 38.3166 50.1062 38.1575 50.3461 37.9257C50.5351 37.7637 50.7811 37.5207 50.8741 37.9257C51.2371 39.4407 50.3161 40.8477 48.9661 41.4867C48.0241 41.9307 46.9501 41.9697 45.9121 41.9367C45.1951 41.9127 44.4781 41.8107 43.7671 41.8287C43.1731 41.8317 42.5793 41.8046 41.9881 41.7477C41.4541 41.7087 41.3701 42.2307 41.1721 43.6497C40.9981 44.8857 40.9171 46.9887 40.4371 47.0277Z" fill="#444F54"/>
<path d="M39.201 41.6605L37.416 40.8415C37.464 40.7218 37.5358 40.6131 37.627 40.5219C37.7183 40.4307 37.827 40.359 37.9468 40.3111C38.0665 40.2631 38.1947 40.2399 38.3237 40.2429C38.4526 40.2459 38.5796 40.2751 38.697 40.3285C38.9366 40.4427 39.1228 40.6451 39.2167 40.8933C39.3106 41.1415 39.305 41.4164 39.201 41.6605V41.6605Z" fill="#444F54"/>
<path d="M46.053 52.1997C46.053 52.1997 43.878 51.7947 42.954 51.3717C42.4098 51.1305 41.9516 50.7298 41.64 50.2227C41.8068 50.7392 42.0762 51.2167 42.432 51.6267C43.137 52.4217 46.095 52.8837 46.095 52.8837L46.053 52.1997Z" fill="#9A4A4D"/>
<path d="M45.873 45.7016C45.8689 45.8027 45.8351 45.9005 45.7758 45.9826C45.7165 46.0647 45.6344 46.1275 45.5396 46.1633C45.4449 46.1991 45.3417 46.2062 45.243 46.1837C45.1442 46.1612 45.0543 46.1102 44.9843 46.037C44.9144 45.9638 44.8675 45.8716 44.8496 45.7719C44.8317 45.6722 44.8434 45.5695 44.8835 45.4765C44.9236 45.3835 44.9901 45.3043 45.0748 45.2488C45.1596 45.1934 45.2587 45.1641 45.36 45.1646C45.429 45.1661 45.4969 45.1812 45.56 45.2091C45.6231 45.2369 45.6801 45.2769 45.7278 45.3268C45.7754 45.3766 45.8127 45.4354 45.8377 45.4997C45.8626 45.564 45.8746 45.6326 45.873 45.7016V45.7016Z" fill="#444F54"/>
<path d="M45 43.8834L43.998 44.6424C43.9015 44.5039 43.8611 44.334 43.885 44.167C43.909 43.9999 43.9955 43.8481 44.127 43.7424C44.1923 43.6909 44.2675 43.6535 44.348 43.6326C44.4285 43.6116 44.5124 43.6077 44.5945 43.621C44.6766 43.6342 44.755 43.6644 44.8248 43.7096C44.8946 43.7547 44.9543 43.8139 45 43.8834Z" fill="#444F54"/>
<path d="M46.449 49.0137L47.832 49.5327C47.8023 49.6257 47.7541 49.7118 47.6903 49.7858C47.6265 49.8597 47.5483 49.92 47.4606 49.9628C47.3728 50.0057 47.2773 50.0304 47.1797 50.0354C47.0822 50.0403 46.9846 50.0255 46.893 49.9917C46.7063 49.9184 46.5555 49.7753 46.4726 49.5927C46.3898 49.4101 46.3813 49.2024 46.449 49.0137V49.0137Z" fill="#9A4A4D"/>
<path d="M49.902 43.6138L48.702 43.1818C48.7255 43.1026 48.7651 43.0291 48.8184 42.9659C48.8716 42.9027 48.9373 42.8512 49.0114 42.8146C49.0855 42.7779 49.1663 42.757 49.2488 42.7531C49.3314 42.7492 49.4138 42.7624 49.491 42.7918C49.6525 42.8492 49.7854 42.9668 49.8621 43.12C49.9387 43.2733 49.953 43.4502 49.902 43.6138V43.6138Z" fill="#444F54"/>
<path d="M49.8361 45.0745C49.8326 45.1759 49.7993 45.2739 49.7403 45.3564C49.6814 45.439 49.5995 45.5023 49.5047 45.5385C49.41 45.5747 49.3067 45.5822 49.2078 45.5601C49.1088 45.5379 49.0186 45.4871 48.9483 45.414C48.8781 45.3409 48.8309 45.2487 48.8128 45.1489C48.7946 45.0491 48.8063 44.9462 48.8463 44.8531C48.8862 44.7599 48.9528 44.6805 49.0376 44.625C49.1224 44.5694 49.2217 44.54 49.3231 44.5405C49.3919 44.5417 49.4598 44.5565 49.5229 44.584C49.586 44.6115 49.643 44.6512 49.6907 44.7008C49.7384 44.7505 49.7758 44.809 49.8007 44.8732C49.8257 44.9373 49.8377 45.0057 49.8361 45.0745V45.0745Z" fill="#444F54"/>
<path d="M47.514 45.0117L47.682 48.1047L49.296 47.5557L47.514 45.0117Z" fill="#9A4A4D"/>
<path d="M45.9001 58.4789C45.9001 58.4789 45.6451 57.2999 45.3421 56.8559C45.0391 56.4119 44.5141 56.5379 43.4131 55.9559C41.8051 55.1249 40.9921 53.6759 40.9801 53.1689V52.5239C40.8396 52.5473 40.7061 52.6017 40.5893 52.6831C40.4726 52.7646 40.3755 52.8711 40.3051 52.9949C40.0291 53.4389 39.5011 54.2669 39.2641 54.6659C39.0271 55.0649 39.8071 56.2859 41.0941 57.5399C42.0631 58.4849 43.5421 59.0579 44.0401 58.8749C44.2261 58.8029 44.9401 57.5969 45.1471 57.5399C45.3541 57.4829 45.9001 58.4789 45.9001 58.4789Z" fill="#EBEBEB"/>
<path d="M46.0861 52.8208C46.3192 52.8961 46.5287 53.0309 46.6939 53.2119C46.8591 53.3929 46.9743 53.6138 47.0281 53.8528C47.1991 54.3628 47.4241 55.5538 47.5981 56.2528C47.7721 56.9518 47.3761 58.1338 47.2801 58.2838C47.2201 58.3798 47.0641 57.6538 46.8961 57.2368C46.7281 56.8198 46.5961 57.1078 46.5451 57.1978C46.3838 57.6513 46.1661 58.0827 45.8971 58.4818C46.1036 57.9198 46.1934 57.3216 46.1611 56.7238C46.0771 55.8598 46.0891 54.2188 46.0891 54.2188L46.0861 52.8208Z" fill="#EBEBEB"/>
<path d="M46.665 58.0286C47.073 58.1486 47.433 58.5896 47.088 59.9276C46.887 60.7166 46.773 60.7616 46.773 60.7616C46.588 60.8793 46.3783 60.9527 46.1603 60.9761C45.9423 60.9995 45.7218 60.9723 45.516 60.8966C44.895 60.3266 44.268 58.9676 44.847 58.3886C45.426 57.8096 46.335 57.9296 46.665 58.0286Z" fill="#455A64"/>
<path d="M46.7729 60.7617C46.7729 60.7617 48.6659 71.2077 48.7409 72.0507C48.8159 72.8937 47.6549 75.8907 46.9409 75.9177C46.2269 75.9447 44.8019 73.2177 44.7809 72.4647C44.7599 71.7117 45.5159 60.8997 45.5159 60.8997L46.7729 60.7617Z" fill="#455A64"/>
<path d="M45.516 60.8996C45.7188 60.9899 45.9419 61.0249 46.1627 61.0012C46.3834 60.9775 46.5939 60.8959 46.773 60.7646L46.803 60.9296C46.6219 61.0749 46.4084 61.1742 46.1807 61.2191C45.9529 61.2641 45.7177 61.2533 45.495 61.1876L45.516 60.8996Z" fill="#1D3A58"/>
<path d="M42.8101 85.395V85.74C42.8099 85.9116 42.8551 86.0801 42.9409 86.2287C43.0268 86.3772 43.1503 86.5005 43.2991 86.586L52.5991 91.944C52.7477 92.0284 52.9156 92.0728 53.0866 92.0728C53.2575 92.0728 53.4255 92.0284 53.5741 91.944L70.6531 82.083C70.802 81.9977 70.9257 81.8745 71.0116 81.7259C71.0975 81.5773 71.1425 81.4086 71.1421 81.237V81L53.1001 91.425L42.8101 85.395Z" fill="#1D3A58"/>
<path d="M71.1511 81.0001L61.0261 75.1561C60.9378 75.1044 60.8373 75.0771 60.7351 75.0771C60.6328 75.0771 60.5323 75.1044 60.4441 75.1561L42.8761 85.2991C42.8561 85.3103 42.8394 85.3266 42.8279 85.3464C42.8163 85.3662 42.8102 85.3886 42.8102 85.4116C42.8102 85.4345 42.8163 85.457 42.8279 85.4767C42.8394 85.4965 42.8561 85.5128 42.8761 85.5241L53.1001 91.4251L71.1511 81.0001Z" fill="#455A64"/>
<path d="M53.004 90.5638L47.541 87.4138L63.513 78.1948L69.003 81.3268L53.004 90.5638Z" fill="#444F54"/>
<path d="M50.319 81.8006L50.418 81.8606L53.097 83.4056L57.858 80.6576L57.957 80.6006L55.179 78.9956L50.319 81.8006Z" fill="#444F54"/>
<path d="M50.4181 81.8609L53.0971 83.4059L57.8581 80.6579L55.1791 79.1099L50.4181 81.8609Z" fill="#1D3A58"/>
<path d="M53.1 91.425V92.073C53.2705 92.0737 53.4382 92.0292 53.586 91.944L70.665 82.083C70.8139 81.9977 70.9376 81.8745 71.0235 81.7259C71.1094 81.5773 71.1544 81.4086 71.154 81.237V81L53.1 91.425Z" fill="#1D3A58"/>
<path d="M53.1 91.425V92.073C53.2705 92.0737 53.4382 92.0292 53.586 91.944L70.665 82.083C70.8139 81.9977 70.9376 81.8745 71.0235 81.7259C71.1094 81.5773 71.1544 81.4086 71.154 81.237V81L53.1 91.425Z" fill="#444F54"/>
<path d="M53.373 91.5689C53.5344 91.6307 53.7076 91.6557 53.8798 91.6422C54.0521 91.6287 54.2192 91.577 54.369 91.4909L71.373 81.6749C71.5202 81.5893 71.6468 81.4724 71.7437 81.3324C71.8407 81.1924 71.9057 81.0328 71.934 80.8649L73.797 69.7649C73.8015 69.702 73.8015 69.6388 73.797 69.5759C73.7973 69.4231 73.7671 69.2717 73.7084 69.1306C73.6497 68.9895 73.5636 68.8615 73.455 68.7539L55.785 78.9539C55.6757 79.0171 55.5816 79.1036 55.5095 79.2073C55.4374 79.311 55.3891 79.4294 55.368 79.5539L53.373 91.5689Z" fill="#1D3A58"/>
<path d="M53.1 91.4252L53.217 91.4912C53.2681 91.5208 53.3213 91.5469 53.376 91.5692L55.386 79.5542C55.407 79.4297 55.4553 79.3113 55.5274 79.2076C55.5995 79.1039 55.6936 79.0174 55.803 78.9542L73.473 68.7542C73.4019 68.6844 73.3223 68.6239 73.236 68.5742L55.536 78.7952C55.4273 78.8589 55.3339 78.9456 55.2623 79.0492C55.1908 79.1529 55.1429 79.271 55.122 79.3952L53.1 91.4252Z" fill="#455A64"/>
<path d="M62.949 81.321C63.072 80.577 63.849 79.59 64.662 79.116C65.475 78.642 66.048 78.858 65.925 79.602C65.802 80.346 65.025 81.333 64.212 81.807C63.399 82.281 62.823 82.065 62.949 81.321Z" fill="#1D3A58"/>
<path d="M44.187 83.3577C42.111 82.4577 35.25 79.4367 33.087 78.2187C30.924 77.0007 30.561 76.2087 30.687 74.7927C31.038 71.2377 31.794 62.3817 32.502 59.7147C33.126 57.3777 34.002 55.5777 37.326 55.0107C38.349 56.0577 38.466 61.2567 37.026 63.5397C36.534 66.5907 36.066 73.9797 36.066 73.9797C36.066 73.9797 38.814 75.8487 42.243 77.9127C43.743 78.8127 45.264 79.7607 46.488 80.1807C47.436 80.5047 49.128 80.7177 50.172 81.3597C50.613 81.6297 52.872 83.8917 53.232 84.4767C53.592 85.0617 53.811 86.2587 52.611 86.6367C51.513 86.9847 50.622 86.5167 49.731 85.9047C49.3091 85.6044 48.9082 85.2756 48.531 84.9207C47.642 85.0181 46.7445 84.8401 45.96 84.4107C45.321 84.0267 44.187 83.3577 44.187 83.3577Z" fill="#B16668"/>
<path d="M38.022 54.8999C38.022 54.8999 34.851 55.1219 33.495 56.9249C32.055 58.8419 31.548 63.2519 31.131 67.4789C30.714 71.7059 30.501 75.2399 30.678 76.3259C30.831 77.2649 31.173 77.7389 33.6 78.9329C35.4 79.7999 41.538 82.1999 41.538 82.1999C41.538 82.1999 42.069 79.8149 43.41 78.5999L36.096 73.9799L37.506 63.9419C37.506 63.9419 38.679 61.3439 38.625 58.6499C38.571 55.9559 38.022 54.8999 38.022 54.8999Z" fill="#EBEBEB"/>
<path d="M40.347 81.7347C40.287 80.4087 40.902 79.0767 42.111 77.7417L45.741 79.8027C44.805 79.9467 43.83 82.6287 44.301 83.4237L40.347 81.7347Z" fill="#E0E0E0"/>
</g>
<defs>
<filter id="filter0_d_368_1702" x="-4" y="0" width="158" height="158" filterUnits="userSpaceOnUse" color-interpolation-filters="sRGB">
<feFlood flood-opacity="0" result="BackgroundImageFix"/>
<feColorMatrix in="SourceAlpha" type="matrix" values="0 0 0 0 0 0 0 0 0 0 0 0 0 0 0 0 0 0 127 0" result="hardAlpha"/>
<feOffset dy="4"/>
<feGaussianBlur stdDeviation="2"/>
<feComposite in2="hardAlpha" operator="out"/>
<feColorMatrix type="matrix" values="0 0 0 0 0 0 0 0 0 0 0 0 0 0 0 0 0 0 0.25 0"/>
<feBlend mode="normal" in2="BackgroundImageFix" result="effect1_dropShadow_368_1702"/>
<feBlend mode="normal" in="SourceGraphic" in2="effect1_dropShadow_368_1702" result="shape"/>
</filter>
</defs>
</svg>
