<svg width="199" height="197" viewBox="0 0 199 197" fill="none" xmlns="http://www.w3.org/2000/svg">
<path opacity="0.7" d="M174.25 41.4765C162.352 14.3492 133.795 4.13523 111.263 22.3492C102.465 29.455 96.9753 40.764 86.2018 45.3019C76.0931 49.5578 63.2873 48.3049 52.3561 50.6098C29.0782 55.4872 -2.26188 73.9929 0.129029 102.507C1.17625 114.997 9.60182 128.869 13.7668 140.556C18.5486 154.002 21.4177 170.825 34.0752 178.863C55.7751 192.663 81.9508 181.383 101.499 170.256C112.019 164.274 117.81 160.596 129.138 162.648C139.624 164.561 149.068 171.255 159.316 163.313C167.01 157.35 167.646 145.266 174.106 138.17C181.384 130.175 188.762 129.596 192.545 117.579C197.131 102.999 190.374 93.89 185.807 80.8644C181.241 67.8387 179.854 54.2392 174.25 41.4765Z" fill="url(#paint0_linear_398_1918)"/>
<path d="M133.684 42.3613H68.2711C63.755 42.3613 60.094 46.0224 60.094 50.5385V188.637C60.094 193.153 63.755 196.814 68.2711 196.814H133.684C138.2 196.814 141.861 193.153 141.861 188.637V50.5385C141.861 46.0224 138.2 42.3613 133.684 42.3613Z" fill="#263238"/>
<path d="M138.226 59.3215H63.7263V179.854H138.226V59.3215Z" fill="white" stroke="#263238" stroke-width="0.654522" stroke-miterlimit="10"/>
<g style="mix-blend-mode:multiply">
<path d="M138.226 59.4819H63.7263V64.1492H138.226V59.4819Z" fill="url(#paint1_linear_398_1918)"/>
</g>
<path d="M109.077 50.8832H92.8744C92.5819 50.8832 92.3015 50.7671 92.0947 50.5603C91.8879 50.3535 91.7717 50.073 91.7717 49.7806V49.7806C91.7717 49.4882 91.8879 49.2077 92.0947 49.0009C92.3015 48.7941 92.5819 48.678 92.8744 48.678H109.077C109.37 48.678 109.65 48.7941 109.857 49.0009C110.064 49.2077 110.18 49.4882 110.18 49.7806V49.7806C110.18 50.073 110.064 50.3535 109.857 50.5603C109.65 50.7671 109.37 50.8832 109.077 50.8832V50.8832Z" fill="url(#paint2_linear_398_1918)" stroke="#263238" stroke-width="0.654522" stroke-linecap="round" stroke-linejoin="round"/>
<path d="M105.395 186.663C105.396 185.789 105.137 184.934 104.652 184.206C104.167 183.479 103.476 182.912 102.669 182.577C101.861 182.242 100.972 182.154 100.115 182.324C99.2572 182.495 98.4694 182.916 97.8512 183.534C97.2329 184.152 96.812 184.94 96.6416 185.798C96.4712 186.655 96.5591 187.544 96.8941 188.352C97.229 189.159 97.7961 189.849 98.5234 190.335C99.2508 190.82 100.106 191.078 100.98 191.078C102.151 191.077 103.273 190.611 104.1 189.783C104.928 188.956 105.394 187.833 105.395 186.663Z" fill="url(#paint3_linear_398_1918)"/>
<path d="M103.219 184.424H98.7412V188.902H103.219V184.424Z" fill="url(#paint4_linear_398_1918)" stroke="#263238" stroke-width="0.654522" stroke-linecap="round" stroke-linejoin="round"/>
<path d="M100.593 81.4143H104.176L106.167 82.2106L127.667 104.507L128.065 106.099C128.065 106.099 128.065 109.982 128.065 112.47C128.065 112.781 128.065 113.266 128.065 113.266L105.769 137.155L104.574 137.553H100.593" stroke="url(#paint5_linear_398_1918)" stroke-width="3.704"/>
<path d="M100.991 81.4143H97.4076L95.4169 82.2106L73.9169 104.507L73.5188 106.099C73.5188 106.099 73.5188 109.982 73.5188 112.47C73.5188 112.781 73.5188 113.266 73.5188 113.266L95.815 137.155L97.0095 137.553H100.991" stroke="url(#paint6_linear_398_1918)" stroke-width="3.704"/>
<path d="M94.6201 109.285H108.157" stroke="url(#paint7_linear_398_1918)" stroke-width="1.852"/>
<path d="M82.5843 109.285L85.4408 114.68H92.1657L95.3396 109.285L92.1657 103.889H85.4408L82.5843 109.285Z" fill="url(#paint8_linear_398_1918)" stroke="url(#paint9_linear_398_1918)" stroke-width="1.94947"/>
<path d="M106.473 109.285L109.33 114.68H116.055L119.229 109.285L116.055 103.889H109.33L106.473 109.285Z" fill="url(#paint10_linear_398_1918)" stroke="url(#paint11_linear_398_1918)" stroke-width="1.94947"/>
<path d="M108.158 99.3318H121.695" stroke="url(#paint12_linear_398_1918)" stroke-width="1.852"/>
<mask id="path-14-inside-1_398_1918" fill="white">
<path d="M105.628 91.7666L109.633 99.3314L105.628 106.896H96.2837L91.8338 99.3314L96.2837 91.7666H105.628Z"/>
</mask>
<path d="M105.628 91.7666L107.674 90.6834L107.022 89.4516H105.628V91.7666ZM105.628 106.896V109.211H107.022L107.674 107.979L105.628 106.896ZM96.2837 106.896L94.2883 108.07L94.9596 109.211H96.2837V106.896ZM96.2837 91.7666V89.4516H94.9596L94.2883 90.5929L96.2837 91.7666ZM109.633 99.3314L111.679 100.415L112.253 99.3314L111.679 98.2482L109.633 99.3314ZM91.8338 99.3314L89.8384 98.1576L89.148 99.3314L89.8384 100.505L91.8338 99.3314ZM105.628 104.581H96.2837V109.211H105.628V104.581ZM96.2837 94.0816H105.628V89.4516H96.2837V94.0816ZM103.582 92.8498L107.587 100.415L111.679 98.2482L107.674 90.6834L103.582 92.8498ZM107.587 98.2482L103.582 105.813L107.674 107.979L111.679 100.415L107.587 98.2482ZM98.279 105.722L93.8292 98.1576L89.8384 100.505L94.2883 108.07L98.279 105.722ZM93.8292 100.505L98.279 92.9404L94.2883 90.5929L89.8384 98.1576L93.8292 100.505Z" fill="url(#paint13_linear_398_1918)" mask="url(#path-14-inside-1_398_1918)"/>
<path d="M93.4265 119.637H79.8895" stroke="url(#paint14_linear_398_1918)" stroke-width="1.852"/>
<mask id="path-17-inside-2_398_1918" fill="white">
<path d="M95.8387 111.674L91.8338 119.239L95.8387 126.803H105.183L109.633 119.239L105.183 111.674H95.8387Z"/>
</mask>
<path d="M95.8387 111.674L93.7927 110.591L94.4449 109.359H95.8387V111.674ZM95.8387 126.803V129.118H94.4449L93.7927 127.887L95.8387 126.803ZM105.183 126.803L107.179 127.977L106.507 129.118H105.183V126.803ZM105.183 111.674V109.359H106.507L107.179 110.5L105.183 111.674ZM91.8338 119.239L89.7878 120.322L89.2144 119.239L89.7878 118.155L91.8338 119.239ZM109.633 119.239L111.629 118.065L112.319 119.239L111.629 120.412L109.633 119.239ZM95.8387 124.488H105.183V129.118H95.8387V124.488ZM105.183 113.989H95.8387V109.359H105.183V113.989ZM97.8846 112.757L93.8798 120.322L89.7878 118.155L93.7927 110.591L97.8846 112.757ZM93.8798 118.155L97.8846 125.72L93.7927 127.887L89.7878 120.322L93.8798 118.155ZM103.188 125.63L107.638 118.065L111.629 120.412L107.179 127.977L103.188 125.63ZM107.638 120.412L103.188 112.848L107.179 110.5L111.629 118.065L107.638 120.412Z" fill="url(#paint15_linear_398_1918)" mask="url(#path-17-inside-2_398_1918)"/>
<path d="M70.6235 154.214V154.01L71.6326 153.499L71.9008 146.512L70.8024 145.989V145.784H73.1653L76.1158 152.579L79.0536 145.784H81.3016V145.989L80.2287 146.5L80.4458 153.499L81.3399 154.01V154.214H78.4022V154.01L79.3473 153.512L79.2196 147.215L76.1669 154.278H75.5921L72.5905 147.304L72.4245 153.512L73.4591 154.01V154.214H70.6235ZM82.9363 154.214V154.01L83.8431 153.588V147.687L82.9363 147.266V147.062H88.3902V148.875H88.1859L87.5728 147.7H84.9288V150.191H86.8575L87.2407 149.322H87.4451V151.685H87.2407L86.8575 150.83H84.9288V153.576H87.8666L88.5052 152.196H88.7096V154.214H82.9363ZM91.8378 154.214V154.01L92.9746 153.588V147.7H91.0076L90.3817 149.195H90.1773V147.062H96.8703V149.195H96.6659L96.0273 147.7H94.0603V153.588L95.2098 154.01V154.214H91.8378ZM97.4832 154.214V154.01L98.1346 153.678L100.97 146.998H101.507L104.329 153.665L105.07 154.01V154.214H102.286V154.01L103.18 153.652L102.375 151.711H99.7184L98.9137 153.678L99.8589 154.01V154.214H97.4832ZM99.9866 151.072H102.107L101.034 148.492L99.9866 151.072ZM106.324 154.214V154.01L107.244 153.588V147.687L106.324 147.266V147.062H109.159C111.109 147.062 112.084 147.739 112.084 149.092C112.084 149.527 111.952 149.901 111.688 150.216C111.424 150.532 111.058 150.774 110.59 150.945C110.13 151.106 109.598 151.187 108.993 151.187H108.329V153.588L109.377 154.01V154.214H106.324ZM108.329 147.7V150.549H109.032C109.619 150.549 110.083 150.425 110.424 150.178C110.773 149.923 110.948 149.565 110.948 149.105C110.948 148.603 110.769 148.245 110.411 148.032C110.062 147.811 109.577 147.7 108.955 147.7H108.329ZM112.152 154.214V154.01L112.803 153.678L115.639 146.998H116.175L118.998 153.665L119.739 154.01V154.214H116.954V154.01L117.849 153.652L117.044 151.711H114.387L113.582 153.678L114.528 154.01V154.214H112.152ZM114.655 151.072H116.776L115.703 148.492L114.655 151.072ZM123.215 154.342C122.764 154.342 122.372 154.295 122.04 154.202C121.716 154.108 121.384 153.98 121.044 153.818L120.929 152.094H121.133L121.733 153.244C121.98 153.431 122.232 153.563 122.487 153.64C122.751 153.708 123.019 153.742 123.292 153.742C123.777 153.742 124.147 153.644 124.403 153.448C124.667 153.244 124.799 152.937 124.799 152.528C124.799 152.222 124.718 151.988 124.556 151.826C124.394 151.656 124.156 151.502 123.841 151.366C123.534 151.221 123.155 151.042 122.704 150.83C122.168 150.574 121.78 150.314 121.542 150.05C121.312 149.786 121.197 149.42 121.197 148.952C121.197 148.594 121.303 148.262 121.516 147.956C121.729 147.649 122.006 147.402 122.347 147.215C122.696 147.019 123.079 146.921 123.496 146.921C123.845 146.921 124.169 146.968 124.467 147.062C124.765 147.147 125.059 147.257 125.348 147.394L125.438 149.054H125.233L124.748 148.007C124.543 147.836 124.348 147.713 124.16 147.636C123.973 147.56 123.756 147.521 123.509 147.521C123.083 147.521 122.747 147.628 122.5 147.841C122.261 148.054 122.142 148.335 122.142 148.684C122.142 148.914 122.198 149.105 122.308 149.259C122.419 149.412 122.589 149.557 122.819 149.693C123.058 149.821 123.364 149.974 123.739 150.153C124.224 150.383 124.612 150.595 124.901 150.791C125.191 150.979 125.399 151.191 125.527 151.43C125.663 151.668 125.731 151.971 125.731 152.337C125.731 152.728 125.621 153.078 125.399 153.384C125.186 153.682 124.888 153.916 124.505 154.087C124.13 154.257 123.7 154.342 123.215 154.342ZM129.489 154.342C129.038 154.342 128.646 154.295 128.314 154.202C127.991 154.108 127.658 153.98 127.318 153.818L127.203 152.094H127.407L128.008 153.244C128.254 153.431 128.506 153.563 128.761 153.64C129.025 153.708 129.293 153.742 129.566 153.742C130.051 153.742 130.422 153.644 130.677 153.448C130.941 153.244 131.073 152.937 131.073 152.528C131.073 152.222 130.992 151.988 130.83 151.826C130.669 151.656 130.43 151.502 130.115 151.366C129.809 151.221 129.43 151.042 128.978 150.83C128.442 150.574 128.054 150.314 127.816 150.05C127.586 149.786 127.471 149.42 127.471 148.952C127.471 148.594 127.578 148.262 127.79 147.956C128.003 147.649 128.28 147.402 128.621 147.215C128.97 147.019 129.353 146.921 129.77 146.921C130.119 146.921 130.443 146.968 130.741 147.062C131.039 147.147 131.333 147.257 131.622 147.394L131.712 149.054H131.507L131.022 148.007C130.818 147.836 130.622 147.713 130.434 147.636C130.247 147.56 130.03 147.521 129.783 147.521C129.357 147.521 129.021 147.628 128.774 147.841C128.535 148.054 128.416 148.335 128.416 148.684C128.416 148.914 128.472 149.105 128.582 149.259C128.693 149.412 128.863 149.557 129.093 149.693C129.332 149.821 129.638 149.974 130.013 150.153C130.498 150.383 130.886 150.595 131.175 150.791C131.465 150.979 131.673 151.191 131.801 151.43C131.937 151.668 132.005 151.971 132.005 152.337C132.005 152.728 131.895 153.078 131.673 153.384C131.46 153.682 131.162 153.916 130.779 154.087C130.405 154.257 129.975 154.342 129.489 154.342Z" fill="black"/>
<path d="M35.0581 101.678C36.43 93.227 30.6909 85.2636 22.2394 83.8918C13.788 82.5199 5.82459 88.259 4.45273 96.7105C3.08087 105.162 8.82 113.125 17.2715 114.497C25.7229 115.869 33.6863 110.13 35.0581 101.678Z" fill="#407BFF"/>
<path opacity="0.6" d="M35.0581 101.678C36.43 93.227 30.6909 85.2636 22.2394 83.8918C13.788 82.5199 5.82459 88.259 4.45273 96.7105C3.08087 105.162 8.82 113.125 17.2715 114.497C25.7229 115.869 33.6863 110.13 35.0581 101.678Z" fill="white"/>
<path d="M54.3514 53.0651C60.4057 47.0108 60.4057 37.1948 54.3514 31.1405C48.2971 25.0862 38.4812 25.0862 32.4269 31.1405C26.3726 37.1948 26.3726 47.0108 32.4269 53.0651C38.4812 59.1194 48.2971 59.1194 54.3514 53.0651Z" fill="#407BFF"/>
<path opacity="0.6" d="M54.3514 53.0651C60.4057 47.0108 60.4057 37.1948 54.3514 31.1405C48.2971 25.0862 38.4812 25.0862 32.4269 31.1405C26.3726 37.1948 26.3726 47.0108 32.4269 53.0651C38.4812 59.1194 48.2971 59.1194 54.3514 53.0651Z" fill="white"/>
<path d="M115.997 20.3083C117.367 11.8319 111.606 3.84981 103.129 2.47988C94.6528 1.10995 86.6707 6.8709 85.3008 15.3473C83.9309 23.8238 89.6918 31.8059 98.1683 33.1758C106.645 34.5457 114.627 28.7848 115.997 20.3083Z" fill="#407BFF"/>
<path opacity="0.6" d="M115.997 20.3083C117.367 11.8319 111.606 3.84981 103.129 2.47988C94.6528 1.10995 86.6707 6.8709 85.3008 15.3473C83.9309 23.8238 89.6918 31.8059 98.1683 33.1758C106.645 34.5457 114.627 28.7848 115.997 20.3083Z" fill="white"/>
<path d="M172.628 45.6572C174.594 37.3241 169.434 28.9744 161.1 27.0076C152.767 25.0408 144.418 30.2017 142.451 38.5348C140.484 46.868 145.645 55.2177 153.978 57.1845C162.311 59.1513 170.661 53.9903 172.628 45.6572Z" fill="#407BFF"/>
<path opacity="0.6" d="M172.628 45.6572C174.594 37.3241 169.434 28.9744 161.1 27.0076C152.767 25.0408 144.418 30.2017 142.451 38.5348C140.484 46.868 145.645 55.2177 153.978 57.1845C162.311 59.1513 170.661 53.9903 172.628 45.6572Z" fill="white"/>
<path d="M196.514 101.672C197.886 93.2204 192.147 85.257 183.696 83.8852C175.244 82.5133 167.281 88.2524 165.909 96.7039C164.537 105.155 170.276 113.119 178.728 114.491C187.179 115.862 195.143 110.123 196.514 101.672Z" fill="#407BFF"/>
<path opacity="0.6" d="M196.514 101.672C197.886 93.2204 192.147 85.257 183.696 83.8852C175.244 82.5133 167.281 88.2524 165.909 96.7039C164.537 105.155 170.276 113.119 178.728 114.491C187.179 115.862 195.143 110.123 196.514 101.672Z" fill="white"/>
<g clip-path="url(#clip0_398_1918)">
<path d="M43.4746 33.0388L43.3496 33.4635V45.7869L43.4746 45.9117L49.1949 42.5304L43.4746 33.0388Z" fill="#343434" fill-opacity="0.3"/>
<path d="M43.4733 33.0388L37.7529 42.5304L43.4733 45.9117V39.9302V33.0388Z" fill="#8C8C8C" fill-opacity="0.3"/>
<path d="M43.4748 46.9928L43.4043 47.0788V51.4685L43.4748 51.6743L49.1985 43.6133L43.4748 46.9928Z" fill="#3C3C3B" fill-opacity="0.3"/>
<path d="M43.4733 51.6743V46.9928L37.7529 43.6133L43.4733 51.6743Z" fill="#8C8C8C" fill-opacity="0.3"/>
<path d="M43.4727 45.9136L49.1929 42.5323L43.4727 39.9321V45.9136Z" fill="#141414" fill-opacity="0.3"/>
<path d="M37.7529 42.5323L43.4733 45.9136V39.9321L37.7529 42.5323Z" fill="#393939" fill-opacity="0.3"/>
</g>
<path d="M96.9487 16.4378L100.239 13.1473L103.531 16.4392L105.446 14.5246L100.239 9.31812L95.0342 14.5231L96.9487 16.4376L96.9487 16.4378ZM91.7676 17.7897L93.6822 15.8748L95.5967 17.7893L93.6821 19.7039L91.7676 17.7897ZM96.9487 19.1418L100.239 22.4321L103.531 19.1403L105.447 21.0538L105.446 21.0548L100.239 26.2613L95.0342 21.0563L95.0315 21.0536L96.9489 19.1416L96.9487 19.1418ZM104.882 17.7905L106.796 15.8759L108.711 17.7904L106.796 19.705L104.882 17.7905Z" fill="#F3BA2F" fill-opacity="0.8"/>
<path d="M102.181 17.7887H102.182L100.239 15.8459L98.8033 17.2814L98.6383 17.4465L98.2981 17.7868L98.2954 17.7894L98.2981 17.7922L100.239 19.7335L102.182 17.7908L102.183 17.7897L102.181 17.7887" fill="#F3BA2F" fill-opacity="0.8"/>
<g clip-path="url(#clip1_398_1918)">
<path d="M153.408 45.0426C153.495 44.9557 153.614 44.905 153.741 44.905H165.235C165.445 44.905 165.55 45.1585 165.401 45.307L163.131 47.5775C163.044 47.6644 162.925 47.7151 162.798 47.7151H151.304C151.094 47.7151 150.989 47.4616 151.137 47.3132L153.408 45.0426Z" fill="url(#paint16_linear_398_1918)" fill-opacity="0.8"/>
<path d="M153.408 36.5653C153.498 36.4784 153.618 36.4277 153.741 36.4277H165.235C165.445 36.4277 165.55 36.6812 165.401 36.8297L163.131 39.1002C163.044 39.1871 162.925 39.2378 162.798 39.2378H151.304C151.094 39.2378 150.989 38.9843 151.137 38.8359L153.408 36.5653Z" fill="url(#paint17_linear_398_1918)" fill-opacity="0.8"/>
<path d="M163.131 40.7768C163.044 40.6899 162.925 40.6392 162.798 40.6392H151.304C151.094 40.6392 150.989 40.8926 151.137 41.0411L153.408 43.3116C153.495 43.3985 153.614 43.4492 153.741 43.4492H165.235C165.445 43.4492 165.55 43.1958 165.401 43.0473L163.131 40.7768Z" fill="url(#paint18_linear_398_1918)" fill-opacity="0.8"/>
</g>
<path d="M24.0244 96.4083C23.8989 94.9351 22.634 94.4279 21.0317 94.27L21.0539 92.2287L19.8114 92.2154L19.7899 94.2029C19.4632 94.1993 19.1293 94.2021 18.7974 94.2051L18.8194 92.2044L17.5776 92.1909L17.555 94.2316C17.286 94.2342 17.0217 94.2364 16.7641 94.2337L16.764 94.2273L15.0503 94.208L15.0362 95.5351C15.0362 95.5351 15.9539 95.5276 15.9385 95.5443C16.4417 95.5499 16.6024 95.8439 16.6474 96.0965L16.6222 98.422C16.6568 98.4225 16.7021 98.4244 16.7534 98.4321C16.712 98.4317 16.6678 98.431 16.6221 98.4309L16.5863 101.689C16.5626 101.847 16.4668 102.098 16.1151 102.095C16.1309 102.109 15.2119 102.085 15.2119 102.085L14.9488 103.566L16.5658 103.584C16.8667 103.588 17.1627 103.596 17.4535 103.601L17.4315 105.665L18.6727 105.679L18.6949 103.636C19.0356 103.647 19.3653 103.653 19.6874 103.657L19.6647 105.69L20.9073 105.703L20.93 103.642C23.0203 103.545 24.488 103.035 24.6909 101.075C24.8546 99.4972 24.1193 98.7844 22.9367 98.4867C23.6611 98.1277 24.1186 97.4863 24.0249 96.4083L24.0245 96.4081L24.0244 96.4083ZM22.238 100.804C22.2219 102.347 19.5821 102.142 18.74 102.134L18.7701 99.3986C19.6124 99.408 22.2556 99.1945 22.2381 100.804L22.238 100.804ZM21.7021 96.9382C21.6865 98.3418 19.4851 98.1541 18.7837 98.1465L18.8108 95.6657C19.5122 95.6733 21.7179 95.4742 21.7022 96.9382L21.7021 96.9382Z" fill="white"/>
<g clip-path="url(#clip2_398_1918)">
<path d="M177.87 99.4828C177.832 100.129 178.33 100.681 178.975 100.718C178.998 100.718 179.022 100.718 179.045 100.718C179.695 100.718 180.22 100.194 180.216 99.5432C180.216 98.8929 179.691 98.3679 179.04 98.3726C178.418 98.3726 177.902 98.8603 177.87 99.4828Z" fill="#0033AD" fill-opacity="0.6"/>
<path d="M173.494 99.1808C173.285 99.1668 173.104 99.3294 173.094 99.5385C173.085 99.7475 173.243 99.9287 173.452 99.9379C173.661 99.9519 173.838 99.7893 173.852 99.5803C173.866 99.3712 173.703 99.1947 173.494 99.1808Z" fill="#0033AD" fill-opacity="0.6"/>
<path d="M177.796 92.6726C177.981 92.5797 178.056 92.3474 177.963 92.1616C177.87 91.9758 177.638 91.9014 177.452 91.9943C177.266 92.0872 177.192 92.3149 177.285 92.5007C177.378 92.6911 177.605 92.7701 177.796 92.6726C177.796 92.6726 177.791 92.6726 177.796 92.6726Z" fill="#0033AD" fill-opacity="0.6"/>
<path d="M178.985 94.7493C179.273 94.6053 179.389 94.2523 179.245 93.9643C179.101 93.6763 178.748 93.5601 178.46 93.7041C178.172 93.8481 178.055 94.2012 178.2 94.4892C178.344 94.7772 178.697 94.8933 178.985 94.7493Z" fill="#0033AD" fill-opacity="0.6"/>
<path d="M174.98 96.1754C175.203 96.3194 175.5 96.259 175.649 96.036C175.793 95.813 175.733 95.5157 175.51 95.3671C175.287 95.2231 174.989 95.2835 174.841 95.5064C174.692 95.7294 174.757 96.0314 174.98 96.1754Z" fill="#0033AD" fill-opacity="0.6"/>
<path d="M175.691 98.9717C175.366 98.9531 175.092 99.1993 175.073 99.5245C175.055 99.8497 175.301 100.124 175.626 100.142C175.951 100.161 176.225 99.9147 176.244 99.5895C176.262 99.269 176.016 98.9903 175.691 98.9717Z" fill="#0033AD" fill-opacity="0.6"/>
<path d="M175.045 102.906C174.808 103.027 174.711 103.315 174.832 103.557C174.952 103.794 175.24 103.891 175.482 103.77C175.719 103.65 175.817 103.362 175.696 103.12C175.575 102.883 175.282 102.786 175.045 102.906Z" fill="#0033AD" fill-opacity="0.6"/>
<path d="M177.322 97.7594C177.642 97.9685 178.069 97.8802 178.274 97.5597C178.483 97.2391 178.395 96.8118 178.074 96.6074C177.754 96.3983 177.326 96.4866 177.122 96.8071C176.913 97.123 177.001 97.5504 177.322 97.7594Z" fill="#0033AD" fill-opacity="0.6"/>
<path d="M184.545 94.7029C184.814 94.8794 185.181 94.8051 185.358 94.5356C185.534 94.2662 185.46 93.8992 185.191 93.7227C184.921 93.5462 184.554 93.6205 184.378 93.8899C184.197 94.164 184.271 94.5263 184.545 94.7029Z" fill="#0033AD" fill-opacity="0.6"/>
<path d="M185.743 92.6358C185.92 92.7519 186.152 92.7008 186.268 92.5243C186.384 92.3478 186.333 92.1155 186.157 91.9994C185.98 91.8832 185.748 91.9343 185.632 92.1062C185.52 92.2827 185.572 92.5196 185.743 92.6358Z" fill="#0033AD" fill-opacity="0.6"/>
<path d="M184.633 98.3633C183.988 98.3261 183.43 98.8232 183.398 99.4689C183.361 100.115 183.858 100.672 184.503 100.705C184.527 100.705 184.55 100.705 184.568 100.705C185.214 100.705 185.739 100.18 185.739 99.5293C185.744 98.9114 185.256 98.3958 184.633 98.3633Z" fill="#0033AD" fill-opacity="0.6"/>
<path d="M179.37 97.6759C179.57 98.0707 179.974 98.3216 180.42 98.3216C181.066 98.3216 181.591 97.7966 181.591 97.1463C181.591 96.9651 181.549 96.784 181.465 96.6167C181.173 96.0361 180.466 95.8038 179.89 96.0965C179.31 96.3938 179.077 97.0999 179.37 97.6759Z" fill="#0033AD" fill-opacity="0.6"/>
<path d="M188.563 96.1755C188.8 96.0547 188.893 95.762 188.772 95.5251C188.652 95.2882 188.359 95.1953 188.122 95.3161C187.885 95.4369 187.792 95.7249 187.908 95.9618C188.034 96.1987 188.322 96.2962 188.563 96.1755Z" fill="#0033AD" fill-opacity="0.6"/>
<path d="M185.59 96.547C185.251 96.7189 185.112 97.1323 185.284 97.4714C185.456 97.8106 185.869 97.9499 186.208 97.778C186.547 97.6062 186.687 97.1927 186.515 96.8536C186.343 96.5145 185.929 96.3798 185.59 96.547Z" fill="#0033AD" fill-opacity="0.6"/>
<path d="M181.758 92.4591C182.023 92.473 182.25 92.2686 182.269 92.0039C182.287 91.7391 182.078 91.5115 181.814 91.4929C181.549 91.4789 181.321 91.6787 181.303 91.9435C181.289 92.2129 181.493 92.4405 181.758 92.4591Z" fill="#0033AD" fill-opacity="0.6"/>
<path d="M181.753 95.4925C182.134 95.5157 182.459 95.2231 182.478 94.8422C182.501 94.4613 182.208 94.1361 181.828 94.1175C181.447 94.0943 181.121 94.3869 181.103 94.7678C181.084 95.1488 181.372 95.4739 181.753 95.4925Z" fill="#0033AD" fill-opacity="0.6"/>
<path d="M178.019 102.535C178.358 102.363 178.497 101.95 178.325 101.611C178.153 101.271 177.74 101.132 177.401 101.304C177.062 101.476 176.922 101.889 177.094 102.228C177.266 102.567 177.68 102.707 178.019 102.535Z" fill="#0033AD" fill-opacity="0.6"/>
<path d="M182.199 96.5005C181.846 97.044 181.995 97.7687 182.538 98.1217C183.082 98.4748 183.807 98.3261 184.16 97.7826C184.513 97.2391 184.364 96.5144 183.821 96.1614C183.63 96.036 183.407 95.9709 183.179 95.9709C182.785 95.9709 182.418 96.1707 182.199 96.5005Z" fill="#0033AD" fill-opacity="0.6"/>
<path d="M184.238 101.406C183.946 100.825 183.24 100.593 182.664 100.886C182.083 101.178 181.851 101.885 182.143 102.461C182.436 103.041 183.142 103.273 183.718 102.981C184.294 102.693 184.531 101.996 184.243 101.415C184.243 101.411 184.243 101.411 184.238 101.406Z" fill="#0033AD" fill-opacity="0.6"/>
<path d="M186.287 101.322C185.966 101.113 185.539 101.202 185.335 101.522C185.126 101.843 185.214 102.27 185.534 102.475C185.855 102.684 186.282 102.595 186.487 102.275C186.696 101.959 186.607 101.532 186.287 101.322Z" fill="#0033AD" fill-opacity="0.6"/>
<path d="M188.535 99.5619C188.554 99.2368 188.308 98.9627 187.983 98.9441C187.657 98.9255 187.383 99.1717 187.365 99.4969C187.346 99.8221 187.592 100.096 187.918 100.115C188.238 100.133 188.517 99.8825 188.535 99.5619Z" fill="#0033AD" fill-opacity="0.6"/>
<path d="M190.156 99.1439C189.947 99.13 189.766 99.2925 189.757 99.5016C189.748 99.7106 189.906 99.8918 190.115 99.9011C190.324 99.915 190.5 99.7524 190.514 99.5434C190.523 99.3344 190.366 99.1578 190.156 99.1439Z" fill="#0033AD" fill-opacity="0.6"/>
<path d="M188.628 102.906C188.405 102.762 188.108 102.823 187.959 103.046C187.815 103.269 187.876 103.566 188.099 103.715C188.322 103.859 188.619 103.798 188.768 103.575C188.916 103.352 188.851 103.05 188.628 102.906Z" fill="#0033AD" fill-opacity="0.6"/>
<path d="M177.86 106.446C177.684 106.33 177.452 106.381 177.336 106.553C177.219 106.729 177.271 106.962 177.442 107.078C177.619 107.194 177.851 107.143 177.967 106.971C178.088 106.799 178.037 106.562 177.86 106.446Z" fill="#0033AD" fill-opacity="0.6"/>
<path d="M185.813 106.409C185.627 106.502 185.553 106.734 185.646 106.92C185.739 107.106 185.971 107.18 186.157 107.087C186.343 106.994 186.417 106.767 186.324 106.581C186.231 106.39 186.004 106.311 185.813 106.409C185.813 106.409 185.818 106.409 185.813 106.409Z" fill="#0033AD" fill-opacity="0.6"/>
<path d="M181.41 102.581C181.763 102.038 181.614 101.313 181.07 100.955C180.527 100.602 179.802 100.751 179.445 101.294C179.087 101.838 179.24 102.562 179.784 102.92C179.974 103.046 180.197 103.111 180.425 103.111C180.824 103.115 181.191 102.916 181.41 102.581Z" fill="#0033AD" fill-opacity="0.6"/>
<path d="M179.063 104.379C178.794 104.202 178.427 104.277 178.251 104.546C178.074 104.816 178.148 105.183 178.418 105.359C178.687 105.536 179.054 105.461 179.231 105.192C179.412 104.922 179.338 104.555 179.063 104.379Z" fill="#0033AD" fill-opacity="0.6"/>
<path d="M181.8 106.623C181.535 106.609 181.307 106.813 181.289 107.078C181.27 107.343 181.479 107.57 181.744 107.589C182.009 107.603 182.236 107.403 182.255 107.138C182.269 106.869 182.065 106.641 181.8 106.623Z" fill="#0033AD" fill-opacity="0.6"/>
<path d="M181.804 103.589C181.423 103.566 181.098 103.859 181.08 104.24C181.056 104.621 181.349 104.946 181.73 104.964C182.111 104.983 182.436 104.695 182.455 104.314C182.478 103.938 182.185 103.608 181.804 103.589Z" fill="#0033AD" fill-opacity="0.6"/>
<path d="M184.624 104.333C184.336 104.481 184.22 104.834 184.369 105.122C184.517 105.41 184.87 105.526 185.158 105.378C185.446 105.234 185.562 104.881 185.418 104.593C185.27 104.305 184.917 104.184 184.624 104.333Z" fill="#0033AD" fill-opacity="0.6"/>
</g>
<defs>
<linearGradient id="paint0_linear_398_1918" x1="97.0371" y1="13.1758" x2="97.0371" y2="185.238" gradientUnits="userSpaceOnUse">
<stop stop-color="#2D69F8"/>
<stop offset="1" stop-color="#CCDAFB"/>
<stop offset="1" stop-color="#6691F9"/>
</linearGradient>
<linearGradient id="paint1_linear_398_1918" x1="100.976" y1="59.4819" x2="100.976" y2="64.1492" gradientUnits="userSpaceOnUse">
<stop stop-color="#2A31DA"/>
<stop offset="1" stop-color="#BABDF0"/>
</linearGradient>
<linearGradient id="paint2_linear_398_1918" x1="100.976" y1="48.678" x2="100.976" y2="50.8832" gradientUnits="userSpaceOnUse">
<stop stop-color="#2A31DA"/>
<stop offset="1" stop-color="#BABDF0"/>
</linearGradient>
<linearGradient id="paint3_linear_398_1918" x1="100.976" y1="182.24" x2="100.976" y2="191.078" gradientUnits="userSpaceOnUse">
<stop stop-color="#2A31DA"/>
<stop offset="1" stop-color="#BABDF0"/>
</linearGradient>
<linearGradient id="paint4_linear_398_1918" x1="100.98" y1="184.424" x2="100.98" y2="188.902" gradientUnits="userSpaceOnUse">
<stop stop-color="#2A31DA"/>
<stop offset="1" stop-color="#BABDF0"/>
</linearGradient>
<linearGradient id="paint5_linear_398_1918" x1="114.329" y1="81.4143" x2="114.329" y2="137.553" gradientUnits="userSpaceOnUse">
<stop stop-color="#9EAEF5"/>
<stop offset="1" stop-color="#3160B8"/>
<stop offset="1" stop-color="#3160B8"/>
</linearGradient>
<linearGradient id="paint6_linear_398_1918" x1="87.2549" y1="81.4143" x2="87.2549" y2="137.553" gradientUnits="userSpaceOnUse">
<stop stop-color="#9EAEF5"/>
<stop offset="1" stop-color="#3160B8"/>
<stop offset="1" stop-color="#3160B8"/>
</linearGradient>
<linearGradient id="paint7_linear_398_1918" x1="101.389" y1="109.285" x2="101.389" y2="110.285" gradientUnits="userSpaceOnUse">
<stop stop-color="#9EAEF5"/>
<stop offset="1" stop-color="#3160B8"/>
<stop offset="1" stop-color="#3160B8"/>
</linearGradient>
<linearGradient id="paint8_linear_398_1918" x1="88.9759" y1="102.914" x2="88.9759" y2="115.655" gradientUnits="userSpaceOnUse">
<stop stop-color="#9EAEF5"/>
<stop offset="1" stop-color="#3160B8"/>
<stop offset="1" stop-color="#3160B8"/>
</linearGradient>
<linearGradient id="paint9_linear_398_1918" x1="88.9759" y1="102.914" x2="88.9759" y2="115.655" gradientUnits="userSpaceOnUse">
<stop stop-color="#9EAEF5"/>
<stop offset="1" stop-color="#3160B8"/>
</linearGradient>
<linearGradient id="paint10_linear_398_1918" x1="112.865" y1="102.914" x2="112.865" y2="115.655" gradientUnits="userSpaceOnUse">
<stop stop-color="#9EAEF5"/>
<stop offset="1" stop-color="#3160B8"/>
<stop offset="1" stop-color="#3160B8"/>
</linearGradient>
<linearGradient id="paint11_linear_398_1918" x1="112.865" y1="102.914" x2="112.865" y2="115.655" gradientUnits="userSpaceOnUse">
<stop stop-color="#9EAEF5"/>
<stop offset="1" stop-color="#3160B8"/>
</linearGradient>
<linearGradient id="paint12_linear_398_1918" x1="114.926" y1="99.3318" x2="114.926" y2="100.332" gradientUnits="userSpaceOnUse">
<stop stop-color="#9EAEF5"/>
<stop offset="1" stop-color="#3160B8"/>
</linearGradient>
<linearGradient id="paint13_linear_398_1918" x1="100.734" y1="91.7666" x2="100.734" y2="106.896" gradientUnits="userSpaceOnUse">
<stop stop-color="#9EAEF5"/>
<stop offset="1" stop-color="#3160B8"/>
</linearGradient>
<linearGradient id="paint14_linear_398_1918" x1="86.658" y1="119.637" x2="86.658" y2="120.637" gradientUnits="userSpaceOnUse">
<stop stop-color="#9EAEF5"/>
<stop offset="1" stop-color="#3160B8"/>
</linearGradient>
<linearGradient id="paint15_linear_398_1918" x1="100.734" y1="111.674" x2="100.734" y2="126.803" gradientUnits="userSpaceOnUse">
<stop stop-color="#9EAEF5"/>
<stop offset="1" stop-color="#3160B8"/>
</linearGradient>
<linearGradient id="paint16_linear_398_1918" x1="164.137" y1="35.0714" x2="156.182" y2="50.3077" gradientUnits="userSpaceOnUse">
<stop stop-color="#00FFA3"/>
<stop offset="1" stop-color="#DC1FFF"/>
</linearGradient>
<linearGradient id="paint17_linear_398_1918" x1="160.659" y1="33.2555" x2="152.704" y2="48.4918" gradientUnits="userSpaceOnUse">
<stop stop-color="#00FFA3"/>
<stop offset="1" stop-color="#DC1FFF"/>
</linearGradient>
<linearGradient id="paint18_linear_398_1918" x1="162.387" y1="34.1576" x2="154.432" y2="49.3939" gradientUnits="userSpaceOnUse">
<stop stop-color="#00FFA3"/>
<stop offset="1" stop-color="#DC1FFF"/>
</linearGradient>
<clipPath id="clip0_398_1918">
<rect width="18.6375" height="18.6375" fill="white" transform="translate(34.1606 33.0388)"/>
</clipPath>
<clipPath id="clip1_398_1918">
<rect width="14.4017" height="11.2874" fill="white" transform="translate(151.069 36.4277)"/>
</clipPath>
<clipPath id="clip2_398_1918">
<rect width="17.4199" height="16.096" fill="white" transform="translate(173.095 91.4929)"/>
</clipPath>
</defs>
</svg>
