<svg width="84" height="56" viewBox="0 0 84 56" fill="none" xmlns="http://www.w3.org/2000/svg">
<g clip-path="url(#clip0_351_131)">
<path d="M79.675 24.7664C79.1396 23.659 78.3531 22.6919 77.378 21.9421C73.2594 18.7331 53.9848 4.11354 44.5014 3.81032C33.8477 3.46577 -1.01129 43.3576 2.22756 47.1098C5.4664 50.862 45.527 56.4841 50.2119 55.3792C54.8967 54.2743 76.9726 33.0817 79.0192 30.6629C80.8201 28.5347 80.4193 26.3398 79.675 24.7664Z" fill="#50C2E7"/>
<path opacity="0.7" d="M79.675 24.7664C79.1396 23.659 78.3531 22.6919 77.378 21.9421C73.2594 18.7331 53.9848 4.11354 44.5014 3.81032C33.8477 3.46577 -1.01129 43.3576 2.22756 47.1098C5.4664 50.862 45.527 56.4841 50.2119 55.3792C54.8967 54.2743 76.9726 33.0817 79.0192 30.6629C80.8201 28.5347 80.4193 26.3398 79.675 24.7664Z" fill="white"/>
<path opacity="0.3" d="M74.1182 15.6175C74.1182 15.6175 73.37 11.9607 70.8758 12.2105C69.7423 12.3225 68.9841 12.8914 68.3266 13.7785C67.4833 14.9108 67.1809 14.2522 65.9746 14.6241C64.895 14.9601 65.0607 15.8706 64.3954 16.0364C63.7302 16.2022 63.2329 15.4551 62.3178 15.6209C61.4028 15.7866 60.9055 16.7017 60.9055 16.7017H77.5252C77.4819 16.3908 77.3487 16.0993 77.1419 15.8631C76.9352 15.627 76.6639 15.4563 76.3615 15.3722C75.2818 15.0362 74.7823 15.8673 74.1182 15.6175Z" stroke="black" stroke-width="0.112" stroke-miterlimit="10"/>
<path opacity="0.3" d="M23.2154 7.89257C23.2154 7.89257 22.7046 5.39273 21 5.56409C20.225 5.64137 19.7075 6.03001 19.2584 6.63257C18.6816 7.40649 18.4744 6.95625 17.6501 7.21049C16.912 7.43785 17.024 8.06393 16.576 8.17593C16.128 8.28793 15.7808 7.77833 15.157 7.89257C14.5331 8.00681 14.1915 8.63065 14.1915 8.63065H25.5438C25.5137 8.41957 25.4228 8.22184 25.2822 8.06154C25.1416 7.90125 24.9574 7.78534 24.752 7.72793C24.0106 7.49497 23.6701 8.06393 23.2154 7.89257Z" stroke="black" stroke-width="0.112" stroke-miterlimit="10"/>
<g opacity="0.3">
<path opacity="0.3" d="M59.2524 -0.00011851L56.9452 4.8457L65.3344 8.83995L67.6416 3.99413L59.2524 -0.00011851Z" stroke="black" stroke-width="0.112" stroke-miterlimit="10"/>
<path opacity="0.3" d="M60.2307 1.03945C60.1568 1.19429 60.0245 1.31347 59.8628 1.3708C59.7011 1.42813 59.5232 1.41893 59.3683 1.34521C59.3438 1.33393 59.3202 1.32082 59.2977 1.30601L57.9728 4.09145C57.9984 4.0995 58.0235 4.10923 58.0478 4.12057C58.2027 4.19469 58.3219 4.32722 58.3793 4.48911C58.4366 4.65099 58.4273 4.82901 58.3536 4.98409C58.3479 4.99602 58.3415 5.00762 58.3345 5.01881L64.3288 7.87145C64.3288 7.85913 64.3389 7.84681 64.3445 7.83449C64.4181 7.67945 64.5504 7.56003 64.7121 7.50248C64.8738 7.44493 65.0518 7.45397 65.2069 7.52761C65.2311 7.53972 65.2547 7.55318 65.2774 7.56793L66.6024 4.78585C66.5767 4.77742 66.5517 4.76732 66.5273 4.75561C66.3739 4.68094 66.2561 4.54858 66.1999 4.38742C66.1437 4.22626 66.1535 4.04941 66.2272 3.89545C66.2385 3.87099 66.2516 3.8474 66.2664 3.82489L60.2598 0.967773C60.2516 0.992257 60.2419 1.0162 60.2307 1.03945V1.03945ZM63.2547 4.87433C63.1647 5.06438 63.0203 5.22344 62.8399 5.33133C62.6594 5.43923 62.4509 5.49111 62.2409 5.48039C62.0309 5.46968 61.8289 5.39685 61.6603 5.27115C61.4917 5.14544 61.3643 4.97252 61.2941 4.7743C61.224 4.57608 61.2143 4.36149 61.2662 4.15774C61.3181 3.95398 61.4294 3.77024 61.5859 3.6298C61.7424 3.48936 61.9371 3.39855 62.1452 3.36888C62.3534 3.3392 62.5657 3.37201 62.7552 3.46313C62.8809 3.5232 62.9935 3.60744 63.0866 3.71104C63.1798 3.81465 63.2516 3.93558 63.298 4.06694C63.3443 4.1983 63.3644 4.33751 63.357 4.47662C63.3496 4.61573 63.3148 4.75202 63.2547 4.87769V4.87433Z" stroke="black" stroke-width="0.112" stroke-miterlimit="10"/>
</g>
<g opacity="0.3">
<path opacity="0.3" d="M9.30719 2.745L7 7.59082L15.3892 11.5851L17.6964 6.73924L9.30719 2.745Z" stroke="black" stroke-width="0.112" stroke-miterlimit="10"/>
<path opacity="0.3" d="M10.2831 3.78647C10.2466 3.86324 10.1953 3.93206 10.1322 3.98899C10.0691 4.04593 9.99541 4.08985 9.9153 4.11825C9.83519 4.14665 9.75027 4.15898 9.66539 4.15451C9.58051 4.15004 9.49735 4.12888 9.42067 4.09223C9.3962 4.08094 9.37262 4.06784 9.35011 4.05303L8.02515 6.83511C8.05036 6.84285 8.07505 6.85221 8.09907 6.86311C8.17584 6.89958 8.24466 6.95083 8.30159 7.01394C8.35853 7.07705 8.40245 7.15077 8.43085 7.23087C8.45926 7.31098 8.47158 7.39591 8.46711 7.48078C8.46264 7.56566 8.44148 7.64882 8.40483 7.72551C8.39923 7.73783 8.39251 7.74903 8.38579 7.76135L14.38 10.6151L14.3957 10.5781C14.4322 10.5014 14.4834 10.4326 14.5465 10.3756C14.6097 10.3187 14.6834 10.2748 14.7635 10.2464C14.8436 10.218 14.9285 10.2056 15.0134 10.2101C15.0983 10.2146 15.1814 10.2357 15.2581 10.2724C15.2826 10.2837 15.3062 10.2968 15.3287 10.3116L16.6547 7.53511C16.629 7.52615 16.6043 7.51719 16.5797 7.50599C16.5026 7.46931 16.4335 7.41774 16.3763 7.35423C16.3192 7.29073 16.2752 7.21655 16.2469 7.13597C16.2186 7.05539 16.2065 6.97 16.2113 6.88472C16.2162 6.79945 16.2378 6.71597 16.2751 6.63911C16.2864 6.615 16.2995 6.59179 16.3143 6.56967L10.3122 3.71143C10.3046 3.73722 10.2949 3.76233 10.2831 3.78647V3.78647ZM13.3071 7.62135C13.217 7.81067 13.0727 7.96903 12.8927 8.07643C12.7126 8.18383 12.5047 8.23545 12.2953 8.22476C12.0859 8.21407 11.8844 8.14156 11.7162 8.01638C11.548 7.89121 11.4206 7.71899 11.3503 7.52148C11.2799 7.32397 11.2696 7.11003 11.3208 6.90669C11.372 6.70336 11.4822 6.51975 11.6377 6.37906C11.7932 6.23838 11.9869 6.14692 12.1943 6.11626C12.4017 6.0856 12.6135 6.1171 12.8031 6.20679C12.929 6.26657 13.042 6.35058 13.1355 6.45402C13.229 6.55747 13.3013 6.67832 13.3481 6.80967C13.3949 6.94103 13.4153 7.08032 13.4083 7.21959C13.4013 7.35885 13.3669 7.49537 13.3071 7.62135V7.62135Z" stroke="black" stroke-width="0.112" stroke-miterlimit="10"/>
</g>
<g opacity="0.3">
<path opacity="0.3" d="M69.2285 17.702L66.9213 22.5479L75.3104 26.5421L77.6176 21.6963L69.2285 17.702Z" stroke="black" stroke-width="0.112" stroke-miterlimit="10"/>
<path opacity="0.3" d="M70.2075 18.7473C70.171 18.8242 70.1197 18.8931 70.0566 18.9502C69.9934 19.0072 69.9196 19.0513 69.8394 19.0798C69.7592 19.1083 69.6741 19.1207 69.5891 19.1163C69.5041 19.1119 69.4208 19.0908 69.344 19.0541C69.3193 19.0418 69.2969 19.0284 69.2745 19.0149L67.9496 21.797C67.9751 21.8053 68.0002 21.815 68.0246 21.8261C68.1795 21.9003 68.2987 22.0328 68.3561 22.1947C68.4134 22.3566 68.4042 22.5346 68.3304 22.6897L68.3113 22.7244L74.3056 25.5793C74.3096 25.5665 74.3149 25.5541 74.3213 25.5423C74.3573 25.4647 74.4084 25.3951 74.4716 25.3374C74.5348 25.2797 74.6088 25.2351 74.6893 25.2063C74.7699 25.1774 74.8553 25.1648 74.9408 25.1693C75.0262 25.1737 75.1099 25.195 75.187 25.2321C75.2117 25.2444 75.2352 25.2578 75.2576 25.2713L76.5814 22.4892C76.5562 22.4809 76.5315 22.4712 76.5075 22.4601C76.3524 22.3861 76.2329 22.2537 76.1754 22.0918C76.1179 21.9299 76.1269 21.7518 76.2006 21.5965C76.2129 21.573 76.2264 21.5495 76.2409 21.5271L70.2366 18.6733C70.2286 18.6986 70.2188 18.7233 70.2075 18.7473V18.7473ZM73.2315 22.5833C73.1413 22.7729 72.9968 22.9316 72.8164 23.0391C72.636 23.1466 72.4277 23.1983 72.218 23.1874C72.0082 23.1766 71.8064 23.1038 71.638 22.9782C71.4696 22.8527 71.3423 22.68 71.2721 22.482C71.2019 22.2841 71.1919 22.0697 71.2435 21.8662C71.2952 21.6626 71.406 21.4788 71.562 21.3383C71.7181 21.1977 71.9123 21.1065 72.1202 21.0763C72.328 21.0462 72.5402 21.0783 72.7297 21.1687C72.9836 21.29 73.1789 21.5072 73.2727 21.7724C73.3666 22.0376 73.3514 22.3293 73.2304 22.5833H73.2315Z" stroke="black" stroke-width="0.112" stroke-miterlimit="10"/>
</g>
<g opacity="0.3">
<path opacity="0.3" d="M42.8351 9.72547L45.9852 14.0708L53.5079 8.61726L50.3578 4.27193L42.8351 9.72547Z" stroke="black" stroke-width="0.112" stroke-miterlimit="10"/>
<path opacity="0.3" d="M44.2148 9.36755C44.3154 9.50657 44.3567 9.67989 44.3297 9.84938C44.3026 10.0189 44.2093 10.1707 44.0703 10.2714C44.0487 10.2874 44.0259 10.3017 44.002 10.3139L45.8108 12.8093C45.8303 12.7909 45.8508 12.7737 45.8724 12.7578C46.0116 12.6571 46.1851 12.6157 46.3547 12.6428C46.5244 12.6699 46.6764 12.7632 46.7773 12.9023C46.7851 12.913 46.7922 12.9243 46.7986 12.9359L52.1746 9.03827L52.15 9.00803C52.0491 8.86896 52.0076 8.69556 52.0345 8.52589C52.0613 8.35623 52.1544 8.20416 52.2933 8.10307C52.3157 8.08739 52.3392 8.07395 52.3616 8.06051L50.5472 5.56627C50.5277 5.58458 50.5071 5.60178 50.4856 5.61779C50.3465 5.71816 50.1733 5.75931 50.0039 5.73223C49.8345 5.70515 49.6827 5.61205 49.5818 5.47331C49.5662 5.45219 49.552 5.43012 49.5392 5.40723L44.1632 9.30819C44.1818 9.32674 44.199 9.34658 44.2148 9.36755V9.36755ZM49.0308 8.54883C49.1538 8.71869 49.2237 8.92122 49.2317 9.13081C49.2396 9.3404 49.1853 9.54765 49.0754 9.72635C48.9656 9.90505 48.8053 10.0472 48.6147 10.1348C48.4241 10.2224 48.2119 10.2515 48.0047 10.2184C47.7976 10.1854 47.6049 10.0917 47.4511 9.94918C47.2972 9.80665 47.189 9.6217 47.1402 9.41771C47.0915 9.21372 47.1043 8.99984 47.177 8.80312C47.2498 8.6064 47.3792 8.43567 47.549 8.31251C47.7765 8.14767 48.0602 8.07996 48.3377 8.12428C48.6151 8.1686 48.8636 8.32131 49.0285 8.54883H49.0308Z" stroke="black" stroke-width="0.112" stroke-miterlimit="10"/>
</g>
<g opacity="0.15">
<path opacity="0.15" d="M5.42754 22.7629C6.13762 22.7865 7.60482 22.1637 7.60594 22.1637C7.60706 22.1637 6.90146 21.3215 6.84994 21.2745C6.25522 20.7245 4.7813 20.0111 3.9917 20.4569C3.42162 20.7783 3.32642 21.5141 3.68818 22.0249C4.04994 22.5356 4.82274 22.7439 5.42754 22.7629Z" fill="black"/>
<path opacity="0.15" d="M7.64515 26.8462C8.30931 26.6883 9.47747 25.7789 9.57043 25.7061C10.0875 26.3752 10.6487 27.0091 11.2504 27.6033C11.5999 27.9528 11.9628 28.2921 12.3301 28.6281C12.1397 28.5005 11.9684 28.3862 11.9426 28.3728C11.2224 27.9998 9.61299 27.7008 8.96899 28.3403C8.50419 28.8006 8.60723 29.5342 9.09107 29.9341C9.57491 30.3339 10.3746 30.3261 10.9637 30.1849C11.5528 30.0438 12.572 29.2889 12.8375 29.084L13.2631 29.4681C13.9496 30.0774 14.6362 30.6822 15.2914 31.296C15.5221 31.5121 15.7394 31.7339 15.9634 31.9545C15.7932 31.8425 15.6498 31.7462 15.6274 31.7305C14.9084 31.3576 13.2989 31.0585 12.6538 31.6981C12.189 32.1573 12.292 32.892 12.7759 33.2907C13.2597 33.6894 14.0594 33.6838 14.6485 33.5427C15.2186 33.4072 16.1583 32.7184 16.4741 32.4787C16.6981 32.7117 16.9131 32.9446 17.1147 33.1798C17.2491 33.3433 17.3903 33.4923 17.5157 33.6648L17.8954 34.1632C18.1194 34.4891 18.3647 34.824 18.5808 35.1477C18.7331 35.3717 18.8731 35.5867 19.0165 35.8051C18.7925 35.5811 18.3344 35.1689 18.2919 35.1331C17.6378 34.6549 16.0922 34.1161 15.3575 34.6504C14.8288 35.0345 14.8199 35.776 15.2376 36.2441C15.6554 36.7123 16.4472 36.8254 17.0498 36.7761C17.7139 36.7213 18.9594 36.0336 19.114 35.9473C19.3492 36.3069 19.5732 36.6597 19.7804 36.9968C19.9663 37.2969 20.1387 37.5848 20.3011 37.8592L20.8298 37.6497C20.645 37.3507 20.4479 37.0382 20.234 36.7089C19.9976 36.3427 19.7378 35.9552 19.4667 35.5598C19.7984 35.2446 20.1115 34.9103 20.4042 34.5585C21.0213 34.8542 22.3451 34.9606 22.5154 34.9729C22.5154 35.403 22.5053 35.8208 22.4919 36.2161C22.4844 36.4872 22.4743 36.7485 22.4616 37.0001L23.0216 36.7761C23.0216 36.5969 23.0283 36.4155 23.0295 36.2273C23.0351 35.7905 23.0295 35.3235 23.0295 34.8441C23.2008 34.815 24.6042 34.5608 25.1575 34.1845C25.657 33.8417 26.1968 33.2672 26.2271 32.6265C26.2573 31.9859 25.7791 31.4315 25.1272 31.4673C24.2212 31.5166 23.3621 32.9099 23.1571 33.6939C23.1448 33.7398 23.0687 34.2539 23.0272 34.5832C23.0272 34.3872 23.0205 34.1979 23.0138 33.9963C23.0026 33.5976 22.9802 33.2 22.9567 32.7721C22.9388 32.5661 22.9208 32.3589 22.9018 32.1483C22.8827 31.9377 22.8469 31.7205 22.82 31.5043C22.7461 31.0048 22.6487 30.5019 22.5378 29.9979C22.8872 29.9867 24.1248 29.9329 24.6725 29.6686C25.2202 29.4043 25.8395 28.9193 25.9661 28.291C26.0927 27.6627 25.7051 27.0411 25.0544 26.9784C24.1517 26.8899 23.0922 28.1376 22.7696 28.8824C22.7495 28.9283 22.5781 29.4883 22.4907 29.7974C22.4213 29.495 22.3541 29.1926 22.2746 28.888C22.0506 28.011 21.7863 27.1307 21.532 26.2504C21.4536 25.9805 21.3797 25.7117 21.308 25.4417C21.4323 25.4417 22.9052 25.4059 23.5189 25.1057C24.0644 24.8437 24.6859 24.3576 24.8125 23.7293C24.9391 23.1009 24.5515 22.4793 23.9008 22.4166C22.9981 22.3281 21.9375 23.5758 21.616 24.3206C21.5914 24.3766 21.3461 25.183 21.2946 25.3902C21.1277 24.7966 20.9664 24.2041 20.832 23.6128C20.6465 22.8155 20.513 22.007 20.4322 21.1925C20.4893 21.1925 22.0282 21.1645 22.6565 20.8565C23.2008 20.5944 23.8224 20.1083 23.949 19.48C24.0756 18.8517 23.688 18.2301 23.0373 18.1662C22.1346 18.0789 21.0751 19.3265 20.7525 20.0702C20.7279 20.1296 20.4647 20.9953 20.4277 21.1566C20.4277 21.1096 20.4131 21.0603 20.4098 21.0133C20.3507 20.1923 20.365 19.3677 20.4524 18.5493C20.4949 18.1013 20.5643 17.6689 20.6338 17.2523C20.9216 17.2769 22.2343 17.3733 22.8301 17.1627C23.4002 16.9611 24.0722 16.5467 24.266 15.9363C24.4597 15.3259 24.1439 14.6651 23.5043 14.5307C22.6162 14.3448 21.4256 15.4681 21.0247 16.1715C21.0023 16.2096 20.8231 16.6195 20.6976 16.9264C20.7335 16.7393 20.7671 16.5445 20.8096 16.3664C20.9508 15.6944 21.121 15.0885 21.2767 14.5531C21.3674 14.2485 21.4559 13.9752 21.541 13.7209C21.8344 13.5977 23.0138 13.087 23.4371 12.6345C23.8605 12.1821 24.2559 11.5145 24.1472 10.8829C24.0386 10.2512 23.4539 9.81214 22.8234 9.98686C21.9498 10.231 21.4111 11.7789 21.3786 12.5864C21.3786 12.6558 21.4581 13.7557 21.4727 13.7489L21.4906 13.7422C21.4032 13.9853 21.3136 14.2473 21.2207 14.5352C21.0527 15.0683 20.869 15.6731 20.7122 16.344C20.5359 17.0655 20.4017 17.7965 20.3101 18.5336C20.204 19.3582 20.1714 20.1907 20.2127 21.0211V21.0513C20.1186 20.8027 19.833 20.1161 19.805 20.0657C19.4108 19.3579 18.237 18.2211 17.341 18.3981C16.7004 18.5246 16.3811 19.1944 16.5648 19.7947C16.7485 20.395 17.4183 20.8296 17.9872 21.0368C18.629 21.2709 20.104 21.1577 20.2216 21.1488C20.2849 21.9932 20.4043 22.8324 20.5789 23.6609C20.6786 24.1437 20.7928 24.6275 20.9149 25.1102C20.8264 24.8985 20.7458 24.7093 20.7312 24.6835C20.337 23.9757 19.1632 22.8389 18.2672 23.0158C17.6266 23.1435 17.3063 23.8121 17.49 24.4125C17.6736 25.0128 18.3445 25.4473 18.9135 25.6545C19.4824 25.8617 20.7503 25.7945 21.0829 25.7665C21.1322 25.9513 21.1781 26.1361 21.2274 26.3265C21.4626 27.2136 21.7023 28.0961 21.9106 28.9709C21.9834 29.2789 22.045 29.5846 22.1066 29.8904C22.0282 29.7011 21.961 29.5432 21.9476 29.5208C21.5533 28.8118 20.3796 27.675 19.4836 27.852C18.8429 27.9797 18.5226 28.6494 18.7063 29.2497C18.89 29.8501 19.5608 30.2846 20.1298 30.4918C20.6797 30.6923 21.8434 30.6374 22.2399 30.6117C22.2936 30.9264 22.3519 31.2422 22.3877 31.5502C22.409 31.7608 22.4437 31.9624 22.4538 32.1752C22.4639 32.388 22.4818 32.5941 22.4952 32.8001C22.5076 33.1989 22.5221 33.6099 22.5243 33.9997C22.5243 34.2696 22.5243 34.5283 22.5243 34.7837C22.4549 34.4768 22.3003 33.8776 22.288 33.8294C22.0157 33.1698 21.5783 32.5913 21.018 32.1494C20.9912 32.0747 20.9575 32.0027 20.9171 31.9344C20.5946 31.3957 19.8845 31.184 19.3592 31.5737C18.6312 32.1147 18.6872 33.751 18.9448 34.5182C18.9605 34.563 19.1823 35.0357 19.3267 35.3313C19.2147 35.1712 19.1083 35.0133 18.9907 34.8486C18.7667 34.5227 18.5237 34.2035 18.2684 33.8597L17.8786 33.3691C17.7509 33.2033 17.5963 33.0432 17.4541 32.8774C17.1181 32.5011 16.7586 32.136 16.3879 31.7765C16.6735 31.5749 17.6759 30.8469 17.9872 30.3205C18.2986 29.7941 18.5472 29.0526 18.3064 28.459C18.0656 27.8654 17.3992 27.563 16.8213 27.8665C16.0194 28.291 15.8245 29.9161 15.9656 30.7136C15.9746 30.764 16.1403 31.3251 16.2378 31.632C16.0138 31.4169 15.7898 31.2019 15.5568 30.9925C14.8848 30.3865 14.1792 29.7952 13.4815 29.2005C13.2676 29.019 13.057 28.8353 12.8453 28.6528C12.9472 28.5822 14.158 27.7411 14.5063 27.1565C14.8165 26.6368 15.0663 25.8875 14.8255 25.2939C14.5847 24.7003 13.9183 24.3979 13.3404 24.7014C12.5384 25.127 12.3424 26.7521 12.4847 27.5496C12.4948 27.6101 12.7344 28.4165 12.8061 28.6192C12.3402 28.216 11.8788 27.8094 11.4408 27.3872C10.8462 26.8244 10.2884 26.224 9.77091 25.5896C9.81907 25.556 11.0858 24.6846 11.4431 24.0854C11.7533 23.5657 12.0031 22.8176 11.7623 22.224C11.5215 21.6304 10.8551 21.328 10.2783 21.6315C9.47523 22.056 9.28035 23.6811 9.42147 24.4785C9.43267 24.5413 9.69139 25.4093 9.74963 25.5638C9.71939 25.5269 9.68467 25.4921 9.65555 25.4518C9.15388 24.8111 8.71011 24.1271 8.32947 23.4078C8.11555 23.008 7.93411 22.6137 7.76947 22.2262C8.02147 22.0885 9.16947 21.4422 9.55027 20.9405C9.91539 20.4577 10.2469 19.7409 10.0722 19.1249C9.89747 18.5089 9.26915 18.1326 8.66211 18.3734C7.81763 18.7094 7.44467 20.3009 7.49731 21.1096C7.49731 21.1533 7.57907 21.5968 7.64179 21.9193C7.56787 21.7435 7.48947 21.5632 7.41779 21.3929C7.16467 20.7545 6.96979 20.1609 6.80739 19.6222C6.71555 19.3187 6.63827 19.0421 6.56883 18.7833C6.74579 18.5179 7.44691 17.4393 7.55107 16.8301C7.65523 16.2208 7.61603 15.4457 7.17699 14.9787C6.73795 14.5117 6.00771 14.468 5.57875 14.9608C4.98403 15.6462 5.38723 17.2333 5.80275 17.9265C5.83859 17.9859 6.51395 18.8573 6.52291 18.8438L6.53411 18.8281C6.59571 19.079 6.66515 19.3478 6.74579 19.639C6.90035 20.1766 7.08179 20.7814 7.32035 21.431C7.57058 22.1304 7.86192 22.8144 8.19283 23.4795C8.559 24.2259 8.99117 24.9381 9.48419 25.6075L9.50323 25.631C9.28707 25.4753 8.66995 25.0609 8.61843 25.0341C7.89939 24.6611 6.28995 24.3621 5.64595 25.0016C5.18115 25.4619 5.28307 26.1955 5.76803 26.5953C6.25299 26.9952 7.05603 26.9918 7.64515 26.8462Z" fill="black"/>
<path opacity="0.15" d="M20.5262 17.1284C20.543 17.1284 20.4041 16.0375 20.3873 15.9703C20.1935 15.1863 19.358 13.7751 18.4531 13.7113C17.8012 13.6642 17.3163 14.2265 17.3331 14.8525C17.3499 15.4786 17.883 16.0767 18.3769 16.4273C18.9582 16.8383 20.5251 17.1284 20.5262 17.1284Z" fill="black"/>
</g>
<g opacity="0.15">
<path opacity="0.15" d="M43.8446 34.4143C44.6667 34.4412 46.3646 33.7211 46.3669 33.72C46.3691 33.7188 45.5515 32.7456 45.4922 32.6907C44.8022 32.0534 43.0965 31.2279 42.1814 31.7443C41.5218 32.1161 41.412 32.9673 41.8309 33.5609C42.2498 34.1545 43.1435 34.3919 43.8446 34.4143Z" fill="black"/>
<path opacity="0.15" d="M60.4655 50.9053L60.5305 51.0173H61.273C61.1823 50.8728 61.0882 50.7272 60.9919 50.5771C60.7175 50.1526 60.4162 49.7035 60.1026 49.2465C60.4866 48.8816 60.849 48.4945 61.1879 48.0873C61.9025 48.4289 63.4346 48.5521 63.6329 48.5667C63.6329 49.0651 63.6205 49.5489 63.606 50.0059C63.5959 50.3206 63.5836 50.6219 63.5701 50.9131L64.2186 50.6555C64.2186 50.4483 64.2264 50.2377 64.2287 50.0182C64.2287 49.5131 64.2287 48.9733 64.2209 48.4177C64.4202 48.383 66.0442 48.0907 66.6849 47.6539C67.2628 47.2574 67.8889 46.591 67.9236 45.8507C67.9583 45.1104 67.4061 44.4664 66.649 44.5067C65.6007 44.5638 64.6061 46.1777 64.3687 47.0827C64.3541 47.1365 64.2668 47.7345 64.2175 48.112C64.2175 47.888 64.2096 47.664 64.2018 47.4321C64.1895 46.9707 64.1637 46.5104 64.1369 46.0153C64.1152 45.7772 64.0939 45.5364 64.073 45.2929C64.0573 45.051 64.0092 44.7979 63.9778 44.547C63.8927 43.9691 63.7796 43.3867 63.6519 42.8032C64.0551 42.7909 65.4898 42.727 66.1237 42.4213C66.7577 42.1155 67.4745 41.5544 67.6212 40.8275C67.7679 40.1006 67.3188 39.3805 66.5661 39.3065C65.5201 39.2046 64.2925 40.6505 63.9196 41.5096C63.8961 41.5633 63.6956 42.2118 63.5959 42.5691C63.5164 42.2197 63.4391 41.8691 63.3472 41.5174C63.0818 40.5016 62.7816 39.4813 62.4871 38.4621C62.3964 38.1507 62.3101 37.8382 62.2228 37.5269C62.3661 37.5269 64.0719 37.4854 64.782 37.1427C65.4136 36.8392 66.1338 36.2758 66.2794 35.5489C66.425 34.8221 65.9781 34.1019 65.2244 34.028C64.1783 33.9261 62.9519 35.372 62.5789 36.231C62.5509 36.296 62.2664 37.2289 62.206 37.4697C62.0133 36.7821 61.8274 36.0955 61.6717 35.4112C61.4565 34.4889 61.3017 33.5536 61.2081 32.6112C61.2741 32.6112 63.0561 32.5787 63.7841 32.2281C64.4157 31.9235 65.1348 31.3601 65.2815 30.6333C65.4282 29.9064 64.9802 29.1862 64.2265 29.1134C63.1804 29.0104 61.954 30.4574 61.5799 31.3165C61.5508 31.3837 61.2439 32.3872 61.2036 32.5731C61.2036 32.5182 61.1879 32.4611 61.1834 32.4073C61.1151 31.4591 61.1316 30.5067 61.2327 29.5614C61.282 29.0384 61.3581 28.5411 61.4432 28.0595C61.7792 28.0875 63.2957 28.1984 63.9856 27.9553C64.6464 27.7224 65.4237 27.2419 65.6477 26.5352C65.8717 25.8285 65.5077 25.0646 64.7663 24.9078C63.7381 24.6917 62.3605 25.9931 61.8946 26.8118C61.87 26.8566 61.6617 27.3349 61.5161 27.6865C61.5575 27.4693 61.5967 27.2453 61.6404 27.0381C61.8039 26.2541 62.0021 25.5585 62.1813 24.9381C62.2866 24.5864 62.3885 24.2661 62.4882 23.9749C62.8242 23.8326 64.1929 23.2401 64.6834 22.7171C65.174 22.1941 65.6321 21.4201 65.5055 20.6899C65.3789 19.9597 64.7025 19.4489 63.9733 19.6517C62.9653 19.9339 62.337 21.7237 62.3001 22.6611C62.3001 22.7417 62.3908 24.0152 62.4121 24.0051L62.4333 23.9973C62.3325 24.2784 62.2284 24.5819 62.1197 24.9157C61.926 25.5328 61.7132 26.2328 61.5317 27.0101C61.3277 27.8452 61.1721 28.6915 61.0658 29.5446C60.9434 30.4996 60.906 31.4636 60.9538 32.4253C60.9538 32.4365 60.9538 32.4488 60.9538 32.46C60.8418 32.1721 60.5137 31.3769 60.4812 31.3187C60.0253 30.4989 58.6612 29.1829 57.6308 29.3878C56.8882 29.5357 56.5186 30.3107 56.7348 31.0051C56.9509 31.6995 57.7237 32.2035 58.3812 32.4432C59.1237 32.7153 60.8328 32.5832 60.9684 32.572C61.0418 33.5508 61.1803 34.5236 61.3828 35.484C61.4948 36.044 61.6303 36.604 61.7714 37.164C61.6684 36.9176 61.5754 36.6981 61.5597 36.6689C61.1028 35.8491 59.7397 34.5331 58.7082 34.7381C57.9657 34.8859 57.5961 35.6609 57.8122 36.3553C58.0284 37.0497 58.8012 37.5537 59.4597 37.7934C60.1183 38.0331 61.5877 37.9547 61.973 37.9278C62.029 38.1417 62.085 38.3568 62.1388 38.5707C62.4121 39.5966 62.6898 40.6192 62.9306 41.6317C63.0157 41.9878 63.0863 42.3417 63.1546 42.6957C63.0639 42.4784 62.9855 42.2947 62.9698 42.2678C62.514 41.448 61.1509 40.132 60.1194 40.3369C59.3769 40.4848 59.0073 41.2598 59.2234 41.9542C59.4396 42.6486 60.2124 43.1526 60.8709 43.3923C61.5082 43.6253 62.8556 43.5614 63.3148 43.5312C63.3775 43.8963 63.4402 44.2614 63.485 44.6176C63.5097 44.8617 63.55 45.0947 63.5623 45.3422C63.5746 45.5897 63.5948 45.8272 63.6105 46.0657C63.6239 46.5272 63.6418 47.0032 63.6441 47.4545C63.6441 47.767 63.6441 48.0661 63.6441 48.3673C63.5634 48.0112 63.3909 47.3179 63.3708 47.2619C63.0546 46.4992 62.5483 45.8302 61.9002 45.3187C61.8686 45.2325 61.8292 45.1492 61.7826 45.0701C61.4097 44.4462 60.5865 44.2009 59.9794 44.6523C59.1361 45.2784 59.1954 47.1734 59.4989 48.0616C59.5169 48.1142 59.7733 48.6608 59.9469 49.0035C59.817 48.8176 59.6938 48.635 59.5594 48.4435C59.294 48.0661 59.0185 47.6965 58.7228 47.2977L58.2748 46.7299C58.1281 46.5373 57.9489 46.3525 57.7842 46.1609C57.3945 45.7253 56.9789 45.3019 56.5522 44.8864C56.8826 44.6534 58.0441 43.8089 58.4036 43.2064C58.7631 42.6038 59.0521 41.7381 58.7732 41.0504C58.4943 40.3627 57.7237 40.0099 57.054 40.3649C56.1255 40.8566 55.8993 42.7382 56.0628 43.6622C56.0729 43.7193 56.2655 44.3689 56.3775 44.724C56.1177 44.4753 55.8601 44.2267 55.5935 43.9837C54.8095 43.2825 53.9997 42.5971 53.1911 41.9105C52.9436 41.7 52.6994 41.4883 52.4541 41.2755C52.5729 41.1937 53.974 40.2205 54.3783 39.544C54.7367 38.9414 55.0268 38.0745 54.7468 37.388C54.4668 36.7014 53.6973 36.3475 53.0287 36.7014C52.1002 37.1942 51.8728 39.0747 52.0364 39.9987C52.0487 40.0681 52.3265 41.0067 52.4093 41.2374C51.8695 40.7704 51.3353 40.3 50.8279 39.8161C50.1394 39.1644 49.4937 38.4689 48.8948 37.7341C48.9508 37.696 50.418 36.6869 50.8313 35.9936C51.1908 35.391 51.4797 34.5253 51.2009 33.8376C50.922 33.1499 50.1503 32.7971 49.4817 33.1521C48.5532 33.6438 48.3269 35.5254 48.4905 36.4483C48.5028 36.5211 48.8029 37.5269 48.8701 37.7049C48.8354 37.6624 48.7951 37.6221 48.7581 37.5784C48.1696 36.8228 47.6497 36.0162 47.2047 35.1681C46.9572 34.7045 46.7466 34.2486 46.5517 33.7995C46.8441 33.6393 48.1735 32.8934 48.6148 32.311C49.037 31.751 49.4201 30.9222 49.2185 30.2088C49.0169 29.4953 48.2889 29.0585 47.5855 29.3374C46.6077 29.7249 46.1765 31.5696 46.2415 32.5059C46.2415 32.5574 46.3367 33.0659 46.4084 33.4445C46.3233 33.2406 46.2314 33.0312 46.1541 32.8341C45.8618 32.096 45.6389 31.4016 45.4474 30.7845C45.341 30.4328 45.2514 30.1125 45.1719 29.8123C45.3769 29.5054 46.1889 28.2589 46.3087 27.551C46.4263 26.86 46.3837 25.9472 45.8764 25.4073C45.369 24.8675 44.5212 24.816 44.025 25.3872C43.3362 26.1813 43.801 28.0181 44.2893 28.82C44.3319 28.8894 45.1125 29.8985 45.1237 29.8829L45.1361 29.8649C45.2077 30.155 45.2873 30.4664 45.3825 30.8035C45.5605 31.4251 45.7689 32.1273 46.0466 32.8744C46.336 33.6837 46.6726 34.4754 47.0546 35.2454C47.4789 36.1095 47.9793 36.9341 48.5498 37.7094L48.5722 37.7363C48.3225 37.556 47.6068 37.0766 47.5485 37.0453C46.7153 36.6129 44.8516 36.268 44.1057 37.0072C43.5681 37.5403 43.6868 38.3904 44.2468 38.8529C44.8068 39.3155 45.733 39.3065 46.4151 39.1441C47.1834 38.9605 48.5364 37.9121 48.6439 37.8237C49.2438 38.5988 49.8948 39.3329 50.5927 40.0211C50.997 40.4243 51.417 40.8174 51.8426 41.2072C51.6186 41.0582 51.4237 40.9272 51.3946 40.9115C50.5613 40.4792 48.6988 40.1342 47.9517 40.8734C47.4141 41.4054 47.5329 42.2566 48.094 42.7181C48.6551 43.1795 49.5791 43.1728 50.2612 43.0093C50.9433 42.8457 52.1237 41.971 52.4306 41.7347C52.5964 41.8825 52.7588 42.0315 52.9245 42.1827C53.7186 42.8883 54.5138 43.5883 55.2765 44.2995C55.5442 44.5493 55.7985 44.8057 56.0538 45.0622C55.8567 44.9301 55.6909 44.8203 55.6641 44.8057C54.8308 44.3745 52.9671 44.0285 52.2212 44.7677C51.6825 45.3008 51.8023 46.1509 52.3623 46.6134C52.9223 47.076 53.8485 47.067 54.5306 46.9046C55.1903 46.7467 56.2789 45.9504 56.6441 45.6726C56.8983 45.9425 57.1525 46.2125 57.3866 46.4857C57.5423 46.675 57.7047 46.8475 57.8503 47.0457L58.2893 47.6225C58.5559 48 58.8325 48.3875 59.0834 48.7627C59.2593 49.0214 59.4194 49.2712 59.5874 49.5232C59.3242 49.2712 58.7978 48.7873 58.7496 48.7526C57.9914 48.1993 56.2017 47.5755 55.3516 48.1926C54.7389 48.6406 54.7277 49.4974 55.2127 50.0384C55.6977 50.5793 56.6127 50.7104 57.3105 50.6544C58.0799 50.5917 59.5213 49.7953 59.7005 49.6945C59.966 50.1078 60.2258 50.5121 60.4655 50.9053Z" fill="black"/>
<path opacity="0.15" d="M61.3268 27.8881C61.3458 27.8881 61.1845 26.6247 61.1655 26.5441C60.9415 25.6324 59.9738 24.0028 58.9255 23.9289C58.1695 23.8751 57.6084 24.5247 57.6308 25.2505C57.6532 25.9763 58.2681 26.6673 58.8393 27.0739C59.5113 27.5521 61.3257 27.8881 61.3268 27.8881Z" fill="black"/>
</g>
<path d="M19.1744 37.9111H6.19812V40.4502H19.1744V37.9111Z" fill="white" stroke="#263238" stroke-width="0.112" stroke-linecap="round" stroke-linejoin="round"/>
<path d="M22.7675 35.2427H9.79114V37.9105H22.7675V35.2427Z" fill="white" stroke="#263238" stroke-width="0.112" stroke-linecap="round" stroke-linejoin="round"/>
<path d="M26.3615 32.5742H13.3851V35.2421H26.3615V32.5742Z" fill="white" stroke="#263238" stroke-width="0.112" stroke-linecap="round" stroke-linejoin="round"/>
<path d="M29.9545 29.9062H16.9781V32.5741H29.9545V29.9062Z" fill="white" stroke="#263238" stroke-width="0.112" stroke-linecap="round" stroke-linejoin="round"/>
<path d="M33.6818 51.0127V29.9062H29.9556V32.5741H26.3615V35.2431H22.7685V37.9109H19.1744V51.0127H33.6818Z" fill="#263238" stroke="#263238" stroke-width="0.112" stroke-linecap="round" stroke-linejoin="round"/>
<path d="M33.6818 48.4722H20.7054V51.0112H33.6818V48.4722Z" fill="white" stroke="#263238" stroke-width="0.112" stroke-linecap="round" stroke-linejoin="round"/>
<path d="M17.1125 48.4722H30.0889V45.8043H17.1125V48.4722Z" fill="white" stroke="#263238" stroke-width="0.112" stroke-linecap="round" stroke-linejoin="round"/>
<path d="M13.5184 45.8047H26.4948V43.1357H13.5184V45.8047Z" fill="white" stroke="#263238" stroke-width="0.112" stroke-linecap="round" stroke-linejoin="round"/>
<path d="M9.92432 43.1357H22.9006V40.4679H9.92432V43.1357Z" fill="white" stroke="#263238" stroke-width="0.112" stroke-linecap="round" stroke-linejoin="round"/>
<path d="M6.19812 51.0126V40.4678H9.92436V43.1356H13.5173V45.8046H17.1114V48.4724H20.7055V51.0126H6.19812Z" fill="#263238" stroke="#263238" stroke-width="0.112" stroke-linecap="round" stroke-linejoin="round"/>
<path d="M72.6365 34.9788L71.792 37.744L69.9194 36.3048C69.8912 36.1253 69.8538 35.9474 69.8074 35.7717C69.7704 35.6844 69.5476 35.4245 69.4972 35.3237C69.4468 35.2229 69.374 35.3114 69.374 35.3864C69.374 35.4615 69.5476 35.709 69.5476 35.709L69.4602 35.7952L68.7658 35.4648C68.7577 35.4611 68.749 35.459 68.7401 35.4587C68.7312 35.4583 68.7223 35.4598 68.714 35.4629C68.7056 35.466 68.698 35.4708 68.6915 35.4769C68.685 35.483 68.6798 35.4903 68.6762 35.4984V35.4984C68.6696 35.5121 68.668 35.5277 68.6717 35.5424C68.6754 35.5571 68.6841 35.5701 68.6964 35.5791L69.076 35.8703L69.0268 35.9688L68.394 35.709C68.386 35.7058 68.3774 35.7042 68.3688 35.7044C68.3602 35.7046 68.3517 35.7065 68.3438 35.7101C68.336 35.7137 68.3289 35.7188 68.3231 35.7251C68.3173 35.7315 68.3128 35.739 68.31 35.7471V35.7471C68.3056 35.7608 68.3061 35.7755 68.3111 35.7889C68.3162 35.8023 68.3257 35.8136 68.338 35.821L68.9148 36.157L68.5384 36.2309C68.5297 36.2327 68.5214 36.2363 68.5141 36.2415C68.5068 36.2467 68.5007 36.2534 68.4962 36.2611C68.4916 36.2688 68.4887 36.2774 68.4877 36.2863C68.4867 36.2951 68.4876 36.3041 68.4903 36.3127V36.3127C68.4947 36.3253 68.5028 36.3363 68.5136 36.3441C68.5245 36.3519 68.5374 36.3562 68.5508 36.3564H68.9394L68.6034 36.4796C68.6034 36.4796 68.6471 36.577 68.7154 36.5736L69.113 36.5546L69.6965 36.5916C69.6965 36.5916 71.5927 38.5796 71.6554 38.64C71.7181 38.7005 72.09 38.836 72.1639 38.7621C72.2378 38.6882 73.07 37.6824 73.07 37.6824L72.9456 35.0784C72.9456 35.0784 72.8224 34.832 72.6365 34.9788Z" fill="white" stroke="#263238" stroke-width="0.112" stroke-linecap="round" stroke-linejoin="round"/>
<path d="M73.0846 31.7891C73.0846 31.7891 72.7228 31.8137 72.5526 31.2291C72.3823 30.6444 72.8191 30.4787 73.061 30.4305C73.303 30.3824 73.3511 29.8504 73.7622 29.7776C74.1732 29.7048 74.6078 30.0441 74.7052 30.3376C74.8026 30.631 75.431 30.192 75.7927 30.5795C76.1545 30.967 76.1287 31.7152 76.1287 31.9817C76.1287 32.2483 76.9508 32.2964 76.9508 32.9248C76.9508 33.5531 76.8534 33.8678 76.9015 33.9641C76.9497 34.0604 77.3126 36.0406 77.3126 36.0406H72.8001C72.8001 36.0406 72.6556 34.5936 72.8247 34.2307C72.9938 33.8678 73.1394 33.8432 73.2111 33.5049C73.2828 33.1667 73.2111 32.6347 73.163 32.3928C73.1265 32.193 73.1004 31.9915 73.0846 31.7891V31.7891Z" fill="#263238" stroke="#263238" stroke-width="0.112" stroke-linecap="round" stroke-linejoin="round"/>
<path d="M73.9559 34.3282L72.6018 34.3528L72.8672 37.6647L75.4309 37.8584L76.6394 34.4245L75.189 34.3047L73.9559 34.3282Z" fill="#263238" stroke="#263238" stroke-width="0.112" stroke-linecap="round" stroke-linejoin="round"/>
<path d="M73.5202 31.0153C73.5202 31.0153 73.1573 31.5238 73.0845 31.7892C72.9893 32.0962 72.9685 32.4214 73.024 32.7379C73.0968 33.1008 73.3029 33.7 73.4474 33.7459C73.5919 33.7918 73.9794 33.7459 73.9794 33.7459L73.9559 34.326H73.7621L73.7856 35.1963L74.7051 35.2444L75.189 34.3014L74.9471 34.2532L74.7779 32.8275C74.7779 32.8275 75.0188 32.5609 75.0434 32.3672C75.0571 32.271 75.0653 32.1742 75.068 32.0771C75.068 32.0771 74.7779 32.2955 74.536 32.0771C74.2941 31.8587 74.2213 31.6179 74.1485 31.376C74.0757 31.134 73.9312 30.9414 73.8125 30.9414C73.7117 30.9502 73.613 30.9752 73.5202 31.0153V31.0153Z" fill="white" stroke="#263238" stroke-width="0.112" stroke-linecap="round" stroke-linejoin="round"/>
<path d="M73.9794 33.7481L74.3904 33.6025L74.004 34.0382L73.9794 33.7481Z" fill="#263238" stroke="#263238" stroke-width="0.112" stroke-linecap="round" stroke-linejoin="round"/>
<path d="M72.8673 37.6646L72.6018 38.5113C72.6018 38.5113 71.6341 39.5506 71.4404 41.4849C71.2466 43.4191 71.5613 45.3298 71.6588 46.1038C71.7562 46.8777 72.6881 50.2981 72.6881 50.2981H73.3175C73.3175 50.2981 73.0845 47.1196 73.0845 46.8049V45.0398L74.862 49.9274L75.4433 49.9521C75.4433 49.9521 75.2103 47.6437 75.0658 46.7041C74.9659 46.0865 74.8294 45.4754 74.657 44.874C74.657 44.874 75.9361 42.3361 75.9361 40.5911C75.9361 38.8462 75.5004 38.4631 75.5004 38.4631L75.4287 37.8583L72.8673 37.6646Z" fill="#BABABA" stroke="#263238" stroke-width="0.112" stroke-linecap="round" stroke-linejoin="round"/>
<path d="M73.6434 40.3199C73.7274 39.9425 73.7857 39.6938 73.7857 39.6938" stroke="#263238" stroke-width="0.112" stroke-linecap="round" stroke-linejoin="round"/>
<path d="M73.0845 45.0401C73.0845 45.0401 72.9882 44.5563 73.061 43.5169C73.1036 42.9031 73.3477 41.6846 73.5415 40.7886" stroke="#263238" stroke-width="0.112" stroke-linecap="round" stroke-linejoin="round"/>
<path d="M72.688 50.2983C72.688 50.2983 71.5524 50.8303 71.5524 50.9513C71.5524 51.0723 73.3656 50.9513 73.3656 50.9513C73.4076 50.8352 73.424 50.7114 73.4138 50.5884C73.399 50.4868 73.3664 50.3886 73.3175 50.2983H72.688Z" fill="white" stroke="#263238" stroke-width="0.112" stroke-linecap="round" stroke-linejoin="round"/>
<path d="M74.8619 49.9277C74.8619 49.9277 74.3311 50.6053 74.1608 50.7745C73.9906 50.9436 74.0399 51.0645 74.1855 51.0645C74.3311 51.0645 75.1531 51.0164 75.2976 50.9201C75.3796 50.8671 75.4529 50.8018 75.5149 50.7263L75.4432 49.9524L74.8619 49.9277Z" fill="white" stroke="#263238" stroke-width="0.112" stroke-linecap="round" stroke-linejoin="round"/>
<path d="M76.496 34.8604C76.496 34.8604 76.7144 38.0759 76.5206 38.4152C76.3269 38.7546 75.7714 38.5597 75.7232 38.4152C75.675 38.2708 75.7714 37.0119 75.7714 37.0119L76.496 34.8604Z" fill="white" stroke="#263238" stroke-width="0.112" stroke-linecap="round" stroke-linejoin="round"/>
<path d="M70.607 27.1697L60.3574 28.6631L62.943 46.408L73.1925 44.9146L70.607 27.1697Z" fill="#50C2E7" stroke="#263238" stroke-width="0.112" stroke-linecap="round" stroke-linejoin="round"/>
<path d="M69.98 29.8553C69.8176 29.879 69.6521 29.8706 69.493 29.8304C69.3339 29.7901 69.1842 29.7189 69.0526 29.6209C68.9211 29.5228 68.8101 29.3997 68.7261 29.2587C68.6421 29.1177 68.5868 28.9615 68.5632 28.7991C68.5567 28.7478 68.5529 28.6962 68.552 28.6445L62.6664 29.5013C62.681 29.5509 62.6922 29.6014 62.7 29.6525C62.7474 29.9806 62.6627 30.314 62.4644 30.5797C62.2662 30.8453 61.9707 31.0214 61.6427 31.0693C61.6169 31.0693 61.5923 31.0749 61.5665 31.0772L63.4123 43.7556C63.438 43.75 63.4627 43.7444 63.4884 43.741C63.6511 43.7173 63.8168 43.7258 63.9761 43.7663C64.1354 43.8067 64.2852 43.8782 64.4168 43.9766C64.5484 44.075 64.6594 44.1985 64.7432 44.3399C64.827 44.4813 64.8821 44.6378 64.9052 44.8005C64.9127 44.8517 64.9168 44.9034 64.9176 44.9551L70.802 44.0983C70.7877 44.0483 70.7768 43.9974 70.7696 43.946C70.7458 43.7836 70.7543 43.6182 70.7945 43.4592C70.8347 43.3001 70.9059 43.1506 71.004 43.0191C71.1021 42.8876 71.2252 42.7767 71.3662 42.6929C71.5072 42.609 71.6634 42.5537 71.8257 42.5303C71.8769 42.5228 71.9286 42.5187 71.9803 42.518L70.1312 29.8228C70.0814 29.8365 70.0309 29.8473 69.98 29.8553V29.8553ZM67.068 38.8152C66.6671 38.8737 66.2578 38.8119 65.892 38.6378C65.5262 38.4637 65.2203 38.185 65.0128 37.837C64.8054 37.489 64.7059 37.0873 64.7267 36.6827C64.7476 36.2781 64.888 35.8887 65.1301 35.5639C65.3722 35.2391 65.7052 34.9934 66.087 34.8578C66.4688 34.7222 66.8822 34.7029 67.275 34.8023C67.6677 34.9017 68.0222 35.1153 68.2936 35.4161C68.5649 35.7169 68.741 36.0915 68.7995 36.4924C68.839 36.7589 68.8255 37.0307 68.7598 37.292C68.6941 37.5533 68.5775 37.7991 68.4166 38.0153C68.2558 38.2315 68.0539 38.4139 67.8224 38.5519C67.591 38.6899 67.3346 38.7809 67.068 38.8197V38.8152Z" fill="white" stroke="#263238" stroke-width="0.112" stroke-linecap="round" stroke-linejoin="round"/>
<path d="M68.9043 27.5487L58.8573 30.2417L63.5197 47.636L73.5667 44.943L68.9043 27.5487Z" fill="#50C2E7" stroke="#263238" stroke-width="0.112475" stroke-linecap="round" stroke-linejoin="round"/>
<path d="M68.2685 30.2816C67.9485 30.3671 67.6075 30.3221 67.3207 30.1564C67.0338 29.9907 66.8244 29.7179 66.7386 29.3979C66.7259 29.3477 66.7158 29.2969 66.7084 29.2456L60.9639 30.7822C60.9835 30.8301 61.0003 30.8791 61.0143 30.929C61.0568 31.0875 61.0676 31.2529 61.0461 31.4156C61.0246 31.5784 60.9712 31.7353 60.8891 31.8774C60.8069 32.0195 60.6975 32.144 60.5672 32.2437C60.4368 32.3435 60.2881 32.4166 60.1295 32.4589C60.1048 32.4656 60.0791 32.4701 60.0544 32.4757L63.3652 44.8528L63.4391 44.8293C63.5976 44.7868 63.7629 44.7759 63.9255 44.7973C64.0882 44.8188 64.2451 44.872 64.3872 44.9541C64.5292 45.0362 64.6538 45.1454 64.7536 45.2756C64.8534 45.4058 64.9266 45.5544 64.969 45.713C64.9823 45.763 64.9924 45.8139 64.9992 45.8653L70.7437 44.3286C70.7241 44.2808 70.7073 44.2318 70.6933 44.1819C70.6078 43.8617 70.653 43.5207 70.8189 43.2338C70.9849 42.9469 71.2579 42.7376 71.5781 42.652C71.6281 42.6381 71.679 42.628 71.7304 42.6218L68.4152 30.2312C68.3674 30.251 68.3184 30.2678 68.2685 30.2816V30.2816ZM66.416 39.5238C66.0245 39.6273 65.6111 39.6124 65.228 39.4811C64.8449 39.3497 64.5094 39.1077 64.2638 38.7857C64.0182 38.4637 63.8735 38.0761 63.8481 37.6719C63.8227 37.2677 63.9177 36.865 64.121 36.5148C64.3244 36.1646 64.627 35.8825 64.9906 35.7042C65.3542 35.5258 65.7625 35.4593 66.164 35.513C66.5654 35.5666 66.9419 35.738 67.2459 36.0056C67.5499 36.2732 67.7678 36.6248 67.872 37.0162C67.9415 37.2764 67.9589 37.5478 67.9233 37.8149C67.8877 38.0819 67.7998 38.3392 67.6645 38.5722C67.5292 38.8051 67.3493 39.0091 67.1351 39.1724C66.9209 39.3357 66.6765 39.4552 66.416 39.5238V39.5238Z" fill="white" stroke="#263238" stroke-width="0.112" stroke-linecap="round" stroke-linejoin="round"/>
<path d="M75.936 37.8831L72.333 37.8103C72.333 37.8103 71.6072 37.5684 71.4862 37.5684C71.3163 37.5957 71.1492 37.6381 70.9867 37.6949C70.9712 37.6998 70.958 37.7103 70.9497 37.7244C70.9414 37.7385 70.9387 37.7551 70.9419 37.7711V37.7711C70.9454 37.7879 70.9553 37.8026 70.9696 37.8123C70.9838 37.8219 71.0012 37.8256 71.0181 37.8226L71.3664 37.7621L71.4627 37.8338L70.765 38.2818C70.7508 38.291 70.7406 38.3053 70.7364 38.3217C70.7323 38.3381 70.7345 38.3554 70.7426 38.3703V38.3703C70.7507 38.3853 70.7642 38.3967 70.7805 38.4022C70.7967 38.4076 70.8144 38.4066 70.8299 38.3994L71.3541 38.153L71.372 38.2852L70.812 38.5775C70.7942 38.5868 70.7806 38.6024 70.7735 38.6212C70.7665 38.64 70.7666 38.6607 70.7739 38.6794C70.7813 38.6973 70.7948 38.7121 70.812 38.7211C70.8292 38.7301 70.849 38.7328 70.868 38.7287L71.073 38.6816C71.0966 38.7106 71.1281 38.732 71.1637 38.7433C71.1993 38.7547 71.2374 38.7554 71.2734 38.7455L71.6554 38.6335L71.4134 38.788C71.404 38.7937 71.396 38.8014 71.3902 38.8107C71.3844 38.82 71.3808 38.8305 71.3798 38.8415C71.3788 38.8524 71.3805 38.8634 71.3845 38.8736C71.3886 38.8838 71.3951 38.8928 71.4034 38.9V38.9C71.4155 38.9095 71.4305 38.9146 71.4459 38.9146C71.4613 38.9146 71.4763 38.9095 71.4885 38.9L71.9723 38.5696L72.3867 38.3053L76.0379 38.9482C76.0379 38.9482 76.3459 38.9751 76.3997 38.9135C76.4534 38.8519 76.5576 38.2695 76.5666 38.1194" fill="white"/>
<path d="M75.936 37.8831L72.333 37.8103C72.333 37.8103 71.6072 37.5684 71.4862 37.5684C71.3163 37.5957 71.1492 37.6381 70.9867 37.6949C70.9712 37.6998 70.958 37.7103 70.9497 37.7244C70.9414 37.7385 70.9387 37.7551 70.9419 37.7711V37.7711C70.9454 37.7879 70.9553 37.8026 70.9696 37.8123C70.9838 37.8219 71.0012 37.8256 71.0181 37.8226L71.3664 37.7621L71.4627 37.8338L70.765 38.2818C70.7508 38.291 70.7406 38.3053 70.7364 38.3217C70.7323 38.3381 70.7345 38.3554 70.7426 38.3703V38.3703C70.7507 38.3853 70.7642 38.3967 70.7805 38.4022C70.7967 38.4076 70.8144 38.4066 70.8299 38.3994L71.3541 38.153L71.372 38.2852L70.812 38.5775C70.7942 38.5868 70.7806 38.6024 70.7735 38.6212C70.7665 38.64 70.7666 38.6607 70.7739 38.6794C70.7813 38.6973 70.7948 38.7121 70.812 38.7211C70.8292 38.7301 70.849 38.7328 70.868 38.7287L71.073 38.6816C71.0966 38.7106 71.1281 38.732 71.1637 38.7433C71.1993 38.7547 71.2374 38.7554 71.2734 38.7455L71.6554 38.6335L71.4134 38.788C71.404 38.7937 71.396 38.8014 71.3902 38.8107C71.3844 38.82 71.3808 38.8305 71.3798 38.8415C71.3788 38.8524 71.3805 38.8634 71.3845 38.8736C71.3886 38.8838 71.3951 38.8928 71.4034 38.9V38.9C71.4155 38.9095 71.4305 38.9146 71.4459 38.9146C71.4613 38.9146 71.4763 38.9095 71.4885 38.9L71.9723 38.5696L72.3867 38.3053L76.0379 38.9482C76.0379 38.9482 76.3459 38.9751 76.3997 38.9135C76.4534 38.8519 76.5576 38.2695 76.5666 38.1194" stroke="#263238" stroke-width="0.112" stroke-linecap="round" stroke-linejoin="round"/>
<path d="M71.0741 38.6838L71.568 38.499" stroke="#263238" stroke-width="0.112" stroke-linecap="round" stroke-linejoin="round"/>
<path d="M73.4082 32.1056C73.4082 32.1885 73.3657 32.2568 73.3119 32.2568C73.2581 32.2568 73.2156 32.1885 73.2156 32.1056C73.2156 32.0228 73.2593 31.9556 73.3119 31.9556C73.3645 31.9556 73.4082 32.0228 73.4082 32.1056Z" fill="#263238"/>
<path d="M73.9491 32.2204C73.9491 32.3033 73.9054 32.3705 73.8528 32.3705C73.8002 32.3705 73.7565 32.3033 73.7565 32.2204C73.7565 32.1375 73.8002 32.0703 73.8528 32.0703C73.9054 32.0703 73.9491 32.1375 73.9491 32.2204Z" fill="#263238"/>
<path d="M73.192 31.7645C73.192 31.7645 73.2883 31.6435 73.4799 31.7757" stroke="#263238" stroke-width="0.112" stroke-linecap="round" stroke-linejoin="round"/>
<path d="M73.7441 31.8359C73.8098 31.81 73.8829 31.8106 73.948 31.8375C74.0132 31.8645 74.0654 31.9157 74.0936 31.9804" stroke="#263238" stroke-width="0.112" stroke-linecap="round" stroke-linejoin="round"/>
<path d="M73.5045 32.1128C73.5175 32.1848 73.5132 32.2589 73.4922 32.329C73.4564 32.413 73.2884 32.5686 73.3007 32.6056C73.313 32.6426 73.3959 32.665 73.3959 32.665" stroke="#263238" stroke-width="0.112" stroke-linecap="round" stroke-linejoin="round"/>
<path d="M73.2883 32.954C73.2883 32.954 73.6243 33.1097 73.8886 32.8936" stroke="#263238" stroke-width="0.112" stroke-linecap="round" stroke-linejoin="round"/>
<path d="M35.9093 23.7967C38.0409 23.7967 39.7688 22.0687 39.7688 19.9372C39.7688 17.8056 38.0409 16.0776 35.9093 16.0776C33.7778 16.0776 32.0498 17.8056 32.0498 19.9372C32.0498 22.0687 33.7778 23.7967 35.9093 23.7967Z" fill="white" stroke="#263238" stroke-width="0.112" stroke-linecap="round" stroke-linejoin="round"/>
<path d="M36.299 23.7967C38.4305 23.7967 40.1585 22.0687 40.1585 19.9372C40.1585 17.8056 38.4305 16.0776 36.299 16.0776C34.1674 16.0776 32.4395 17.8056 32.4395 19.9372C32.4395 22.0687 34.1674 23.7967 36.299 23.7967Z" fill="white" stroke="#263238" stroke-width="0.112" stroke-linecap="round" stroke-linejoin="round"/>
<path d="M38.6153 22.2522C39.8942 20.9733 39.8942 18.8998 38.6153 17.6208C37.3364 16.3419 35.2628 16.3419 33.9839 17.6208C32.705 18.8998 32.705 20.9733 33.9839 22.2522C35.2628 23.5311 37.3364 23.5311 38.6153 22.2522Z" fill="white" stroke="#263238" stroke-width="0.112" stroke-linecap="round" stroke-linejoin="round"/>
<path d="M36.336 22.2396V21.8084C36.0179 21.7965 35.7801 21.6946 35.6225 21.5027C35.465 21.3108 35.3798 21.0248 35.3672 20.6448L36.0212 20.5328C36.024 20.6629 36.0402 20.7924 36.0694 20.9192C36.0869 21.0059 36.1279 21.0861 36.1881 21.151C36.2151 21.177 36.2471 21.1972 36.2821 21.2105C36.3172 21.2238 36.3545 21.2298 36.392 21.2283C36.4302 21.2324 36.4688 21.2259 36.5036 21.2095C36.5383 21.1931 36.5679 21.1674 36.5891 21.1353C36.6249 21.0698 36.6431 20.9961 36.6417 20.9214C36.6458 20.7813 36.6067 20.6432 36.5297 20.526C36.4447 20.4058 36.3441 20.2973 36.2307 20.2035L35.8376 19.8675C35.7512 19.788 35.6703 19.7027 35.5956 19.6121C35.5238 19.5233 35.4667 19.4234 35.4265 19.3164C35.3824 19.1898 35.3612 19.0563 35.3638 18.9222C35.3564 18.7981 35.3746 18.6737 35.4174 18.5569C35.4602 18.4402 35.5266 18.3335 35.6124 18.2435C35.7936 18.0741 36.0299 17.9759 36.2777 17.9668V17.5547H36.5017V17.9668C36.6455 17.9696 36.7864 18.0081 36.9116 18.0788C37.0132 18.1396 37.0973 18.2257 37.1558 18.3286C37.2118 18.4319 37.2521 18.5428 37.2756 18.6579C37.2996 18.7716 37.3153 18.8869 37.3227 19.0028L36.6596 19.1003C36.6576 18.9986 36.6483 18.8971 36.6316 18.7968C36.6213 18.7223 36.5928 18.6516 36.5488 18.5907C36.5257 18.565 36.4967 18.5452 36.4643 18.5331C36.432 18.521 36.3971 18.5169 36.3628 18.5212C36.3241 18.5208 36.2859 18.5299 36.2516 18.5476C36.2172 18.5654 36.1877 18.5913 36.1657 18.6232C36.1201 18.6888 36.0966 18.7673 36.0985 18.8472C36.0931 18.9696 36.129 19.0903 36.2004 19.1899C36.2714 19.2788 36.3489 19.3623 36.4323 19.4396L36.8176 19.7756C36.9196 19.8683 37.014 19.9691 37.0998 20.0769C37.1865 20.1859 37.2567 20.307 37.3081 20.4364C37.3629 20.5794 37.3899 20.7314 37.3876 20.8844C37.3897 21.0395 37.3556 21.1929 37.288 21.3324C37.2232 21.4654 37.1238 21.5784 37.0001 21.6595C36.8677 21.7458 36.7154 21.7971 36.5577 21.8084V22.2441L36.336 22.2396Z" fill="white" stroke="#263238" stroke-width="0.112" stroke-linecap="round" stroke-linejoin="round"/>
<path d="M26.6044 19.4595L26.7265 25.1178L26.6772 29.1408L27.3357 29.0434C27.3357 29.0434 28.0436 25.2634 28.0436 25.0438C28.0436 24.8243 28.4333 22.0198 28.4333 22.0198L29.1647 25.6531L29.5444 29.1397L30.2029 29.0422C30.2029 29.0422 30.2869 25.2622 30.2869 24.5802C30.2869 23.8981 30.2533 19.5066 30.2533 19.5066L28.1892 18.9712L26.6044 19.4595Z" fill="#263238" stroke="#263238" stroke-width="0.112" stroke-linecap="round" stroke-linejoin="round"/>
<path d="M27.3357 29.0435C27.3357 29.0435 28.3112 29.6774 28.1656 29.8275C28.02 29.9775 27.2136 29.8275 26.9941 29.8028C26.8927 29.7989 26.7932 29.7741 26.7018 29.73L26.6771 29.1443L27.3357 29.0435Z" fill="white" stroke="#263238" stroke-width="0.112" stroke-linecap="round" stroke-linejoin="round"/>
<path d="M30.2029 29.0435C30.2029 29.0435 31.1784 29.6774 31.0317 29.8275C30.885 29.9775 30.0808 29.8275 29.8613 29.8028C29.7599 29.7989 29.6604 29.7741 29.569 29.73L29.5443 29.1443L30.2029 29.0435Z" fill="white" stroke="#263238" stroke-width="0.112" stroke-linecap="round" stroke-linejoin="round"/>
<path d="M35.2306 15.961L36.1098 15.7583C36.1098 15.7583 36.9543 16.2063 37.0248 16.2701C37.0954 16.334 36.9543 16.3407 36.8008 16.3407C36.5602 16.3085 36.3219 16.261 36.0874 16.1985C36.0874 16.1985 36.4559 16.3105 36.3965 16.3653C36.3632 16.3912 36.3249 16.4098 36.284 16.42C36.2432 16.4302 36.2006 16.4318 36.1591 16.4247C36.0997 16.4124 35.8735 16.3765 35.8735 16.3765C35.8735 16.3765 35.4815 16.3653 35.3628 16.3407L35.244 16.3172L35.2306 15.961Z" fill="white" stroke="#263238" stroke-width="0.112" stroke-linecap="round" stroke-linejoin="round"/>
<path d="M29.5432 12.4745C29.5432 12.4745 27.5429 13.5945 27.2853 13.916C27.0277 14.2374 26.9414 15.8513 26.769 16.9915C26.6561 17.8402 26.5915 18.6947 26.5752 19.5507C26.5752 19.5507 28.0166 19.7445 28.8152 19.7232C29.3024 19.7082 29.7862 19.6361 30.2566 19.5081C30.2566 19.5081 30.5366 18.0667 30.6005 17.8517C30.6643 17.6366 31.1818 15.0517 31.1818 15.0517L32.7733 16.3206H35.2306V15.9566C35.2306 15.9566 33.2862 15.5086 33.265 15.4381C33.2437 15.3675 31.6085 13.0289 31.1134 12.7501C30.6184 12.4712 29.8882 12.2158 29.5432 12.4745Z" fill="#50C2E7" stroke="#263238" stroke-width="0.112" stroke-linecap="round" stroke-linejoin="round"/>
<path d="M29.737 11.8506L29.3718 12.732C29.3718 12.732 29.1994 12.7757 29.243 13.1195C29.2867 13.4634 29.7157 14.4311 29.8658 14.4098C30.0158 14.3885 30.4896 13.1039 30.4896 13.1039L29.737 11.8506Z" fill="white" stroke="#263238" stroke-width="0.112" stroke-linecap="round" stroke-linejoin="round"/>
<path d="M29.9431 12.8237L30.0954 13.9986L30.3822 13.4207L29.9431 12.8237Z" fill="#263238" stroke="#263238" stroke-width="0.112" stroke-linecap="round" stroke-linejoin="round"/>
<path d="M31.7809 11.3342C31.8518 11.3939 31.9393 11.4301 32.0316 11.4379C32.1239 11.4457 32.2163 11.4248 32.2961 11.3779C32.6198 11.2267 32.7699 10.9042 32.4899 10.6466C32.2099 10.389 32.0598 10.6678 31.9736 10.324C31.8873 9.98016 31.5435 9.74384 31.2478 9.82896C30.9521 9.91408 31.0552 10.0227 30.8401 10.0866C30.6251 10.1504 30.3451 9.95776 30.0651 10.2378C29.7851 10.5178 29.7425 11.1842 29.6787 11.4854C29.6149 11.7867 29.8937 11.8718 30.1267 11.8506C30.3597 11.8293 30.5568 11.3342 30.7505 11.1786C30.9443 11.0229 31.7809 11.3342 31.7809 11.3342Z" fill="#263238" stroke="#263238" stroke-width="0.112" stroke-linecap="round" stroke-linejoin="round"/>
<path d="M29.6945 11.9367C29.6945 11.9367 29.7158 12.4093 29.8065 12.5605C29.8973 12.7117 30.2545 13.4207 30.3867 13.4207C30.5245 13.4302 30.6629 13.4155 30.7955 13.377C30.8817 13.3344 31.2256 12.8831 31.4406 12.4955C31.6557 12.108 31.7856 11.3341 31.7856 11.3341C31.7856 11.3341 30.7529 10.689 30.688 10.8178C30.623 10.9466 30.6454 11.1403 30.5379 11.1616C30.4304 11.1829 30.1941 11.2053 30.1941 11.2053C30.1941 11.2053 30.2579 11.5066 30.1717 11.5704C30.0854 11.6343 29.8704 11.5066 29.8704 11.5066C29.8704 11.5066 29.6083 11.5491 29.6945 11.9367Z" fill="white" stroke="#263238" stroke-width="0.112" stroke-linecap="round" stroke-linejoin="round"/>
<path d="M30.8907 12.0131C30.8716 12.0949 30.819 12.1531 30.7787 12.143C30.7383 12.1329 30.7115 12.0568 30.7305 11.975C30.7495 11.8933 30.8022 11.8339 30.8481 11.8451C30.894 11.8563 30.9119 11.9313 30.8907 12.0131Z" fill="#263238"/>
<path d="M31.4529 12.1698C31.4327 12.2527 31.3812 12.3098 31.3353 12.2998C31.2894 12.2897 31.2681 12.2135 31.2871 12.1318C31.3062 12.05 31.3588 11.9906 31.3991 12.0018C31.4394 12.013 31.4719 12.0881 31.4529 12.1698Z" fill="#263238"/>
<path d="M30.6554 11.7052C30.6554 11.7052 30.7405 11.6368 30.9914 11.7052" stroke="#263238" stroke-width="0.112" stroke-linecap="round" stroke-linejoin="round"/>
<path d="M31.3688 11.8584C31.4137 11.8635 31.4569 11.8783 31.4956 11.9017C31.5343 11.9251 31.5674 11.9565 31.5928 11.9939" stroke="#263238" stroke-width="0.112" stroke-linecap="round" stroke-linejoin="round"/>
<path d="M31.1818 12.1641L31.0967 12.6221L30.8257 12.5885" stroke="#263238" stroke-width="0.112" stroke-linecap="round" stroke-linejoin="round"/>
<path d="M30.7405 12.8596C30.7405 12.8596 30.4852 12.8596 30.4045 12.5034" stroke="#263238" stroke-width="0.112" stroke-linecap="round" stroke-linejoin="round"/>
<path d="M29.9733 11.7006C29.9733 11.7006 29.9308 11.2056 29.737 11.2056C29.5432 11.2056 29.3719 11.6536 29.4794 11.8507C29.5869 12.0478 29.8658 12.1083 29.8658 12.1083" fill="white"/>
<path d="M29.9733 11.7006C29.9733 11.7006 29.9308 11.2056 29.737 11.2056C29.5432 11.2056 29.3719 11.6536 29.4794 11.8507C29.5869 12.0478 29.8658 12.1083 29.8658 12.1083" stroke="#263238" stroke-width="0.112" stroke-linecap="round" stroke-linejoin="round"/>
<path d="M28.2575 14.3013L28.6305 17.3925L31.7665 18.4644L31.8157 18.8272L27.6225 18.256L26.9505 14.7773C26.8687 14.3551 27.086 13.897 27.3873 13.6405C27.6885 13.384 28.1612 13.3706 28.1612 13.3706" fill="#50C2E7"/>
<path d="M28.2575 14.3013L28.6305 17.3925L31.7665 18.4644L31.8157 18.8272L27.6225 18.256L26.9505 14.7773C26.8687 14.3551 27.086 13.897 27.3873 13.6405C27.6885 13.384 28.1612 13.3706 28.1612 13.3706" stroke="#263238" stroke-width="0.112" stroke-linecap="round" stroke-linejoin="round"/>
<path d="M31.762 18.4643C31.762 18.4643 32.2615 18.3243 32.322 18.3119C32.3824 18.2996 32.7218 18.5628 32.789 18.5718C32.8562 18.5807 32.9704 18.602 32.9648 18.6905C32.9592 18.779 32.9301 18.8507 32.7666 18.7947C32.6735 18.7644 32.5829 18.7269 32.4956 18.6827C32.6492 18.8399 32.8123 18.9876 32.9839 19.1251C33.0457 19.1638 33.1022 19.2105 33.1519 19.2639C33.1595 19.2721 33.1651 19.2818 33.1681 19.2925C33.1712 19.3032 33.1718 19.3144 33.1697 19.3254C33.1676 19.3363 33.163 19.3465 33.1562 19.3553C33.1494 19.3641 33.1406 19.3712 33.1306 19.3759C32.9966 19.4397 32.8519 19.4777 32.7039 19.4879C32.4642 19.4879 31.8079 18.8283 31.8079 18.8283L31.762 18.4643Z" fill="white" stroke="#263238" stroke-width="0.112" stroke-linecap="round" stroke-linejoin="round"/>
<path d="M51.3185 27.6375C51.3185 27.6375 54.5239 25.8299 54.991 26.0046C55.458 26.1793 54.5822 29.7353 54.4657 29.9683C54.3492 30.2012 51.3185 27.6375 51.3185 27.6375Z" fill="#50C2E7" stroke="#263238" stroke-width="0.112" stroke-linecap="round" stroke-linejoin="round"/>
<path d="M54.815 26.4712C54.815 26.4712 54.6762 26.6874 54.4992 26.9987C54.1901 27.543 53.7667 28.3786 53.7667 28.8613C53.7667 29.6184 54.2326 29.5602 54.3491 28.9733L54.7568 27.2821" stroke="#263238" stroke-width="0.112" stroke-linecap="round" stroke-linejoin="round"/>
<path d="M27.8724 37.1215C28.7514 37.1215 29.4639 36.1939 29.4639 35.0495C29.4639 33.9052 28.7514 32.9775 27.8724 32.9775C26.9934 32.9775 26.2809 33.9052 26.2809 35.0495C26.2809 36.1939 26.9934 37.1215 27.8724 37.1215Z" fill="#50C2E7" stroke="#263238" stroke-width="0.112" stroke-linecap="round" stroke-linejoin="round"/>
<path d="M42.298 49.9178C50.6733 49.9178 57.4628 44.1698 57.4628 37.0793C57.4628 29.9887 50.6733 24.2407 42.298 24.2407C33.9227 24.2407 27.1332 29.9887 27.1332 37.0793C27.1332 44.1698 33.9227 49.9178 42.298 49.9178Z" fill="#50C2E7" stroke="#263238" stroke-width="0.112" stroke-linecap="round" stroke-linejoin="round"/>
<path d="M52.1472 45.9294C49.5712 47.9812 46.1104 49.239 42.298 49.239C35.494 49.239 29.7943 45.2327 28.3114 39.8545" fill="#50C2E7"/>
<path d="M52.1472 45.9294C49.5712 47.9812 46.1104 49.239 42.298 49.239C35.494 49.239 29.7943 45.2327 28.3114 39.8545" stroke="#263238" stroke-width="0.224" stroke-linecap="round" stroke-linejoin="round"/>
<path d="M27.944 37.4824C27.9384 37.3492 27.9362 37.2148 27.9362 37.0792C27.9365 35.6131 28.244 34.1633 28.8389 32.8232" fill="#50C2E7"/>
<path d="M27.944 37.4824C27.9384 37.3492 27.9362 37.2148 27.9362 37.0792C27.9365 35.6131 28.244 34.1633 28.8389 32.8232" stroke="#263238" stroke-width="0.224" stroke-linecap="round" stroke-linejoin="round"/>
<path d="M37.744 25.6543C40.7282 24.8106 43.8878 24.8106 46.872 25.6543" stroke="#263238" stroke-width="0.56" stroke-linecap="round" stroke-linejoin="round"/>
<path d="M56.6227 33.1166C56.6227 33.1166 58.5469 32.4749 58.8381 32.8254C59.1293 33.176 59.1293 37.255 58.8963 38.0133C58.6634 38.7715 57.0886 38.5957 55.9843 37.7803C55.6677 37.558 55.4115 37.2604 55.2386 36.9143C55.0658 36.5682 54.9818 36.1846 54.9942 35.7979" fill="#50C2E7"/>
<path d="M56.6227 33.1166C56.6227 33.1166 58.5469 32.4749 58.8381 32.8254C59.1293 33.176 59.1293 37.255 58.8963 38.0133C58.6634 38.7715 57.0886 38.5957 55.9843 37.7803C55.6677 37.558 55.4115 37.2604 55.2386 36.9143C55.0658 36.5682 54.9818 36.1846 54.9942 35.7979" stroke="#263238" stroke-width="0.112" stroke-linecap="round" stroke-linejoin="round"/>
<path d="M55.4568 35.623L54.2909 35.7978" stroke="#263238" stroke-width="0.112" stroke-linecap="round" stroke-linejoin="round"/>
<path d="M55.1656 36.9053C55.1656 36.9053 54.8744 38.9459 55.2239 39.0042C55.5733 39.0624 56.1568 38.013 56.1568 38.013C56.1568 38.013 55.3403 37.08 55.1656 36.9053Z" fill="#263238" stroke="#263238" stroke-width="0.112" stroke-linecap="round" stroke-linejoin="round"/>
<path d="M54.1049 32.1263C54.2169 32.5463 54.1486 32.9271 53.9616 32.9753C53.7745 33.0234 53.536 32.721 53.4273 32.3033C53.3187 31.8855 53.3836 31.5025 53.5707 31.4543C53.7577 31.4061 53.9974 31.7052 54.1049 32.1263Z" fill="#263238"/>
<path d="M47.9797 26.477C47.9797 26.477 51.6477 22.809 52.3634 23.5247C53.0791 24.2404 52.8114 27.3719 52.8114 27.8199V29.0721" fill="#50C2E7"/>
<path d="M47.9797 26.477C47.9797 26.477 51.6477 22.809 52.3634 23.5247C53.0791 24.2404 52.8114 27.3719 52.8114 27.8199V29.0721" stroke="#263238" stroke-width="0.112" stroke-linecap="round" stroke-linejoin="round"/>
<path d="M52.4845 24.3143C52.4845 24.3143 52.5427 23.3814 52.1339 23.9649C51.7251 24.5484 50.5603 28.5692 50.9097 29.0363C51.2592 29.5033 52.2537 29.2692 52.4845 28.3945C52.7152 27.5198 52.5427 25.0132 52.5427 25.0132" stroke="#263238" stroke-width="0.112" stroke-linecap="round" stroke-linejoin="round"/>
<path d="M32.4061 45.5889L34.4132 51.013H36.6285L37.6186 48.2141" fill="#50C2E7"/>
<path d="M32.4061 45.5889L34.4132 51.013H36.6285L37.6186 48.2141" stroke="#263238" stroke-width="0.112" stroke-linecap="round" stroke-linejoin="round"/>
<path d="M50.9096 46.291L48.9866 51.0129H46.7712L45.78 48.2141" fill="#50C2E7"/>
<path d="M50.9096 46.291L48.9866 51.0129H46.7712L45.78 48.2141" stroke="#263238" stroke-width="0.112" stroke-linecap="round" stroke-linejoin="round"/>
<path d="M41.5577 43.4383V42.306C40.7222 42.2731 40.0976 42.0055 39.684 41.503C39.2703 41.0004 39.0463 40.25 39.012 39.2517L40.7289 38.9594C40.7363 39.3015 40.7791 39.642 40.8566 39.9753C40.9018 40.2028 41.0092 40.4133 41.1668 40.5834C41.238 40.6512 41.3221 40.7039 41.4141 40.7386C41.506 40.7732 41.604 40.789 41.7022 40.785C41.9531 40.785 42.1256 40.7044 42.2196 40.5409C42.3153 40.37 42.3636 40.1767 42.3596 39.9809C42.3723 39.6129 42.2723 39.2499 42.0729 38.9404C41.85 38.6252 41.5864 38.3409 41.2889 38.0948L40.254 37.2055C40.0283 36.996 39.8169 36.7715 39.6212 36.5335C39.4293 36.2989 39.2779 36.034 39.1732 35.7495C39.0569 35.4172 39.0011 35.0667 39.0086 34.7146C39.0086 33.953 39.2259 33.3591 39.6604 32.9327C40.095 32.5064 40.677 32.2648 41.4065 32.2081V31.1362H42.0001V32.2193C42.3782 32.2269 42.7483 32.3293 43.0764 32.5172C43.3425 32.6779 43.5627 32.9043 43.716 33.1746C43.8642 33.4453 43.9706 33.7368 44.0318 34.0393C44.0937 34.3376 44.1333 34.6401 44.1505 34.9442L42.41 35.1996C42.4051 34.9324 42.3807 34.6659 42.3372 34.4022C42.3097 34.2057 42.2326 34.0196 42.1132 33.8612C42.053 33.7938 41.9773 33.742 41.8926 33.7102C41.808 33.6784 41.7169 33.6676 41.6272 33.6786C41.5255 33.6772 41.4251 33.7009 41.3349 33.7476C41.2446 33.7943 41.1673 33.8625 41.1097 33.9463C40.9926 34.114 40.9308 34.3141 40.9328 34.5186C40.9181 34.8392 41.0129 35.1551 41.2016 35.4146C41.3868 35.6494 41.5901 35.8692 41.8097 36.0721L42.8177 36.9479C43.0889 37.1927 43.3398 37.459 43.5681 37.7442C43.7963 38.0302 43.9809 38.3483 44.1158 38.6884C44.2594 39.0662 44.329 39.4681 44.3208 39.8722C44.3261 40.2786 44.2363 40.6805 44.0587 41.046C43.889 41.3947 43.6286 41.6914 43.3049 41.905C42.9563 42.1304 42.5564 42.2641 42.1424 42.2937V43.4383H41.5577Z" fill="#263238"/>
<path opacity="0.35" d="M45.8629 36.9323C47.8769 36.9323 49.5096 35.3513 49.5096 33.401C49.5096 31.4507 47.8769 29.8696 45.8629 29.8696C43.8489 29.8696 42.2162 31.4507 42.2162 33.401C42.2162 35.3513 43.8489 36.9323 45.8629 36.9323Z" fill="white"/>
<path d="M1.79541 51.0122H82.5844" stroke="#263238" stroke-width="0.112" stroke-linecap="round" stroke-linejoin="round"/>
</g>
<defs>
<clipPath id="clip0_351_131">
<rect width="84" height="56" fill="white"/>
</clipPath>
</defs>
</svg>
