<svg width="44" height="44" viewBox="0 0 44 44" fill="none" xmlns="http://www.w3.org/2000/svg">
<path d="M7.71436 27.7144C7.71436 23.9256 9.21945 20.292 11.8985 17.6129C14.5776 14.9338 18.2113 13.4287 22.0001 13.4287C25.7889 13.4287 29.4225 14.9338 32.1016 17.6129C34.7807 20.292 36.2858 23.9256 36.2858 27.7144C36.2858 31.5032 34.7807 35.1369 32.1016 37.816C29.4225 40.4951 25.7889 42.0002 22.0001 42.0002C18.2113 42.0002 14.5776 40.4951 11.8985 37.816C9.21945 35.1369 7.71436 31.5032 7.71436 27.7144Z" stroke="black" stroke-width="2.85714"/>
<path d="M2 16.2857C2 12.4969 3.5051 8.86328 6.18419 6.18419C8.86328 3.5051 12.4969 2 16.2857 2C20.0745 2 23.7082 3.5051 26.3873 6.18419C29.0663 8.86328 30.5714 12.4969 30.5714 16.2857C30.5714 20.0745 29.0663 23.7082 26.3873 26.3873C23.7082 29.0663 20.0745 30.5714 16.2857 30.5714C12.4969 30.5714 8.86328 29.0663 6.18419 26.3873C3.5051 23.7082 2 20.0745 2 16.2857V16.2857Z" stroke="black" stroke-width="2.85714"/>
<path d="M13.4285 16.2857C13.4285 12.4969 14.9336 8.86328 17.6127 6.18419C20.2918 3.5051 23.9254 2 27.7142 2C31.503 2 35.1366 3.5051 37.8157 6.18419C40.4948 8.86328 41.9999 12.4969 41.9999 16.2857C41.9999 20.0745 40.4948 23.7082 37.8157 26.3873C35.1366 29.0663 31.503 30.5714 27.7142 30.5714C23.9254 30.5714 20.2918 29.0663 17.6127 26.3873C14.9336 23.7082 13.4285 20.0745 13.4285 16.2857Z" stroke="black" stroke-width="2.85714"/>
</svg>
